<svg width="12" height="12" viewBox="0 0 12 12" fill="none" xmlns="http://www.w3.org/2000/svg">
<path d="M7.0596 7.69966L9.3546 5.40466C9.44773 5.31098 9.5 5.18425 9.5 5.05216C9.5 4.92006 9.44773 4.79334 9.3546 4.69966C9.30812 4.65279 9.25282 4.6156 9.19189 4.59021C9.13096 4.56483 9.06561 4.55176 8.9996 4.55176C8.9336 4.55176 8.86824 4.56483 8.80732 4.59021C8.74639 4.6156 8.69109 4.65279 8.6446 4.69966L6.3546 6.99966C6.30812 7.04652 6.25282 7.08372 6.19189 7.1091C6.13096 7.13449 6.06561 7.14756 5.9996 7.14756C5.9336 7.14756 5.86824 7.13449 5.80731 7.1091C5.74639 7.08372 5.69108 7.04652 5.6446 6.99966L3.3546 4.69966C3.26111 4.6055 3.13405 4.55235 3.00137 4.55188C2.86869 4.55141 2.74125 4.60367 2.6471 4.69716C2.55295 4.79065 2.49979 4.91771 2.49932 5.05039C2.49886 5.18307 2.55111 5.31051 2.6446 5.40466L4.9396 7.69966C5.22085 7.98056 5.6021 8.13834 5.9996 8.13834C6.3971 8.13834 6.77835 7.98056 7.0596 7.69966Z" fill="#3D4B55"/>
</svg>
