<svg width="12" height="12" viewBox="0 0 12 12" fill="none" xmlns="http://www.w3.org/2000/svg">
<g clip-path="url(#clip0_256_5320)">
<path d="M6.5039 0.499822C6.5039 0.367214 6.55658 0.240037 6.65035 0.146269C6.74411 0.0525003 6.87129 -0.000178079 7.0039 -0.000178079C8.32953 0.00127772 9.60046 0.528529 10.5378 1.4659C11.4752 2.40326 12.0024 3.67419 12.0039 4.99982C12.0039 5.13243 11.9512 5.25961 11.8575 5.35338C11.7637 5.44714 11.6365 5.49982 11.5039 5.49982C11.3713 5.49982 11.2441 5.44714 11.1503 5.35338C11.0566 5.25961 11.0039 5.13243 11.0039 4.99982C11.0027 3.93932 10.5809 2.9226 9.83101 2.17271C9.08112 1.42282 8.0644 1.00101 7.0039 0.999822C6.87129 0.999822 6.74411 0.947143 6.65035 0.853375C6.55658 0.759607 6.5039 0.63243 6.5039 0.499822ZM7.0039 2.99982C7.53433 2.99982 8.04304 3.21054 8.41811 3.58561C8.79318 3.96068 9.0039 4.46939 9.0039 4.99982C9.0039 5.13243 9.05658 5.25961 9.15034 5.35338C9.24411 5.44714 9.37129 5.49982 9.5039 5.49982C9.63651 5.49982 9.76368 5.44714 9.85745 5.35338C9.95122 5.25961 10.0039 5.13243 10.0039 4.99982C10.0031 4.20442 9.68678 3.44182 9.12434 2.87938C8.5619 2.31694 7.7993 2.00062 7.0039 1.99982C6.87129 1.99982 6.74411 2.0525 6.65035 2.14627C6.55658 2.24004 6.5039 2.36721 6.5039 2.49982C6.5039 2.63243 6.55658 2.75961 6.65035 2.85338C6.74411 2.94714 6.87129 2.99982 7.0039 2.99982ZM11.5504 8.36932C11.8402 8.65988 12.0029 9.05348 12.0029 9.46382C12.0029 9.87416 11.8402 10.2678 11.5504 10.5583L11.0954 11.0828C7.0004 15.0033 -2.9646 5.04082 0.895399 0.932822L1.4704 0.432822C1.76128 0.151161 2.15136 -0.00465354 2.55625 -0.000910658C2.96114 0.00283222 3.34827 0.165831 3.6339 0.452822C3.6494 0.468322 4.5759 1.67182 4.5759 1.67182C4.85081 1.96064 5.00385 2.34429 5.0032 2.74302C5.00255 3.14176 4.84826 3.52491 4.5724 3.81282L3.9934 4.54082C4.31382 5.31938 4.78493 6.02695 5.37965 6.62287C5.97438 7.21879 6.68099 7.69133 7.4589 8.01332L8.1914 7.43082C8.47935 7.15518 8.86243 7.00107 9.26105 7.00051C9.65967 6.99995 10.0432 7.15299 10.3319 7.42782C10.3319 7.42782 11.5349 8.35382 11.5504 8.36932ZM10.8624 9.09632C10.8624 9.09632 9.6659 8.17582 9.6504 8.16032C9.54739 8.05819 9.40821 8.00088 9.26315 8.00088C9.11809 8.00088 8.97891 8.05819 8.8759 8.16032C8.8624 8.17432 7.8539 8.97782 7.8539 8.97782C7.78594 9.03192 7.70506 9.06738 7.61922 9.0807C7.53339 9.09403 7.44556 9.08476 7.3644 9.05382C6.35663 8.67861 5.44127 8.09119 4.68032 7.33136C3.91937 6.57153 3.3306 5.65704 2.9539 4.64982C2.9205 4.56755 2.90961 4.47787 2.92235 4.38999C2.93509 4.30212 2.97101 4.21922 3.0264 4.14982C3.0264 4.14982 3.8299 3.14082 3.8434 3.12782C3.94553 3.02481 4.00284 2.88563 4.00284 2.74057C4.00284 2.59551 3.94553 2.45633 3.8434 2.35332C3.8279 2.33832 2.9074 1.14082 2.9074 1.14082C2.80285 1.04708 2.6664 0.99687 2.52602 1.0005C2.38564 1.00412 2.25197 1.0613 2.1524 1.16032L1.5774 1.66032C-1.2436 5.05232 7.3919 13.2088 10.3644 10.3998L10.8199 9.87482C10.9266 9.77595 10.9908 9.63945 10.9987 9.49417C11.0066 9.34889 10.9577 9.20622 10.8624 9.09632Z" fill="#3D4B55"/>
</g>
<defs>
<clipPath id="clip0_256_5320">
<rect width="12" height="12" fill="white"/>
</clipPath>
</defs>
</svg>
