<svg width="76" height="68" viewBox="0 0 76 68" fill="none" xmlns="http://www.w3.org/2000/svg">
<g clip-path="url(#clip0_157_505)">
<path d="M72.3977 63.6321C71.2015 63.6321 70.9809 63.3065 70.9809 62.1559C71.0183 41.9621 70.9809 21.7647 71.0445 1.57096C71.0445 0.219665 70.6407 0.00390625 69.437 0.00390625C48.1341 0.0417576 26.8262 0.0417576 5.51337 0.00390625C4.22368 0.00390625 3.82743 0.223474 3.83116 1.6429C3.88724 21.8404 3.86109 42.0341 3.89473 62.2316C3.89473 63.299 3.68166 63.6397 2.55272 63.6321H-0.0117188V68.0152H75.0145V63.6321H72.3977ZM64.9586 63.6321C55.785 63.5602 46.6114 63.5716 37.4378 63.5564C28.0275 63.5716 18.6183 63.5905 9.21047 63.6132C9.05028 63.6191 8.89014 63.6 8.73571 63.5564L8.66471 63.5299C8.56789 63.4924 8.48629 63.4231 8.43294 63.3331C8.41702 63.3078 8.40327 63.2812 8.39183 63.2536C8.37685 63.2253 8.36671 63.1945 8.36189 63.1628C8.35833 63.1288 8.35833 63.0945 8.36189 63.0606C8.35063 62.9751 8.35063 62.8886 8.36189 62.8032C8.36189 62.7767 8.36189 62.7501 8.36189 62.7236C8.36189 62.6971 8.36189 62.6366 8.36189 62.595C8.36189 62.5534 8.36189 62.5079 8.36189 62.4625C8.36189 62.3149 8.36189 62.1635 8.36189 62.0121V43.6125C8.36189 35.8807 8.36189 28.1477 8.36189 20.4134C8.36189 18.9485 8.36189 17.4799 8.36189 16.0151C8.36562 15.9963 8.36562 15.977 8.36189 15.9583C8.36189 15.5798 8.36189 15.2013 8.36189 14.7925C8.36189 14.7054 8.36189 14.6145 8.36189 14.5275C8.36189 11.7391 8.36189 8.94819 8.36189 6.15476C8.36189 6.02985 8.36189 5.91632 8.36189 5.80655C8.36189 5.69678 8.36189 5.70434 8.36189 5.65514C8.36189 5.60593 8.36192 5.49996 8.39557 5.43183C8.39395 5.42307 8.39395 5.41406 8.39557 5.40531C8.39557 5.34853 8.41799 5.29178 8.43294 5.24257L8.45909 5.17063C8.47286 5.12387 8.493 5.0793 8.51891 5.03816C8.54077 4.99833 8.56575 4.96033 8.59366 4.92459C8.61563 4.89426 8.64072 4.86636 8.66845 4.84132C8.69449 4.81541 8.72333 4.79259 8.75442 4.77322C8.87637 4.68851 9.01566 4.63285 9.16188 4.61044C9.23842 4.59457 9.3158 4.58321 9.39364 4.57638C9.53389 4.56044 9.67494 4.55284 9.81606 4.55365H9.91326C16.1075 4.63692 22.3018 4.61424 28.496 4.62938H46.3834C52.8094 4.62938 59.2354 4.60666 65.6614 4.57259C66.3268 4.57259 66.6072 4.78834 66.5324 5.46588C66.5194 5.70164 66.5194 5.93795 66.5324 6.1737C66.5324 24.7941 66.5436 43.4119 66.5661 62.0272C66.5735 63.3217 66.2259 63.6397 64.9624 63.6283L64.9586 63.6321Z" fill="#231F20"/>
<path d="M37.4411 63.5526C28.0307 63.5677 18.6216 63.5866 9.21375 63.6094C8.54461 63.6094 8.27549 63.3898 8.35399 62.7198C8.36708 62.4828 8.36708 62.2453 8.35399 62.0082C8.35399 43.3879 8.34274 24.7688 8.32031 6.15095C8.32031 4.85264 8.65303 4.52334 9.92028 4.54226C16.1108 4.62554 22.3087 4.60285 28.503 4.61799C28.503 9.4819 28.503 14.3496 28.4806 19.2135C28.4806 20.084 28.5479 20.5118 29.602 20.2052C32.1889 19.4481 34.8094 18.8425 37.4149 18.1725L37.7364 18.4413C37.2093 18.9485 37.4448 19.6034 37.4411 20.1901C37.4361 34.6417 37.4361 49.0959 37.4411 63.5526Z" fill="#E4A861"/>
<path d="M66.5365 6.16219C66.5234 5.92643 66.5234 5.69012 66.5365 5.45437C66.6112 4.77683 66.3309 4.5573 65.6655 4.56108C59.2395 4.59515 52.8135 4.60273 46.3875 4.61787C46.3875 8.08127 46.3875 11.5484 46.3875 15.0118C46.3875 16.4123 46.3875 17.8116 46.3875 19.2095C46.3875 19.2663 46.3875 19.3269 46.3875 19.3799C46.3875 19.4329 46.3875 19.4859 46.3875 19.5351C46.3916 19.6057 46.3916 19.6765 46.3875 19.7471C46.3875 19.7811 46.3875 19.8114 46.3875 19.8417C46.3875 19.872 46.3875 19.8984 46.3875 19.9212C46.375 20.0206 46.3323 20.1138 46.2654 20.1877C46.1984 20.2616 46.1105 20.3126 46.0137 20.3338H45.9314C45.684 20.3399 45.4374 20.3027 45.2024 20.224C42.7539 19.5275 40.2605 19.0165 37.7821 18.4298L37.6886 18.5283C37.6654 18.5557 37.6442 18.5848 37.6251 18.6153L37.5989 18.6569L37.5765 18.6986C37.5605 18.7264 37.5467 18.7555 37.5353 18.7856C37.5353 18.8197 37.5129 18.85 37.5017 18.8802C37.4905 18.9105 37.5017 18.9371 37.4755 18.9673C37.4734 18.9963 37.4734 19.0254 37.4755 19.0544C37.4457 19.2881 37.4457 19.5247 37.4755 19.7584V19.8947V19.9174C37.4755 20.0006 37.4755 20.0839 37.4755 20.1634C37.4755 27.3905 37.4755 34.6176 37.4755 41.8447C37.4755 49.0718 37.4755 56.2989 37.4755 63.526C46.6491 63.526 55.8227 63.526 64.9963 63.6017C66.2598 63.6017 66.6075 63.2951 66.6038 61.9892C66.5365 43.389 66.514 24.78 66.5365 6.16219ZM53.12 55.7475C53.0957 56.0751 53.0957 56.4041 53.12 56.7317C53.12 59.0633 53.12 59.0633 50.7649 59.0633C49.707 59.0633 49.1762 59.0633 48.8958 58.7945L48.8472 58.7415C48.8314 58.7229 48.8176 58.7026 48.8061 58.681C48.6304 58.3857 48.6304 57.8596 48.6304 56.9209C48.6304 55.721 48.6304 55.123 48.9332 54.8202C48.9512 54.8004 48.9713 54.7826 48.993 54.7671C49.0376 54.7337 49.0852 54.7046 49.1351 54.6801L49.221 54.646C49.8218 54.5198 50.4369 54.4777 51.049 54.5211C51.3265 54.5419 51.6052 54.5419 51.8826 54.5211C52.8621 54.3621 53.2696 54.7406 53.12 55.7437V55.7475ZM59.7292 59.0633C57.5872 59.0633 57.5872 59.0633 57.5872 56.7922C57.5872 54.5211 57.5872 54.5211 59.8301 54.5211C62.073 54.5211 62.0432 54.5211 62.0432 56.7127C62.0619 59.0595 62.0618 59.0595 59.7292 59.0595V59.0633Z" fill="#D5904C"/>
<path d="M46.3902 4.61792C46.3902 9.48182 46.3902 14.3457 46.4127 19.2096C46.4127 20.1786 46.3043 20.5609 45.1716 20.2392C42.7268 19.5427 40.2259 19.0317 37.7512 18.445L37.4297 18.1725V4.61792H46.3902Z" fill="#DFC191"/>
<path d="M37.4422 4.61792V18.1725C34.8254 18.8424 32.2087 19.4632 29.6293 20.2051C28.5639 20.5117 28.5078 20.084 28.5078 19.2134C28.534 14.3495 28.5078 9.48182 28.5303 4.61792H37.4422Z" fill="#F3DCB3"/>
<path d="M50.7563 59.0593C48.6367 59.0593 48.6367 59.0593 48.6367 56.9169C48.6367 54.5172 48.6368 54.5171 51.0591 54.5171C51.3366 54.538 51.6152 54.538 51.8927 54.5171C52.8609 54.3695 53.2684 54.748 53.1189 55.7511C53.0946 56.0787 53.0946 56.4077 53.1189 56.7353C53.1114 59.0593 53.1114 59.0593 50.7563 59.0593Z" fill="#231F20"/>
<path d="M59.7279 59.0597C57.5859 59.0597 57.5859 59.0597 57.5859 56.7887C57.5859 54.5176 57.5859 54.5176 59.8289 54.5176C62.0718 54.5176 62.0419 54.5176 62.0419 56.7092C62.0606 59.0598 62.0606 59.0597 59.7279 59.0597Z" fill="#231F20"/>
</g>
<defs>
<clipPath id="clip0_157_505">
<rect width="76" height="68" fill="white"/>
</clipPath>
</defs>
</svg>
