<svg width="80" height="72" viewBox="0 0 80 72" fill="none" xmlns="http://www.w3.org/2000/svg">
<g clip-path="url(#clip0_157_535)">
<path d="M38.4814 71.9835C25.9664 71.9835 13.4513 71.989 0.936226 72C0.220902 72 -0.0320535 71.8842 0.00319441 71.1043C0.0757635 69.5052 0.0259998 69.4493 1.60801 69.5217C2.35236 69.5527 2.5286 69.3624 2.52652 68.6094C2.49957 57.5976 2.51408 46.5857 2.4892 35.5739C2.4892 34.8871 2.65508 34.7464 3.31857 34.7464C8.59331 34.7774 13.868 34.7464 19.1428 34.7795C19.7648 34.7795 19.8871 34.5995 19.8871 34.0141C19.8685 22.9774 19.8871 11.9387 19.8519 0.901996C19.8519 0.124155 20.0592 0.00415039 20.7849 0.00415039C32.6019 0.0289751 44.4203 0.0289751 56.2401 0.00415039C56.9078 0.00415039 57.1338 0.120025 57.1317 0.858561C57.1047 11.8952 57.1193 22.934 57.0985 33.9706C57.0985 34.5912 57.2188 34.7815 57.8823 34.7774C63.157 34.7464 68.4317 34.7774 73.7065 34.7443C74.3472 34.7443 74.5068 34.885 74.5048 35.5366C74.4819 46.5733 74.5047 57.61 74.4716 68.6487C74.4716 69.3583 74.6499 69.5424 75.3486 69.5196C76.97 69.4658 76.9265 69.5051 76.9908 71.1415C77.0219 71.8842 76.7668 71.9979 76.0992 71.9979C63.562 71.9773 51.0228 71.9725 38.4814 71.9835ZM55.8731 37.2661H50.9177C47.4821 37.2661 44.0464 37.2661 40.6108 37.2247C39.9079 37.2247 39.7234 37.3944 39.7255 38.106C39.7504 48.2828 39.7559 58.4588 39.7421 68.6342C39.7493 68.763 39.7493 68.8922 39.7421 69.0211C39.6985 69.3872 39.8478 69.5093 40.221 69.5072C45.4405 69.4906 50.6585 69.4803 55.8752 69.4762C60.9654 69.4762 66.0536 69.4762 71.1417 69.5175C71.8425 69.5175 72.0333 69.35 72.0312 68.6363C72.0063 58.4595 72.0008 48.2841 72.0146 38.1101C72.0073 37.9813 72.0073 37.8521 72.0146 37.7233C72.0561 37.355 71.9006 37.233 71.5315 37.235C67.9673 37.2537 64.401 37.2578 60.8369 37.2661H55.8731ZM21.1208 37.2661H16.1654C12.7298 37.2661 9.29412 37.2661 5.85849 37.2247C5.1556 37.2247 4.97106 37.3944 4.97314 38.106C4.99802 48.2828 5.00355 58.4588 4.98973 68.6342C4.99698 68.763 4.99698 68.8922 4.98973 69.0211C4.94619 69.3872 5.09547 69.5093 5.46868 69.5072C10.6881 69.4906 15.9062 69.4803 21.1229 69.4762C26.211 69.4762 31.3012 69.4762 36.3894 69.5175C37.0902 69.5175 37.2809 69.35 37.2788 68.6363C37.254 58.4595 37.2484 48.2841 37.2623 38.1101C37.255 37.9813 37.255 37.8521 37.2623 37.7233C37.3037 37.355 37.1482 37.233 36.7792 37.235C33.2129 37.2537 29.6487 37.2578 26.0845 37.2661H21.1208ZM38.498 2.52597H33.5426C30.107 2.52597 26.6692 2.52593 23.2357 2.48455C22.5328 2.48455 22.3483 2.65419 22.3483 3.36583C22.3731 13.5412 22.3794 23.7173 22.3669 33.8941C22.3742 34.0229 22.3742 34.1521 22.3669 34.2809C22.3234 34.6492 22.4727 34.7691 22.8438 34.7691C28.0619 34.7512 33.2806 34.7402 38.5001 34.736C43.5882 34.736 48.6763 34.736 53.7645 34.7774C54.4653 34.7774 54.6581 34.6119 54.656 33.8961C54.6312 23.7221 54.6256 13.5467 54.6395 3.36997C54.6395 3.24171 54.627 3.11141 54.6395 2.98315C54.6809 2.61491 54.5254 2.49491 54.1564 2.49491C50.5922 2.51353 47.028 2.51769 43.4638 2.52597H38.498Z" fill="#231F20"/>
<path d="M38.4956 34.7342C33.2775 34.7425 28.0587 34.7535 22.8393 34.7673C22.4681 34.7673 22.3189 34.6473 22.3624 34.2791C22.3697 34.1502 22.3697 34.021 22.3624 33.8922C22.3624 23.7168 22.3562 13.5407 22.3438 3.36397C22.3438 2.65233 22.5283 2.47442 23.2312 2.48269C26.6647 2.52821 30.1024 2.51583 33.5381 2.52411C33.5381 5.18449 33.5381 7.84277 33.5256 10.5032C33.5256 10.9769 33.5629 11.2107 34.1476 11.0452C35.5824 10.6314 37.0359 10.2983 38.481 9.93218L38.6594 10.0811C38.367 10.3583 38.4976 10.7142 38.4956 11.0348C38.4928 18.9305 38.4928 26.8303 38.4956 34.7342Z" fill="#E4A861"/>
<path d="M21.1185 69.4762C15.9004 69.4845 10.6824 69.4948 5.4643 69.5072C5.09108 69.5072 4.9418 69.3873 4.98534 69.0211C4.9926 68.8923 4.9926 68.7631 4.98534 68.6342C4.98534 58.4575 4.97981 48.2814 4.96875 38.1061C4.96875 37.3944 5.15121 37.2144 5.8541 37.2248C9.28973 37.2703 12.7254 37.2579 16.161 37.2661C16.161 39.9265 16.161 42.5849 16.1486 45.2432C16.1486 45.719 16.1879 45.9527 16.7706 45.7852C18.2054 45.3714 19.6588 45.0404 21.1061 44.6743L21.2823 44.8232C20.992 45.0984 21.1206 45.4562 21.1206 45.7769C21.1178 53.6808 21.1171 61.5806 21.1185 69.4762Z" fill="#E4A861"/>
<path d="M55.8724 69.476C50.6543 69.4843 45.4363 69.4946 40.2182 69.507C39.845 69.507 39.6957 69.387 39.7392 69.0209C39.7465 68.892 39.7465 68.7628 39.7392 68.634C39.7392 58.4572 39.7337 48.2812 39.7227 38.1058C39.7227 37.3942 39.9051 37.2142 40.608 37.2245C44.0436 37.27 47.4793 37.2576 50.9149 37.2659C50.9149 39.9263 50.9149 42.5846 50.9024 45.2429C50.9024 45.7187 50.9418 45.9525 51.5245 45.7849C52.9572 45.3712 54.4107 45.0402 55.8579 44.674L56.0341 44.823C55.7438 45.0981 55.8724 45.456 55.8724 45.7766C55.871 53.6805 55.871 61.5803 55.8724 69.476Z" fill="#E4A861"/>
<path d="M38.4969 34.7341C38.4969 26.8329 38.4969 18.9331 38.4969 11.0347C38.4969 10.7141 38.3684 10.3582 38.6607 10.081C40.0333 10.4017 41.4204 10.683 42.7764 11.0616C43.3984 11.2374 43.4668 11.0285 43.4648 10.501C43.4461 7.84264 43.4523 5.18437 43.4523 2.52398C47.0165 2.52398 50.5807 2.51154 54.1449 2.49292C54.5139 2.49292 54.6694 2.61293 54.628 2.98116C54.6155 3.10942 54.628 3.23973 54.628 3.36799C54.628 13.5448 54.6335 23.7201 54.6446 33.8941C54.6446 34.6099 54.4538 34.7816 53.753 34.7754C48.6732 34.7382 43.585 34.7423 38.4969 34.7341ZM45.8824 32.2785C47.1886 32.2785 47.1886 32.2785 47.1886 31.0062C47.1751 30.8265 47.1751 30.646 47.1886 30.4663C47.2715 29.9201 47.0455 29.7112 46.5085 29.7939C46.3546 29.8053 46.2001 29.8053 46.0462 29.7939C44.7026 29.7939 44.7026 29.7939 44.7026 31.1055C44.7067 32.2785 44.7067 32.2785 45.8824 32.2785ZM50.8585 32.2785C52.1523 32.2785 52.1523 32.2785 52.1523 30.9938C52.1523 29.796 52.1523 29.796 50.9249 29.796C49.6974 29.796 49.6808 29.796 49.6808 31.0372C49.6808 32.2785 49.6705 32.2785 50.8585 32.2785Z" fill="#D5904C"/>
<path d="M21.1196 69.4762C21.1196 61.5765 21.123 53.6767 21.1299 45.7769C21.1299 45.4562 21.0014 45.0984 21.2917 44.8232C22.6663 45.1439 24.0513 45.4252 25.4094 45.8038C26.0314 45.9797 26.0999 45.7707 26.0957 45.2432C26.0791 42.5849 26.0957 39.9245 26.0833 37.2662C29.6475 37.2662 33.2116 37.2537 36.7779 37.2351C37.147 37.2351 37.3025 37.3551 37.261 37.7233C37.2538 37.8522 37.2538 37.9813 37.261 38.1102C37.261 48.2856 37.2665 58.461 37.2776 68.6363C37.2776 69.35 37.0889 69.5238 36.3881 69.5176C31.2979 69.4783 26.2077 69.4845 21.1196 69.4762ZM28.5444 64.5382C27.3315 64.5382 27.3315 64.5382 27.3294 65.4402C27.3294 67.0207 27.3294 67.0206 28.3267 67.0206C29.8113 67.0206 29.8113 67.0207 29.8113 66.0028C29.8113 64.5382 29.8113 64.5382 28.5444 64.5382ZM32.2952 65.798C32.2952 67.0186 32.2952 67.0186 33.1888 67.0206C34.7771 67.0206 34.7771 67.0207 34.7771 66.0298C34.7771 64.5382 34.7771 64.5382 33.7673 64.5382C32.2952 64.5382 32.2952 64.5382 32.2952 65.798Z" fill="#D5904C"/>
<path d="M55.8735 69.476C55.8735 61.5762 55.8769 53.6764 55.8838 45.7766C55.8838 45.456 55.7553 45.0981 56.0456 44.823C57.4202 45.1436 58.8052 45.425 60.1633 45.8036C60.7853 45.9794 60.8538 45.7705 60.8496 45.243C60.833 42.5846 60.8496 39.9242 60.8372 37.2659C64.4014 37.2659 67.9676 37.2535 71.5318 37.2349C71.9009 37.2349 72.0564 37.3549 72.0149 37.7231C72.0077 37.852 72.0077 37.9811 72.0149 38.1099C72.0149 48.2853 72.0204 58.4607 72.0315 68.6361C72.0315 69.3498 71.8428 69.5236 71.142 69.5174C66.0518 69.4781 60.972 69.4843 55.8735 69.476ZM64.5652 65.7792C64.5652 64.5379 64.5652 64.5379 63.6135 64.5379C62.0833 64.5379 62.0833 64.538 62.0833 65.5082C62.0833 67.0204 62.0833 67.0204 63.0744 67.0204C64.5652 67.0204 64.5652 67.0204 64.5652 65.7792ZM68.2703 64.5379C67.0491 64.5379 67.0491 64.5379 67.0491 65.4316C67.0491 67.0204 67.0491 67.0204 68.0381 67.0204C69.531 67.0204 69.531 67.0204 69.531 66.0109C69.531 64.538 69.531 64.5379 68.2703 64.5379Z" fill="#D5904C"/>
<path d="M43.4621 2.52393C43.4621 5.18431 43.4621 7.84259 43.4746 10.5009C43.4746 11.0284 43.4144 11.2374 42.7862 11.0615C41.4302 10.6829 40.0431 10.4016 38.6705 10.0809L38.4922 9.932V2.526L43.4621 2.52393Z" fill="#DFC191"/>
<path d="M26.0851 37.2661C26.0851 39.9244 26.0851 42.5848 26.0975 45.2431C26.0975 45.7707 26.0374 45.9796 25.4112 45.8038C24.0531 45.4252 22.6681 45.1438 21.2934 44.8232L21.1172 44.6742C21.1172 42.2056 21.1172 39.7362 21.1172 37.2661H26.0851Z" fill="#DFC191"/>
<path d="M60.8351 37.2661C60.8351 39.9244 60.8351 42.5848 60.8475 45.2431C60.8475 45.7707 60.7894 45.9796 60.1612 45.8038C58.8031 45.4252 57.4181 45.1438 56.0434 44.8232L55.8672 44.6742C55.8672 42.2056 55.8672 39.7362 55.8672 37.2661H60.8351Z" fill="#DFC191"/>
<path d="M38.4945 2.526V9.932C37.0431 10.2982 35.5917 10.6375 34.1611 11.045C33.5702 11.2105 33.5391 10.9767 33.5391 10.503C33.5536 7.84259 33.5494 5.18431 33.5515 2.52393L38.4945 2.526Z" fill="#F3DCB3"/>
<path d="M21.1216 37.2661C21.1216 39.7362 21.1216 42.2056 21.1216 44.6742C19.6702 45.0404 18.2188 45.3796 16.7861 45.7851C16.1972 45.9527 16.1641 45.7189 16.1641 45.2431C16.1806 42.5848 16.1641 39.9265 16.1765 37.2661H21.1216Z" fill="#F3DCB3"/>
<path d="M55.8734 37.2661C55.8734 39.7362 55.8734 42.2056 55.8734 44.6742C54.422 45.0404 52.9706 45.3796 51.54 45.7851C50.9491 45.9527 50.918 45.7189 50.918 45.2431C50.9346 42.5848 50.918 39.9265 50.9304 37.2661H55.8734Z" fill="#F3DCB3"/>
<path d="M45.8826 32.2783C44.707 32.2783 44.707 32.2783 44.707 31.1074C44.707 29.7958 44.707 29.7958 46.0506 29.7958C46.2045 29.8072 46.3591 29.8072 46.513 29.7958C47.05 29.713 47.276 29.922 47.193 30.4681C47.1795 30.6479 47.1795 30.8284 47.193 31.0081C47.1889 32.2783 47.1889 32.2783 45.8826 32.2783Z" fill="#231F20"/>
<path d="M50.8599 32.2784C49.6719 32.2784 49.6719 32.2784 49.6719 31.0371C49.6719 29.7959 49.6719 29.7959 50.9159 29.7959C52.16 29.7959 52.1434 29.7959 52.1434 30.9937C52.1537 32.2784 52.1537 32.2784 50.8599 32.2784Z" fill="#231F20"/>
<path d="M28.5433 64.5381C29.8102 64.5381 29.8102 64.5381 29.8102 66.0028C29.8102 67.0206 29.8102 67.0206 28.3256 67.0206C27.3262 67.0206 27.3262 67.0206 27.3283 65.4401C27.3304 64.5381 27.3304 64.5381 28.5433 64.5381Z" fill="#231F20"/>
<path d="M32.2969 65.798C32.2969 64.5381 32.2969 64.5381 33.769 64.5381C34.7787 64.5381 34.7787 64.5381 34.7787 66.0297C34.7787 67.0227 34.7787 67.0226 33.1905 67.0206C32.2969 67.0185 32.2969 67.0185 32.2969 65.798Z" fill="#231F20"/>
<path d="M64.5639 65.7793C64.5639 67.0206 64.5639 67.0206 63.0731 67.0206C62.082 67.0206 62.082 67.0206 62.082 65.5084C62.082 64.5381 62.082 64.5381 63.6122 64.5381C64.5639 64.5381 64.5639 64.5381 64.5639 65.7793Z" fill="#231F20"/>
<path d="M68.2683 64.5381C69.5289 64.5381 69.5289 64.5381 69.5289 66.011C69.5289 67.0206 69.5289 67.0206 68.0361 67.0206C67.045 67.0206 67.045 67.0206 67.0471 65.4318C67.0471 64.5381 67.0471 64.5381 68.2683 64.5381Z" fill="#231F20"/>
</g>
<defs>
<clipPath id="clip0_157_535">
<rect width="80" height="72" fill="white"/>
</clipPath>
</defs>
</svg>
