<svg width="36" height="36" viewBox="0 0 36 36" fill="none" xmlns="http://www.w3.org/2000/svg">
<circle cx="18" cy="18" r="18" fill="#1D996C"/>
<path d="M17.7178 23.2842H18.9046C18.9046 23.2842 19.2633 23.2445 19.4458 23.0471C19.6146 22.8659 19.6084 22.5258 19.6084 22.5258C19.6084 22.5258 19.5848 20.9331 20.3247 20.6984C21.0534 20.4676 21.9894 22.2378 22.9812 22.9193C23.731 23.4345 24.3008 23.3215 24.3008 23.3215L26.9537 23.2842C26.9537 23.2842 28.3415 23.1986 27.6836 22.1074C27.6302 22.018 27.3 21.3005 25.711 19.8258C24.0476 18.2815 24.271 18.5322 26.2746 15.862C27.4949 14.2358 27.9828 13.2427 27.8301 12.8182C27.6848 12.4135 26.7873 12.5202 26.7873 12.5202L23.803 12.5376C23.803 12.5376 23.5821 12.5078 23.417 12.6059C23.2568 12.7027 23.1538 12.9262 23.1538 12.9262C23.1538 12.9262 22.6808 14.1849 22.0502 15.255C20.7207 17.5131 20.1881 17.6322 19.9709 17.492C19.4657 17.1655 19.5923 16.1786 19.5923 15.4784C19.5923 13.2899 19.9237 12.3775 18.9455 12.1416C18.6203 12.0634 18.3819 12.0113 17.5514 12.0026C16.4863 11.9914 15.5839 12.0063 15.0737 12.2558C14.7335 12.4222 14.4716 12.7933 14.6317 12.8145C14.8291 12.8405 15.276 12.9349 15.5131 13.2576C15.8197 13.6735 15.8086 14.6095 15.8086 14.6095C15.8086 14.6095 15.9848 17.1853 15.3977 17.5056C14.9942 17.7253 14.4418 17.2772 13.2563 15.2277C12.6492 14.1787 12.1899 13.018 12.1899 13.018C12.1899 13.018 12.1018 12.802 11.9441 12.6866C11.753 12.5463 11.4848 12.5016 11.4848 12.5016L8.64704 12.519C8.64704 12.519 8.22124 12.5314 8.06483 12.7164C7.92579 12.8815 8.05366 13.2216 8.05366 13.2216C8.05366 13.2216 10.2757 18.4193 12.7908 21.0398C15.0985 23.4419 17.7178 23.2842 17.7178 23.2842Z" fill="#FCFCFC"/>
</svg>
