<svg width="48" height="48" viewBox="0 0 48 48" fill="none" xmlns="http://www.w3.org/2000/svg">
<rect width="48" height="48" rx="10" fill="#1D996C"/>
<g clip-path="url(#clip0_2013_61)">
<path d="M24 24C25.1867 24 26.3467 23.6481 27.3334 22.9888C28.3201 22.3295 29.0892 21.3925 29.5433 20.2961C29.9974 19.1997 30.1162 17.9933 29.8847 16.8295C29.6532 15.6656 29.0818 14.5965 28.2426 13.7574C27.4035 12.9182 26.3344 12.3468 25.1705 12.1153C24.0067 11.8838 22.8003 12.0026 21.7039 12.4567C20.6075 12.9109 19.6705 13.6799 19.0112 14.6666C18.3519 15.6533 18 16.8133 18 18C18.0016 19.5908 18.6342 21.116 19.7591 22.2409C20.884 23.3658 22.4092 23.9984 24 24ZM24 14C24.7911 14 25.5645 14.2346 26.2223 14.6741C26.8801 15.1136 27.3928 15.7384 27.6955 16.4693C27.9983 17.2002 28.0775 18.0044 27.9231 18.7804C27.7688 19.5563 27.3878 20.269 26.8284 20.8284C26.269 21.3878 25.5563 21.7688 24.7804 21.9231C24.0044 22.0775 23.2002 21.9983 22.4693 21.6955C21.7384 21.3928 21.1136 20.8801 20.6741 20.2223C20.2346 19.5645 20 18.7911 20 18C20 16.9391 20.4214 15.9217 21.1716 15.1716C21.9217 14.4214 22.9391 14 24 14Z" fill="#FCFCFC"/>
<path d="M24 26C21.6139 26.0026 19.3262 26.9517 17.639 28.639C15.9517 30.3262 15.0026 32.6139 15 35C15 35.2652 15.1054 35.5196 15.2929 35.7071C15.4804 35.8946 15.7348 36 16 36C16.2652 36 16.5196 35.8946 16.7071 35.7071C16.8946 35.5196 17 35.2652 17 35C17 33.1435 17.7375 31.363 19.0503 30.0503C20.363 28.7375 22.1435 28 24 28C25.8565 28 27.637 28.7375 28.9497 30.0503C30.2625 31.363 31 33.1435 31 35C31 35.2652 31.1054 35.5196 31.2929 35.7071C31.4804 35.8946 31.7348 36 32 36C32.2652 36 32.5196 35.8946 32.7071 35.7071C32.8946 35.5196 33 35.2652 33 35C32.9974 32.6139 32.0483 30.3262 30.361 28.639C28.6738 26.9517 26.3861 26.0026 24 26Z" fill="#FCFCFC"/>
</g>
<defs>
<clipPath id="clip0_2013_61">
<rect width="24" height="24" fill="white" transform="translate(12 12)"/>
</clipPath>
</defs>
</svg>
