<svg width="12" height="12" viewBox="0 0 12 12" fill="none" xmlns="http://www.w3.org/2000/svg">
<path d="M7.0596 7.6999L9.3546 5.4049C9.44773 5.31122 9.5 5.18449 9.5 5.0524C9.5 4.92031 9.44773 4.79358 9.3546 4.6999C9.30812 4.65304 9.25282 4.61584 9.19189 4.59046C9.13096 4.56507 9.06561 4.552 8.9996 4.552C8.9336 4.552 8.86824 4.56507 8.80732 4.59046C8.74639 4.61584 8.69109 4.65304 8.6446 4.6999L6.3546 6.9999C6.30812 7.04677 6.25282 7.08396 6.19189 7.10935C6.13096 7.13473 6.06561 7.1478 5.9996 7.1478C5.9336 7.1478 5.86824 7.13473 5.80731 7.10935C5.74639 7.08396 5.69108 7.04677 5.6446 6.9999L3.3546 4.6999C3.26111 4.60575 3.13405 4.55259 3.00137 4.55212C2.86869 4.55165 2.74125 4.60391 2.6471 4.6974C2.55295 4.79089 2.49979 4.91795 2.49932 5.05063C2.49886 5.18332 2.55111 5.31075 2.6446 5.4049L4.9396 7.6999C5.22085 7.9808 5.6021 8.13858 5.9996 8.13858C6.3971 8.13858 6.77835 7.9808 7.0596 7.6999Z" fill="white"/>
</svg>
