<svg width="12" height="12" viewBox="0 0 12 12" fill="none" xmlns="http://www.w3.org/2000/svg">
<g clip-path="url(#clip0_252_1715)">
<path d="M9.5 2.49776H8.45C8.33395 1.9341 8.02691 1.42763 7.58063 1.06373C7.13434 0.699821 6.5761 0.500726 6 0.5H2.5C1.8372 0.500793 1.20178 0.764145 0.73311 1.23229C0.264441 1.70043 0.000793929 2.33514 0 2.9972L0 7.49216C0.0012569 7.93947 0.152769 8.37342 0.430268 8.7245C0.707767 9.07558 1.0952 9.32348 1.5305 9.42848C1.48338 9.67843 1.49143 9.93563 1.5541 10.1821C1.61676 10.4287 1.73252 10.6585 1.8933 10.8558C2.05408 11.053 2.25601 11.2128 2.48499 11.324C2.71398 11.4352 2.9645 11.4952 3.21908 11.4997C3.47367 11.5043 3.72617 11.4532 3.95898 11.3502C4.19179 11.2472 4.39929 11.0947 4.56701 10.9034C4.73472 10.712 4.85861 10.4864 4.93003 10.2423C5.00145 9.99813 5.01867 9.74138 4.9805 9.48991H7.0215C7.00864 9.57255 7.00178 9.65601 7.001 9.73963C7.001 10.2032 7.18537 10.6479 7.51356 10.9757C7.84175 11.3035 8.28687 11.4877 8.751 11.4877C9.21513 11.4877 9.66025 11.3035 9.98844 10.9757C10.3166 10.6479 10.501 10.2032 10.501 9.73963C10.5004 9.6352 10.4902 9.53104 10.4705 9.42848C10.9056 9.32329 11.2928 9.07531 11.5701 8.72424C11.8474 8.37318 11.9988 7.93933 12 7.49216V4.99496C11.9992 4.3329 11.7356 3.69819 11.2669 3.23005C10.7982 2.7619 10.1628 2.49855 9.5 2.49776ZM11 4.99496V5.4944H8.5V3.49664H9.5C9.89782 3.49664 10.2794 3.6545 10.5607 3.93549C10.842 4.21647 11 4.59758 11 4.99496ZM1 7.49216V2.9972C1 2.59982 1.15804 2.21872 1.43934 1.93773C1.72064 1.65674 2.10218 1.49888 2.5 1.49888H6C6.39782 1.49888 6.77936 1.65674 7.06066 1.93773C7.34196 2.21872 7.5 2.59982 7.5 2.9972V8.49103H2C1.73478 8.49103 1.48043 8.3858 1.29289 8.19847C1.10536 8.01114 1 7.75707 1 7.49216ZM4 9.73963C4 9.93832 3.92098 10.1289 3.78033 10.2694C3.63968 10.4099 3.44891 10.4888 3.25 10.4888C3.05109 10.4888 2.86032 10.4099 2.71967 10.2694C2.57902 10.1289 2.5 9.93832 2.5 9.73963C2.50031 9.65427 2.51606 9.56967 2.5465 9.48991H3.9535C3.98394 9.56967 3.99969 9.65427 4 9.73963ZM8.75 10.4888C8.55109 10.4888 8.36032 10.4099 8.21967 10.2694C8.07902 10.1289 8 9.93832 8 9.73963C8.00022 9.65427 8.01597 9.56965 8.0465 9.48991H9.4535C9.48403 9.56965 9.49978 9.65427 9.5 9.73963C9.5 9.93832 9.42098 10.1289 9.28033 10.2694C9.13968 10.4099 8.94891 10.4888 8.75 10.4888ZM10 8.49103H8.5V6.49328H11V7.49216C11 7.75707 10.8946 8.01114 10.7071 8.19847C10.5196 8.3858 10.2652 8.49103 10 8.49103Z" fill="#7998CE"/>
</g>
<defs>
<clipPath id="clip0_252_1715">
<rect width="12" height="12" fill="white"/>
</clipPath>
</defs>
</svg>
