<svg width="12" height="12" viewBox="0 0 12 12" fill="none" xmlns="http://www.w3.org/2000/svg">
<g clip-path="url(#clip0_252_1892)">
<path d="M11.9994 5.89782V6.10198C11.9965 6.10993 11.9945 6.11817 11.9934 6.12655C11.9851 6.28509 11.9603 6.44232 11.9191 6.59568C11.8205 6.95417 11.6311 7.28137 11.3692 7.5459C11.0893 7.83176 10.9225 8.209 10.8996 8.60796C10.8872 8.79133 10.8828 8.97532 10.8399 9.15522C10.6759 9.84237 10.2802 10.3477 9.64593 10.6628C9.34492 10.8121 9.02306 10.8755 8.68793 10.8855C8.32784 10.8921 7.97961 11.0151 7.69552 11.2359C7.59476 11.3137 7.50316 11.4029 7.40493 11.4835C7.06554 11.7694 6.64684 11.9452 6.20467 11.9876C6.16235 11.9917 6.12034 11.9967 6.07833 12.0012H5.9204C5.91239 11.9984 5.90414 11.9964 5.89577 11.9952C5.7481 11.9888 5.60155 11.9666 5.45862 11.929C5.06096 11.8254 4.72236 11.6206 4.42609 11.3389C4.13733 11.0615 3.75571 10.9008 3.35502 10.8877C3.19866 10.8848 3.04282 10.8688 2.88914 10.8398C1.98073 10.6382 1.41156 10.0796 1.16772 9.18673C1.1115 8.981 1.10644 8.76896 1.09286 8.55661C1.07624 8.23585 0.955642 7.92914 0.749211 7.68263C0.674353 7.59253 0.591282 7.50967 0.515161 7.41987C0.245288 7.10489 0.0735852 6.71811 0.0211637 6.30708C0.0132673 6.24628 0.00694883 6.18515 0 6.12435V5.8827C0.00726469 5.81968 0.0138977 5.75667 0.0217941 5.69366C0.0734248 5.24223 0.274621 4.8209 0.593495 4.49643C0.89338 4.19318 1.07292 3.7918 1.09886 3.36663C1.10739 3.2488 1.1115 3.13002 1.12792 3.01313C1.1922 2.50966 1.43445 2.04559 1.81112 1.70437C2.19936 1.33909 2.71022 1.13137 3.24384 1.12183C3.7151 1.10828 4.12413 0.954531 4.4662 0.628759C4.83109 0.271968 5.30974 0.0539272 5.81902 0.0125018L5.94915 0.00115967H6.04011C6.04782 0.00419306 6.05589 0.00620567 6.06412 0.00714588C6.51944 0.0197066 6.95903 0.176016 7.31965 0.453586C7.44599 0.548104 7.55843 0.659005 7.68162 0.756988C7.94329 0.971375 8.267 1.09638 8.60518 1.11364C8.73765 1.11749 8.86985 1.12801 9.00126 1.14514C9.4587 1.20869 9.8842 1.41517 10.2167 1.73493C10.6213 2.12309 10.8402 2.60072 10.886 3.15774C10.897 3.29196 10.8999 3.42744 10.9204 3.56008C10.9766 3.92555 11.1513 4.23147 11.4062 4.49675C11.7245 4.8256 11.9253 5.24992 11.9776 5.70406C11.9855 5.77022 11.9921 5.83323 11.9994 5.89782ZM0.65256 5.99234C0.653699 6.1319 0.672375 6.27077 0.70815 6.4057C0.781745 6.6757 0.926407 6.90223 1.11876 7.10544C1.52716 7.5396 1.74131 8.05724 1.76879 8.65207C1.77191 8.75516 1.7814 8.85796 1.79722 8.95989C1.85639 9.30048 2.03039 9.6107 2.29042 9.83919C2.55045 10.0677 2.88091 10.2007 3.2271 10.2163C3.37512 10.2212 3.52276 10.2343 3.6693 10.2557C4.15793 10.3348 4.57454 10.5569 4.92767 10.9013C5.23468 11.2009 5.60834 11.3364 6.03316 11.3285C6.45167 11.3206 6.80891 11.1644 7.1096 10.8714C7.53317 10.4586 8.0458 10.2466 8.63645 10.2208C8.78027 10.2175 8.92341 10.2001 9.0638 10.1688C9.35474 10.1007 9.61869 9.94762 9.82188 9.72906C10.0251 9.5105 10.1582 9.23643 10.2044 8.94193C10.2271 8.80078 10.2293 8.65648 10.2416 8.51345C10.2801 8.00825 10.4885 7.53083 10.8332 7.15869C10.9224 7.06453 11.0045 6.96385 11.0786 6.85749C11.2953 6.54352 11.3836 6.15892 11.3256 5.78219C11.2739 5.43922 11.1134 5.12179 10.8677 4.8764C10.4889 4.48761 10.2868 4.02227 10.2401 3.48635C10.229 3.35844 10.2299 3.22895 10.21 3.10261C10.1153 2.51219 9.79027 2.10418 9.23279 1.88238C9.01706 1.79669 8.79059 1.77936 8.56033 1.76928C8.31515 1.75993 8.07348 1.708 7.84618 1.61584C7.55243 1.49549 7.30417 1.3096 7.07012 1.09788C6.63677 0.706264 6.13392 0.573624 5.56475 0.727373C5.30322 0.798261 5.08623 0.946024 4.88977 1.13033C4.4774 1.52327 3.93613 1.75366 3.36639 1.77873C3.2416 1.78282 3.1172 1.79503 2.994 1.81527C2.65857 1.88157 2.35538 2.05882 2.13349 2.31834C1.91161 2.57787 1.784 2.90448 1.77132 3.24533C1.76721 3.3619 1.75869 3.47911 1.74321 3.59505C1.67498 4.10923 1.45041 4.54779 1.09286 4.92176C0.812894 5.20896 0.655122 5.59302 0.65256 5.9936V5.99234Z" fill="#1D996C"/>
<path d="M8.89333 5.06712L8.85069 4.76844C8.80858 4.47438 8.76646 4.18159 8.72435 3.89005C8.71803 3.84657 8.71045 3.8031 8.70445 3.7593C8.69755 3.7248 8.70333 3.68898 8.72073 3.65838C8.73812 3.62777 8.76598 3.60444 8.7992 3.59264C8.96692 3.52962 9.13559 3.46976 9.30457 3.40896C9.30923 3.40787 9.314 3.40734 9.31879 3.40738C9.32542 3.46 9.33205 3.5123 9.33774 3.56491C9.38933 4.03057 9.44081 4.49602 9.49219 4.96126C9.52567 5.26025 9.56105 5.55987 9.59516 5.85823C9.59706 5.8743 9.598 5.88974 9.59832 5.90707C9.60116 6.05514 9.5462 6.12257 9.40154 6.15911C9.35069 6.17172 9.303 6.19692 9.25277 6.21299C9.19625 6.23388 9.13787 6.24939 9.07842 6.2593C9.01209 6.26718 8.95682 6.23221 8.9126 6.18369C8.89064 6.15926 8.87037 6.13337 8.85195 6.10618L8.21645 5.17676C8.17065 5.10996 8.12454 5.04412 8.07842 4.97795C8.07141 4.96685 8.06176 4.95765 8.05031 4.95117C8.05631 5.01797 8.062 5.08476 8.068 5.15155C8.09516 5.44561 8.12243 5.73893 8.1498 6.03151C8.16212 6.16825 8.17318 6.30499 8.18392 6.44109C8.18665 6.47984 8.17775 6.51852 8.15834 6.55219C8.13893 6.58586 8.10989 6.613 8.07495 6.63013C7.91354 6.69787 7.75088 6.76245 7.58411 6.83051L6.10938 4.58381C6.11806 4.5789 6.12703 4.57448 6.13622 4.57058C6.32574 4.50001 6.51525 4.43007 6.70255 4.35823C6.73161 4.3472 6.74361 4.35477 6.75909 4.37903C7.00546 4.7655 7.25246 5.15176 7.50009 5.53782C7.50708 5.55071 7.51731 5.56157 7.52978 5.56932C7.52304 5.48741 7.5162 5.40528 7.50925 5.32294C7.48819 5.07468 7.4665 4.82641 7.44418 4.57814C7.43218 4.44015 7.42113 4.30215 7.40723 4.16415C7.40506 4.15696 7.40446 4.1494 7.40545 4.14195C7.40644 4.13451 7.40901 4.12736 7.41298 4.12099C7.41695 4.11461 7.42224 4.10915 7.42849 4.10497C7.43474 4.10079 7.44181 4.09798 7.44924 4.09673C7.64538 4.02458 7.84153 3.95243 8.03768 3.87997C8.04232 3.87712 8.04752 3.8753 8.05292 3.87462C8.05833 3.87394 8.06382 3.87442 8.06903 3.87603C8.07423 3.87764 8.07903 3.88035 8.0831 3.88396C8.08718 3.88757 8.09043 3.89201 8.09263 3.89698C8.34764 4.27674 8.60337 4.65596 8.85985 5.03467C8.86806 5.04664 8.87659 5.05861 8.88512 5.07027L8.89333 5.06712Z" fill="#1D996C"/>
<path d="M1.85938 6.13297C1.99014 6.08193 2.11774 6.03183 2.24567 5.98237C2.26209 5.97607 2.27978 5.9726 2.29557 5.96504C2.39033 5.91873 2.47371 5.94866 2.5511 6.01041C2.9415 6.32169 3.33232 6.63276 3.72356 6.94362C3.73082 6.94929 3.73872 6.95464 3.75514 6.96693C3.59216 6.51482 3.43265 6.07311 3.27251 5.62856L3.84864 5.42377L4.73303 7.88501L4.31579 8.03876C4.29462 8.04664 4.2722 8.052 4.25262 8.06145C4.17365 8.09831 4.10637 8.07531 4.04194 8.02522C3.89601 7.91116 3.74914 7.79806 3.60258 7.68432L2.87075 7.11501L2.83916 7.09138C3.00309 7.53908 3.16386 7.97827 3.32589 8.42156L2.7703 8.56082L1.85938 6.13297Z" fill="#1D996C"/>
<path d="M6.53216 6.01858L5.34581 6.49905C5.40361 6.6591 5.46078 6.8182 5.51921 6.98077L6.80254 6.50566C6.87234 6.67958 6.9412 6.85223 7.01226 7.02803L5.09691 7.73849C4.80159 6.91682 4.50689 6.09829 4.21094 5.27536L6.07038 4.59262C6.1405 4.76653 6.20967 4.93919 6.28074 5.11531L5.04322 5.57057C5.0846 5.68903 5.12502 5.80466 5.1664 5.92375L6.32243 5.49968C6.39255 5.67233 6.46141 5.84309 6.53216 6.01858Z" fill="#1D996C"/>
</g>
<defs>
<clipPath id="clip0_252_1892">
<rect width="12" height="12" fill="white"/>
</clipPath>
</defs>
</svg>
