<svg width="328" height="316" viewBox="0 0 328 316" fill="none" xmlns="http://www.w3.org/2000/svg">
<g clip-path="url(#clip0_104_1467)">
<path d="M151.898 4.76022L1.92969 124.38L326.205 123.826L175.008 4.64952C171.711 2.04873 167.631 0.643557 163.433 0.663665C159.236 0.683773 155.169 2.12797 151.898 4.76022Z" fill="#C8CFD5"/>
<path d="M0 125.032L151.492 4.25601C154.869 1.52131 159.077 0.0200858 163.421 -3.91412e-05C167.766 -0.0201641 171.987 1.44202 175.389 4.14532L328.012 124.466L0 125.032ZM167.768 1.80828C165.106 1.16117 162.33 1.13636 159.657 1.73576C156.984 2.33516 154.484 3.54267 152.353 5.26464L3.72462 123.728L324.275 123.175L174.59 5.16622C172.58 3.57543 170.254 2.4308 167.768 1.80828Z" fill="#E0E0E0"/>
<path d="M1.85742 124.374L327.251 123.806L327.559 300.326C327.565 303.82 326.184 307.173 323.719 309.648C321.254 312.123 317.908 313.517 314.417 313.523L15.3412 314.045C11.8517 314.048 8.50382 312.664 6.03321 310.198C3.5626 307.733 2.1714 304.386 2.16531 300.894L1.85742 124.374Z" fill="#C8CFD5"/>
<path d="M306.144 128.267L173.151 210.678L21.4746 134.823L24.1175 45.0312C24.1884 40.387 26.0795 35.9565 29.3836 32.6942C32.6876 29.4318 37.14 27.5986 41.7818 27.5895L288.283 27.159C290.61 27.1557 292.916 27.6119 295.067 28.5013C297.218 29.3908 299.173 30.696 300.82 32.3424C302.466 33.9888 303.772 35.9439 304.662 38.0959C305.553 40.2479 306.01 42.5545 306.008 44.8836L306.144 128.267Z" fill="white"/>
<path d="M160.675 198.525L2.01562 299.24C2.01885 301.142 2.3966 303.026 3.12729 304.783C3.85799 306.539 4.92733 308.135 6.27425 309.478C7.62118 310.821 9.21931 311.886 10.9774 312.611C12.7355 313.336 14.6191 313.708 16.5207 313.705L313.31 313.151C315.212 313.148 317.094 312.77 318.85 312.039C320.605 311.308 322.2 310.238 323.542 308.89C324.885 307.542 325.949 305.943 326.673 304.184C327.398 302.425 327.769 300.54 327.766 298.637V297.53L177.183 198.612C174.732 197.009 171.87 196.149 168.942 196.134C166.013 196.118 163.143 196.949 160.675 198.525Z" fill="#A9B2B8"/>
<path d="M150.178 67.7684L53.7441 67.9368L53.7613 77.7892L150.196 77.6208L150.178 67.7684Z" fill="#F3CFCF"/>
<path d="M267.75 92.5323L53.7871 92.906L53.8065 104.038L267.769 103.664L267.75 92.5323Z" fill="#F3CFCF"/>
<path d="M267.798 119.74L53.8359 120.114L53.8554 131.246L267.818 130.872L267.798 119.74Z" fill="#F3CFCF"/>
<path d="M263.662 154.687L255.795 159.448L75.6363 161.932L54.8005 151.293L54.5547 148.685L267.829 148.291L267.841 151.981L263.662 154.687Z" fill="#F3CFCF"/>
<path d="M209.489 188.119L128.567 188.267L106.576 177.185L227.522 176.963L209.489 188.119Z" fill="#F3CFCF"/>
<path d="M154.885 202.216C154.768 202.323 154.641 202.418 154.504 202.499L153.361 203.274L148.923 206.164L132.525 216.718C118.659 225.586 99.4954 237.813 78.2417 251.195C56.988 264.578 37.6766 276.534 23.5156 285.033C16.4598 289.289 10.7438 292.708 6.7733 295.033L2.18821 297.702L0.95896 298.391C0.826596 298.474 0.686649 298.544 0.541016 298.6C0.657528 298.496 0.785349 298.405 0.922082 298.33L2.08987 297.592C3.14702 296.927 4.67129 296.005 6.6012 294.812L23.2821 284.627C37.2955 276.017 56.6316 264.024 77.8852 250.629L132.267 216.263L148.776 205.906L153.287 203.114L154.516 202.413L154.885 202.216Z" fill="#FAFAFA"/>
<path d="M327.753 297.53C327.655 297.678 295.498 276.78 255.941 250.851C216.384 224.922 184.374 203.766 184.485 203.606C184.595 203.446 216.74 224.344 256.31 250.346C295.879 276.349 327.864 297.37 327.753 297.53Z" fill="#FAFAFA"/>
<path d="M312.487 124.281C312.487 124.281 312.389 124.38 312.18 124.527L311.258 125.179L307.644 127.639L294.294 136.496C282.985 143.876 267.251 154.06 249.795 165.032C232.34 176.004 216.274 185.684 204.707 192.622L190.914 200.764L187.141 202.941L186.145 203.495C186.036 203.559 185.92 203.613 185.801 203.655C185.801 203.655 185.899 203.569 186.108 203.433L187.067 202.818L190.755 200.543L204.436 192.203C215.991 185.168 231.922 175.401 249.414 164.429C266.907 153.458 282.604 143.396 294.011 136.065L307.533 127.393L311.221 125.056L312.18 124.466C312.274 124.392 312.377 124.33 312.487 124.281Z" fill="#FAFAFA"/>
<path d="M154.885 202.216C154.743 202.175 154.607 202.117 154.479 202.043L153.311 201.453L148.886 199.128C145.051 197.099 139.47 194.208 132.562 190.653C118.745 183.556 99.5071 174.06 78.2289 163.593C56.9506 153.125 37.7252 143.593 23.9576 136.385C17.0738 132.793 11.5299 129.829 7.73154 127.775L3.36771 125.315L2.2368 124.663C1.97866 124.515 1.85573 124.441 1.86803 124.429L2.27368 124.601L3.42917 125.192L7.85446 127.516C11.702 129.546 17.2705 132.436 24.1789 135.991C37.9956 143.088 57.2333 152.584 78.5239 163.052C99.8144 173.519 119.015 183.052 132.783 190.26C139.667 193.851 145.211 196.816 149.009 198.87L153.385 201.33L154.504 201.982L154.885 202.216Z" fill="#FAFAFA"/>
<path d="M306.144 128.267C306.144 128.267 306.144 127.849 306.144 127.037C306.144 126.225 306.144 125.007 306.144 123.433C306.144 120.259 306.144 115.598 306.058 109.595C306.058 97.5531 305.947 80.1606 305.861 58.6844C305.861 55.9907 305.861 53.2477 305.861 50.431C305.861 49.0288 305.861 47.6019 305.861 46.1628C305.861 45.4494 305.861 44.7237 305.861 44.0103C305.834 43.2916 305.752 42.5761 305.615 41.87C305.101 38.956 303.853 36.2212 301.989 33.9241C300.041 31.54 297.496 29.715 294.614 28.635C293.149 28.0739 291.615 27.7139 290.053 27.5649C288.48 27.4542 286.857 27.5034 285.222 27.4911H275.278L254.38 27.5526L161.978 27.7371L69.5508 27.8601H48.8011H43.7981C42.1547 27.7997 40.5091 27.8862 38.8811 28.1184C37.303 28.367 35.7704 28.8478 34.3329 29.5452C32.9127 30.2052 31.5926 31.0624 30.4116 32.0913C29.2382 33.0923 28.2046 34.2466 27.3385 35.5231C26.493 36.7845 25.8114 38.1485 25.3102 39.5822C24.2408 42.4235 24.3514 45.4248 24.2408 48.3645C24.0523 54.2276 23.8761 59.8488 23.7122 65.2281C23.0361 86.7043 22.4829 104.085 22.1142 116.114C21.9052 122.104 21.7454 126.766 21.6348 129.952C21.5733 131.514 21.5364 132.719 21.4995 133.544C21.4627 134.368 21.4258 134.774 21.4258 134.774C21.4258 134.774 21.4258 134.355 21.4258 133.544C21.4258 132.732 21.4258 131.514 21.4995 129.94C21.5856 126.766 21.6962 122.104 21.8437 116.102C22.1756 104.072 22.655 86.692 23.2451 65.2158C23.3926 59.8365 23.5483 54.2153 23.7122 48.3522C23.8228 45.4494 23.7122 42.3374 24.7939 39.41C25.351 37.9462 26.0815 36.5545 26.9697 35.2648C27.8729 33.9545 28.9385 32.7642 30.1411 31.7224C31.3599 30.6512 32.726 29.7605 34.1977 29.0778C35.6794 28.3622 37.2569 27.8651 38.8811 27.6018C40.5084 27.3612 42.1543 27.2706 43.7981 27.3312H48.8011H69.5631L161.99 27.1467L254.393 27.0114H275.142H285.112C286.746 27.0114 288.357 27.0114 290.029 27.0975C291.641 27.253 293.224 27.6253 294.737 28.2045C297.701 29.3256 300.314 31.2146 302.309 33.6781C304.217 36.0532 305.487 38.8775 305.996 41.8823C306.133 42.609 306.216 43.345 306.242 44.0841C306.242 44.8221 306.242 45.5478 306.242 46.2612C306.242 47.7003 306.242 49.1148 306.242 50.5294V58.7828C306.242 80.259 306.242 97.6515 306.242 109.693C306.242 115.696 306.242 120.358 306.242 123.531C306.242 125.106 306.242 126.311 306.242 127.135C306.242 127.959 306.144 128.267 306.144 128.267Z" fill="#E0E0E0"/>
<path d="M56.571 49.0658C54.984 52.0426 52.8264 54.6774 50.2215 56.8196C47.6166 58.9618 44.6154 60.5694 41.3894 61.5506C38.1634 62.5318 34.7758 62.8674 31.4201 62.5381C28.0645 62.2089 24.8065 61.2212 21.8324 59.6317C18.8575 58.0437 16.2244 55.8848 14.0835 53.2783C11.9427 50.6717 10.3361 47.6686 9.3555 44.4406C8.37491 41.2125 8.03956 37.8228 8.36861 34.465C8.69765 31.1072 9.68464 27.8472 11.2732 24.8713C12.8602 21.8945 15.0177 19.2597 17.6226 17.1175C20.2275 14.9753 23.2287 13.3677 26.4547 12.3865C29.6808 11.4053 33.0684 11.0697 36.424 11.399C39.7797 11.7282 43.0376 12.7158 46.0117 14.3054C52.0175 17.5148 56.5037 22.9796 58.4838 29.498C60.4639 36.0164 59.7759 43.0549 56.571 49.0658Z" fill="#DD2A1B"/>
<path d="M46.5038 25.7322C46.8971 26.0151 41.9924 33.6659 35.5635 42.8173L32.8345 46.6672L32.3551 47.356L31.6667 46.8763C24.2913 41.7594 19.0915 37.7373 19.3743 37.3929C19.657 37.0485 25.2501 40.5171 32.6747 45.4741L31.4455 45.6955C32.306 44.4409 33.2033 43.1494 34.1375 41.821C40.5788 32.6573 46.1104 25.4616 46.5038 25.7322Z" fill="white"/>
</g>
<defs>
<clipPath id="clip0_104_1467">
<rect width="328" height="316" fill="white"/>
</clipPath>
</defs>
</svg>
