<svg width="36" height="36" viewBox="0 0 36 36" fill="none" xmlns="http://www.w3.org/2000/svg">
<rect width="36" height="36" rx="5" fill="#D9D9D9"/>
<g clip-path="url(#clip0_70_69)">
<path d="M22.166 8H13.8327C11.5352 8 9.66602 9.86917 9.66602 12.1667V23.8333C9.66602 26.1308 11.5352 28 13.8327 28H22.166C24.4635 28 26.3327 26.1308 26.3327 23.8333V12.1667C26.3327 9.86917 24.4635 8 22.166 8ZM13.8327 9.66667H22.166C23.5443 9.66667 24.666 10.7883 24.666 12.1667H11.3327C11.3327 10.7883 12.4543 9.66667 13.8327 9.66667ZM22.166 26.3333H13.8327C12.4543 26.3333 11.3327 25.2117 11.3327 23.8333V13.8333H24.666V23.8333C24.666 25.2117 23.5443 26.3333 22.166 26.3333ZM22.166 17.1667C22.166 17.6275 21.7927 18 21.3327 18H14.666C14.206 18 13.8327 17.6275 13.8327 17.1667C13.8327 16.7058 14.206 16.3333 14.666 16.3333H21.3327C21.7927 16.3333 22.166 16.7058 22.166 17.1667ZM18.8327 20.5C18.8327 20.9608 18.4593 21.3333 17.9993 21.3333H14.666C14.206 21.3333 13.8327 20.9608 13.8327 20.5C13.8327 20.0392 14.206 19.6667 14.666 19.6667H17.9993C18.4593 19.6667 18.8327 20.0392 18.8327 20.5Z" fill="#3D4B55"/>
</g>
<defs>
<clipPath id="clip0_70_69">
<rect width="20" height="20" fill="white" transform="translate(8 8)"/>
</clipPath>
</defs>
</svg>
