<svg width="12" height="12" viewBox="0 0 12 12" fill="none" xmlns="http://www.w3.org/2000/svg">
<g clip-path="url(#clip0_252_1551)">
<path d="M5.9857 2.44926e-05C7.17271 -0.00336638 8.33407 0.345401 9.32299 1.00224C10.3119 1.65908 11.084 2.5945 11.5416 3.69027C11.9993 4.78603 12.1219 5.99294 11.8941 7.15843C11.6663 8.32393 11.0982 9.39568 10.2617 10.2382C9.42512 11.0808 8.3577 11.6563 7.1943 11.892C6.03091 12.1277 4.82378 12.013 3.72551 11.5625C2.62724 11.112 1.68713 10.3458 1.02402 9.36079C0.360904 8.37581 0.00456013 7.21624 2.47316e-05 6.02868C-0.00454144 4.43533 0.623344 2.90534 1.74571 1.77491C2.86809 0.644482 4.39312 0.00609366 5.9857 2.44926e-05ZM0.830572 6.00002C0.830572 7.0201 1.13292 8.01727 1.69937 8.86543C2.26582 9.71359 3.07094 10.3747 4.01292 10.765C4.9549 11.1554 5.99142 11.2575 6.99142 11.0585C7.99142 10.8595 8.90998 10.3683 9.63094 9.647C10.3519 8.92569 10.8429 8.00669 11.0418 7.00622C11.2407 6.00574 11.1386 4.96873 10.7484 4.0263C10.3582 3.08387 9.6975 2.27837 8.84974 1.71164C8.00199 1.14492 7.00529 0.842432 5.9857 0.842432C4.61848 0.842432 3.30725 1.38582 2.34048 2.35305C1.3737 3.32029 0.830572 4.63214 0.830572 6.00002Z" fill="#FFAA00"/>
<path d="M4.30625 9.00292C4.23738 9.00318 4.16946 8.98688 4.10821 8.95538C4.04696 8.92389 3.99418 8.87812 3.95431 8.82194C3.91444 8.76576 3.88866 8.70081 3.87913 8.63257C3.8696 8.56434 3.87661 8.49481 3.89957 8.42985C3.92097 8.3859 3.94587 8.34373 3.97403 8.30378L7.31342 3.28945C7.35614 3.20311 7.42528 3.13266 7.51078 3.08834C7.59629 3.04402 7.69369 3.02815 7.78883 3.04303C7.85349 3.05391 7.9147 3.07986 7.9675 3.11878C8.02029 3.1577 8.0632 3.20849 8.09275 3.26706C8.1223 3.32563 8.13767 3.39034 8.13761 3.45595C8.13755 3.52156 8.12206 3.58623 8.0924 3.64475C8.07161 3.68419 8.04867 3.72245 8.02367 3.75936C6.90864 5.43272 5.7936 7.10798 4.67857 8.78515C4.63841 8.84856 4.58364 8.90142 4.51887 8.93931C4.45409 8.9772 4.38118 8.99901 4.30625 9.00292Z" fill="#FFAA00"/>
<path d="M5.5661 4.29232C5.56494 4.54669 5.48827 4.79497 5.34583 5.00567C5.20338 5.21636 5.00158 5.37997 4.76603 5.47572C4.53049 5.57147 4.27182 5.59505 4.02286 5.54347C3.77389 5.49188 3.54586 5.36746 3.3677 5.18599C3.18954 5.00452 3.06928 4.77418 3.0222 4.52421C2.97511 4.27424 3.00332 4.01592 3.10323 3.78201C3.20315 3.54811 3.37027 3.34918 3.58338 3.21047C3.7965 3.07176 4.046 2.99952 4.30022 3.00292C4.63757 3.01039 4.95867 3.14934 5.19513 3.39019C5.43158 3.63103 5.56468 3.95473 5.5661 4.29232ZM4.26586 3.87971C4.17904 3.8786 4.09388 3.90349 4.02131 3.95117C3.94873 3.99886 3.89207 4.06716 3.8586 4.14731C3.82513 4.22746 3.81639 4.31579 3.83348 4.40096C3.85057 4.48612 3.89273 4.56422 3.95454 4.62523C4.01634 4.68624 4.09496 4.72737 4.18031 4.74333C4.26566 4.75928 4.35382 4.74934 4.43347 4.71478C4.51313 4.68022 4.58064 4.62262 4.62732 4.54939C4.674 4.47615 4.69773 4.39061 4.69545 4.30378C4.69395 4.19079 4.64802 4.08293 4.56762 4.00357C4.48722 3.9242 4.37881 3.8797 4.26586 3.87971Z" fill="#FFAA00"/>
<path d="M7.7069 9.00287C7.45266 9.00171 7.20449 8.92501 6.99389 8.78249C6.7833 8.63998 6.61977 8.43808 6.52407 8.20242C6.42836 7.96677 6.40479 7.70797 6.45635 7.45889C6.50791 7.20981 6.63228 6.98167 6.81366 6.80342C6.99505 6.62517 7.22527 6.50486 7.47512 6.45775C7.72497 6.41064 7.98317 6.43886 8.21697 6.53883C8.45076 6.63879 8.64959 6.80599 8.78824 7.01921C8.92688 7.23243 8.99909 7.48205 8.99568 7.7364C8.99116 8.07485 8.85319 8.39782 8.61183 8.63501C8.37046 8.8722 8.04522 9.00441 7.7069 9.00287ZM7.28303 7.71347C7.2815 7.77012 7.29134 7.8265 7.31195 7.87928C7.33257 7.93206 7.36355 7.98017 7.40306 8.02077C7.44257 8.06137 7.48981 8.09364 7.542 8.11566C7.59419 8.13769 7.65026 8.14902 7.7069 8.149C7.79186 8.15013 7.87524 8.12602 7.9465 8.07974C8.01777 8.03346 8.07371 7.96707 8.10727 7.88898C8.14082 7.81089 8.15047 7.72459 8.13501 7.64101C8.11954 7.55743 8.07965 7.48031 8.02038 7.41941C7.96111 7.35851 7.88512 7.31655 7.80202 7.29886C7.71892 7.28116 7.63243 7.28852 7.55351 7.31999C7.47459 7.35147 7.40677 7.40565 7.35862 7.47569C7.31048 7.54573 7.28417 7.62848 7.28303 7.71347Z" fill="#FFAA00"/>
</g>
<defs>
<clipPath id="clip0_252_1551">
<rect width="12" height="12" fill="white"/>
</clipPath>
</defs>
</svg>
