<svg width="48" height="48" viewBox="0 0 48 48" fill="none" xmlns="http://www.w3.org/2000/svg">
<rect width="48" height="48" rx="10" fill="#1D996C"/>
<g clip-path="url(#clip0_2015_70)">
<path d="M33.675 25.5234L31.9334 19.257C31.4229 17.4213 30.3134 15.8088 28.7813 14.676C27.2491 13.5431 25.3823 12.9549 23.4775 13.0049C21.5728 13.0548 19.7393 13.74 18.2687 14.9516C16.798 16.1632 15.7746 17.8315 15.361 19.6915L14.0125 25.7553C13.8636 26.4253 13.867 27.1202 14.0226 27.7888C14.1782 28.4573 14.4819 29.0823 14.9114 29.6177C15.3409 30.1531 15.8851 30.5853 16.504 30.8822C17.1228 31.1791 17.8004 31.3332 18.4868 31.3332H19.508C19.7183 32.3693 20.2805 33.3008 21.099 33.9699C21.9176 34.639 22.9424 35.0045 23.9996 35.0045C25.0569 35.0045 26.0816 34.639 26.9002 33.9699C27.7188 33.3008 28.2809 32.3693 28.4913 31.3332H29.2595C29.966 31.3333 30.663 31.1699 31.2961 30.856C31.9291 30.5421 32.4809 30.0861 32.9085 29.5236C33.3361 28.9611 33.6279 28.3073 33.761 27.6134C33.8941 26.9195 33.8641 26.2042 33.675 25.5234ZM23.9996 33.1665C23.4329 33.1642 22.8807 32.9868 22.4186 32.6586C21.9566 32.3305 21.6072 31.8675 21.4183 31.3332H26.581C26.392 31.8675 26.0427 32.3305 25.5806 32.6586C25.1185 32.9868 24.5664 33.1642 23.9996 33.1665ZM31.4485 28.4136C31.193 28.7525 30.8621 29.0271 30.4819 29.2157C30.1018 29.4042 29.6829 29.5016 29.2585 29.4999H18.4868C18.075 29.4998 17.6685 29.4073 17.2973 29.2291C16.926 29.0509 16.5996 28.7916 16.3419 28.4704C16.0843 28.1491 15.9021 27.7741 15.8088 27.3731C15.7155 26.972 15.7134 26.5551 15.8028 26.1531L17.1503 20.0885C17.4751 18.6275 18.279 17.317 19.4341 16.3654C20.5893 15.4137 22.0294 14.8755 23.5255 14.8363C25.0216 14.7971 26.4879 15.2592 27.6913 16.1491C28.8947 17.0389 29.7661 18.3055 30.167 19.7475L31.9086 26.0138C32.0237 26.4221 32.042 26.8515 31.9622 27.2681C31.8823 27.6847 31.7064 28.0769 31.4485 28.4136Z" fill="#FCFCFC"/>
</g>
<defs>
<clipPath id="clip0_2015_70">
<rect width="22" height="22" fill="white" transform="translate(13 13)"/>
</clipPath>
</defs>
</svg>
