<svg width="8" height="12" viewBox="0 0 8 12" fill="none" xmlns="http://www.w3.org/2000/svg">
<path d="M1.07555 0.249224C0.992239 0.328897 0.926111 0.423687 0.880983 0.528126C0.835855 0.632565 0.812622 0.744586 0.812622 0.857726C0.812622 0.970866 0.835855 1.08289 0.880983 1.18733C0.926111 1.29176 0.992239 1.38655 1.07555 1.46623L5.14667 5.3915C5.22998 5.47117 5.29611 5.56596 5.34124 5.6704C5.38636 5.77484 5.4096 5.88686 5.4096 6C5.4096 6.11314 5.38636 6.22516 5.34124 6.3296C5.29611 6.43404 5.22998 6.52883 5.14667 6.6085L1.07555 10.5338C0.99224 10.6134 0.926111 10.7082 0.880984 10.8127C0.835856 10.9171 0.812622 11.0291 0.812622 11.1423C0.812622 11.2554 0.835856 11.3674 0.880984 11.4719C0.926111 11.5763 0.99224 11.6711 1.07555 11.7508C1.2421 11.9104 1.46739 12 1.70222 12C1.93705 12 2.16234 11.9104 2.32889 11.7508L6.40889 7.81694C6.90827 7.33485 7.18876 6.68135 7.18876 6C7.18876 5.31865 6.90827 4.66515 6.40889 4.18306L2.32889 0.249224C2.16234 0.0895986 1.93705 -4.91504e-08 1.70222 -3.88856e-08C1.46739 -2.86208e-08 1.2421 0.0895986 1.07555 0.249224Z" fill="#FCFCFC"/>
</svg>
