<svg width="36" height="36" viewBox="0 0 36 36" fill="none" xmlns="http://www.w3.org/2000/svg">
<rect width="36" height="36" rx="5" fill="#D9D9D9"/>
<g clip-path="url(#clip0_70_63)">
<path d="M25.4993 11.3333H22.916C22.7226 10.3928 22.2109 9.54779 21.4671 8.9406C20.7233 8.33341 19.7929 8.00121 18.8327 8L17.166 8C16.2058 8.00121 15.2754 8.33341 14.5316 8.9406C13.7878 9.54779 13.2761 10.3928 13.0827 11.3333H10.4993C10.2783 11.3333 10.0664 11.4211 9.91009 11.5774C9.75381 11.7337 9.66602 11.9457 9.66602 12.1667C9.66602 12.3877 9.75381 12.5996 9.91009 12.7559C10.0664 12.9122 10.2783 13 10.4993 13H11.3327V23.8333C11.334 24.938 11.7734 25.997 12.5545 26.7782C13.3356 27.5593 14.3947 27.9987 15.4993 28H20.4993C21.604 27.9987 22.6631 27.5593 23.4442 26.7782C24.2253 25.997 24.6647 24.938 24.666 23.8333V13H25.4993C25.7204 13 25.9323 12.9122 26.0886 12.7559C26.2449 12.5996 26.3327 12.3877 26.3327 12.1667C26.3327 11.9457 26.2449 11.7337 26.0886 11.5774C25.9323 11.4211 25.7204 11.3333 25.4993 11.3333ZM17.166 9.66667H18.8327C19.3496 9.6673 19.8536 9.82781 20.2757 10.1262C20.6978 10.4246 21.0172 10.8462 21.1902 11.3333H14.8085C14.9815 10.8462 15.3009 10.4246 15.723 10.1262C16.1451 9.82781 16.6491 9.6673 17.166 9.66667ZM22.9993 23.8333C22.9993 24.4964 22.736 25.1323 22.2671 25.6011C21.7983 26.0699 21.1624 26.3333 20.4993 26.3333H15.4993C14.8363 26.3333 14.2004 26.0699 13.7316 25.6011C13.2627 25.1323 12.9993 24.4964 12.9993 23.8333V13H22.9993V23.8333Z" fill="#3D4B55"/>
<path d="M16.3333 22.9999C16.5543 22.9999 16.7663 22.9121 16.9226 22.7558C17.0789 22.5996 17.1667 22.3876 17.1667 22.1666V17.1666C17.1667 16.9456 17.0789 16.7336 16.9226 16.5773C16.7663 16.421 16.5543 16.3333 16.3333 16.3333C16.1123 16.3333 15.9004 16.421 15.7441 16.5773C15.5878 16.7336 15.5 16.9456 15.5 17.1666V22.1666C15.5 22.3876 15.5878 22.5996 15.7441 22.7558C15.9004 22.9121 16.1123 22.9999 16.3333 22.9999Z" fill="#3D4B55"/>
<path d="M19.6673 22.9999C19.8883 22.9999 20.1003 22.9121 20.2566 22.7558C20.4129 22.5996 20.5007 22.3876 20.5007 22.1666V17.1666C20.5007 16.9456 20.4129 16.7336 20.2566 16.5773C20.1003 16.421 19.8883 16.3333 19.6673 16.3333C19.4463 16.3333 19.2343 16.421 19.0781 16.5773C18.9218 16.7336 18.834 16.9456 18.834 17.1666V22.1666C18.834 22.3876 18.9218 22.5996 19.0781 22.7558C19.2343 22.9121 19.4463 22.9999 19.6673 22.9999Z" fill="#3D4B55"/>
</g>
<defs>
<clipPath id="clip0_70_63">
<rect width="20" height="20" fill="white" transform="translate(8 8)"/>
</clipPath>
</defs>
</svg>
