<svg width="36" height="36" viewBox="0 0 36 36" fill="none" xmlns="http://www.w3.org/2000/svg">
<rect width="36" height="36" rx="5" fill="#D9D9D9"/>
<g clip-path="url(#clip0_70_73)">
<path d="M23.8333 11.3333H23.41L21.59 8.97333C21.3554 8.67151 21.0553 8.42701 20.7122 8.25838C20.3692 8.08974 19.9923 8.00139 19.61 8H16.39C16.0077 8.00139 15.6308 8.08974 15.2878 8.25838C14.9447 8.42701 14.6446 8.67151 14.41 8.97333L12.59 11.3333H12.1667C11.062 11.3347 10.003 11.7741 9.22185 12.5552C8.44073 13.3363 8.00132 14.3953 8 15.5V23.8333C8.00132 24.938 8.44073 25.997 9.22185 26.7782C10.003 27.5593 11.062 27.9987 12.1667 28H23.8333C24.938 27.9987 25.997 27.5593 26.7782 26.7782C27.5593 25.997 27.9987 24.938 28 23.8333V15.5C27.9987 14.3953 27.5593 13.3363 26.7782 12.5552C25.997 11.7741 24.938 11.3347 23.8333 11.3333ZM15.73 9.99167C15.8081 9.89088 15.9081 9.80922 16.0224 9.7529C16.1368 9.69658 16.2625 9.66709 16.39 9.66667H19.61C19.7375 9.66721 19.8631 9.69676 19.9775 9.75307C20.0918 9.80938 20.1919 9.89097 20.27 9.99167L21.305 11.3333H14.695L15.73 9.99167ZM26.3333 23.8333C26.3333 24.4964 26.0699 25.1323 25.6011 25.6011C25.1323 26.0699 24.4964 26.3333 23.8333 26.3333H12.1667C11.5036 26.3333 10.8677 26.0699 10.3989 25.6011C9.93006 25.1323 9.66667 24.4964 9.66667 23.8333V15.5C9.66667 14.837 9.93006 14.2011 10.3989 13.7322C10.8677 13.2634 11.5036 13 12.1667 13H23.8333C24.4964 13 25.1323 13.2634 25.6011 13.7322C26.0699 14.2011 26.3333 14.837 26.3333 15.5V23.8333Z" fill="#3D4B55"/>
<path d="M18 14.6667C17.0111 14.6667 16.0444 14.96 15.2222 15.5094C14.3999 16.0588 13.759 16.8397 13.3806 17.7533C13.0022 18.667 12.9031 19.6723 13.0961 20.6422C13.289 21.6121 13.7652 22.503 14.4645 23.2023C15.1637 23.9015 16.0546 24.3777 17.0246 24.5707C17.9945 24.7636 18.9998 24.6646 19.9134 24.2861C20.827 23.9077 21.6079 23.2668 22.1573 22.4446C22.7068 21.6224 23 20.6557 23 19.6667C22.9987 18.3411 22.4715 17.0701 21.5341 16.1327C20.5967 15.1953 19.3257 14.6681 18 14.6667ZM18 23.0001C17.3407 23.0001 16.6963 22.8046 16.1481 22.4383C15.5999 22.072 15.1727 21.5514 14.9204 20.9424C14.6681 20.3333 14.6021 19.6631 14.7307 19.0164C14.8593 18.3698 15.1768 17.7759 15.643 17.3097C16.1092 16.8436 16.7031 16.5261 17.3497 16.3975C17.9963 16.2688 18.6665 16.3349 19.2756 16.5871C19.8847 16.8394 20.4053 17.2667 20.7716 17.8148C21.1378 18.363 21.3333 19.0075 21.3333 19.6667C21.3333 20.5508 20.9821 21.3986 20.357 22.0238C19.7319 22.6489 18.8841 23.0001 18 23.0001Z" fill="#3D4B55"/>
</g>
<defs>
<clipPath id="clip0_70_73">
<rect width="20" height="20" fill="white" transform="translate(8 8)"/>
</clipPath>
</defs>
</svg>
