<svg width="48" height="48" viewBox="0 0 48 48" fill="none" xmlns="http://www.w3.org/2000/svg">
<rect width="48" height="48" rx="5" fill="#D9D9D9"/>
<g clip-path="url(#clip0_252_1266)">
<path d="M19 36.1674C20.1046 36.1674 21 35.2682 21 34.159C21 33.0498 20.1046 32.1506 19 32.1506C17.8954 32.1506 17 33.0498 17 34.159C17 35.2682 17.8954 36.1674 19 36.1674Z" fill="#3D4B55"/>
<path d="M29 36.1674C30.1046 36.1674 31 35.2682 31 34.159C31 33.0498 30.1046 32.1506 29 32.1506C27.8954 32.1506 27 33.0498 27 34.159C27 35.2682 27.8954 36.1674 29 36.1674Z" fill="#3D4B55"/>
<path d="M35 15.0794H33V13.0711C33 12.8048 32.8946 12.5493 32.7071 12.361C32.5196 12.1727 32.2652 12.0669 32 12.0669C31.7348 12.0669 31.4804 12.1727 31.2929 12.361C31.1054 12.5493 31 12.8048 31 13.0711V15.0794H29C28.7348 15.0794 28.4804 15.1852 28.2929 15.3736C28.1054 15.5619 28 15.8173 28 16.0836C28 16.35 28.1054 16.6054 28.2929 16.7937C28.4804 16.982 28.7348 17.0878 29 17.0878H31V19.0962C31 19.3625 31.1054 19.6179 31.2929 19.8062C31.4804 19.9946 31.7348 20.1004 32 20.1004C32.2652 20.1004 32.5196 19.9946 32.7071 19.8062C32.8946 19.6179 33 19.3625 33 19.0962V17.0878H35C35.2652 17.0878 35.5196 16.982 35.7071 16.7937C35.8946 16.6054 36 16.35 36 16.0836C36 15.8173 35.8946 15.5619 35.7071 15.3736C35.5196 15.1852 35.2652 15.0794 35 15.0794Z" fill="#3D4B55"/>
<path d="M33.771 21.8336C33.6417 21.8093 33.5089 21.811 33.3803 21.8386C33.2516 21.8663 33.1297 21.9192 33.0216 21.9945C32.9136 22.0698 32.8214 22.1659 32.7506 22.2772C32.6798 22.3885 32.6316 22.5128 32.609 22.6429C32.4843 23.338 32.1203 23.9669 31.5808 24.4199C31.0412 24.8729 30.3603 25.1212 29.657 25.1213H17.418L16.478 17.0878H25C25.2652 17.0878 25.5196 16.982 25.7071 16.7937C25.8946 16.6054 26 16.35 26 16.0836C26 15.8173 25.8946 15.5619 25.7071 15.3736C25.5196 15.1852 25.2652 15.0794 25 15.0794H16.242L16.2 14.726C16.1138 13.9935 15.7631 13.3183 15.2142 12.8282C14.6653 12.3381 13.9565 12.0672 13.222 12.0669H13C12.7348 12.0669 12.4804 12.1727 12.2929 12.361C12.1054 12.5493 12 12.8048 12 13.0711C12 13.3374 12.1054 13.5928 12.2929 13.7811C12.4804 13.9695 12.7348 14.0753 13 14.0753H13.222C13.4669 14.0753 13.7033 14.1656 13.8864 14.329C14.0694 14.4925 14.1863 14.7177 14.215 14.962L15.591 26.7109C15.7339 27.9328 16.3185 29.0595 17.2339 29.8771C18.1493 30.6947 19.3319 31.1464 20.557 31.1464H31C31.2652 31.1464 31.5196 31.0406 31.7071 30.8522C31.8946 30.6639 32 30.4085 32 30.1422C32 29.8759 31.8946 29.6204 31.7071 29.4321C31.5196 29.2438 31.2652 29.138 31 29.138H20.557C19.9365 29.1381 19.3313 28.945 18.8246 28.5854C18.318 28.2257 17.9348 27.7171 17.728 27.1296H29.657C30.8291 27.1297 31.9641 26.7163 32.8635 25.9616C33.763 25.2069 34.3698 24.1588 34.578 23.0004C34.6014 22.8706 34.599 22.7374 34.5711 22.6085C34.5432 22.4796 34.4902 22.3574 34.4153 22.2491C34.3403 22.1407 34.2449 22.0482 34.1343 21.977C34.0238 21.9057 33.9003 21.8569 33.771 21.8336Z" fill="#3D4B55"/>
</g>
<defs>
<clipPath id="clip0_252_1266">
<rect width="24" height="24.1004" fill="white" transform="translate(12 12.0669)"/>
</clipPath>
</defs>
</svg>
