<svg width="72" height="72" viewBox="0 0 72 72" fill="none" xmlns="http://www.w3.org/2000/svg">
<path d="M35.1789 71.0272C30.9448 70.9989 25.5323 70.4139 20.2772 68.7629C18.7391 68.2973 17.2638 67.6472 15.8838 66.8269C15.352 66.5211 14.868 66.1397 14.4471 65.6947C13.4223 64.5625 13.3445 63.0945 14.2574 61.7322C16.1265 58.9441 18.5308 56.5504 21.3324 54.6882C21.7485 54.4211 22.1136 54.0825 22.4104 53.6882C23.2031 52.5982 24.1851 51.6575 25.3102 50.9106C26.5476 50.1011 27.8837 49.4426 29.0337 48.4954C29.2204 48.3284 29.4449 48.2088 29.6881 48.1467C29.9313 48.0846 30.186 48.0819 30.4305 48.1387C30.7607 48.2218 30.9202 48.1123 30.9733 47.7897C30.9981 47.6996 31.0291 47.6113 31.0663 47.5255C31.5825 45.7197 31.5692 45.7122 29.9921 44.7215C26.7613 42.7377 24.3333 39.6892 23.1315 36.1077C23.0291 35.8114 22.974 35.5944 22.5394 35.585C19.6547 35.5227 17.1781 33.0245 17.0206 30.0846C16.9485 28.6185 17.2692 27.3165 18.4667 26.3542C18.5516 26.2948 18.6156 26.2104 18.6497 26.1129C18.6838 26.0154 18.6861 25.9097 18.6565 25.8108C18.4267 24.4391 18.3807 23.0432 18.5199 21.6595C18.573 21.0482 18.5521 20.5274 17.9505 20.0462C17.3489 19.565 17.4096 18.7782 17.5083 18.063C17.8879 15.3666 19.1461 13.0853 20.8712 11.0304C22.252 9.34426 24.0498 8.0438 26.0883 7.25659C26.1988 7.22564 26.3001 7.16865 26.3837 7.09047C26.4673 7.01229 26.5307 6.91521 26.5685 6.80748C27.9216 3.28459 30.6772 1.64865 34.2812 1.12408C38.8606 0.456108 42.7929 2.01471 46.4272 4.5715C49.2739 6.56409 51.8113 8.86991 53.9103 11.638C54.4473 12.325 54.8991 13.0739 55.2558 13.8684C55.791 15.1081 55.5842 16.2365 54.6599 17.1856C54.4223 17.412 54.2419 17.691 54.1334 17.9999C54.0249 18.3088 53.9913 18.6389 54.0355 18.9631C54.2206 21.1676 54.2795 23.3807 54.212 25.5918C54.212 25.8353 54.1418 26.0806 54.4018 26.2919C56.1497 27.7033 56.1971 29.5487 55.6392 31.4885C54.9313 33.9415 52.4015 35.7454 50.3633 35.5774C49.8945 35.5378 49.8983 35.8662 49.8053 36.1341C48.5543 39.8277 45.9997 42.9454 42.6145 44.9102C41.4625 45.5971 41.4568 45.5914 41.7168 46.9236C41.7567 47.1292 41.8174 47.333 41.8668 47.5387C41.9673 47.9595 42.0926 48.2293 42.6695 48.1161C43.404 47.9708 43.9828 48.4595 44.4971 48.8992C45.1334 49.4205 45.8252 49.8711 46.5601 50.2427C48.1252 51.0884 49.4819 52.269 50.5322 53.6995C50.7811 54.0417 51.0888 54.3375 51.4412 54.5732C54.253 56.4193 56.674 58.795 58.5675 61.5661C59.765 63.3002 59.5354 64.989 57.8331 66.2627C55.7189 67.8458 53.246 68.6647 50.7257 69.3214C46.0666 70.5441 41.2784 71.0347 35.1789 71.0272ZM40.7281 47.6085C40.6825 47.3085 40.6275 47.0104 40.5971 46.7085C40.5459 46.2103 40.4263 45.9763 39.8095 46.1839C37.9254 46.8224 35.8962 46.9082 33.9643 46.4311C33.4955 46.3178 32.9338 45.9008 32.5864 46.1575C32.2391 46.4141 32.3606 47.1141 32.2429 47.6104C32.2061 47.7944 32.1482 47.9736 32.0702 48.1444C31.7116 48.7501 31.8805 49.1879 32.3777 49.6539C32.9945 50.2295 33.5031 50.9182 34.0857 51.5409C34.994 52.524 35.8014 53.5948 36.4959 54.7373C37.5056 52.8881 38.8758 51.4824 40.2233 50.0861C41.0052 49.2803 41.2784 48.5803 40.7281 47.6085ZM23.2568 27.6958C23.2448 29.3651 23.3411 31.0335 23.5453 32.6905C24.1146 37.4625 26.5039 41.0967 30.5254 43.6931C32.928 45.2442 35.5603 46.1292 38.407 45.3763C43.8481 43.9385 47.3685 40.4118 48.9608 35.0623C49.7199 32.4961 49.7541 29.8205 49.7351 27.1561C49.6933 21.2595 47.3799 16.4101 42.7644 12.74C40.1075 10.6267 36.9837 9.62845 33.5961 10.5059C31.6527 11.0078 29.9067 12.1494 28.2367 13.2551C26.2914 14.542 25.3159 16.6044 24.5682 18.7423C23.5567 21.6368 23.1885 24.6371 23.2568 27.6958ZM36.3517 2.13545C35.6029 2.09501 34.852 2.147 34.1161 2.29019C30.9372 2.83928 28.4872 4.30734 27.544 7.59814C27.4453 7.93778 27.2118 8.07551 26.9101 8.1925C22.2794 9.98886 19.7363 13.4967 18.6432 18.1932C18.554 18.5706 18.5369 19.0763 18.814 19.2669C19.9166 20.0216 19.6946 21.0915 19.6415 22.135C19.5753 22.956 19.5804 23.7811 19.6566 24.6012C19.7781 25.5881 19.7819 25.5862 20.7953 25.5579C21.0306 25.5376 21.2675 25.5439 21.5013 25.5767C21.989 25.6786 22.1314 25.5258 22.1693 25.0107C22.3591 22.4482 22.826 19.9367 23.8053 17.5403C24.739 15.2534 26.001 13.1891 28.1816 11.8796C29.4683 11.1116 30.8689 10.5399 32.167 9.76999C32.5866 9.55192 33.0392 9.4034 33.5069 9.33032C36.4364 8.70243 39.4968 9.25547 42.0167 10.8682C47.0003 13.9684 49.7636 18.5762 50.6859 24.3068C50.8757 25.5182 50.8415 25.5239 52.0277 25.5352C52.1932 25.525 52.3595 25.5339 52.523 25.5617C53.005 25.6843 53.1227 25.49 53.1246 25.0295C53.136 23.0068 53.1075 20.984 52.9348 18.9688C52.8456 17.9668 53.0961 17.129 53.8496 16.4214C54.5043 15.8044 54.6087 15.0251 54.2291 14.2193C54.0197 13.7464 53.7608 13.2968 53.4567 12.8778C50.5265 8.94351 46.913 5.79042 42.5215 3.54687C40.6172 2.56368 38.4928 2.078 36.3479 2.13545H36.3517ZM44.0872 57.3903C43.106 58.0338 42.3564 57.7866 41.6428 57.2583C41.2338 56.9369 40.8661 56.5668 40.5478 56.1563C39.8627 55.3147 39.3768 54.3505 38.8397 53.3731C38.141 54.1605 37.5704 55.0519 37.1488 56.0148C37.0159 56.311 36.904 56.6469 36.4789 56.6431C36.0537 56.6394 35.9437 56.3016 35.8127 56.0072C35.389 55.0454 34.8187 54.1544 34.1218 53.3655C33.4727 54.5807 32.8559 55.777 31.8956 56.7394C31.0796 57.5602 30.1876 58.1772 28.9559 57.4941C28.8933 58.264 29.0394 58.9603 29.1021 59.6584C29.381 62.7964 29.7872 65.9192 30.2882 69.0308C30.3394 69.3497 30.3679 69.5969 30.8575 69.6459C34.5129 69.9513 38.1873 69.9595 41.844 69.6705C42.4911 69.6195 42.6581 69.378 42.7303 68.8138C42.9865 66.7872 43.2996 64.7664 43.5501 62.736C43.757 61.0189 43.8974 59.2886 44.0872 57.3903ZM44.2011 69.4667L48.3763 68.7119C48.5379 68.6875 48.6904 68.6214 48.8183 68.5201C48.9462 68.4187 49.045 68.2858 49.105 68.1345C49.5529 67.191 49.9875 66.2476 50.2133 65.2419C51.0028 61.7114 51.4317 62.1888 48.4028 59.7698C48.1523 59.5716 47.7784 59.3924 47.8904 59.0018C48.01 58.5791 48.4085 58.5017 48.8052 58.4829C49.3935 58.4527 49.9818 58.4942 50.5682 58.3546C51.4716 58.1414 51.5912 58.0225 51.2571 57.1809C50.2418 54.6166 48.456 52.6976 46.1198 51.2559C45.7402 51.0276 45.5751 51.0975 45.5618 51.5654C45.5314 52.6686 45.4821 53.7706 45.4138 54.8713C45.3265 56.2751 45.2544 57.6828 45.0987 59.081C44.7438 62.2699 44.4421 65.4645 43.8746 68.627C43.7968 69.1176 43.7456 69.6497 44.203 69.4629L44.2011 69.4667ZM29.0641 68.7629C28.8933 67.476 28.7073 66.0608 28.5137 64.6437C27.9186 60.3458 27.5468 56.0202 27.3997 51.6843C27.3807 51.1182 27.2099 51.0201 26.745 51.3069C25.5153 52.0628 24.4184 53.0138 23.4978 54.1222C22.6824 55.0736 22.05 56.1661 21.6323 57.3451C21.4425 57.8847 21.5469 58.23 22.213 58.3376C22.8412 58.4318 23.4755 58.4803 24.1108 58.4829C24.5056 58.4829 24.9079 58.5546 25.0597 58.9697C25.2115 59.3848 24.8206 59.5867 24.5397 59.7867C23.8572 60.2531 23.2295 60.7943 22.6685 61.4001C22.3914 61.7114 22.0783 62.0228 22.158 62.5096C22.473 64.4418 22.9645 66.3174 23.8318 68.0873C23.9039 68.2587 24.0197 68.4084 24.1678 68.5216C24.3159 68.6348 24.4912 68.7076 24.6764 68.7327C25.9764 68.9516 27.265 69.2289 28.5821 69.3723C29.0679 69.4289 29.1837 69.3214 29.066 68.7591L29.0641 68.7629ZM52.4698 56.7129C52.4698 57.5601 52.8247 58.298 52.1814 58.915C51.6367 59.4377 50.8662 59.4018 50.2361 59.6811C51.1509 60.5981 52.1738 61.4095 51.9442 62.8568C51.7339 64.3446 51.344 65.8018 50.7827 67.1967C50.6536 67.5024 50.5493 67.8175 50.4145 68.1817C51.2621 68.0294 52.0929 67.7956 52.8949 67.4835C54.51 66.8363 56.1971 66.3099 57.4858 65.0532C58.2961 64.2644 58.4347 63.5719 57.8521 62.6002C56.4875 60.3038 54.6144 58.4678 52.4717 56.7092L52.4698 56.7129ZM22.6039 68.2062C22.0115 66.8319 21.5409 65.4088 21.1977 63.9531C20.8352 62.5473 20.9699 61.3114 22.0896 60.2849L22.7691 59.6603C22.046 59.4245 21.2812 59.4169 20.7308 58.8546C20.1368 58.247 20.541 57.5073 20.4556 56.745C18.5085 58.3244 16.8137 60.0339 15.4435 62.051C14.3959 63.5945 14.6066 64.6682 16.1855 65.6475C18.1213 66.8495 20.226 67.642 22.6039 68.2062ZM28.5005 51.8956C28.6902 53.207 28.4397 54.5996 29.1685 55.8582C29.7245 56.813 30.0889 56.9073 30.9012 56.145C31.9298 55.1788 32.5485 53.9335 33.1653 52.6938C33.3 52.4221 33.1653 52.2598 33.0059 52.0768C32.4251 51.4296 31.8672 50.7559 31.2732 50.1257C30.2199 48.9935 30.0548 48.9935 28.8705 49.986C28.7354 50.0775 28.6284 50.2043 28.5614 50.3526C28.4944 50.5008 28.47 50.6645 28.491 50.8257C28.513 51.1819 28.5162 51.5391 28.5005 51.8956ZM44.537 51.2974C44.7742 50.6616 44.313 49.9426 43.33 49.4256C42.8802 49.1898 42.5462 49.1935 42.2065 49.5747C41.4587 50.42 40.704 51.2584 39.9424 52.0899C39.8471 52.1742 39.7852 52.2895 39.7678 52.415C39.7504 52.5406 39.7786 52.6682 39.8475 52.7749C40.3138 53.7998 40.9012 54.7658 41.5973 55.6525C42.7625 57.0696 43.3451 56.9846 44.036 55.3109C44.5085 54.1694 44.2941 52.9598 44.537 51.2974ZM22.0991 28.9506C22.0991 28.3071 22.0877 27.7693 22.0991 27.2297C22.1085 27.1717 22.1056 27.1123 22.0906 27.0555C22.0756 26.9987 22.0489 26.9456 22.0121 26.8996C21.9753 26.8536 21.9293 26.8158 21.8769 26.7885C21.8246 26.7611 21.7671 26.745 21.7082 26.741C20.1899 26.4655 18.702 27.0655 18.2921 28.6034C18.1101 29.3584 18.1173 30.1463 18.313 30.8979C18.6925 32.5452 20.3304 34.1547 21.9188 34.4151C22.3724 34.4906 22.7463 34.551 22.5774 33.8264C22.3926 33.0268 22.2896 32.2106 22.2699 31.3904C22.249 30.5243 21.8201 30.0506 21.0648 29.7789C20.7973 29.6893 20.5248 29.615 20.2488 29.5563C19.8692 29.4638 19.6509 29.2393 19.7477 28.8487C19.835 28.5034 20.1121 28.3958 20.4651 28.443C21.0321 28.5309 21.5827 28.7019 22.0991 28.9506ZM50.9459 28.9034C51.2852 28.7564 51.6363 28.6377 51.9954 28.5486C52.4433 28.4788 53.0695 28.1448 53.2271 28.8826C53.3732 29.5657 52.7128 29.5167 52.2895 29.6639C51.1831 30.0412 50.8149 30.2412 50.7239 31.4357C50.6669 32.1904 50.5511 32.9263 50.4392 33.6679C50.3196 34.4585 50.4392 34.5661 51.2495 34.3698C53.3201 33.8755 54.825 31.8602 54.8136 29.5978C54.8136 27.6165 53.4529 26.4353 51.502 26.7033C51.2439 26.7391 50.9535 26.7523 50.9478 27.1127C50.9345 27.6958 50.9421 28.277 50.9421 28.9034H50.9459Z" fill="#3D4B55"/>
<path d="M23.2568 27.6956C23.1885 24.6369 23.5567 21.6405 24.5682 18.7421C25.316 16.6043 26.2914 14.5419 28.2367 13.255C29.9068 12.1492 31.6528 11.0076 33.5961 10.5057C36.9837 9.6283 40.1037 10.6265 42.7645 12.7399C47.3799 16.4099 49.6934 21.2593 49.7351 27.156C49.7541 29.8203 49.7237 32.4959 48.9608 35.0622C47.3686 40.4116 43.8481 43.9308 38.4071 45.3761C35.5604 46.1309 32.9281 45.244 30.5255 43.693C26.504 41.0966 24.1241 37.4661 23.5453 32.6903C23.3411 31.0333 23.2448 29.365 23.2568 27.6956ZM44.3472 25.8653C44.8317 25.8664 45.3105 25.97 45.7516 26.1691C45.8194 26.206 45.8945 26.2279 45.9716 26.2331C46.0488 26.2383 46.1261 26.2268 46.1983 26.1993C46.2705 26.1719 46.3359 26.1291 46.3898 26.074C46.4438 26.019 46.485 25.9529 46.5107 25.8804C46.6607 25.5747 46.5107 25.3483 46.2375 25.1747C45.0115 24.4048 42.2691 24.6369 41.2519 25.5974C41.1543 25.6665 41.0827 25.766 41.0483 25.8801C41.0139 25.9943 41.0188 26.1165 41.0621 26.2276C41.0986 26.3413 41.1746 26.4385 41.2764 26.5017C41.3782 26.565 41.4994 26.5902 41.6182 26.5729C41.789 26.5559 41.9579 26.5125 42.1591 26.4767C42.1591 26.9503 42.1306 27.3729 42.1591 27.7975C42.1844 28.0923 42.3117 28.3692 42.5193 28.5812C42.727 28.7931 43.002 28.9269 43.2977 28.9599C43.9259 29.0259 44.5693 28.673 44.6642 28.0919C44.8084 27.3541 44.9299 26.5861 44.3472 25.8653ZM30.8101 26.4503C31.2371 26.5446 31.6888 26.7729 31.8938 26.2446C32.0987 25.7162 31.6357 25.5011 31.2637 25.3011C30.6084 24.9433 29.8802 24.7373 29.1336 24.6984C28.387 24.6595 27.6412 24.7888 26.9519 25.0766C26.5932 25.2181 26.2744 25.4276 26.4546 25.8578C26.6179 26.2503 26.9595 26.2861 27.3485 26.1276C27.746 25.9302 28.1907 25.8459 28.6333 25.8842C28.0963 26.4408 28.212 27.0975 28.2348 27.722C28.2347 27.8872 28.268 28.0506 28.3328 28.2026C28.3976 28.3547 28.4925 28.4922 28.6118 28.607C28.7312 28.7218 28.8726 28.8115 29.0276 28.8709C29.1825 28.9302 29.3479 28.9579 29.5139 28.9523C29.8486 28.9564 30.1715 28.8295 30.413 28.599C30.6544 28.3685 30.795 28.0528 30.8044 27.7202C30.831 27.3296 30.8025 26.9295 30.8025 26.4503H30.8101ZM28.7225 22.6764C27.5459 22.7009 26.4452 22.8179 25.4109 23.2651C25.0636 23.4142 24.7542 23.6029 24.9421 24.0539C25.1148 24.4728 25.4317 24.503 25.8151 24.3331C26.0111 24.2521 26.2128 24.1853 26.4186 24.1331C28.3771 23.5859 30.2939 23.8218 32.1879 24.4576C32.5789 24.5897 33.0059 24.7482 33.209 24.2274C33.412 23.7067 33.0059 23.5387 32.6074 23.3953C31.3629 22.9476 30.0532 22.7054 28.7301 22.6783L28.7225 22.6764ZM44.8027 22.6934C43.3876 22.6337 41.974 22.8418 40.637 23.3067C40.1948 23.4576 39.5173 23.5293 39.7754 24.2312C40.0183 24.8879 40.5725 24.5199 40.9919 24.3879C43.0188 23.7501 45.0513 23.5614 47.0896 24.3124C47.4938 24.4633 47.8487 24.5011 48.0385 24.0576C48.2283 23.6142 47.8639 23.384 47.4938 23.2368C46.6392 22.8978 45.7302 22.7144 44.8103 22.6953L44.8027 22.6934ZM36.6573 37.1171C37.1166 37.0774 37.684 37.0529 38.242 36.9699C38.7544 36.8925 39.2725 36.7812 39.6558 36.3849C39.8646 36.1717 39.969 35.9094 39.7488 35.6301C39.5287 35.3509 39.3009 35.3396 38.9897 35.466C38.197 35.8132 37.3401 35.9915 36.4739 35.9896C35.6077 35.9876 34.7516 35.8054 33.9605 35.4547C33.8469 35.3912 33.7148 35.3683 33.5864 35.3899C33.4579 35.4116 33.3407 35.4764 33.2545 35.5736C33.1599 35.6646 33.1032 35.7877 33.0954 35.9183C33.0877 36.049 33.1296 36.1778 33.2128 36.2793C33.4348 36.6246 33.7973 36.7491 34.1617 36.8454C34.9531 37.0473 35.7558 37.0812 36.6649 37.1189L36.6573 37.1171ZM36.3119 32.7771C37.0596 32.7677 37.5948 32.679 38.0522 32.3526C38.3805 32.1186 38.5133 31.777 38.2704 31.4317C38.0275 31.0864 37.7277 31.1506 37.3993 31.3676C37.1383 31.5551 36.8254 31.6579 36.5034 31.6619C36.1814 31.666 35.8659 31.5711 35.6002 31.3902C35.2434 31.1694 34.917 31.077 34.6893 31.4619C34.4615 31.8469 34.6285 32.1997 35.0062 32.4186C35.4057 32.6474 35.8584 32.7684 36.3195 32.7696L36.3119 32.7771Z" fill="#FFD4C8"/>
<path d="M36.3479 2.13526C38.493 2.08104 40.6168 2.56998 42.5196 3.55612C46.9112 5.79968 50.5246 8.95272 53.4548 12.887C53.7589 13.306 54.0178 13.7557 54.2272 14.2286C54.5954 15.0343 54.4967 15.8136 53.8477 16.4306C53.0886 17.1382 52.8437 17.976 52.9329 18.978C53.1132 20.9932 53.1417 23.016 53.1227 25.0388C53.1227 25.4992 53.0032 25.6936 52.5211 25.5709C52.3576 25.5431 52.1914 25.5342 52.0258 25.5445C50.8396 25.5332 50.8871 25.5275 50.684 24.3161C49.7617 18.5855 46.9985 13.9776 42.0148 10.8774C39.4949 9.26472 36.4345 8.71169 33.505 9.33958C33.0373 9.41265 32.5847 9.56113 32.1651 9.7792C30.8727 10.5491 29.4721 11.1208 28.1797 11.8888C25.9991 13.1908 24.7371 15.2551 23.8034 17.5496C22.8241 19.946 22.3572 22.4556 22.1675 25.0199C22.1295 25.5256 21.9872 25.6785 21.4994 25.586C21.2656 25.5532 21.0287 25.5469 20.7934 25.5672C19.7705 25.5955 19.7667 25.5973 19.6548 24.6105C19.5785 23.7904 19.5735 22.9652 19.6396 22.1442C19.6927 21.1008 19.9148 20.029 18.8121 19.2761C18.535 19.0874 18.5521 18.5817 18.6413 18.2025C19.7345 13.5135 22.2775 10.0057 26.9082 8.20176C27.21 8.08477 27.4434 7.94699 27.5421 7.60735C28.491 4.31655 30.9354 2.84854 34.1142 2.29944C34.8491 2.15325 35.5994 2.09808 36.3479 2.13526ZM36.792 4.92037C33.803 4.92037 31.5958 5.78461 29.6904 7.44887C29.3716 7.72814 29.1837 8.04889 29.5139 8.41307C29.8441 8.77725 30.1516 8.57346 30.4362 8.31872C32.8047 6.19782 35.5603 5.64875 38.6196 6.31861C41.2766 6.90167 43.6963 7.93191 45.5751 9.97923C45.6205 10.0419 45.6787 10.0942 45.7461 10.1326C45.8134 10.171 45.8882 10.1946 45.9655 10.202C46.0428 10.2093 46.1207 10.2001 46.1941 10.1751C46.2676 10.15 46.3347 10.1096 46.3912 10.0566C46.4492 10.0141 46.4975 9.95993 46.5329 9.8975C46.5683 9.83508 46.59 9.7659 46.5964 9.69453C46.6029 9.62316 46.594 9.55124 46.5704 9.48354C46.5468 9.41584 46.509 9.35388 46.4595 9.3018C46.2376 8.9967 45.983 8.71644 45.7004 8.46591C42.9922 6.23179 39.8646 5.07509 36.792 4.92037Z" fill="#FCC240"/>
<path d="M44.0872 57.3903C43.8975 59.2885 43.7551 61.0188 43.5445 62.7416C43.2978 64.7719 42.9751 66.7928 42.7246 68.8194C42.6525 69.3855 42.4855 69.6251 41.8383 69.6761C38.1816 69.9651 34.5073 69.9569 30.8519 69.6515C30.3679 69.61 30.3395 69.3553 30.2825 69.0364C29.7815 65.9248 29.3754 62.8095 29.0964 59.664C29.0338 58.9659 28.8876 58.2696 28.9503 57.4997C30.1876 58.1809 31.0739 57.5639 31.89 56.7449C32.8503 55.7826 33.4671 54.5863 34.1161 53.3711C34.813 54.16 35.3834 55.051 35.8071 56.0128C35.938 56.3072 36.0481 56.6468 36.4732 56.6487C36.8983 56.6506 37.0103 56.3166 37.1431 56.0203C37.5647 55.0575 38.1353 54.1661 38.8341 53.3786C39.3712 54.3561 39.857 55.3203 40.5421 56.1619C40.8604 56.5723 41.2282 56.9425 41.6372 57.2638C42.3583 57.7865 43.108 58.0337 44.0872 57.3903Z" fill="#F5EEDD"/>
<path d="M44.203 69.4627C43.7456 69.6514 43.7968 69.1174 43.8841 68.6306C44.4535 65.4681 44.7533 62.2735 45.1082 59.0846C45.2639 57.6864 45.336 56.2788 45.4233 54.8749C45.4916 53.7754 45.5409 52.6735 45.5713 51.569C45.5846 51.101 45.7611 51.0312 46.1293 51.2596C48.4655 52.7012 50.2513 54.6202 51.2666 57.1845C51.6007 58.0261 51.4811 58.145 50.5777 58.3582C49.9913 58.4978 49.403 58.4563 48.8147 58.4865C48.418 58.5054 48.0195 58.5827 47.8999 59.0054C47.788 59.3979 48.1618 59.5715 48.4123 59.7734C51.4488 62.1849 51.0123 61.7075 50.2228 65.2455C49.997 66.2493 49.5624 67.2022 49.1145 68.1381C49.0545 68.2894 48.9557 68.4223 48.8278 68.5236C48.6999 68.625 48.5475 68.6912 48.3858 68.7155L44.203 69.4627Z" fill="#1D996C"/>
<path d="M29.066 68.759C29.1837 69.325 29.066 69.4288 28.5821 69.376C27.265 69.2326 25.9764 68.9552 24.6764 68.7363C24.4913 68.7113 24.316 68.6385 24.1678 68.5253C24.0197 68.4121 23.9039 68.2624 23.8319 68.091C22.9646 66.321 22.473 64.4454 22.158 62.5132C22.0783 62.0264 22.3914 61.7151 22.6685 61.4037C23.2295 60.798 23.8572 60.2568 24.5398 59.7904C24.8206 59.5904 25.2097 59.413 25.0598 58.9734C24.9098 58.5337 24.5132 58.4941 24.1108 58.4865C23.4755 58.484 22.8412 58.4354 22.213 58.3412C21.5469 58.2337 21.4539 57.8884 21.6323 57.3487C22.0501 56.1698 22.6824 55.0773 23.4979 54.1258C24.4184 53.0175 25.5153 52.0665 26.745 51.3106C27.2176 51.0162 27.3808 51.1068 27.3998 51.6879C27.5509 56.0216 27.9265 60.3446 28.5252 64.6398C28.7149 66.0569 28.9047 67.4721 29.066 68.759Z" fill="#1D996C"/>
<path d="M52.4718 56.709C54.6144 58.4676 56.4875 60.3036 57.8578 62.5849C58.448 63.5642 58.3018 64.2567 57.4915 65.0379C56.2029 66.2946 54.5157 66.821 52.9007 67.4682C52.0986 67.7803 51.2678 68.0142 50.4202 68.1664C50.555 67.8022 50.6593 67.4871 50.7884 67.1814C51.3497 65.7865 51.7396 64.3293 51.9499 62.8415C52.1757 61.3942 51.1528 60.5772 50.2418 59.6658C50.8719 59.3865 51.6424 59.4224 52.1871 58.8997C52.8266 58.294 52.4755 57.5562 52.4718 56.709Z" fill="#1D996C"/>
<path d="M22.604 68.2061C20.226 67.64 18.1214 66.8494 16.1856 65.6474C14.6066 64.6681 14.3959 63.5944 15.4435 62.0509C16.8138 60.0338 18.5085 58.3242 20.4557 56.7449C20.5335 57.4996 20.1368 58.2544 20.7309 58.8544C21.2812 59.4205 22.046 59.4205 22.7691 59.6602L22.0897 60.2847C20.97 61.3094 20.8352 62.5491 21.1977 63.9529C21.541 65.4087 22.0115 66.8318 22.604 68.2061Z" fill="#1D996C"/>
<path d="M40.7281 47.6084C41.2784 48.5802 41.0052 49.2802 40.2271 50.086C38.8796 51.4823 37.5094 52.888 36.4998 54.7372C35.8016 53.5948 34.9903 52.5247 34.0781 51.5427C33.5088 50.9219 32.9945 50.2331 32.3701 49.6557C31.8672 49.1859 31.704 48.7481 32.0627 48.1462C32.1406 47.9753 32.1985 47.7962 32.2354 47.6122C32.3497 47.6331 32.4616 47.6653 32.5694 47.7084C34.3287 48.6273 36.1904 48.75 38.1186 48.4462C39.0428 48.299 39.8494 47.848 40.7281 47.6084Z" fill="#FFD4C8"/>
<path d="M28.5005 51.8955C28.5196 51.5373 28.5196 51.1782 28.5005 50.8199C28.4795 50.6588 28.5039 50.495 28.5709 50.3468C28.6379 50.1986 28.7449 50.0717 28.8801 49.9803C30.0643 48.9859 30.2294 48.984 31.2827 50.1199C31.8729 50.7577 32.4347 51.4238 33.0154 52.071C33.1786 52.2597 33.3096 52.4163 33.1748 52.688C32.558 53.9277 31.9393 55.1731 30.9107 56.1392C30.0985 56.894 29.7341 56.8072 29.178 55.8524C28.4398 54.5995 28.6979 53.2069 28.5005 51.8955Z" fill="#FEFEFE"/>
<path d="M44.537 51.2973C44.2941 52.9521 44.5086 54.1692 44.036 55.3108C43.3452 56.9845 42.7626 57.0694 41.5973 55.6523C40.9012 54.7656 40.3138 53.7996 39.8475 52.7748C39.7787 52.6681 39.7504 52.5405 39.7678 52.4149C39.7852 52.2893 39.8471 52.174 39.9424 52.0898C40.7015 51.2583 41.4562 50.4199 42.2065 49.5746C42.5462 49.1972 42.8802 49.1972 43.33 49.4255C44.3131 49.9406 44.7742 50.6614 44.537 51.2973Z" fill="#FEFEFE"/>
<path d="M22.0992 28.9505C21.5834 28.702 21.0333 28.531 20.467 28.4429C20.114 28.3958 19.837 28.5033 19.7497 28.8486C19.6529 29.2392 19.8711 29.4637 20.2507 29.5562C20.5268 29.6149 20.7992 29.6892 21.0668 29.7788C21.8259 30.0506 22.251 30.5242 22.2719 31.3903C22.2915 32.2105 22.3945 33.0267 22.5793 33.8263C22.7482 34.5509 22.3744 34.4905 21.9208 34.415C20.3361 34.1546 18.6945 32.5451 18.3149 30.8978C18.1192 30.1462 18.1121 29.3583 18.2941 28.6033C18.704 27.0654 20.1919 26.4654 21.7101 26.7409C21.7691 26.7449 21.8266 26.7611 21.8789 26.7884C21.9312 26.8157 21.9772 26.8535 22.014 26.8995C22.0508 26.9455 22.0776 26.9986 22.0926 27.0554C22.1075 27.1123 22.1104 27.1716 22.1011 27.2296C22.0878 27.7693 22.0992 28.3071 22.0992 28.9505Z" fill="#FFD4C8"/>
<path d="M50.9422 28.9032C50.9422 28.2768 50.9422 27.6956 50.9422 27.1125C50.9422 26.7521 51.2382 26.7352 51.4963 26.7031C53.4473 26.4351 54.7985 27.6163 54.808 29.5976C54.8194 31.8619 53.3144 33.8753 51.2439 34.3697C50.426 34.5583 50.314 34.4583 50.4336 33.6677C50.5455 32.9262 50.6613 32.1827 50.7182 31.4355C50.8093 30.241 51.1775 30.0467 52.2839 29.6637C52.7071 29.5165 53.3676 29.5655 53.2214 28.8825C53.0639 28.1447 52.4376 28.4786 51.9898 28.5485C51.6313 28.6376 51.2809 28.7563 50.9422 28.9032Z" fill="#FFD4C8"/>
<path d="M40.7281 47.6083C39.8494 47.848 39.0428 48.299 38.1262 48.4443C36.198 48.7481 34.3306 48.6329 32.577 47.7065C32.4692 47.6634 32.3573 47.6311 32.243 47.6102C32.3606 47.114 32.2107 46.4328 32.5865 46.1573C32.9623 45.8818 33.4955 46.3177 33.9643 46.4309C35.8962 46.908 37.9254 46.8223 39.8096 46.1837C40.4264 45.9762 40.5459 46.2102 40.5971 46.7083C40.6275 47.0102 40.6826 47.3083 40.7281 47.6083Z" fill="#F2AB94"/>
<path d="M44.3472 25.8653C44.9299 26.5861 44.8084 27.3541 44.6869 28.0862C44.5921 28.6674 43.9487 29.0297 43.3205 28.9542C43.0248 28.9213 42.7498 28.7874 42.5421 28.5755C42.3345 28.3636 42.2072 28.0867 42.1818 27.7919C42.1477 27.373 42.1818 26.9503 42.1818 26.471C41.9807 26.5069 41.8118 26.5502 41.641 26.5672C41.5221 26.5845 41.401 26.5593 41.2992 26.4961C41.1974 26.4328 41.1214 26.3357 41.0849 26.2219C41.0416 26.1109 41.0367 25.9886 41.0711 25.8745C41.1054 25.7603 41.1771 25.6608 41.2747 25.5917C42.2919 24.6313 45.0343 24.3992 46.2602 25.169C46.5335 25.3426 46.6835 25.5691 46.5335 25.8747C46.5078 25.9472 46.4666 26.0133 46.4126 26.0684C46.3587 26.1234 46.2933 26.1662 46.2211 26.1937C46.1489 26.2211 46.0716 26.2326 45.9944 26.2274C45.9173 26.2222 45.8422 26.2004 45.7744 26.1634C45.3258 25.9631 44.839 25.8614 44.3472 25.8653Z" fill="#3D4B55"/>
<path d="M30.8025 26.4502C30.8025 26.9295 30.8234 27.3295 30.8025 27.7258C30.7931 28.0585 30.6525 28.3741 30.411 28.6046C30.1696 28.8351 29.8467 28.962 29.512 28.9579C29.346 28.9635 29.1806 28.9358 29.0256 28.8765C28.8707 28.8172 28.7293 28.7274 28.6099 28.6126C28.4906 28.4978 28.3957 28.3603 28.3309 28.2082C28.2661 28.0562 28.2328 27.8928 28.2329 27.7277C28.2101 27.1031 28.0943 26.4464 28.6314 25.8898C28.1888 25.8515 27.7441 25.9358 27.3466 26.1332C26.967 26.2917 26.6159 26.2558 26.4527 25.8634C26.2629 25.4331 26.5913 25.2237 26.95 25.0822C27.6393 24.7944 28.3851 24.6651 29.1317 24.704C29.8783 24.7429 30.6065 24.9489 31.2618 25.3067C31.6413 25.4954 32.1044 25.6992 31.8919 26.2502C31.6793 26.8012 31.2371 26.5427 30.8025 26.4502Z" fill="#3D4B55"/>
<path d="M28.7301 22.6783C30.0559 22.7053 31.3682 22.9481 32.6149 23.3973C33.0135 23.5407 33.4234 23.7029 33.2166 24.2294C33.0097 24.7558 32.5865 24.5917 32.1955 24.4596C30.2977 23.8237 28.3847 23.5878 26.4262 24.135C26.2204 24.1872 26.0187 24.2541 25.8227 24.3351C25.4431 24.5049 25.1224 24.4747 24.9497 24.0558C24.7599 23.6048 25.0711 23.4161 25.4184 23.267C26.4546 22.8198 27.5535 22.7029 28.7301 22.6783Z" fill="#3D4B55"/>
<path d="M44.8103 22.6952C45.7322 22.7142 46.6432 22.8983 47.4995 23.2387C47.8696 23.3858 48.232 23.5859 48.0442 24.0595C47.8563 24.5331 47.5014 24.4652 47.0953 24.3142C45.057 23.5594 43.0244 23.7481 40.9976 24.3897C40.5782 24.5218 40.024 24.8897 39.7811 24.2331C39.523 23.5311 40.2005 23.4595 40.6427 23.3085C41.9803 22.8434 43.3946 22.6353 44.8103 22.6952Z" fill="#3D4B55"/>
<path d="M36.6649 37.119C35.7558 37.0812 34.9569 37.0473 34.1731 36.8435C33.8106 36.7473 33.4481 36.6227 33.2242 36.2774C33.141 36.1759 33.0991 36.0471 33.1068 35.9165C33.1146 35.7858 33.1713 35.6628 33.2659 35.5717C33.3521 35.4745 33.4693 35.4097 33.5977 35.3881C33.7262 35.3664 33.8583 35.3893 33.9719 35.4528C34.763 35.8035 35.6191 35.9857 36.4853 35.9877C37.3515 35.9896 38.2084 35.8113 39.0011 35.4641C39.3066 35.3377 39.5496 35.3679 39.7602 35.6283C39.9709 35.8887 39.876 36.1736 39.6672 36.383C39.2877 36.7736 38.7658 36.8906 38.2534 36.968C37.6916 37.0548 37.1242 37.0793 36.6649 37.119Z" fill="#3D4B55"/>
<path d="M36.3195 32.7696C35.8603 32.7647 35.4103 32.6412 35.0138 32.4111C34.6342 32.1922 34.4729 31.8355 34.6968 31.4544C34.9208 31.0732 35.251 31.1619 35.6078 31.3827C35.8735 31.5635 36.1889 31.6585 36.511 31.6544C36.833 31.6504 37.1459 31.5475 37.4069 31.36C37.7352 31.143 38.0484 31.0997 38.278 31.4242C38.5077 31.7488 38.3881 32.111 38.0598 32.345C37.6024 32.6771 37.0653 32.7696 36.3195 32.7696Z" fill="#3D4B55"/>
<path d="M36.792 4.92046C39.8646 5.07519 42.9922 6.24132 45.7118 8.466C45.9945 8.71654 46.249 8.9968 46.4709 9.3019C46.5204 9.35397 46.5582 9.41593 46.5818 9.48363C46.6054 9.55133 46.6143 9.62326 46.6078 9.69462C46.6014 9.76599 46.5797 9.83518 46.5443 9.8976C46.509 9.96002 46.4606 10.0142 46.4026 10.0567C46.3461 10.1097 46.279 10.1501 46.2055 10.1752C46.1321 10.2002 46.0542 10.2094 45.9769 10.2021C45.8996 10.1947 45.8248 10.1711 45.7575 10.1327C45.6901 10.0943 45.6319 10.042 45.5865 9.97932C43.7077 7.93201 41.2842 6.90176 38.631 6.3187C35.5774 5.64884 32.8161 6.19791 30.4477 8.31882C30.163 8.57355 29.8442 8.7679 29.5253 8.41316C29.2065 8.05842 29.383 7.72823 29.7018 7.44897C31.5958 5.78659 33.803 4.91291 36.792 4.92046Z" fill="#3D4B55"/>
</svg>
