<svg width="8" height="8" viewBox="0 0 8 8" fill="none" xmlns="http://www.w3.org/2000/svg">
<g clip-path="url(#clip0_6_26)">
<path d="M4 0C3.20888 0 2.43552 0.234596 1.77772 0.674122C1.11992 1.11365 0.607234 1.73836 0.304484 2.46927C0.00173314 3.20017 -0.0774802 4.00444 0.0768607 4.78036C0.231202 5.55629 0.612165 6.26902 1.17157 6.82843C1.73098 7.38784 2.44372 7.7688 3.21964 7.92314C3.99556 8.07748 4.79983 7.99827 5.53074 7.69552C6.26164 7.39277 6.88635 6.88008 7.32588 6.22228C7.76541 5.56449 8 4.79113 8 4C7.99886 2.93949 7.57706 1.92274 6.82716 1.17284C6.07727 0.422943 5.06052 0.00114703 4 0ZM4 7.33333C3.34073 7.33333 2.69626 7.13784 2.1481 6.77157C1.59994 6.40529 1.1727 5.8847 0.920403 5.27561C0.668111 4.66652 0.6021 3.9963 0.730718 3.3497C0.859335 2.7031 1.1768 2.10915 1.64298 1.64298C2.10915 1.1768 2.7031 0.859333 3.3497 0.730716C3.9963 0.602098 4.66653 0.66811 5.27561 0.920402C5.8847 1.17269 6.4053 1.59994 6.77157 2.1481C7.13784 2.69626 7.33334 3.34073 7.33334 4C7.33237 4.88376 6.98086 5.73104 6.35595 6.35595C5.73104 6.98086 4.88376 7.33236 4 7.33333Z" fill="white"/>
<path d="M4.23933 1.68767C4.0471 1.65265 3.84953 1.6603 3.66059 1.71009C3.47165 1.75987 3.29596 1.85057 3.14596 1.97577C2.99595 2.10097 2.8753 2.25761 2.79253 2.4346C2.70976 2.6116 2.66691 2.80462 2.66699 3.00001C2.66699 3.08841 2.70211 3.1732 2.76462 3.23571C2.82714 3.29822 2.91192 3.33334 3.00033 3.33334C3.08873 3.33334 3.17352 3.29822 3.23603 3.23571C3.29854 3.1732 3.33366 3.08841 3.33366 3.00001C3.33358 2.90193 3.35513 2.80505 3.39679 2.71626C3.43845 2.62747 3.49918 2.54897 3.57466 2.48635C3.65015 2.42373 3.73851 2.37853 3.83347 2.35399C3.92842 2.32944 4.02762 2.32615 4.12399 2.34434C4.25567 2.3699 4.37674 2.43413 4.47174 2.52883C4.56674 2.62354 4.63135 2.74441 4.65733 2.87601C4.68356 3.01414 4.66545 3.15703 4.60558 3.28425C4.54571 3.41147 4.44715 3.51651 4.32399 3.58434C4.12005 3.70249 3.95152 3.87318 3.83597 4.07861C3.72041 4.28403 3.66206 4.51669 3.66699 4.75234V5.00001C3.66699 5.08841 3.70211 5.1732 3.76462 5.23571C3.82714 5.29822 3.91192 5.33334 4.00033 5.33334C4.08873 5.33334 4.17352 5.29822 4.23603 5.23571C4.29854 5.1732 4.33366 5.08841 4.33366 5.00001V4.75234C4.32948 4.63634 4.35593 4.52129 4.41035 4.41877C4.46477 4.31625 4.54524 4.22987 4.64366 4.16834C4.88516 4.0357 5.07964 3.83149 5.20035 3.58381C5.32106 3.33612 5.36208 3.05712 5.31775 2.78518C5.27343 2.51324 5.14594 2.2617 4.95283 2.06517C4.75971 1.86864 4.51045 1.73676 4.23933 1.68767Z" fill="white"/>
<path d="M4.33366 6.00002C4.33366 5.81593 4.18442 5.66669 4.00033 5.66669C3.81623 5.66669 3.66699 5.81593 3.66699 6.00002C3.66699 6.18412 3.81623 6.33335 4.00033 6.33335C4.18442 6.33335 4.33366 6.18412 4.33366 6.00002Z" fill="white"/>
</g>
<defs>
<clipPath id="clip0_6_26">
<rect width="8" height="8" fill="white"/>
</clipPath>
</defs>
</svg>
