<svg width="80" height="80" viewBox="0 0 80 80" fill="none" xmlns="http://www.w3.org/2000/svg">
<g filter="url(#filter0_d_1_1226)">
<rect x="4" width="72" height="72" rx="10" fill="#1D996C"/>
</g>
<g clip-path="url(#clip0_1_1226)">
<path d="M40.6737 55.9665H22.5607C22.2311 55.9893 21.9002 55.947 21.5869 55.8419C21.2736 55.7369 20.9842 55.5711 20.7349 55.3542C20.5122 55.1569 20.3329 54.9155 20.2083 54.6453C20.0837 54.3751 20.0166 54.0819 20.0113 53.7845C20.0113 53.6063 20.0113 53.4394 20.0113 53.2724V17.0018C20.0001 16.8313 20.0001 16.6602 20.0113 16.4897C20.0383 16.3501 20.1131 16.2242 20.2228 16.1337C20.3325 16.0432 20.4702 15.9937 20.6125 15.9937C20.7547 15.9937 20.8925 16.0432 21.0022 16.1337C21.1119 16.2242 21.1866 16.3501 21.2136 16.4897C21.2301 16.686 21.2301 16.8834 21.2136 17.0798C21.2136 29.1403 21.2136 41.1896 21.2136 53.2278C21.197 53.4539 21.197 53.6809 21.2136 53.9069C21.2429 54.1121 21.3379 54.3022 21.4845 54.4488C21.631 54.5953 21.8212 54.6904 22.0263 54.7196C22.2487 54.7363 22.4719 54.7363 22.6943 54.7196H58.8423C59.0238 54.703 59.2064 54.703 59.3879 54.7196C59.4625 54.7209 59.536 54.7375 59.604 54.7683C59.6719 54.7991 59.7328 54.8435 59.7829 54.8989C59.833 54.9542 59.8712 55.0191 59.8951 55.0898C59.9191 55.1605 59.9283 55.2353 59.9222 55.3097C59.9283 55.3884 59.9182 55.4676 59.8926 55.5423C59.8669 55.617 59.8262 55.6857 59.773 55.7441C59.7199 55.8025 59.6553 55.8493 59.5833 55.8819C59.5113 55.9144 59.4335 55.9318 59.3545 55.9331H40.6737V55.9665Z" fill="#FCFCFC"/>
<path d="M46.7853 42.6072C46.7853 39.5568 46.7853 36.5175 46.7853 33.4672C46.7489 33.2313 46.7688 32.9901 46.8434 32.7633C46.918 32.5366 47.0452 32.3307 47.2145 32.1624C47.3838 31.9942 47.5905 31.8684 47.8177 31.7952C48.045 31.7221 48.2863 31.7037 48.522 31.7416C50.4257 31.7416 52.3294 31.7416 54.2331 31.7416C54.4599 31.7144 54.6899 31.7393 54.9057 31.8143C55.1214 31.8894 55.3172 32.0126 55.4782 32.1746C55.6392 32.3367 55.7611 32.5333 55.8347 32.7496C55.9083 32.9658 55.9317 33.196 55.903 33.4227V51.7917C55.9328 52.0215 55.909 52.255 55.8336 52.4741C55.7582 52.6932 55.6332 52.8919 55.4683 53.0547C55.3033 53.2174 55.103 53.3399 54.8829 53.4124C54.6629 53.4849 54.4291 53.5056 54.1997 53.4727H48.4886C48.2554 53.5048 48.018 53.482 47.7952 53.4063C47.5723 53.3306 47.3702 53.2039 47.2049 53.0364C47.0395 52.8689 46.9155 52.6652 46.8427 52.4414C46.7698 52.2176 46.7502 51.9799 46.7853 51.7472C46.7741 48.7302 46.7853 45.691 46.7853 42.6072ZM54.645 42.6072C54.645 39.5568 54.645 36.5175 54.645 33.4672C54.645 33.0664 54.5225 32.9551 54.1329 32.9662C52.2626 32.9662 50.3811 32.9662 48.5108 32.9662C48.1434 32.9662 48.021 33.0664 48.021 33.4449C48.021 39.5308 48.021 45.6242 48.021 51.7249C48.021 52.0923 48.1434 52.2036 48.5108 52.2036C50.3737 52.2036 52.2292 52.2036 54.0772 52.2036C54.5003 52.2036 54.6338 52.0923 54.6338 51.6581C54.6338 48.6968 54.645 45.6798 54.645 42.6628V42.6072Z" fill="#FCFCFC"/>
<path d="M44.5588 45.4349V51.8251C44.5872 52.0507 44.564 52.2798 44.491 52.4951C44.418 52.7105 44.2971 52.9064 44.1374 53.0683C43.9777 53.2301 43.7834 53.3536 43.569 53.4294C43.3547 53.5053 43.126 53.5315 42.9 53.5062C40.9629 53.5062 39.0258 53.5062 37.0998 53.5062C36.8739 53.5315 36.6451 53.5053 36.4308 53.4294C36.2165 53.3536 36.0221 53.2301 35.8624 53.0683C35.7027 52.9064 35.5819 52.7105 35.5089 52.4951C35.4359 52.2798 35.4127 52.0507 35.4411 51.8251V39.0781C35.41 38.8525 35.4315 38.6228 35.5037 38.4068C35.5759 38.1909 35.6969 37.9945 35.8574 37.8329C36.0179 37.6713 36.2135 37.549 36.429 37.4753C36.6444 37.4017 36.874 37.3787 37.0998 37.4082H42.9C43.1269 37.3783 43.3576 37.4014 43.574 37.4756C43.7905 37.5499 43.9868 37.6733 44.1475 37.8362C44.3082 37.9991 44.429 38.197 44.5003 38.4144C44.5717 38.6318 44.5917 38.8628 44.5588 39.0893V45.4349ZM43.3008 45.4349C43.3008 43.342 43.3008 41.2379 43.3008 39.1338C43.3008 38.733 43.1672 38.6217 42.7887 38.6328H37.1778C36.8104 38.6328 36.6879 38.7441 36.6879 39.1226C36.6879 43.3308 36.6879 47.5464 36.6879 51.7695C36.6879 52.148 36.8104 52.2482 37.1778 52.2482C39.0481 52.2482 40.9295 52.2482 42.7998 52.2482C43.1894 52.2482 43.3119 52.1369 43.3119 51.7472C43.2897 49.6543 43.3008 47.5502 43.3008 45.4461V45.4349Z" fill="#FCFCFC"/>
<path d="M50.4702 26.142L49.112 25.7746C48.7001 25.6521 48.5108 25.3738 48.5888 25.0398C48.6045 24.9519 48.6393 24.8684 48.6906 24.7953C48.742 24.7222 48.8087 24.6613 48.8862 24.6167C48.9636 24.5722 49.0499 24.5451 49.1389 24.5374C49.2279 24.5297 49.3176 24.5416 49.4015 24.5723C50.4034 24.8172 51.3942 25.0732 52.3851 25.3516C52.4716 25.3719 52.553 25.4099 52.6242 25.4633C52.6954 25.5166 52.7548 25.584 52.7987 25.6614C52.8426 25.7387 52.8701 25.8243 52.8793 25.9127C52.8886 26.0012 52.8795 26.0906 52.8526 26.1754C52.6077 27.1662 52.3517 28.1459 52.0845 29.1256C52.0673 29.2091 52.0337 29.2883 51.9857 29.3588C51.9377 29.4293 51.8762 29.4895 51.8048 29.5361C51.7334 29.5827 51.6534 29.6147 51.5696 29.6302C51.4858 29.6457 51.3997 29.6445 51.3163 29.6265C51.2305 29.6038 51.1502 29.5637 51.0805 29.5085C51.0109 29.4534 50.9534 29.3845 50.9116 29.3061C50.8698 29.2278 50.8446 29.1416 50.8377 29.0531C50.8307 28.9646 50.842 28.8755 50.871 28.7916L51.294 27.1773C51.1487 27.2303 51.0073 27.2935 50.871 27.3666L25.8 40.0579C25.21 40.3585 24.8649 40.3251 24.6867 39.9466C24.5086 39.5681 24.6867 39.2564 25.2322 38.9558L50.0472 26.3869C50.1474 26.3312 50.2587 26.2533 50.4702 26.142Z" fill="#FCFCFC"/>
<path d="M24.0968 48.5633C24.0968 47.45 24.0968 46.3367 24.0968 45.2234C24.0743 45.0084 24.0999 44.791 24.1718 44.587C24.2437 44.3831 24.3601 44.1976 24.5124 44.0442C24.6648 43.8907 24.8494 43.7731 25.0529 43.6998C25.2563 43.6265 25.4735 43.5993 25.6887 43.6203H31.6114C31.8275 43.5976 32.046 43.6234 32.2508 43.6959C32.4557 43.7684 32.6417 43.8858 32.7954 44.0395C32.949 44.1931 33.0664 44.3792 33.1389 44.584C33.2114 44.7889 33.2373 45.0073 33.2145 45.2234C33.2145 47.45 33.2145 49.6765 33.2145 51.8252C33.2369 52.0446 33.2103 52.2663 33.1367 52.4743C33.0631 52.6823 32.9443 52.8713 32.7889 53.0278C32.6334 53.1844 32.4452 53.3045 32.2377 53.3795C32.0302 53.4545 31.8087 53.4826 31.5891 53.4617C29.6298 53.4617 27.6704 53.4617 25.711 53.4617C25.4923 53.4808 25.272 53.4514 25.066 53.3756C24.8599 53.2998 24.6731 53.1795 24.5189 53.0232C24.3647 52.8669 24.2469 52.6784 24.174 52.4713C24.101 52.2643 24.0746 52.0436 24.0968 51.8252C24.0856 50.7676 24.0968 49.6654 24.0968 48.5633ZM25.3548 48.5633C25.3548 49.6765 25.3548 50.7898 25.3548 51.9031C25.3548 52.2482 25.4772 52.3484 25.8001 52.3484C27.7038 52.3484 29.6075 52.3484 31.5112 52.3484C31.8897 52.3484 31.9787 52.2037 31.9787 51.8474C31.9787 49.7248 31.9787 47.5984 31.9787 45.4684C31.9787 45.0899 31.8563 44.9785 31.4889 44.9785C29.6186 44.9785 27.7372 44.9785 25.8669 44.9785C25.4884 44.9785 25.3436 45.0787 25.3548 45.4795C25.3659 46.4369 25.3548 47.4834 25.3548 48.5187V48.5633Z" fill="#FCFCFC"/>
</g>
<defs>
<filter id="filter0_d_1_1226" x="0" y="0" width="80" height="80" filterUnits="userSpaceOnUse" color-interpolation-filters="sRGB">
<feFlood flood-opacity="0" result="BackgroundImageFix"/>
<feColorMatrix in="SourceAlpha" type="matrix" values="0 0 0 0 0 0 0 0 0 0 0 0 0 0 0 0 0 0 127 0" result="hardAlpha"/>
<feOffset dy="4"/>
<feGaussianBlur stdDeviation="2"/>
<feComposite in2="hardAlpha" operator="out"/>
<feColorMatrix type="matrix" values="0 0 0 0 0.00392157 0 0 0 0 0.321569 0 0 0 0 0.2 0 0 0 0.05 0"/>
<feBlend mode="normal" in2="BackgroundImageFix" result="effect1_dropShadow_1_1226"/>
<feBlend mode="normal" in="SourceGraphic" in2="effect1_dropShadow_1_1226" result="shape"/>
</filter>
<clipPath id="clip0_1_1226">
<rect width="39.9889" height="40" fill="white" transform="translate(20 16)"/>
</clipPath>
</defs>
</svg>
