<svg width="72" height="72" viewBox="0 0 72 72" fill="none" xmlns="http://www.w3.org/2000/svg">
<path d="M33.585 70.875C30.5962 70.875 25.3237 70.2938 20.2106 68.61C18.4125 68.0175 16.6481 67.3181 15.0675 66.2625C12.8831 64.8094 12.5494 63.1688 14.0531 61.0444C16.7775 57.195 20.385 54.3937 24.5737 52.3106C25.2307 52.0125 25.8485 51.6347 26.4131 51.1856C27.4258 50.3142 28.5955 49.6441 29.8594 49.2112C30.5475 48.9787 30.69 48.3844 30.9712 47.8687C31.0856 47.6606 30.885 47.5875 30.7519 47.5031C29.5747 46.7354 28.5187 45.7963 27.6187 44.7169C27.3186 44.388 26.9718 44.105 26.5894 43.8769C23.6137 42.0262 22.2769 39.2344 22.0575 35.8463C22.0088 35.1188 21.9375 34.7606 21.0581 34.6987C19.8525 34.6144 18.9956 33.7612 18.2944 32.8237C17.771 32.1291 17.4085 31.3269 17.2331 30.4751C17.0576 29.6232 17.0737 28.743 17.28 27.8981C17.4337 27.1987 17.7206 26.5181 18.3094 26.1112C18.8363 25.7456 18.9019 25.3613 18.8719 24.7669C18.5775 19.4513 18.8119 14.1863 20.6513 9.11438C21.285 7.36876 22.1269 5.72813 23.385 4.33501C24.5306 3.06376 25.92 2.57437 27.6131 2.96437C28.7494 3.22687 29.7581 3.02248 30.6319 2.15248C31.8675 0.918731 33.6319 0.830635 35.0344 1.85439C35.6981 2.34001 36.1481 2.34001 36.8175 1.85439C38.2669 0.811885 40.005 0.916889 41.2706 2.18626C41.6262 2.56166 42.0771 2.83325 42.5752 2.97197C43.0733 3.11069 43.5997 3.11132 44.0981 2.97376C46.0294 2.52 47.5312 3.13498 48.7481 4.63686C50.4656 6.75748 51.3994 9.24189 52.0463 11.8463C53.1188 16.1588 53.2481 20.55 52.9706 24.9713C52.9444 25.4044 52.9913 25.6875 53.3813 25.965C54.1669 26.5275 54.4931 27.375 54.66 28.3031C55.0725 30.5719 53.9419 33.1013 51.9712 34.2825C51.525 34.5488 51.045 34.7812 50.5238 34.7437C49.9313 34.7006 49.8487 34.9837 49.8244 35.4806C49.6931 38.13 49.0462 40.6519 47.0006 42.4444C45.3006 43.9331 43.6056 45.43 41.9156 46.935C41.8462 46.9969 41.76 47.04 41.6925 47.1037C41.4356 47.3512 40.8263 47.445 40.9256 47.7881C41.0888 48.3506 41.2838 48.9844 42.0131 49.215C42.6231 49.3802 43.1994 49.6512 43.7156 50.0156C45.9225 51.7294 48.5138 52.7963 50.8144 54.345C53.6138 56.2294 56.0644 58.4794 57.9769 61.2825C59.1788 63.0469 58.9406 64.6669 57.2269 65.9363C55.1475 67.4738 52.7419 68.3231 50.2894 69.0188C45.6581 70.3369 41.3212 70.8694 33.585 70.875ZM22.6875 26.0137C22.7663 27.7612 22.8638 29.2012 22.8919 30.6619C22.9256 32.475 23.7337 33.8944 25.0425 35.0606C26.0569 35.9644 27.1819 36.0131 28.3237 35.2987C28.7648 34.9917 29.2345 34.728 29.7262 34.5112C34.5187 32.6775 39.2025 32.6925 43.7138 35.4C44.6119 35.9381 45.5887 35.9775 46.4287 35.3681C47.7806 34.3894 48.7744 33.075 48.9019 31.3725C49.1512 28.0144 49.4119 24.6488 48.7144 21.2981C48.1912 18.7988 47.6494 16.305 46.3519 14.0681C45.2719 12.2081 44.6794 11.9963 42.6919 12.7725C39.2325 14.1244 35.6869 14.2406 32.0794 13.6369C30.8063 13.4231 29.6194 12.9094 28.4081 12.4894C27.5156 12.1781 26.8106 12.3825 26.2125 13.0819C25.699 13.6914 25.2822 14.3763 24.9769 15.1125C23.5197 18.5652 22.7423 22.2666 22.6875 26.0137ZM19.9537 21.8887V24.5531C19.9537 25.0744 20.2237 25.2544 20.7169 25.1869C21.0919 25.1344 21.615 25.35 21.6225 24.6469C21.6488 22.6987 22.0294 20.7956 22.5056 18.9244C23.0456 16.7981 23.6475 14.6663 24.9787 12.8588C25.9669 11.5181 26.985 10.6669 28.9875 11.4975C29.3625 11.6494 29.7375 11.7375 30.1125 11.8725C33.0731 13.0181 36.1219 13.0106 39.2025 12.5813C40.6238 12.3844 41.9231 11.7694 43.2844 11.3719C43.725 11.2444 44.1469 11.085 44.6475 11.1844C45.6769 11.3869 46.365 12.0431 46.8881 12.8531C49.1381 16.35 49.8337 20.3175 50.235 24.36C50.2837 24.8531 50.2781 25.1963 50.9438 25.2C51.5644 25.2 51.9112 25.0744 51.9225 24.3919C51.99 20.2538 52.005 16.1231 50.9494 12.0713C50.3306 9.70313 49.5056 7.43248 47.985 5.47498C47.085 4.31998 45.9919 3.71436 44.4562 4.07623C42.9656 4.42686 41.6269 4.12685 40.4775 2.9906C39.54 2.07185 38.5294 2.07373 37.4381 2.8031C36.2869 3.57748 35.4919 3.56439 34.3613 2.75064C33.4238 2.07564 32.2387 2.10377 31.4269 2.93814C30.24 4.16252 28.8263 4.4175 27.2588 4.05C26.1131 3.78188 25.1775 4.10627 24.3937 4.91064C22.8675 6.47252 22.005 8.42062 21.3694 10.4625C20.25 14.0194 19.8356 17.6719 19.9444 21.8831L19.9537 21.8887ZM48.7163 35.0137L48.5288 34.8844C48.255 35.19 47.9944 35.5106 47.7037 35.8013C46.7006 36.8006 45.5006 37.1625 44.1244 36.8194C43.4625 36.6544 42.9187 36.2175 42.3262 35.895C40.0762 34.6744 37.665 34.3369 35.1544 34.4456C32.9569 34.5394 30.8681 35.0081 28.995 36.2287C27.5625 37.1662 26.1019 37.2112 24.6825 36.2437C24.1575 35.8875 23.7319 35.385 23.2012 34.8919C23.1056 35.5706 23.2219 36.135 23.2969 36.7069C23.6044 39.0337 24.5794 40.9706 26.4844 42.3994C27.2475 42.9619 28.095 43.4362 28.7119 44.1937C30.8025 46.7587 33.4537 47.97 36.7969 47.6944C39.3037 47.4881 41.2706 46.3238 42.8944 44.5069C43.4005 43.8986 43.9916 43.3662 44.6494 42.9263C45.4026 42.4537 46.0802 41.8702 46.6594 41.1956C48.2062 39.4181 48.6431 37.275 48.7069 35.0156L48.7163 35.0137ZM29.76 58.7475C29.8466 62.2108 30.3074 65.6545 31.1344 69.0188C31.2075 69.3169 31.2075 69.6282 31.6575 69.5963C32.1394 69.5644 31.9706 69.1988 31.9856 68.9681C32.1255 66.7505 32.3953 64.5429 32.7938 62.3569C33.0874 60.6295 33.4799 58.9205 33.9694 57.2381C34.185 56.5256 33.5306 56.3381 33.3 55.8994C33.1125 55.5244 32.8556 55.8731 32.6456 55.935C32.1987 56.0711 31.7327 56.1344 31.2656 56.1225C30.87 56.1113 30.4687 56.0681 30.4781 55.56C30.4781 55.0725 30.8362 54.9619 31.2637 54.9975C31.6383 55.0218 32.0137 54.9648 32.3642 54.8305C32.7147 54.6962 33.032 54.4878 33.2944 54.2194C33.6844 53.8444 34.0537 53.4581 34.4419 53.0944C35.3438 52.2263 36.3731 52.1962 37.3163 53.0156C37.6163 53.2744 37.8938 53.5631 38.1694 53.8481C38.8763 54.5813 39.6694 55.11 40.7531 55.0088C40.8342 54.9917 40.9182 54.9937 40.9984 55.0146C41.0786 55.0356 41.1528 55.0748 41.2152 55.1294C41.2775 55.1839 41.3264 55.2523 41.3578 55.329C41.3892 55.4057 41.4024 55.4886 41.3963 55.5713C41.3963 55.9819 41.1187 56.1206 40.7419 56.1338C40.1815 56.1725 39.6194 56.0874 39.0956 55.8844C38.9588 55.8281 38.8294 55.6969 38.6437 55.7981C38.2031 56.055 37.8356 56.9475 37.9744 57.4575C39.0062 61.2502 39.6464 65.1386 39.885 69.0619C39.9 69.285 39.7819 69.6 40.2188 69.6131C40.6088 69.6244 40.6538 69.3975 40.7269 69.0994C41.7319 64.9144 42.2494 60.6769 42.0806 56.3719C41.9981 54.285 41.6906 52.2319 40.8712 50.2819C40.6669 49.7944 40.5581 49.7494 40.1587 50.1394C39.0615 51.2304 37.5851 51.8553 36.038 51.8836C34.4909 51.9119 32.9927 51.3414 31.8563 50.2912C31.2281 49.7156 31.2244 49.7138 30.8981 50.5444C29.9212 52.9969 29.7487 55.5788 29.7506 58.7494L29.76 58.7475ZM29.6212 50.5931C28.7976 50.9179 28.0253 51.3599 27.3281 51.9056C26.0606 52.8431 25.095 54.0019 24.5831 55.5225C24.4144 56.025 24.5681 56.1675 25.0369 56.0981C25.5638 56.0175 26.0869 55.9106 26.6138 55.8319C26.9513 55.7812 27.2831 55.8019 27.4594 56.1619C27.6356 56.5219 27.4087 56.7544 27.1631 56.9381C26.5444 57.4031 26.0231 57.9731 25.4663 58.5037C24.6094 59.3212 24.1144 60.1913 24.4125 61.4794C25.0144 64.0613 25.7756 66.5681 27.1481 68.8575C27.1836 68.9427 27.241 69.017 27.3144 69.073C27.3878 69.129 27.4747 69.1646 27.5663 69.1763C28.2338 69.2494 28.8975 69.3638 29.565 69.4406C29.8744 69.4819 30.0319 69.4406 29.94 69.0281C29.7075 68.0081 29.52 66.9769 29.3494 65.9456C29.0643 64.3188 28.8615 62.6785 28.7419 61.0312C28.6162 59.0288 28.6162 57.0206 28.7419 55.0181C28.8187 53.5444 29.1919 52.1381 29.6119 50.595L29.6212 50.5931ZM42.3394 50.6906C42.8472 52.3531 43.1378 54.0742 43.2037 55.8113C43.2881 57.6788 43.2599 59.5496 43.1194 61.4137C42.9276 63.543 42.6146 65.6596 42.1819 67.7531C41.7862 69.6506 41.745 69.5625 43.7025 69.27C44.5181 69.1481 44.8594 68.7694 45.1688 68.1319C46.1831 66.0413 46.8563 63.8306 47.4056 61.5881C47.5931 60.8175 47.805 59.9944 47.1656 59.2556C46.4735 58.4396 45.698 57.6981 44.8519 57.0431C44.5763 56.8331 44.235 56.6157 44.4094 56.1919C44.5837 55.7682 44.9887 55.7888 45.3731 55.8506C45.8981 55.9331 46.4231 56.025 46.9519 56.0981C47.3269 56.1507 47.4487 56.0231 47.3175 55.6238C46.485 53.13 44.625 51.705 42.33 50.6925L42.3394 50.6906ZM35.9137 69.7256C36.6375 69.7256 37.365 69.6919 38.0869 69.7369C38.6681 69.7744 38.7881 69.5494 38.7544 69.0094C38.5202 65.604 37.9989 62.2246 37.1963 58.9069C36.8756 57.5625 36.8756 57.5756 35.5088 57.5044C35.1656 57.4856 35.01 57.5531 34.935 57.9131C34.7006 59.01 34.4044 60.0919 34.185 61.1888C33.6538 63.7759 33.3005 66.3964 33.1275 69.0319C33.0881 69.6131 33.2831 69.765 33.8213 69.7369C34.5 69.7013 35.2031 69.7294 35.9044 69.7275L35.9137 69.7256ZM21.5794 28.4194C21.5794 27.7838 21.5794 27.2062 21.5794 26.6306C21.5838 26.5907 21.58 26.5503 21.5684 26.5119C21.5568 26.4734 21.5376 26.4377 21.5118 26.4069C21.4861 26.3761 21.4544 26.3508 21.4186 26.3325C21.3829 26.3143 21.3438 26.3034 21.3037 26.3006C20.1112 26.025 18.69 26.8631 18.4106 28.0762C17.9925 29.9044 18.4444 31.5112 19.8075 32.8181C20.2116 33.2492 20.7494 33.5313 21.3338 33.6187C21.7425 33.6675 21.9506 33.5737 21.8963 33.1031C21.8013 32.4779 21.7649 31.8451 21.7875 31.2131C21.8775 30.1331 21.2531 29.5894 20.4319 29.1506C20.3081 29.0831 20.1769 29.0306 20.0569 28.9631C19.9871 28.9304 19.9251 28.8832 19.8751 28.8246C19.825 28.7661 19.788 28.6975 19.7665 28.6235C19.7451 28.5495 19.7396 28.4718 19.7506 28.3955C19.7615 28.3193 19.7886 28.2462 19.83 28.1812C19.8553 28.1147 19.8948 28.0546 19.9458 28.005C19.9968 27.9554 20.0581 27.9176 20.1253 27.8942C20.1925 27.8708 20.264 27.8623 20.3347 27.8695C20.4055 27.8767 20.4739 27.8992 20.535 27.9356L21.5794 28.4194ZM50.2556 28.4437L51.1313 28.005C51.48 27.8288 51.8325 27.7819 52.0275 28.1925C52.2225 28.6031 52.0275 28.8506 51.6525 29.0344C51.3349 29.1812 51.0364 29.3663 50.7637 29.5856C50.4469 29.85 50.1169 30.1219 50.0962 30.6037C50.0681 31.3275 50.0006 32.0494 49.9706 32.7731C49.9331 33.6919 50.1469 33.8363 51.0094 33.4894C51.2257 33.4022 51.4309 33.2895 51.6206 33.1538C53.0531 32.1244 53.6194 30.675 53.5856 28.9594C53.5556 27.3637 52.7494 26.5031 51.1688 26.3344C50.295 26.235 50.2781 26.2481 50.2575 27.1444C50.25 27.5306 50.25 27.9263 50.25 28.4419L50.2556 28.4437ZM35.9456 50.7562C36.6383 50.7477 37.3214 50.593 37.9502 50.3022C38.579 50.0114 39.1393 49.591 39.5944 49.0687C39.7556 48.8812 40.0988 48.6937 39.8681 48.3656C39.6375 48.0375 39.3919 48.33 39.1781 48.3975C37.0703 49.0604 34.8097 49.0604 32.7019 48.3975C32.4937 48.3338 32.2238 48.0375 32.0213 48.3712C31.8188 48.705 32.1075 48.9019 32.2875 49.0988C32.7487 49.6134 33.3123 50.026 33.9423 50.3101C34.5722 50.5943 35.2546 50.7437 35.9456 50.7488V50.7562ZM35.895 56.4225C36.735 56.4356 37.2394 55.8788 37.5938 55.2525C37.8975 54.7144 37.1775 54.5963 36.9638 54.2588C36.8055 54.0566 36.6192 53.8779 36.4106 53.7281C36.3177 53.6358 36.1988 53.574 36.0699 53.5509C35.9409 53.5278 35.808 53.5445 35.6888 53.5988C35.0738 53.9119 34.68 54.4856 34.1888 54.9525C34.1119 55.0275 34.1644 55.1175 34.1888 55.2075C34.3988 55.7269 35.3306 56.4019 35.895 56.415V56.4225Z" fill="#3D4B55"/>
<path d="M22.6875 26.0138C22.7375 22.2655 23.5103 18.5622 24.9638 15.1069C25.2691 14.3707 25.6858 13.6858 26.1994 13.0763C26.7975 12.3769 27.5025 12.1725 28.395 12.4838C29.6063 12.9038 30.7931 13.4212 32.0663 13.6312C35.6738 14.235 39.2194 14.1188 42.6787 12.7669C44.6662 11.9906 45.2588 12.2044 46.3388 14.0625C47.6363 16.2994 48.1781 18.7931 48.7012 21.2925C49.4025 24.6431 49.1419 28.0088 48.8887 31.3669C48.7612 33.0694 47.7637 34.3838 46.4156 35.3625C45.5719 35.9719 44.5988 35.925 43.7006 35.3944C39.1894 32.6869 34.5131 32.6719 29.7131 34.5056C29.2214 34.7224 28.7517 34.9861 28.3106 35.2931C27.1687 36.0075 26.0437 35.9588 25.0294 35.055C23.7169 33.8888 22.9125 32.4694 22.8788 30.6563C22.8544 29.2106 22.7569 27.7613 22.6875 26.0138ZM28.2806 26.2969C28.0294 27.1256 27.8269 27.9056 28.3912 28.5994C28.5302 28.7777 28.7263 28.9026 28.9466 28.9532C29.1669 29.0037 29.3979 28.9768 29.6006 28.8769C30.6881 28.4156 30.2306 27.4163 30.3506 26.6269C30.5381 26.5575 30.6356 26.6794 30.7538 26.7432C30.8171 26.7869 30.8893 26.8159 30.9653 26.8283C31.0412 26.8407 31.119 26.836 31.1929 26.8147C31.2668 26.7933 31.3351 26.7558 31.3927 26.7048C31.4504 26.6539 31.496 26.5908 31.5263 26.52C31.6913 26.2275 31.5562 25.9913 31.3219 25.785C30.0487 24.66 27.4369 24.8363 26.3344 26.1357C26.0794 26.4357 25.9463 26.7544 26.2538 27.0732C26.5913 27.4125 26.8838 27.2025 27.1463 26.9213C27.4348 26.5857 27.8338 26.3642 28.2713 26.2969H28.2806ZM43.5225 26.3344C44.1675 26.4375 44.1731 26.4319 44.79 26.9906C45.0431 27.2194 45.2944 27.3656 45.5888 27.105C45.8831 26.8444 45.84 26.5782 45.6562 26.2857C44.7525 24.8588 41.6231 24.5981 40.4737 25.8656C40.2731 26.085 40.215 26.3157 40.3931 26.5594C40.457 26.6731 40.561 26.7589 40.6847 26.8002C40.8085 26.8414 40.9431 26.8351 41.0625 26.7825C41.2069 26.7225 41.3175 26.5594 41.5312 26.6363C41.5312 26.9719 41.5312 27.315 41.5312 27.66C41.5462 28.4625 42 28.9725 42.6825 28.9613C43.365 28.95 43.7906 28.4438 43.8075 27.6282C43.8056 27.1913 43.8263 26.7544 43.5131 26.3344H43.5225ZM28.875 23.0907C27.4444 23.1825 25.9275 23.2781 24.5794 24.0994C24.2775 24.2869 24.0544 24.5325 24.2719 24.9075C24.4894 25.2825 24.7969 25.26 25.1194 25.08C26.8069 24.1425 28.6275 24.2157 30.4481 24.3638C31.0425 24.4107 31.6594 24.525 32.1356 24.9488C32.4638 25.2338 32.8125 25.3444 33.0975 24.9488C33.3825 24.5531 33.0975 24.2475 32.7825 24.0113C32.4418 23.768 32.061 23.5865 31.6575 23.475C30.7819 23.2125 29.8763 23.1413 28.875 23.0907ZM43.3425 23.0756C43.0387 23.0756 42.7312 23.0513 42.4312 23.0756C41.2158 23.1698 40.0357 23.5289 38.9737 24.1275C38.6869 24.2944 38.5125 24.5419 38.6944 24.8775C38.8762 25.2132 39.1612 25.2338 39.4781 25.1138C39.63 25.0557 39.7669 24.96 39.9169 24.8963C42.1838 23.9231 44.4356 23.8163 46.6669 25.0275C47.0156 25.215 47.3438 25.29 47.5781 24.9019C47.8125 24.5138 47.5425 24.2456 47.2275 24.0488C46.0612 23.3412 44.7084 23.0021 43.3462 23.0756H43.3425ZM35.8969 32.6381C36.3897 32.6574 36.8768 32.5266 37.2938 32.2631C37.6013 32.055 37.7269 31.74 37.53 31.41C37.3331 31.08 37.0275 31.035 36.6938 31.2619C36.482 31.432 36.2198 31.5269 35.9482 31.5317C35.6767 31.5364 35.4113 31.4508 35.1938 31.2882C34.83 31.0407 34.515 31.05 34.3087 31.4288C34.1025 31.8075 34.2825 32.1169 34.6219 32.3175C35.0117 32.5363 35.4538 32.6446 35.9006 32.6306L35.8969 32.6381Z" fill="#FFD4C8"/>
<path d="M19.9444 21.8831C19.8356 17.6719 20.2575 14.0194 21.3619 10.47C21.9975 8.42813 22.8619 6.47999 24.3862 4.91811C25.17 4.11374 26.1056 3.79314 27.2512 4.05752C28.8187 4.43252 30.2325 4.16998 31.4194 2.94561C32.2312 2.10748 33.4144 2.07936 34.3537 2.75811C35.4787 3.57186 36.2794 3.58499 37.4306 2.81061C38.5219 2.07749 39.54 2.07561 40.47 2.99811C41.6194 4.13436 42.9581 4.43437 44.4487 4.08375C45.9844 3.72187 47.0737 4.32749 47.9775 5.48249C49.4981 7.43999 50.3231 9.71065 50.9419 12.0788C51.9975 16.1306 51.9825 20.2613 51.915 24.3994C51.9037 25.0819 51.5569 25.2094 50.9362 25.2075C50.2706 25.2075 50.2762 24.8606 50.2275 24.3675C49.8262 20.325 49.1306 16.3575 46.8806 12.8606C46.3575 12.0506 45.6694 11.3944 44.64 11.1919C44.1394 11.0944 43.7175 11.2538 43.2769 11.3794C41.9156 11.7769 40.6162 12.3919 39.195 12.5888C36.1144 13.0181 33.0656 13.0256 30.105 11.88C29.73 11.7375 29.3437 11.6494 28.98 11.505C26.9775 10.6744 25.9594 11.5256 24.9712 12.8663C23.64 14.6738 23.0381 16.8037 22.4981 18.9319C22.0219 20.8069 21.6412 22.7062 21.615 24.6544C21.615 25.3575 21.0919 25.1419 20.7094 25.1944C20.2162 25.2619 19.9462 25.0819 19.9462 24.5606L19.9444 21.8831Z" fill="#9A4E4E"/>
<path d="M48.7069 35.0156C48.6431 37.275 48.2062 39.4181 46.6594 41.2031C46.0802 41.8777 45.4026 42.4612 44.6494 42.9337C43.9916 43.3737 43.4005 43.9061 42.8944 44.5144C41.2706 46.3275 39.3038 47.4919 36.7969 47.7019C33.4538 47.9775 30.7969 46.7644 28.7119 44.2012C28.095 43.4512 27.2475 42.9769 26.4844 42.4069C24.5738 40.9781 23.5988 39.0319 23.2969 36.7144C23.2219 36.1425 23.1094 35.5781 23.2012 34.8994C23.7319 35.3925 24.1575 35.895 24.6825 36.2513C26.1038 37.2188 27.5644 37.1719 28.995 36.2362C30.87 35.0137 32.9569 34.5487 35.1544 34.4531C37.665 34.3444 40.0856 34.6819 42.3263 35.9025C42.9188 36.225 43.4625 36.6525 44.1244 36.8269C45.5006 37.17 46.7006 36.8081 47.7038 35.8087C47.9944 35.5181 48.255 35.1975 48.5288 34.8919L48.7069 35.0156ZM35.9044 37.1306C36.7444 37.155 37.5919 37.1737 38.3794 36.84C38.7225 36.6937 39.1163 36.5044 38.9419 36.0281C38.7675 35.5519 38.4225 35.5894 37.9706 35.7394C36.6592 36.1704 35.2453 36.177 33.93 35.7581C33.5006 35.6269 33.1444 35.505 32.9381 35.9869C32.7206 36.4988 33.1256 36.6919 33.5006 36.8475C34.2694 37.17 35.0888 37.155 35.9044 37.1306Z" fill="#9A4E4E"/>
<path d="M29.7506 58.7494C29.7506 55.5788 29.9213 52.9969 30.8888 50.5331C31.215 49.7025 31.2187 49.7044 31.8469 50.28C32.9833 51.3302 34.4815 51.9007 36.0286 51.8724C37.5757 51.8441 39.0521 51.2192 40.1494 50.1281C40.5488 49.7381 40.6575 49.7831 40.8619 50.2706C41.6813 52.2206 41.9869 54.2738 42.0713 56.3606C42.24 60.6731 41.7225 64.9031 40.7175 69.0881C40.6444 69.3862 40.5994 69.6131 40.2094 69.6019C39.7725 69.5887 39.8906 69.2738 39.8756 69.0506C39.637 65.1274 38.9968 61.2389 37.965 57.4463C37.8263 56.9363 38.1938 56.0438 38.6344 55.7869C38.8219 55.6781 38.9494 55.8169 39.0863 55.8731C39.61 56.0761 40.1721 56.1613 40.7325 56.1225C41.1075 56.1094 41.3925 55.9706 41.3869 55.56C41.393 55.4774 41.3799 55.3944 41.3484 55.3177C41.317 55.241 41.2682 55.1727 41.2058 55.1182C41.1434 55.0636 41.0692 55.0243 40.989 55.0034C40.9088 54.9824 40.8248 54.9804 40.7438 54.9975C39.66 55.0988 38.8688 54.57 38.16 53.8369C37.8844 53.5519 37.6069 53.2632 37.3069 53.0044C36.3694 52.185 35.3344 52.215 34.4325 53.0831C34.0444 53.4581 33.6825 53.8481 33.285 54.2081C33.0226 54.4765 32.7053 54.685 32.3548 54.8193C32.0043 54.9536 31.6289 55.0105 31.2544 54.9863C30.8269 54.9581 30.4781 55.0688 30.4688 55.5488C30.4688 56.0644 30.8606 56.1113 31.2563 56.1113C31.7233 56.1232 32.1893 56.0599 32.6363 55.9238C32.8463 55.8619 33.0956 55.5225 33.2906 55.8881C33.5213 56.3269 34.1756 56.5144 33.96 57.2269C33.4705 58.9092 33.078 60.6183 32.7844 62.3456C32.3859 64.5317 32.1161 66.7392 31.9762 68.9569C31.9612 69.1875 32.13 69.5531 31.6481 69.585C31.1981 69.6169 31.1981 69.3056 31.125 69.0075C30.299 65.6476 29.8382 62.2083 29.7506 58.7494Z" fill="#FEFEFE"/>
<path d="M29.6119 50.595C29.1919 52.1381 28.8188 53.5462 28.7269 55.02C28.6012 57.0224 28.6012 59.0307 28.7269 61.0331C28.8465 62.6804 29.0493 64.3206 29.3344 65.9474C29.505 66.9787 29.6925 68.01 29.925 69.03C30.0187 69.4406 29.8612 69.4837 29.55 69.4425C28.8825 69.3581 28.2187 69.2549 27.5512 69.1781C27.4597 69.1664 27.3728 69.1308 27.2994 69.0748C27.226 69.0189 27.1686 68.9445 27.1331 68.8593C25.7606 66.57 24.9994 64.0631 24.3975 61.4812C24.0994 60.1987 24.5944 59.3231 25.4512 58.5056C26.0137 57.975 26.5294 57.405 27.1481 56.94C27.3937 56.7525 27.6169 56.5162 27.4444 56.1637C27.2719 55.8112 26.9362 55.7887 26.5987 55.8337C26.0719 55.9143 25.5487 56.0212 25.0219 56.0999C24.5531 56.1693 24.3994 56.0269 24.5681 55.5244C25.08 54.0037 26.0456 52.8468 27.3131 51.9075C28.012 51.3613 28.7863 50.9192 29.6119 50.595Z" fill="#455A64"/>
<path d="M42.33 50.6925C44.6194 51.705 46.485 53.13 47.3025 55.6256C47.4338 56.025 47.3138 56.1525 46.9369 56.1C46.4081 56.0269 45.8831 55.935 45.3581 55.8525C44.9831 55.7906 44.5763 55.755 44.3944 56.1937C44.2125 56.6325 44.5613 56.835 44.8369 57.045C45.683 57.7 46.4585 58.4415 47.1506 59.2575C47.79 59.9962 47.58 60.8194 47.3906 61.59C46.8281 63.84 46.1681 66.0431 45.1538 68.1338C44.8444 68.7713 44.5031 69.15 43.6875 69.2719C41.73 69.5644 41.7713 69.6469 42.1669 67.755C42.5997 65.6614 42.9127 63.5449 43.1044 61.4156C43.2449 59.5515 43.2731 57.6806 43.1888 55.8131C43.1246 54.0764 42.8359 52.3552 42.33 50.6925Z" fill="#455A64"/>
<path d="M35.9044 69.7294C35.2031 69.7294 34.5 69.7012 33.8006 69.7294C33.2625 69.7575 33.0675 69.6056 33.1069 69.0243C33.2799 66.3889 33.6332 63.7684 34.1644 61.1812C34.3913 60.0843 34.6875 59.0025 34.9144 57.9056C34.9894 57.5456 35.145 57.4781 35.4881 57.4969C36.8588 57.5681 36.8588 57.555 37.1756 58.8993C37.9783 62.217 38.4995 65.5965 38.7337 69.0018C38.7675 69.5381 38.6475 69.7669 38.0663 69.7294C37.3556 69.6937 36.6281 69.7275 35.9044 69.7294Z" fill="#1D996C"/>
<path d="M21.5794 28.4194L20.5369 27.93C20.4758 27.8937 20.4074 27.8711 20.3366 27.8639C20.2658 27.8568 20.1943 27.8652 20.1272 27.8886C20.06 27.912 19.9987 27.9498 19.9477 27.9994C19.8967 28.049 19.8572 28.1092 19.8319 28.1757C19.7905 28.2406 19.7634 28.3137 19.7524 28.39C19.7415 28.4662 19.7469 28.544 19.7684 28.618C19.7899 28.692 19.8269 28.7605 19.8769 28.8191C19.927 28.8776 19.989 28.9249 20.0587 28.9576C20.1806 29.0251 20.3119 29.0776 20.4337 29.1451C21.255 29.5895 21.8794 30.1332 21.7894 31.2076C21.7668 31.8396 21.8032 32.4723 21.8981 33.0976C21.9487 33.5682 21.7406 33.6601 21.3356 33.6132C20.7513 33.5257 20.2135 33.2436 19.8094 32.8125C18.4463 31.5 17.9944 29.8988 18.4125 28.0707C18.6919 26.85 20.1131 26.0194 21.3056 26.295C21.3457 26.2978 21.3848 26.3087 21.4205 26.327C21.4563 26.3452 21.488 26.3705 21.5137 26.4013C21.5395 26.4322 21.5587 26.4679 21.5703 26.5063C21.5819 26.5447 21.5856 26.5851 21.5812 26.625C21.5812 27.2044 21.5794 27.7819 21.5794 28.4194Z" fill="#FFD4C8"/>
<path d="M50.25 28.4419C50.25 27.9263 50.25 27.5307 50.25 27.1294C50.2706 26.2332 50.2875 26.22 51.1612 26.3194C52.7419 26.4975 53.5481 27.3582 53.5781 28.9444C53.6119 30.66 53.0456 32.1094 51.6131 33.1388C51.4234 33.2745 51.2182 33.3872 51.0019 33.4744C50.1394 33.8213 49.9256 33.6769 49.9631 32.7581C49.9931 32.0344 50.0606 31.3125 50.0888 30.5888C50.1094 30.1069 50.4394 29.8388 50.7563 29.5706C51.0289 29.3513 51.3274 29.1662 51.645 29.0194C52.02 28.8319 52.2075 28.5619 52.02 28.1775C51.8325 27.7931 51.4725 27.8138 51.1237 27.99L50.25 28.4419Z" fill="#FFD4C8"/>
<path d="M35.9456 50.7488C35.255 50.7445 34.5729 50.5959 33.943 50.3128C33.3131 50.0296 32.7492 49.6181 32.2875 49.1045C32.1 48.9076 31.8338 48.6863 32.0213 48.3769C32.2088 48.0676 32.4937 48.3395 32.7019 48.4032C34.8097 49.0661 37.0703 49.0661 39.1781 48.4032C39.3919 48.3357 39.6525 48.06 39.8681 48.3713C40.0838 48.6825 39.7556 48.8925 39.5944 49.0744C39.1381 49.5943 38.5773 50.0122 37.9486 50.3007C37.3198 50.5892 36.6374 50.7419 35.9456 50.7488Z" fill="#FFD4C8"/>
<path d="M35.895 56.415C35.3325 56.4018 34.395 55.7268 34.2075 55.2C34.1738 55.11 34.1213 55.0124 34.2075 54.9449C34.6931 54.4781 35.0869 53.9043 35.7075 53.5912C35.8267 53.5369 35.9597 53.5202 36.0886 53.5433C36.2176 53.5664 36.3364 53.6282 36.4294 53.7206C36.638 53.8703 36.8242 54.049 36.9825 54.2512C37.1963 54.5887 37.92 54.7068 37.6125 55.245C37.2394 55.8712 36.735 56.4281 35.895 56.415Z" fill="#1D996C"/>
<path d="M28.2713 26.2968C27.8284 26.3608 27.4236 26.5825 27.1312 26.9212C26.8687 27.2025 26.5687 27.4125 26.2387 27.0731C25.9312 26.7619 26.0644 26.4431 26.3194 26.1356C27.4219 24.8362 30.0337 24.6525 31.3069 25.785C31.5412 25.9912 31.6819 26.2275 31.5112 26.52C31.481 26.5907 31.4354 26.6538 31.3777 26.7048C31.3201 26.7557 31.2518 26.7933 31.1779 26.8146C31.104 26.836 31.0262 26.8406 30.9503 26.8282C30.8743 26.8159 30.8021 26.7868 30.7387 26.7431C30.6206 26.6794 30.5194 26.5556 30.3356 26.6268C30.2212 27.4087 30.6787 28.4081 29.5856 28.8768C29.3829 28.9767 29.1519 29.0037 28.9316 28.9531C28.7113 28.9026 28.5152 28.7776 28.3763 28.5993C27.8175 27.9056 28.02 27.1256 28.2713 26.2968Z" fill="#3D4B55"/>
<path d="M43.5131 26.3343C43.8262 26.7543 43.8056 27.1912 43.7981 27.6281C43.7831 28.4437 43.3556 28.9405 42.6731 28.9612C41.9906 28.9818 41.5369 28.4624 41.5219 27.6599C41.5219 27.3149 41.5219 26.9718 41.5219 26.6362C41.3081 26.5593 41.1975 26.7224 41.0531 26.7824C40.9338 26.835 40.7991 26.8414 40.6754 26.8001C40.5516 26.7589 40.4477 26.673 40.3837 26.5593C40.1962 26.3156 40.2637 26.0849 40.4644 25.8655C41.6137 24.6055 44.7431 24.8587 45.6469 26.2856C45.8344 26.5781 45.8569 26.8668 45.5794 27.1049C45.3019 27.3431 45.0338 27.2193 44.7806 26.9905C44.1638 26.4318 44.1581 26.4374 43.5131 26.3343Z" fill="#3D4B55"/>
<path d="M28.875 23.0907C29.8725 23.1413 30.7781 23.2125 31.6575 23.4769C32.061 23.5884 32.4418 23.77 32.7825 24.0132C33.0938 24.2476 33.3919 24.5401 33.0975 24.9507C32.8031 25.3613 32.4637 25.2357 32.1356 24.9507C31.6519 24.5269 31.035 24.4125 30.4481 24.3657C28.6275 24.2175 26.8031 24.1482 25.1194 25.0819C24.7969 25.2694 24.4781 25.2694 24.2719 24.9094C24.0656 24.5494 24.2719 24.2851 24.5794 24.1013C25.9313 23.2763 27.4481 23.1826 28.875 23.0907Z" fill="#3D4B55"/>
<path d="M43.3463 23.0756C44.7079 23.0071 46.0586 23.3508 47.2219 24.0618C47.5369 24.2493 47.8181 24.5043 47.5725 24.915C47.3269 25.3256 47.01 25.23 46.6612 25.0406C44.4394 23.8293 42.1875 23.9362 39.9112 24.9093C39.7612 24.9731 39.6244 25.0687 39.4725 25.1268C39.1556 25.2468 38.865 25.2224 38.6888 24.8906C38.5125 24.5587 38.6888 24.2981 38.9681 24.1406C40.0301 23.5419 41.2102 23.1829 42.4256 23.0887C42.735 23.0512 43.0425 23.0756 43.3463 23.0756Z" fill="#3D4B55"/>
<path d="M35.9006 32.6287C35.4541 32.6401 35.013 32.5285 34.6256 32.3062C34.2862 32.1056 34.1081 31.7869 34.3125 31.4175C34.5169 31.0481 34.8337 31.0294 35.1975 31.2769C35.415 31.4395 35.6804 31.5252 35.952 31.5204C36.2235 31.5157 36.4858 31.4208 36.6975 31.2506C37.0312 31.0144 37.3369 31.0631 37.5337 31.3987C37.7306 31.7344 37.605 32.0437 37.2975 32.2519C36.881 32.5166 36.3937 32.6481 35.9006 32.6287Z" fill="#3D4B55"/>
<path d="M35.9044 37.1306C35.0887 37.155 34.2694 37.17 33.4969 36.8475C33.1219 36.6919 32.7169 36.4988 32.9344 35.9869C33.1406 35.505 33.4969 35.6269 33.9262 35.7581C35.2416 36.177 36.6555 36.1705 37.9669 35.7394C38.4187 35.5894 38.7619 35.5519 38.9381 36.0282C39.1144 36.5044 38.7225 36.6938 38.3756 36.84C37.5862 37.1738 36.75 37.155 35.9044 37.1306Z" fill="#3D4B55"/>
</svg>
