<svg width="48" height="48" viewBox="0 0 48 48" fill="none" xmlns="http://www.w3.org/2000/svg">
<rect width="48" height="48" rx="10" fill="#1D996C"/>
<g clip-path="url(#clip0_2015_64)">
<path d="M33 23H28C26.346 23 25 24.346 25 26V33C25 34.654 26.346 36 28 36H33C34.654 36 36 34.654 36 33V26C36 24.346 34.654 23 33 23ZM34 33C34 33.551 33.552 34 33 34H28C27.448 34 27 33.551 27 33V26C27 25.449 27.448 25 28 25H33C33.552 25 34 25.449 34 26V33ZM33 27.997C33 28.549 32.553 28.997 32 28.997H29C28.447 28.997 28 28.549 28 27.997C28 27.445 28.447 26.997 29 26.997H32C32.553 26.997 33 27.445 33 27.997ZM33 31C33 31.552 32.553 32 32 32H29C28.447 32 28 31.552 28 31C28 30.448 28.447 30 29 30H32C32.553 30 33 30.448 33 31ZM21 24C24.309 24 27 21.309 27 18C27 14.691 24.309 12 21 12C17.691 12 15 14.691 15 18C15 21.309 17.691 24 21 24ZM21 14C23.206 14 25 15.794 25 18C25 20.206 23.206 22 21 22C18.794 22 17 20.206 17 18C17 15.794 18.794 14 21 14ZM23 27C23 27.552 22.553 28 22 28H21C17.141 28 14 31.14 14 35C14 35.552 13.553 36 13 36C12.447 36 12 35.552 12 35C12 30.038 16.037 26 21 26H22C22.553 26 23 26.448 23 27Z" fill="#FCFCFC"/>
</g>
<defs>
<clipPath id="clip0_2015_64">
<rect width="24" height="24" fill="white" transform="translate(12 12)"/>
</clipPath>
</defs>
</svg>
