<svg width="16" height="20" viewBox="0 0 16 20" fill="none" xmlns="http://www.w3.org/2000/svg">
<path fill-rule="evenodd" clip-rule="evenodd" d="M12 8.34286C12 5.94286 9.98599 4 7.4981 4C4.59556 4 2.34461 6.68571 3.17391 9.65714C3.29238 10 3.47009 10.4 3.70703 10.7429L3.76626 10.8L7.14269 15.8286C7.32039 16.0571 7.67581 16.0571 7.85351 15.8286L11.2892 10.6857C11.7631 10 12 9.14286 12 8.34286ZM8.78627 8.46814C8.78627 9.12312 8.19287 9.68452 7.50056 9.68452C6.80825 9.68452 6.21484 9.21668 6.21484 8.46814C6.21484 7.71961 6.80825 7.1582 7.50056 7.1582C8.29177 7.1582 8.78627 7.81317 8.78627 8.46814Z" fill="#E29100"/>
</svg>
