<svg width="36" height="36" viewBox="0 0 36 36" fill="none" xmlns="http://www.w3.org/2000/svg">
<circle cx="18" cy="18" r="18" fill="#1D996C"/>
<path fill-rule="evenodd" clip-rule="evenodd" d="M27.6558 12.3981C27.0833 11.3799 26.4621 11.1926 25.1972 11.1213C23.9337 11.0356 20.7563 11 18.0036 11C15.2456 11 12.0669 11.0356 10.8047 11.12C9.54242 11.1926 8.91987 11.3785 8.34216 12.3981C7.75258 13.415 7.44922 15.1666 7.44922 18.2504V18.2609C7.44922 21.3315 7.75258 23.0962 8.34216 24.1026C8.91987 25.1208 9.5411 25.3055 10.8033 25.3912C12.0669 25.4651 15.2456 25.5086 18.0036 25.5086C20.7563 25.5086 23.9337 25.4651 25.1985 25.3926C26.4634 25.3068 27.0847 25.1222 27.6571 24.1039C28.2519 23.0976 28.5527 21.3328 28.5527 18.2622V18.2556V18.2517C28.5527 15.1666 28.2519 13.415 27.6558 12.3981Z" fill="#FCFCFC"/>
<path fill-rule="evenodd" clip-rule="evenodd" d="M15.3633 22.2112V14.2974L21.9581 18.2543L15.3633 22.2112Z" fill="#1D996C"/>
</svg>
