<svg width="12" height="12" viewBox="0 0 12 12" fill="none" xmlns="http://www.w3.org/2000/svg">
<rect width="12" height="12" rx="6" fill="#DB2525"/>
<g clip-path="url(#clip0_24_116)">
<path d="M8.22958 5.41769L7.43096 4.61907C7.39213 4.58157 7.34013 4.56082 7.28615 4.56129C7.23216 4.56176 7.18053 4.58341 7.14235 4.62158C7.10418 4.65975 7.08253 4.71139 7.08206 4.76537C7.08159 4.81935 7.10234 4.87136 7.13985 4.91019L7.93846 5.70881C7.96219 5.73301 7.98293 5.75996 8.00023 5.7891C7.99714 5.7891 7.99467 5.78746 7.99158 5.78746L4.76252 5.79404C4.70792 5.79404 4.65555 5.81573 4.61694 5.85435C4.57833 5.89296 4.55664 5.94532 4.55664 5.99993C4.55664 6.05453 4.57833 6.1069 4.61694 6.14551C4.65555 6.18412 4.70792 6.20581 4.76252 6.20581L7.99035 6.19922C7.99611 6.19922 8.00085 6.19634 8.00641 6.19593C7.98814 6.23075 7.96499 6.26278 7.93764 6.29104L7.13902 7.08966C7.11936 7.10865 7.10367 7.13137 7.09288 7.15649C7.08209 7.18161 7.07641 7.20862 7.07618 7.23596C7.07594 7.2633 7.08115 7.29041 7.0915 7.31571C7.10185 7.34101 7.11714 7.364 7.13647 7.38333C7.1558 7.40266 7.17879 7.41795 7.20409 7.4283C7.22939 7.43865 7.2565 7.44386 7.28384 7.44362C7.31118 7.44339 7.33819 7.43771 7.36331 7.42692C7.38843 7.41613 7.41115 7.40044 7.43014 7.38078L8.22876 6.58216C8.38315 6.42773 8.46988 6.2183 8.46988 5.99993C8.46988 5.78156 8.38315 5.57213 8.22876 5.41769H8.22958Z" fill="white"/>
<path d="M4.97047 8.05871H4.55871C4.3949 8.05871 4.2378 7.99364 4.12197 7.8778C4.00613 7.76197 3.94106 7.60487 3.94106 7.44106V4.55871C3.94106 4.3949 4.00613 4.2378 4.12197 4.12197C4.2378 4.00613 4.3949 3.94106 4.55871 3.94106H4.97047C5.02508 3.94106 5.07744 3.91937 5.11605 3.88076C5.15466 3.84215 5.17636 3.78978 5.17636 3.73518C5.17636 3.68058 5.15466 3.62821 5.11605 3.5896C5.07744 3.55099 5.02508 3.5293 4.97047 3.5293H4.55871C4.28579 3.52962 4.02415 3.63818 3.83117 3.83117C3.63818 4.02415 3.52962 4.28579 3.5293 4.55871L3.5293 7.44106C3.52962 7.71398 3.63818 7.97562 3.83117 8.1686C4.02415 8.36159 4.28579 8.47015 4.55871 8.47047H4.97047C5.02508 8.47047 5.07744 8.44878 5.11605 8.41017C5.15466 8.37156 5.17636 8.31919 5.17636 8.26459C5.17636 8.20999 5.15466 8.15762 5.11605 8.11901C5.07744 8.0804 5.02508 8.05871 4.97047 8.05871Z" fill="white"/>
</g>
<defs>
<clipPath id="clip0_24_116">
<rect width="4.94118" height="4.94118" fill="white" transform="translate(3.5293 3.5293)"/>
</clipPath>
</defs>
</svg>
