<svg width="328" height="316" viewBox="0 0 328 316" fill="none" xmlns="http://www.w3.org/2000/svg">
<g clip-path="url(#clip0_104_1425)">
<path d="M151.898 4.76016L1.92969 124.38L326.205 123.826L175.008 4.64946C171.711 2.04867 167.631 0.643496 163.433 0.663604C159.236 0.683712 155.169 2.12791 151.898 4.76016Z" fill="#C8CFD5"/>
<path d="M0 125.032L151.492 4.25595C154.869 1.52125 159.077 0.0200248 163.421 -0.000100176C167.766 -0.0202251 171.987 1.44196 175.389 4.14526L328.012 124.466L0 125.032ZM167.768 1.80822C165.106 1.16111 162.33 1.1363 159.657 1.7357C156.984 2.3351 154.484 3.54261 152.353 5.26458L3.72462 123.728L324.275 123.174L174.59 5.16616C172.58 3.57537 170.254 2.43073 167.768 1.80822Z" fill="#E0E0E0"/>
<path d="M1.85742 124.374L327.251 123.806L327.559 300.326C327.565 303.82 326.184 307.173 323.719 309.648C321.254 312.123 317.908 313.517 314.417 313.523L15.3412 314.045C11.8517 314.048 8.50382 312.664 6.03321 310.198C3.5626 307.733 2.1714 304.386 2.16531 300.894L1.85742 124.374Z" fill="#C8CFD5"/>
<path d="M306.144 128.267L173.151 210.678L21.4746 134.823L24.1175 45.0311C24.1884 40.387 26.0795 35.9565 29.3836 32.6941C32.6876 29.4317 37.14 27.5985 41.7818 27.5894L288.283 27.1589C290.61 27.1557 292.916 27.6118 295.067 28.5013C297.218 29.3907 299.173 30.696 300.82 32.3423C302.466 33.9887 303.772 35.9439 304.662 38.0959C305.553 40.2478 306.01 42.5544 306.008 44.8835L306.144 128.267Z" fill="white"/>
<path d="M160.675 198.525L2.01562 299.24C2.01885 301.142 2.3966 303.026 3.12729 304.783C3.85799 306.539 4.92733 308.135 6.27425 309.478C7.62118 310.821 9.21931 311.886 10.9774 312.611C12.7355 313.336 14.6191 313.708 16.5207 313.705L313.31 313.151C315.212 313.148 317.094 312.77 318.85 312.039C320.605 311.308 322.2 310.238 323.542 308.89C324.885 307.542 325.949 305.943 326.673 304.184C327.398 302.424 327.769 300.54 327.766 298.637V297.53L177.183 198.611C174.732 197.009 171.87 196.149 168.942 196.134C166.013 196.118 163.143 196.949 160.675 198.525Z" fill="#A9B2B8"/>
<path d="M150.178 67.7683L53.7441 67.9367L53.7613 77.7892L150.196 77.6207L150.178 67.7683Z" fill="#CDE5DC"/>
<path d="M267.75 92.5323L53.7871 92.906L53.8065 104.038L267.769 103.664L267.75 92.5323Z" fill="#CDE5DC"/>
<path d="M267.798 119.74L53.8359 120.114L53.8554 131.246L267.818 130.872L267.798 119.74Z" fill="#CDE5DC"/>
<path d="M263.662 154.687L255.795 159.448L75.6363 161.932L54.8005 151.292L54.5547 148.685L267.829 148.291L267.841 151.981L263.662 154.687Z" fill="#CDE5DC"/>
<path d="M209.489 188.119L128.567 188.267L106.576 177.184L227.522 176.963L209.489 188.119Z" fill="#CDE5DC"/>
<path d="M154.885 202.216C154.768 202.323 154.641 202.418 154.504 202.498L153.361 203.273L148.923 206.164L132.525 216.718C118.659 225.586 99.4954 237.812 78.2417 251.195C56.988 264.578 37.6766 276.534 23.5156 285.033C16.4598 289.289 10.7438 292.708 6.7733 295.033L2.18821 297.702L0.95896 298.391C0.826596 298.474 0.686649 298.544 0.541016 298.6C0.657528 298.496 0.785349 298.405 0.922082 298.329L2.08987 297.591C3.14702 296.927 4.67129 296.005 6.6012 294.812L23.2821 284.627C37.2955 276.017 56.6316 264.024 77.8852 250.629L132.267 216.262L148.776 205.906L153.287 203.113L154.516 202.412L154.885 202.216Z" fill="#FAFAFA"/>
<path d="M327.753 297.53C327.655 297.678 295.498 276.78 255.941 250.851C216.384 224.922 184.374 203.765 184.485 203.606C184.595 203.446 216.74 224.344 256.31 250.346C295.879 276.349 327.864 297.37 327.753 297.53Z" fill="#FAFAFA"/>
<path d="M312.487 124.281C312.487 124.281 312.389 124.38 312.18 124.527L311.258 125.179L307.644 127.639L294.294 136.496C282.985 143.876 267.251 154.06 249.795 165.032C232.34 176.004 216.274 185.684 204.707 192.621L190.914 200.764L187.141 202.941L186.145 203.495C186.036 203.559 185.92 203.613 185.801 203.655C185.801 203.655 185.899 203.569 186.108 203.433L187.067 202.818L190.755 200.543L204.436 192.203C215.991 185.167 231.922 175.401 249.414 164.429C266.907 153.458 282.604 143.396 294.011 136.065L307.533 127.393L311.221 125.056L312.18 124.466C312.274 124.392 312.377 124.33 312.487 124.281Z" fill="#FAFAFA"/>
<path d="M154.885 202.215C154.743 202.175 154.607 202.117 154.479 202.043L153.311 201.453L148.886 199.128C145.051 197.099 139.47 194.208 132.562 190.653C118.745 183.556 99.5071 174.06 78.2289 163.593C56.9506 153.125 37.7252 143.593 23.9576 136.385C17.0738 132.793 11.5299 129.829 7.73154 127.775L3.36771 125.315L2.2368 124.663C1.97866 124.515 1.85573 124.441 1.86803 124.429L2.27368 124.601L3.42917 125.192L7.85446 127.516C11.702 129.546 17.2705 132.436 24.1789 135.991C37.9956 143.088 57.2333 152.584 78.5239 163.052C99.8144 173.519 119.015 183.052 132.783 190.26C139.667 193.851 145.211 196.816 149.009 198.87L153.385 201.33L154.504 201.982L154.885 202.215Z" fill="#FAFAFA"/>
<path d="M306.144 128.267C306.144 128.267 306.144 127.848 306.144 127.037C306.144 126.225 306.144 125.007 306.144 123.433C306.144 120.259 306.144 115.597 306.058 109.595C306.058 97.553 305.947 80.1605 305.861 58.6843C305.861 55.9906 305.861 53.2476 305.861 50.4309C305.861 49.0287 305.861 47.6018 305.861 46.1627C305.861 45.4493 305.861 44.7236 305.861 44.0102C305.834 43.2915 305.752 42.576 305.615 41.8699C305.101 38.9559 303.853 36.2211 301.989 33.924C300.041 31.5399 297.496 29.7149 294.614 28.6349C293.149 28.0738 291.615 27.7138 290.053 27.5648C288.48 27.4541 286.857 27.5033 285.222 27.491H275.278L254.38 27.5525L161.978 27.737L69.5508 27.86H48.8011H43.7981C42.1547 27.7996 40.5091 27.8861 38.8811 28.1183C37.303 28.3669 35.7704 28.8477 34.3329 29.5451C32.9127 30.2052 31.5926 31.0623 30.4116 32.0913C29.2382 33.0923 28.2046 34.2465 27.3385 35.523C26.493 36.7844 25.8114 38.1484 25.3102 39.5821C24.2408 42.4234 24.3514 45.4247 24.2408 48.3644C24.0523 54.2275 23.8761 59.8488 23.7122 65.2281C23.0361 86.7042 22.4829 104.084 22.1142 116.114C21.9052 122.104 21.7454 126.766 21.6348 129.952C21.5733 131.514 21.5364 132.719 21.4995 133.543C21.4627 134.368 21.4258 134.773 21.4258 134.773C21.4258 134.773 21.4258 134.355 21.4258 133.543C21.4258 132.732 21.4258 131.514 21.4995 129.94C21.5856 126.766 21.6962 122.104 21.8437 116.102C22.1756 104.072 22.655 86.6919 23.2451 65.2157C23.3926 59.8364 23.5483 54.2153 23.7122 48.3521C23.8228 45.4493 23.7122 42.3373 24.7939 39.4099C25.351 37.9461 26.0815 36.5545 26.9697 35.2647C27.8729 33.9544 28.9385 32.7641 30.1411 31.7223C31.3599 30.6511 32.726 29.7604 34.1977 29.0777C35.6794 28.3621 37.2569 27.865 38.8811 27.6017C40.5084 27.3611 42.1543 27.2705 43.7981 27.3311H48.8011H69.5631L161.99 27.1466L254.393 27.0113H275.142H285.112C286.746 27.0113 288.357 27.0113 290.029 27.0974C291.641 27.2529 293.224 27.6252 294.737 28.2044C297.701 29.3255 300.314 31.2145 302.309 33.678C304.217 36.0531 305.487 38.8774 305.996 41.8822C306.133 42.6089 306.216 43.3449 306.242 44.084C306.242 44.822 306.242 45.5477 306.242 46.2611C306.242 47.7002 306.242 49.1147 306.242 50.5293V58.7827C306.242 80.2589 306.242 97.6514 306.242 109.693C306.242 115.696 306.242 120.358 306.242 123.531C306.242 125.106 306.242 126.311 306.242 127.135C306.242 127.959 306.144 128.267 306.144 128.267Z" fill="#E0E0E0"/>
<path d="M56.571 49.0658C54.984 52.0426 52.8264 54.6774 50.2215 56.8196C47.6166 58.9618 44.6154 60.5694 41.3894 61.5506C38.1634 62.5318 34.7758 62.8674 31.4201 62.5381C28.0645 62.2089 24.8065 61.2212 21.8324 59.6317C18.8575 58.0437 16.2244 55.8848 14.0835 53.2783C11.9427 50.6717 10.3361 47.6686 9.3555 44.4406C8.37491 41.2125 8.03956 37.8228 8.36861 34.465C8.69765 31.1072 9.68464 27.8472 11.2732 24.8713C12.8602 21.8945 15.0177 19.2597 17.6226 17.1175C20.2275 14.9753 23.2287 13.3677 26.4547 12.3865C29.6808 11.4053 33.0684 11.0697 36.424 11.399C39.7797 11.7282 43.0376 12.7158 46.0117 14.3054C52.0175 17.5148 56.5037 22.9796 58.4838 29.498C60.4639 36.0164 59.7759 43.0549 56.571 49.0658Z" fill="#1D996C"/>
<path d="M46.5038 25.7322C46.8971 26.0151 41.9924 33.6659 35.5635 42.8172L32.8345 46.6672L32.3551 47.356L31.6667 46.8763C24.2913 41.7594 19.0915 37.7372 19.3743 37.3928C19.657 37.0484 25.2501 40.5171 32.6747 45.4741L31.4455 45.6955C32.306 44.4409 33.2033 43.1493 34.1375 41.8209C40.5788 32.6573 46.1104 25.4616 46.5038 25.7322Z" fill="white"/>
</g>
<defs>
<clipPath id="clip0_104_1425">
<rect width="328" height="316" fill="white"/>
</clipPath>
</defs>
</svg>
