<svg width="484" height="564" viewBox="0 0 484 564" fill="none" xmlns="http://www.w3.org/2000/svg">
<g clip-path="url(#clip0_146_3014)">
<path d="M180.049 3.41664C173.479 0.42341 166.198 -0.655299 159.043 0.304347C152.495 1.1898 146.276 3.71331 140.961 7.6414C137.289 10.4761 134.43 14.2317 132.675 18.5278C130.54 24.1617 129.897 30.2523 130.809 36.2083C130.87 36.7009 131.029 37.1762 131.277 37.6062C131.525 38.0361 131.856 38.412 132.252 38.7113C132.651 39.0119 133.106 39.23 133.59 39.3528C134.074 39.4756 134.577 39.5006 135.071 39.4265L148.003 37.4532C148.897 37.3251 149.713 36.8776 150.302 36.1933C150.891 35.5091 151.212 34.6346 151.207 33.7317C151.207 29.5864 152.53 22.3817 162.193 20.7395C164.622 20.2855 167.132 20.5986 169.376 21.6356C171.62 22.6726 173.485 24.382 174.715 26.527C175.777 28.336 176.398 30.3701 176.526 32.4642C176.655 34.5583 176.288 36.6533 175.456 38.5789C172.875 44.777 166.68 46.6046 163.212 47.1476C161.297 47.445 159.577 48.4873 158.427 50.0476C157.277 51.6078 156.789 53.5597 157.07 55.478L159.148 69.3972C159.299 70.375 159.83 71.2532 160.627 71.8392C161.423 72.4252 162.42 72.671 163.397 72.5227L175.999 70.6024C176.483 70.5312 176.948 70.3649 177.367 70.113C177.787 69.861 178.152 69.5285 178.443 69.1345C178.733 68.7405 178.943 68.2929 179.059 67.8174C179.176 67.342 179.197 66.8481 179.122 66.3644L178.686 63.4375C178.679 63.4041 178.682 63.3693 178.697 63.3383C178.711 63.3072 178.735 63.2817 178.765 63.2653C183.53 60.7241 187.678 57.1658 190.916 52.8425C196.317 45.5451 198.302 36.9499 196.82 27.0965C194.662 13.0978 186.508 6.52893 180.049 3.41664Z" fill="#EBEBEB"/>
<path d="M170.889 74.9324L169.791 75.1045C168.536 75.295 167.331 75.7309 166.244 76.3873C165.157 77.0438 164.211 77.908 163.458 78.9306C162.705 79.9532 162.161 81.1141 161.856 82.3471C161.552 83.5801 161.493 84.861 161.684 86.1167C161.874 87.3724 162.31 88.5783 162.966 89.6656C163.622 90.7528 164.485 91.7001 165.507 92.4533C166.53 93.2066 167.69 93.7511 168.922 94.0557C170.154 94.3602 171.435 94.419 172.69 94.2286L173.802 94.0696C176.293 93.6341 178.516 92.2396 179.993 90.1846C181.469 88.1297 182.083 85.5778 181.702 83.0756C181.322 80.5735 179.977 78.32 177.956 76.7979C175.934 75.2758 173.398 74.6061 170.889 74.9324Z" fill="#EBEBEB"/>
<path d="M477.037 215.502C472.208 209.919 465.905 205.811 458.85 203.649C452.388 201.665 445.529 201.355 438.915 202.748C434.322 203.812 430.09 206.069 426.645 209.291C422.259 213.611 419.067 218.996 417.38 224.918C417.224 225.401 417.168 225.911 417.216 226.417C417.264 226.922 417.414 227.413 417.658 227.858C417.897 228.308 418.225 228.704 418.62 229.025C419.016 229.346 419.472 229.584 419.961 229.726L432.813 233.408C433.697 233.658 434.641 233.583 435.474 233.197C436.306 232.81 436.973 232.138 437.353 231.302C439.074 227.435 443.416 221.329 453.078 223.925C455.532 224.533 457.735 225.892 459.379 227.813C461.024 229.733 462.028 232.12 462.251 234.639C462.466 236.772 462.175 238.926 461.403 240.926C460.63 242.925 459.397 244.714 457.804 246.148C452.774 250.81 446.222 249.87 442.78 248.89C440.874 248.344 438.83 248.576 437.094 249.534C435.358 250.492 434.071 252.098 433.515 254.002L429.544 267.841C429.405 268.325 429.364 268.831 429.422 269.331C429.48 269.83 429.637 270.313 429.883 270.752C430.13 271.191 430.46 271.576 430.857 271.886C431.253 272.195 431.706 272.423 432.191 272.556L444.713 276.158C445.196 276.295 445.702 276.336 446.201 276.276C446.699 276.217 447.181 276.06 447.619 275.814C448.057 275.568 448.442 275.238 448.752 274.842C449.062 274.447 449.291 273.994 449.425 273.51L450.259 270.609C450.271 270.575 450.292 270.544 450.32 270.521C450.348 270.497 450.382 270.482 450.418 270.477C455.914 270.139 461.268 268.597 466.103 265.961C474.23 261.484 479.763 254.293 482.543 244.572C486.501 230.679 481.736 221.091 477.037 215.502Z" fill="#EBEBEB"/>
<path d="M438.054 278.026L436.955 277.708C434.436 276.984 431.734 277.292 429.441 278.562C427.149 279.832 425.455 281.962 424.731 284.482C424.008 287.002 424.315 289.707 425.585 292.001C426.855 294.294 428.983 295.989 431.502 296.713L432.6 297.031C433.848 297.389 435.153 297.498 436.442 297.351C437.732 297.205 438.98 296.806 440.115 296.177C441.25 295.548 442.25 294.701 443.058 293.685C443.866 292.669 444.466 291.504 444.824 290.256C445.182 289.009 445.291 287.702 445.145 286.412C444.998 285.122 444.6 283.874 443.971 282.738C443.342 281.602 442.496 280.602 441.481 279.793C440.466 278.985 439.301 278.384 438.054 278.026Z" fill="#EBEBEB"/>
<path d="M52.8322 328.75C47.3042 324.733 40.7592 322.351 33.9437 321.876C27.7082 321.454 21.467 322.611 15.7965 325.24C11.8777 327.169 8.53246 330.091 6.09409 333.716C3.04783 338.535 1.29703 344.059 1.01128 349.754C0.973466 350.225 1.03096 350.698 1.1803 351.146C1.32965 351.594 1.56778 352.007 1.88044 352.361C2.1931 352.715 2.57387 353.001 2.99995 353.204C3.42602 353.407 3.88864 353.522 4.36011 353.542L16.723 354.164C17.5703 354.206 18.4042 353.941 19.0725 353.418C19.7408 352.896 20.1988 352.15 20.363 351.317C21.1043 347.463 23.7384 341.04 32.9907 341.358C35.3313 341.39 37.6035 342.152 39.49 343.539C41.3766 344.925 42.7833 346.867 43.5137 349.092C44.1552 350.97 44.3457 352.972 44.0697 354.937C43.7938 356.902 43.0591 358.774 41.9253 360.402C38.3647 365.7 32.2627 366.19 28.9535 366.031C27.124 365.948 25.3353 366.589 23.9751 367.816C22.6149 369.043 21.7927 370.757 21.6867 372.587L21.0249 385.897C20.978 386.83 21.3026 387.745 21.9276 388.44C22.5527 389.135 23.4275 389.554 24.3605 389.605L36.4189 390.201C37.3508 390.248 38.2632 389.922 38.9557 389.297C39.6481 388.671 40.064 387.796 40.1119 386.863L40.2575 384.056C40.2569 384.025 40.2671 383.994 40.2865 383.97C40.3058 383.946 40.333 383.929 40.3634 383.923C45.261 382.461 49.779 379.943 53.5999 376.546C59.9799 370.812 63.4611 363.157 63.9244 353.794C64.5597 340.444 58.2459 332.802 52.8322 328.75Z" fill="#EBEBEB"/>
<path d="M30.8191 393.313H29.7602C27.3362 393.192 24.9633 394.039 23.1636 395.668C21.364 397.298 20.2849 399.576 20.1638 402.001C20.0426 404.426 20.8894 406.801 22.5178 408.601C24.1462 410.402 26.4229 411.482 28.8469 411.603H29.9058C32.3298 411.724 34.7027 410.877 36.5024 409.247C38.3021 407.618 39.3812 405.34 39.5023 402.915C39.6234 400.489 38.7766 398.115 37.1482 396.315C35.5198 394.514 33.2432 393.434 30.8191 393.313Z" fill="#EBEBEB"/>
<path d="M434.285 105.483C451.783 87.9758 451.783 59.5908 434.285 42.0836C416.788 24.5763 388.418 24.5763 370.921 42.0836C353.423 59.5909 353.423 87.9758 370.921 105.483C388.418 122.99 416.788 122.99 434.285 105.483Z" fill="white"/>
<path d="M447.4 73.7943C447.4 73.7943 447.4 73.5559 447.4 73.0792C447.4 72.6024 447.334 71.874 447.268 70.9469C447.268 70.4834 447.268 69.9536 447.175 69.3841C447.082 68.8147 446.99 68.179 446.897 67.5035C446.804 66.8281 446.672 66.0997 446.553 65.3316C446.403 64.5037 446.204 63.6856 445.957 62.8815C444.922 58.6797 443.253 54.6604 441.007 50.962C438.07 46.0504 434.214 41.7515 429.65 38.301L427.731 36.8706C427.055 36.4204 426.341 36.0098 425.626 35.5463C424.925 35.0683 424.201 34.6263 423.455 34.2219L421.139 33.1094L419.908 32.6856L418.677 32.2353L416.162 31.3215C415.315 31.0301 414.428 30.858 413.515 30.6063C412.645 30.3508 411.761 30.1474 410.867 29.9971C409.008 29.6589 407.129 29.4421 405.242 29.3482C404.275 29.3482 403.309 29.2157 402.33 29.2422L399.378 29.3879C398.888 29.3879 398.385 29.3879 397.895 29.4806L396.413 29.719C395.42 29.8779 394.414 29.9971 393.408 30.1958C391.397 30.6525 389.416 31.2364 387.478 31.944C385.485 32.6606 383.543 33.5147 381.667 34.5C380.728 35.0165 379.828 35.5992 378.888 36.1555C378.438 36.4468 377.948 36.6985 377.564 37.0296L376.241 38.0096C374.469 39.3295 372.784 40.7628 371.197 42.3006L368.934 44.8037L368.365 45.4261L367.849 46.1016L366.829 47.426L365.81 48.7503L364.91 50.2071L364.01 51.6904L363.573 52.4321L363.189 53.2002L361.667 56.392C361.257 57.478 360.86 58.5772 360.449 59.6897C357.396 68.8084 357.396 78.6743 360.449 87.793C360.86 88.9055 361.257 90.0047 361.654 91.104C362.051 92.2032 362.673 93.1965 363.176 94.2427L363.547 95.0241L363.997 95.7658L364.897 97.2358L365.797 98.7059L366.816 100.03L367.835 101.355L368.352 102.043L368.921 102.666L371.184 105.156C372.768 106.701 374.453 108.139 376.227 109.46L377.551 110.44C377.988 110.771 378.477 111.023 378.875 111.314C379.814 111.857 380.714 112.453 381.654 112.969C383.532 113.949 385.474 114.803 387.465 115.526C389.401 116.235 391.382 116.814 393.395 117.26C394.401 117.472 395.407 117.592 396.4 117.75L397.882 117.976C398.372 118.042 398.875 118.042 399.378 118.082L402.316 118.227C403.296 118.227 404.262 118.148 405.228 118.121C407.116 118.028 408.995 117.811 410.854 117.472C411.748 117.319 412.632 117.111 413.501 116.85C414.388 116.611 415.275 116.439 416.149 116.148L418.65 115.234L419.894 114.784L421.059 114.228L423.376 113.115C424.157 112.771 424.832 112.268 425.56 111.791C426.288 111.314 426.976 110.956 427.651 110.466L429.584 109.036C434.141 105.577 437.992 101.274 440.927 96.3617C443.176 92.6648 444.846 88.6451 445.878 84.4423C446.122 83.6374 446.321 82.8194 446.473 81.9922C446.593 81.2109 446.712 80.4957 446.818 79.807C446.923 79.1183 447.043 78.4826 447.096 77.9396C447.148 77.3966 447.162 76.8404 447.188 76.3769C447.254 75.4498 447.294 74.7479 447.321 74.2446C447.347 73.7414 447.321 73.5162 447.321 73.5162C447.321 73.5162 447.321 73.7678 447.321 74.2446C447.321 74.7214 447.321 75.463 447.241 76.3769C447.241 76.8536 447.241 77.3834 447.241 77.9529C447.241 78.5224 447.069 79.1581 446.976 79.8335C446.884 80.5089 446.778 81.2506 446.659 82.032C446.54 82.8134 446.288 83.6212 446.103 84.4953C445.087 88.7223 443.431 92.7688 441.192 96.4942C438.257 101.456 434.397 105.809 429.822 109.314L427.876 110.771C427.201 111.221 426.552 111.632 425.771 112.095C424.991 112.559 424.355 113.022 423.574 113.42L421.245 114.545L420.053 115.115L418.809 115.578L416.281 116.506C415.421 116.797 414.52 116.982 413.634 117.221C412.74 117.489 411.829 117.697 410.907 117.843C409.028 118.203 407.126 118.429 405.215 118.519C404.236 118.519 403.269 118.651 402.277 118.638L399.298 118.492C398.796 118.492 398.293 118.492 397.79 118.399L396.294 118.174C395.288 118.002 394.269 117.896 393.249 117.684C391.21 117.234 389.203 116.65 387.24 115.936C385.223 115.189 383.259 114.304 381.363 113.287C380.41 112.771 379.497 112.175 378.557 111.619C378.094 111.327 377.604 111.076 377.154 110.731L375.83 109.738C374.026 108.413 372.315 106.966 370.708 105.407C369.953 104.56 369.185 103.725 368.418 102.878L367.835 102.242L367.319 101.553L366.287 100.229L365.254 98.9046L364.314 97.5802L363.414 96.0836L362.951 95.342L362.567 94.5473L361.032 91.3688C360.635 90.2564 360.224 89.1439 359.814 88.0314C356.708 78.7944 356.708 68.7942 359.814 59.5573L361.045 56.2198L362.567 53.0413L362.951 52.2467L363.414 51.505L364.314 50.0085L365.228 48.5252L366.26 47.2008L367.293 45.8764L367.822 45.1877L368.391 44.5653L370.694 42.0357C372.3 40.477 374.007 39.0259 375.804 37.6918L377.127 36.6985C377.577 36.3674 378.067 36.1158 378.53 35.8244C379.47 35.2681 380.384 34.6722 381.337 34.1557C383.232 33.1389 385.196 32.2539 387.214 31.5069C389.176 30.7931 391.184 30.2091 393.223 29.7587C394.242 29.5468 395.261 29.4276 396.254 29.2687L397.763 29.0436C398.266 29.0436 398.769 29.0436 399.272 28.9509L402.25 28.8052C403.23 28.8052 404.209 28.8846 405.189 28.9244C407.099 29.0163 409 29.2375 410.88 29.5866C411.801 29.7436 412.712 29.9559 413.607 30.2223C414.494 30.4606 415.394 30.6461 416.254 30.9374L418.783 31.8645L420.027 32.328L421.218 32.8975L423.548 34.0232C424.329 34.3808 425.017 34.8841 425.745 35.3476C426.473 35.8111 427.175 36.2085 427.85 36.672L429.795 38.1288C434.378 41.627 438.239 45.9806 441.166 50.9488C443.405 54.6742 445.061 58.7207 446.076 62.9477C446.303 63.7588 446.489 64.581 446.632 65.411C446.751 66.1924 446.857 66.9208 446.95 67.6095C447.043 68.2982 447.162 68.9339 447.215 69.4901C447.268 70.0463 447.215 70.5893 447.215 71.0529C447.215 71.9358 447.241 72.651 447.294 73.1984C447.413 73.6089 447.4 73.7943 447.4 73.7943Z" fill="#263238"/>
<path d="M386.669 66.1129H395.181C395.181 66.1129 395.181 58.9613 402.606 58.8421C404.027 58.8047 405.426 59.2068 406.61 59.9937C407.794 60.7806 408.707 61.9139 409.224 63.239C409.671 64.3563 409.849 65.5631 409.743 66.7618C409.637 67.9604 409.251 69.1174 408.616 70.1391C407.173 72.5097 404.009 74.6817 398.265 73.6751V86.164H406.683V81.6214C410.156 80.6257 413.204 78.5121 415.355 75.608C417.507 72.7038 418.641 69.1711 418.583 65.5567C418.583 53.1075 407.424 50.2072 402.699 50.2072C398.953 50.2072 386.511 51.0945 386.669 66.1129Z" fill="#1D996C"/>
<path d="M406.831 89.4087H398.293V97.3947H406.831V89.4087Z" fill="#1D996C"/>
<path d="M360.929 112.427C360.929 113.781 360.527 115.105 359.775 116.231C359.023 117.357 357.955 118.234 356.704 118.752C355.454 119.271 354.078 119.406 352.75 119.142C351.423 118.878 350.204 118.226 349.247 117.268C348.289 116.311 347.638 115.091 347.374 113.762C347.11 112.434 347.245 111.058 347.763 109.806C348.281 108.555 349.158 107.486 350.284 106.734C351.409 105.981 352.732 105.58 354.085 105.58C355.899 105.583 357.638 106.306 358.921 107.589C360.203 108.872 360.925 110.612 360.929 112.427Z" fill="white"/>
<path d="M360.928 112.427C360.862 112.427 360.928 111.817 360.597 110.784C360.193 109.325 359.312 108.043 358.095 107.142C357.211 106.484 356.177 106.056 355.086 105.899C353.994 105.742 352.881 105.859 351.848 106.242C350.623 106.685 349.562 107.488 348.803 108.546C347.932 109.827 347.537 111.373 347.687 112.914C347.837 114.456 348.523 115.896 349.625 116.985C350.727 118.073 352.175 118.74 353.718 118.871C355.261 119.001 356.8 118.586 358.069 117.698C359.288 116.805 360.169 115.526 360.57 114.069C360.862 113.036 360.835 112.427 360.901 112.427C360.922 112.572 360.922 112.719 360.901 112.864C360.917 113.309 360.872 113.755 360.769 114.188C360.421 115.734 359.546 117.111 358.294 118.082C357.556 118.664 356.709 119.093 355.802 119.342C354.896 119.591 353.949 119.656 353.017 119.532C352.085 119.409 351.188 119.1 350.378 118.623C349.567 118.146 348.861 117.512 348.3 116.757C347.397 115.539 346.91 114.063 346.91 112.546C346.91 111.029 347.397 109.553 348.3 108.334C349.13 107.198 350.283 106.34 351.609 105.871C352.724 105.476 353.92 105.367 355.088 105.555C356.256 105.742 357.358 106.22 358.294 106.944C359.563 107.933 360.44 109.341 360.769 110.917C360.867 111.329 360.912 111.752 360.901 112.175C360.917 112.258 360.925 112.342 360.928 112.427Z" fill="#263238"/>
<path d="M328.232 75.6483C330.93 76.0402 333.675 75.3756 335.896 73.7929C338.117 72.2102 339.642 69.8314 340.154 67.1517C340.666 64.4721 340.125 61.6982 338.644 59.4077C337.162 57.1173 334.855 55.4867 332.203 54.8556C333.789 53.152 334.797 50.9916 335.086 48.6814C335.374 46.3713 334.927 44.029 333.809 41.9875C332.691 39.946 330.957 38.3091 328.856 37.3097C326.754 36.3102 324.392 35.999 322.103 36.4202C321.956 34.1317 321.217 31.9208 319.959 30.0038C318.701 28.0868 316.967 26.5294 314.927 25.4841C312.887 24.4389 310.611 23.9415 308.321 24.0408C306.031 24.14 303.807 24.8324 301.865 26.0503C299.238 24.0157 296.007 22.9184 292.685 22.9328C289.363 22.9472 286.141 24.0725 283.532 26.1298C281.289 25.7638 278.988 26.1294 276.969 27.1727C274.95 28.216 273.319 29.8816 272.319 31.9233C271.319 33.965 271.002 36.2745 271.414 38.5105C271.827 40.7465 272.948 42.7903 274.611 44.34" fill="#263238"/>
<path d="M281.519 36.6851H283.861C295.201 36.4211 306.225 40.4386 314.738 47.9383C323.252 55.438 328.631 65.8699 329.805 77.1581C332.069 98.9309 334.293 123.021 334.425 134.729C334.69 158.965 310.599 163.296 310.599 163.296L313.326 192.366L254.45 191.863L246.786 86.389C244.046 61.2788 256.356 38.7511 281.519 36.6851Z" fill="#FFBF9D"/>
<path d="M310.587 163.243C298.871 163.557 287.302 160.579 277.191 154.647C277.191 154.647 287.039 172.315 311.156 169.573L310.587 163.243Z" fill="#FF9A6C"/>
<path d="M322.408 103.407C322.437 104.309 322.113 105.186 321.505 105.852C320.896 106.517 320.052 106.918 319.152 106.97C318.714 107.015 318.271 106.972 317.849 106.844C317.428 106.715 317.036 106.503 316.698 106.22C316.36 105.937 316.082 105.59 315.881 105.197C315.679 104.805 315.558 104.377 315.525 103.937C315.496 103.036 315.818 102.16 316.423 101.492C317.028 100.825 317.869 100.419 318.768 100.361C319.208 100.316 319.653 100.359 320.076 100.488C320.499 100.618 320.892 100.831 321.231 101.115C321.571 101.399 321.85 101.748 322.052 102.142C322.254 102.536 322.375 102.966 322.408 103.407Z" fill="#263238"/>
<path d="M324.884 89.0776C324.46 89.5412 321.8 87.6605 318.08 87.7532C314.361 87.8459 311.674 89.7663 311.25 89.3293C311.052 89.1306 311.475 88.3095 312.574 87.4089C314.156 86.2557 316.057 85.6218 318.014 85.5945C319.953 85.5433 321.858 86.109 323.454 87.2102C324.685 88.0711 325.083 88.879 324.884 89.0776Z" fill="#263238"/>
<path d="M290.363 103.407C290.392 104.309 290.068 105.186 289.459 105.852C288.851 106.517 288.007 106.918 287.107 106.97C286.668 107.014 286.225 106.969 285.803 106.84C285.382 106.711 284.99 106.499 284.652 106.216C284.313 105.934 284.034 105.587 283.83 105.196C283.627 104.805 283.503 104.377 283.467 103.937C283.437 103.034 283.761 102.155 284.369 101.488C284.977 100.82 285.822 100.416 286.723 100.361C287.163 100.316 287.608 100.359 288.031 100.488C288.454 100.618 288.847 100.831 289.186 101.115C289.525 101.399 289.804 101.748 290.006 102.142C290.209 102.536 290.33 102.966 290.363 103.407Z" fill="#263238"/>
<path d="M288.31 90.6268C287.886 91.0904 285.226 89.2098 281.506 89.3025C277.787 89.3952 275.1 91.3155 274.689 90.8785C274.478 90.6798 274.901 89.8455 276.013 88.9581C277.601 87.8055 279.505 87.1718 281.467 87.1437C283.4 87.0822 285.303 87.6439 286.893 88.7462C288.111 89.6203 288.522 90.4282 288.31 90.6268Z" fill="#263238"/>
<path d="M302.46 117.936C302.46 117.724 304.75 117.273 308.482 116.704C309.435 116.585 310.322 116.373 310.468 115.724C310.529 114.738 310.284 113.757 309.766 112.916C308.822 110.638 307.829 108.246 306.788 105.738C302.645 95.5139 299.627 87.1041 300.037 86.9452C300.448 86.7862 304.141 94.8914 308.284 105.155C309.29 107.672 310.243 110.069 311.143 112.373C311.767 113.507 311.973 114.824 311.725 116.095C311.594 116.432 311.389 116.735 311.126 116.982C310.863 117.23 310.547 117.415 310.203 117.525C309.677 117.676 309.135 117.761 308.588 117.777C304.816 118.068 302.486 118.148 302.46 117.936Z" fill="#263238"/>
<path d="M289.104 82.9455C288.628 83.8991 285.411 82.9455 281.48 82.9455C277.549 82.9455 274.266 83.6474 273.882 82.6674C273.723 82.2038 274.398 81.343 275.788 80.5616C277.594 79.615 279.615 79.1584 281.652 79.2372C283.671 79.2528 285.649 79.8059 287.383 80.8397C288.707 81.5549 289.303 82.482 289.104 82.9455Z" fill="#263238"/>
<path d="M324.699 73.7281C323.944 74.5889 320.847 73.7281 317.154 73.8208C313.461 73.9135 310.337 74.5492 309.609 73.6884C309.278 73.2646 309.755 72.364 311.092 71.5694C312.959 70.5295 315.07 70.0039 317.207 70.0463C319.332 70.004 321.429 70.5444 323.269 71.6091C324.606 72.4434 325.043 73.3043 324.699 73.7281Z" fill="#263238"/>
<path d="M327.254 66.0466C327.254 66.0466 320.503 51.0149 313.117 47.651C304.156 43.5719 300.569 53.3855 292.085 51.2136C283.6 49.0416 275.036 45.1347 266.565 51.8625C257.299 59.2261 261.839 64.1395 261.508 74.9067C260.185 118.611 252.481 131.06 249.741 110.585C249.45 108.334 243.123 106.692 242.011 97.2092C240.528 84.919 239.708 69.9668 242.249 61.1596C244.393 53.7299 248.484 48.5383 255.883 42.7508C267.571 33.5993 283.891 33.0298 295.01 33.8907C306.129 34.7515 327.797 47.0285 327.254 66.0466Z" fill="#263238"/>
<path d="M251.246 109.884C251.19 108.996 250.956 108.129 250.558 107.335C250.16 106.54 249.606 105.833 248.929 105.257C248.252 104.682 247.466 104.248 246.618 103.982C245.77 103.717 244.877 103.625 243.993 103.712C239.492 104.255 234.529 106.93 235.045 116.267C235.958 132.822 252.372 128.491 252.385 128.014C252.398 127.538 251.683 116.81 251.246 109.884Z" fill="#FFBF9D"/>
<path d="M248.442 121.975C248.363 121.975 248.164 122.2 247.688 122.452C247.016 122.78 246.243 122.837 245.53 122.611C243.743 122.068 242.128 119.366 241.877 116.386C241.764 114.97 241.962 113.545 242.459 112.214C242.589 111.691 242.841 111.207 243.196 110.801C243.55 110.396 243.997 110.081 244.498 109.883C244.825 109.774 245.18 109.785 245.5 109.914C245.82 110.042 246.084 110.28 246.245 110.585C246.496 111.036 246.404 111.367 246.496 111.393C246.589 111.42 246.841 111.089 246.669 110.413C246.55 110.011 246.298 109.66 245.954 109.42C245.72 109.26 245.457 109.149 245.18 109.092C244.902 109.035 244.617 109.034 244.339 109.089C243.667 109.259 243.05 109.6 242.547 110.078C242.044 110.555 241.672 111.154 241.467 111.817C240.848 113.293 240.593 114.897 240.725 116.492C241.017 119.816 242.896 122.849 245.332 123.405C245.788 123.514 246.264 123.519 246.722 123.418C247.181 123.317 247.61 123.113 247.979 122.823C248.429 122.386 248.495 122.001 248.442 121.975Z" fill="#FF9A6C"/>
<path d="M250.825 77.7807C253.009 79.1978 255.312 80.6678 257.906 80.8533C260.501 81.0387 263.439 79.5289 263.81 76.8801C263.982 75.7147 263.664 74.3903 264.406 73.4765C265.147 72.5626 266.96 72.6951 268.377 72.801C273.208 73.1983 278.701 67.7551 279.826 63.0404C280.476 63.9221 281.438 64.5226 282.515 64.7195C283.592 64.9163 284.704 64.6948 285.624 64.0999C287.147 63.1236 288.49 61.8915 289.595 60.4578C291.011 58.7626 293.023 57.2263 295.22 57.478C296.438 57.6236 297.603 58.3256 298.834 58.1931C301.005 57.9415 302.011 55.3722 302.288 53.2135C302.566 51.0547 302.765 48.5119 304.578 47.2935C306.392 46.0751 308.483 46.7505 310.495 47.0021C312.507 47.2538 315.075 46.7108 315.538 44.7507C315.611 44.2231 315.577 43.6863 315.438 43.1721C315.3 42.6579 315.059 42.1769 314.731 41.7576C313.336 39.7867 311.318 38.3436 309.003 37.6611C306.688 36.9787 304.211 37.0968 301.971 37.9963C301.081 35.2674 299.406 32.8621 297.155 31.0824C294.905 29.3028 292.178 28.2281 289.319 27.9932C286.46 27.7583 283.595 28.3738 281.084 29.7623C278.574 31.1509 276.529 33.2506 275.207 35.7979C273.405 34.2224 271.248 33.1092 268.921 32.5542C266.593 31.9992 264.166 32.0191 261.848 32.6122C259.53 33.2054 257.392 34.3539 255.616 35.9588C253.841 37.5636 252.483 39.5765 251.659 41.8238C249.611 41.3298 247.464 41.4516 245.485 42.1739C243.507 42.8963 241.785 44.1871 240.537 45.8844C239.289 47.5817 238.569 49.61 238.469 51.7148C238.368 53.8197 238.891 55.9075 239.971 57.7164C237.032 59.491 234.544 62.4974 234.571 65.9275C234.597 69.3576 237.999 72.7083 241.295 71.7283C240.62 73.0982 240.5 74.676 240.961 76.132C241.422 77.588 242.427 78.8096 243.767 79.5414C245.107 80.2732 246.677 80.4586 248.15 80.0589C249.623 79.6592 250.885 78.7054 251.672 77.3966" fill="#263238"/>
<path d="M303.226 42.8699C303.243 42.9707 303.243 43.0736 303.226 43.1745C303.218 43.4716 303.192 43.768 303.147 44.0618C302.947 45.1924 302.568 46.2836 302.022 47.2933C301.135 48.8671 299.909 50.2242 298.434 51.2664C296.477 52.6807 294.111 53.4156 291.697 53.359L291.975 52.9881C292.503 54.4861 292.422 56.1314 291.75 57.5705C291.042 59.0698 290.119 60.4575 289.01 61.6893C288.481 62.4047 287.873 63.0578 287.197 63.6361C286.414 64.1959 285.504 64.551 284.549 64.6692C283.576 64.8372 282.576 64.7619 281.638 64.45C280.701 64.1381 279.854 63.5992 279.175 62.8812L279.784 62.6958C279.594 64.422 279.045 66.0893 278.172 67.5902C277.299 69.0911 276.121 70.3924 274.715 71.4102C273.174 72.6146 271.282 73.284 269.327 73.3173C267.485 73.2756 265.664 72.9218 263.94 72.2711L264.377 72.0724C263.562 74.0958 262.256 75.8844 260.578 77.2772C259.808 77.967 258.894 78.4769 257.903 78.7701C256.912 79.0633 255.868 79.1324 254.847 78.9725C253.098 78.641 251.484 77.8048 250.205 76.5669C248.925 75.3291 248.036 73.7437 247.646 72.0062L248.03 72.1651C246.311 73.1359 244.308 73.4777 242.365 73.1319C240.928 72.8955 239.568 72.3238 238.394 71.4632C237.654 70.9135 237.014 70.2417 236.501 69.4766C236.319 69.2122 236.168 68.9278 236.051 68.629C236.719 69.6551 237.566 70.5523 238.552 71.2778C239.718 72.0798 241.056 72.5969 242.457 72.7876C244.285 73.0644 246.153 72.7093 247.752 71.7811L248.07 71.5957V71.9532C248.458 73.573 249.308 75.0454 250.515 76.1923C251.723 77.3393 253.236 78.1117 254.873 78.4162C255.806 78.5496 256.756 78.4738 257.656 78.1944C258.556 77.9149 259.382 77.4388 260.075 76.8005C261.654 75.4753 262.877 73.7776 263.636 71.8605L263.768 71.5559L264.086 71.6619C265.733 72.2839 267.474 72.6198 269.235 72.6552C271.076 72.6374 272.859 72.0085 274.304 70.8672C275.631 69.9083 276.742 68.6825 277.568 67.2684C278.393 65.8544 278.913 64.2833 279.096 62.6561L279.189 61.8615L279.718 62.4574C280.317 63.0899 281.063 63.5646 281.89 63.8395C282.717 64.1144 283.598 64.181 284.457 64.0334C285.286 63.9315 286.077 63.6267 286.76 63.1461C287.395 62.602 287.968 61.9891 288.467 61.3185C289.533 60.1261 290.425 58.7884 291.115 57.3453C291.744 56.0473 291.839 54.5542 291.379 53.1868L291.234 52.8027H291.644C293.953 52.9008 296.231 52.2404 298.13 50.9221C299.604 49.9421 300.839 48.6431 301.744 47.1211C302.488 45.804 302.99 44.3642 303.226 42.8699Z" fill="#455A64"/>
<path d="M184.127 189.717C184.127 189.717 121.915 211.649 103.887 220.708C89.817 227.78 80.9088 253.46 102.564 264.161C118.699 272.107 206.073 256.89 206.073 256.89L184.127 189.717Z" fill="#FFBF9D"/>
<path d="M374.134 407.75L216.064 401.763L210.332 455.626L203.926 563.629L284.668 563.973C284.668 563.51 294.741 503.237 294.741 503.237L299.295 502.045L298.871 563.973H374.531C378.502 512.72 380.779 469.678 380.924 465.625C381.531 446.103 379.243 426.6 374.134 407.75Z" fill="#263238"/>
<path d="M289.039 469.704C289.78 470.215 290.586 470.625 291.435 470.923C293.681 471.959 296.06 472.681 298.503 473.068C300.225 473.32 301.979 473.257 303.679 472.883C305.678 472.473 307.517 471.493 308.973 470.062C310.482 468.395 311.531 466.364 312.018 464.168C312.587 461.956 312.878 459.665 313.235 457.334C314.638 447.998 315.499 439.482 315.883 433.31C316.108 430.238 316.24 427.735 316.293 426C316.392 425.119 316.392 424.231 316.293 423.351C316.054 424.215 315.912 425.104 315.869 426C315.658 427.96 315.406 430.397 315.088 433.27C314.427 439.402 313.447 447.839 312.044 457.189C311.329 461.798 310.906 466.459 308.179 469.32C306.896 470.493 305.367 471.365 303.705 471.873C302.043 472.382 300.289 472.514 298.569 472.26C296.182 471.949 293.837 471.367 291.58 470.525C290.765 470.163 289.913 469.888 289.039 469.704Z" fill="#455A64"/>
<path d="M304.116 425.443C304.116 425.443 303.732 425.165 302.938 425.152C301.807 425.175 300.717 425.576 299.84 426.291C299.163 426.819 298.615 427.493 298.236 428.264C297.858 429.035 297.66 429.882 297.656 430.741C297.774 431.804 298.195 432.811 298.869 433.641C299.543 434.472 300.441 435.091 301.457 435.425C302.473 435.758 303.563 435.792 304.598 435.523C305.632 435.254 306.568 434.693 307.292 433.906C307.799 433.211 308.141 432.41 308.292 431.563C308.444 430.717 308.401 429.847 308.166 429.019C307.881 427.923 307.238 426.953 306.339 426.264C305.691 425.801 305.241 425.761 305.227 425.814C306.278 426.694 307.02 427.886 307.345 429.218C307.486 429.906 307.479 430.616 307.324 431.301C307.169 431.987 306.869 432.631 306.445 433.191C305.849 433.778 305.103 434.189 304.289 434.38C303.475 434.57 302.624 434.533 301.829 434.272C301.035 434.01 300.328 433.535 299.785 432.898C299.243 432.262 298.887 431.488 298.755 430.661C298.742 429.956 298.88 429.257 299.161 428.61C299.442 427.963 299.859 427.385 300.383 426.913C301.439 426.038 302.747 425.524 304.116 425.443Z" fill="#455A64"/>
<path d="M216.066 452.381C216.69 452.559 217.338 452.635 217.986 452.606C219.752 452.675 221.522 452.617 223.28 452.434C234.96 451.26 245.879 446.097 254.201 437.813C255.457 436.576 256.62 435.248 257.682 433.84C258.423 432.833 258.807 432.264 258.741 432.211C258.675 432.158 256.848 434.224 253.618 437.204C245.137 444.989 234.493 450.014 223.095 451.613C218.714 452.209 216.066 452.169 216.066 452.381Z" fill="#455A64"/>
<path d="M377.327 398.969C374.216 391.897 374.799 391.248 374.799 391.248L366.01 314.262L357.565 239.381L350.708 183.943L311.158 175.467C311.158 175.467 306.604 188.102 287.478 188.486C265.439 188.923 252.825 169.203 252.825 169.203L189.594 182.804L213.419 346.047L216.265 390.016C216.265 390.016 211.553 397.128 211.553 404.757C211.553 412.385 211.235 417.484 211.235 417.484C269.953 433.615 328.22 447.6 381.827 431.973C381.761 431.973 380.424 406.028 377.327 398.969Z" fill="#455A64"/>
<path d="M336.281 181.056C336.281 181.056 359.088 183.598 367.175 192.194C375.263 200.789 401.127 243.301 401.127 243.301L363.562 294.78L346.156 270.941L336.281 181.056Z" fill="#455A64"/>
<path d="M353.727 207.662C354.045 207.662 357.632 235.885 361.748 270.769C365.865 305.653 368.949 333.968 368.631 333.995C368.314 334.021 364.727 305.772 360.61 270.888C356.493 236.004 353.343 207.689 353.727 207.662Z" fill="#263238"/>
<path d="M189.553 182.791L138.91 205.278L157.229 256.585L206.059 264.319L189.553 182.791Z" fill="#455A64"/>
<path d="M196.527 216.801C196.872 216.801 199.281 236.786 201.928 261.498C204.575 286.211 206.442 306.302 206.097 306.329C205.753 306.355 203.344 286.357 200.71 261.631C198.076 236.905 196.21 216.84 196.527 216.801Z" fill="#263238"/>
<g opacity="0.3">
<path d="M209.023 476.909C236.516 467.016 251.751 447.521 264.061 426.847C276.371 406.174 278.105 377.064 270.242 354.324C270.242 354.324 213.405 409.326 213.008 410.544C212.611 411.762 209.023 476.909 209.023 476.909Z" fill="black"/>
</g>
<g opacity="0.3">
<path d="M286.377 187.77C285.689 193.346 288.812 198.736 292.638 202.855C296.463 206.974 301.096 210.351 304.551 214.774C308.522 219.807 310.811 225.952 313.022 231.991C317.655 244.591 322.283 257.177 326.907 269.749C330.878 280.596 334.928 291.535 341.255 301.203C347.582 310.871 356.477 319.281 367.464 322.817L359.111 251.91L315.1 181.082L286.377 187.77Z" fill="black"/>
</g>
<path d="M331.979 188.38C331.979 187.492 332.694 154.648 330.483 151.085C328.273 147.522 326.513 144.172 326.089 140.821C326.253 140.553 326.359 140.253 326.397 139.941C326.436 139.629 326.407 139.312 326.313 139.012C326.219 138.712 326.062 138.436 325.852 138.202C325.642 137.968 325.384 137.782 325.096 137.656C322.912 136.424 319.444 139.404 319.365 144.688C319.285 149.973 319.894 158.965 319.894 158.965C319.894 158.965 295.671 145.218 289.04 144.834C282.408 144.45 272.441 143.231 271.912 146.436C271.382 149.641 271.833 150.41 275.314 151.628C278.795 152.846 284.288 153.694 289.715 155.601C292.423 156.46 295.076 157.486 297.657 158.674C297.657 158.674 285.281 155.032 282.567 158.674C279.854 162.316 280.224 165.6 281.958 167.362C280.895 167.831 280.003 168.62 279.408 169.619C278.813 170.618 278.543 171.778 278.636 172.937C279.02 176.99 280.833 177.983 280.833 177.983C280.833 177.983 277.207 180.738 278.941 184.247C280.674 187.757 284.751 185.572 288.603 189.545C292.455 193.518 302.025 202.789 305.718 204.908C309.411 207.027 317.869 207.808 317.869 207.808L331.979 188.38Z" fill="#FFBF9D"/>
<path d="M331.978 188.379C331.978 188.379 331.912 188.499 331.767 188.724L331.078 189.691C330.456 190.578 329.543 191.849 328.365 193.492L317.987 207.821L317.921 207.901H317.829C316.148 207.729 314.414 207.477 312.6 207.146C310.703 206.816 308.838 206.319 307.028 205.663C306.08 205.3 305.189 204.805 304.38 204.193C303.52 203.597 302.713 202.868 301.879 202.259C300.224 200.935 298.583 199.425 296.915 197.875C295.247 196.326 293.54 194.723 291.832 193.041L289.185 190.459C288.381 189.537 287.439 188.746 286.392 188.115C285.284 187.531 284.092 187.124 282.858 186.909C281.491 186.768 280.216 186.16 279.244 185.188C278.792 184.643 278.47 184.001 278.305 183.312C278.14 182.623 278.135 181.906 278.291 181.215C278.683 179.834 279.503 178.614 280.634 177.731V178.208C279.772 177.538 279.145 176.61 278.847 175.559C278.502 174.543 278.31 173.481 278.278 172.407C278.247 171.277 278.571 170.165 279.205 169.229C279.873 168.274 280.788 167.519 281.852 167.044L281.746 167.534C281.029 166.732 280.548 165.746 280.359 164.686C280.17 163.627 280.279 162.535 280.674 161.534C281.019 160.525 281.514 159.574 282.143 158.713C282.442 158.23 282.862 157.833 283.361 157.561C283.853 157.297 284.378 157.101 284.923 156.978C287.052 156.614 289.227 156.614 291.356 156.978C293.509 157.277 295.641 157.72 297.736 158.303L297.511 158.872C294.222 157.397 290.839 156.141 287.385 155.111C283.877 154.065 280.197 153.376 276.531 152.343C275.184 151.987 273.889 151.457 272.679 150.767C272.356 150.563 272.082 150.292 271.874 149.972C271.666 149.652 271.53 149.291 271.474 148.913C271.4 148.211 271.427 147.502 271.554 146.807C271.575 146.431 271.679 146.065 271.858 145.734C272.071 145.413 272.351 145.142 272.679 144.94C273.296 144.599 273.968 144.371 274.664 144.264C275.976 144.042 277.305 143.94 278.635 143.96C281.283 143.96 283.93 144.158 286.485 144.344C287.783 144.396 289.078 144.52 290.363 144.715C291.012 144.86 291.62 145.059 292.242 145.218L294.056 145.854C298.673 147.681 303.193 149.745 307.597 152.038C311.903 154.255 316.037 156.462 319.999 158.66L319.563 158.925C319.271 153.72 318.967 148.741 319.099 143.92C319.122 142.712 319.412 141.524 319.947 140.441C320.483 139.358 321.251 138.407 322.197 137.656C322.703 137.311 323.293 137.109 323.904 137.073C324.524 137.061 325.128 137.267 325.612 137.656C326.117 138.009 326.464 138.546 326.578 139.152C326.669 139.751 326.552 140.364 326.247 140.887V140.728C326.939 144.204 328.321 147.505 330.311 150.436C330.56 150.792 330.752 151.185 330.88 151.601C331.012 152.004 331.114 152.415 331.184 152.833C331.33 153.641 331.436 154.449 331.515 155.243C331.687 156.833 331.78 158.382 331.859 159.879C332.151 165.838 332.151 170.99 332.151 175.215C332.151 179.44 332.071 182.698 332.018 184.923C332.018 186.022 332.018 186.856 331.952 187.452C331.886 188.048 331.952 188.313 331.952 188.313C331.952 188.313 331.952 188.022 331.952 187.452V184.989C331.952 182.738 331.952 179.466 331.952 175.281C331.952 171.096 331.886 165.918 331.555 159.958C331.475 158.475 331.37 156.939 331.198 155.363C331.105 154.568 330.999 153.773 330.853 152.979C330.744 152.176 330.459 151.408 330.019 150.727C327.98 147.753 326.562 144.397 325.85 140.861V140.781V140.702C326.094 140.277 326.187 139.782 326.115 139.298C326.01 138.818 325.726 138.396 325.321 138.119C324.916 137.804 324.417 137.632 323.904 137.632C323.391 137.632 322.893 137.804 322.488 138.119C321.613 138.832 320.904 139.727 320.413 140.743C319.921 141.759 319.658 142.871 319.642 143.999C319.523 148.728 319.841 153.747 320.145 158.925V159.442L319.682 159.19C315.72 156.965 311.59 154.758 307.292 152.568C302.934 150.293 298.458 148.251 293.884 146.45L292.097 145.827C291.501 145.668 290.892 145.47 290.283 145.337C289.025 145.149 287.756 145.029 286.485 144.98C283.904 144.807 281.296 144.609 278.675 144.609C277.368 144.588 276.061 144.681 274.77 144.887C273.553 145.138 272.123 145.576 272.123 146.913C272.003 147.542 271.98 148.185 272.057 148.82C272.099 149.113 272.205 149.393 272.367 149.64C272.53 149.888 272.745 150.096 272.997 150.251C274.155 150.912 275.397 151.416 276.69 151.747C280.303 152.767 284.009 153.456 287.557 154.528C291.046 155.56 294.46 156.83 297.775 158.329L297.55 158.912C295.485 158.335 293.385 157.893 291.263 157.588C289.203 157.25 287.102 157.25 285.042 157.588C284.56 157.662 284.098 157.831 283.682 158.086C283.266 158.341 282.905 158.675 282.62 159.071C282.049 159.883 281.603 160.776 281.296 161.72C280.93 162.614 280.822 163.593 280.984 164.545C281.145 165.498 281.57 166.386 282.209 167.11L282.514 167.415L282.117 167.6C281.181 168.037 280.378 168.713 279.787 169.56C279.22 170.399 278.928 171.395 278.953 172.407C278.981 173.417 279.159 174.417 279.483 175.374C279.748 176.281 280.278 177.088 281.005 177.692L281.336 177.93L281.044 178.168C280.018 178.972 279.272 180.08 278.913 181.334C278.764 181.942 278.76 182.577 278.903 183.187C279.046 183.797 279.33 184.364 279.734 184.843C280.624 185.731 281.793 186.283 283.043 186.406C284.327 186.633 285.569 187.057 286.723 187.664C287.809 188.328 288.786 189.154 289.622 190.114L292.19 192.763C293.897 194.445 295.591 196.061 297.246 197.61C298.9 199.16 300.542 200.617 302.183 201.994C303.68 203.382 305.392 204.518 307.253 205.358C309.038 206.009 310.876 206.505 312.746 206.841C314.533 207.186 316.267 207.437 317.921 207.636L317.762 207.702L328.246 193.505L331.039 189.757L331.767 188.79L331.978 188.379Z" fill="#FF9A6C"/>
<path d="M410.471 265.061C408.049 260.439 402.529 250.811 399.948 244.904L382.634 251.208C382.634 251.208 333.659 184.989 332.031 184.989C330.403 184.989 309.172 204.722 309.172 204.722C310.112 205.663 354.255 306.911 371.172 317.877C388.088 328.843 400.689 335.809 409.769 320.142C418.85 304.474 421.113 285.43 410.471 265.061Z" fill="#FFBF9D"/>
<path d="M404.805 280.954C404.492 280.54 404.221 280.097 403.997 279.629C403.521 278.782 402.806 277.563 401.893 276.067C399.531 272.199 396.959 268.463 394.189 264.876C390.959 260.651 387.809 257.009 385.532 254.373L382.885 251.248C382.533 250.882 382.219 250.483 381.945 250.056C382.355 250.361 382.732 250.707 383.07 251.089C383.759 251.777 384.738 252.797 385.929 254.069C388.299 256.638 391.502 260.254 394.758 264.492C397.548 268.096 400.087 271.888 402.356 275.841C403.203 277.364 403.865 278.623 404.275 279.51C404.507 279.969 404.685 280.453 404.805 280.954Z" fill="#FF9A6C"/>
<path d="M305.055 133.365C304.618 133.683 302.792 131.802 299.893 130.795C296.994 129.789 294.413 129.974 294.294 129.471C294.228 129.233 294.85 128.809 296.015 128.584C297.538 128.352 299.095 128.508 300.543 129.035C301.991 129.563 303.283 130.446 304.301 131.603C305.042 132.491 305.254 133.206 305.055 133.365Z" fill="#263238"/>
<path d="M349.316 398.519C349.129 398.652 348.93 398.768 348.721 398.863C348.297 399.075 347.715 399.419 346.907 399.75C344.614 400.698 342.207 401.344 339.746 401.671C336.105 402.154 332.415 402.154 328.773 401.671C324.327 401.061 319.94 400.082 315.656 398.744C306.536 395.949 298.449 392.89 292.691 390.533C289.805 389.354 287.489 388.334 285.9 387.619L284.087 386.771C283.865 386.685 283.656 386.569 283.465 386.427C283.694 386.475 283.916 386.551 284.127 386.652C284.63 386.838 285.238 387.089 285.993 387.394L292.863 390.109C298.66 392.374 306.748 395.406 315.828 398.135C320.082 399.457 324.432 400.445 328.84 401.088C332.434 401.617 336.082 401.684 339.693 401.287C342.125 400.994 344.515 400.421 346.815 399.578C348.43 398.876 349.29 398.466 349.316 398.519Z" fill="#263238"/>
<path d="M229.553 272.16C207.448 257.26 181.148 251.936 163.914 251.923C147.778 251.923 124.019 254.439 102.523 266.557C89.4645 273.797 78.5368 284.342 70.8345 297.137C61.7542 312.262 56.8303 330.975 56.1949 352.761C56.1561 354.371 56.4392 355.972 57.0277 357.47C57.6161 358.968 58.498 360.334 59.6214 361.486C60.7448 362.639 62.0872 363.555 63.5696 364.181C65.0519 364.807 66.6444 365.13 68.2534 365.131H110.61C113.505 365.114 116.299 364.06 118.484 362.161C120.669 360.261 122.102 357.64 122.523 354.774C124.403 341.531 132.292 319.149 163.967 318.619C188.11 318.235 198.037 335.703 201.188 343.239C203.709 349.549 204.705 356.366 204.096 363.134C203.486 369.903 201.288 376.431 197.68 382.189C186.402 400.73 165.687 403.591 154.344 403.631C148.085 403.641 142.084 406.126 137.648 410.544C133.212 414.962 130.702 420.956 130.663 427.218V472.777C130.663 475.978 131.933 479.048 134.195 481.313C136.456 483.577 139.523 484.851 142.722 484.855H183.954C187.152 484.851 190.218 483.58 192.481 481.318C194.744 479.057 196.018 475.99 196.025 472.79V463.241C196.025 463.127 196.061 463.016 196.127 462.923C196.194 462.83 196.288 462.761 196.396 462.724C212.807 456.895 227.746 447.547 240.169 435.336C261.003 414.636 271.579 387.91 271.593 355.874C271.579 310.103 248.733 285.086 229.553 272.16Z" fill="#1D996C"/>
<path d="M165.342 496.324H161.795C153.612 496.492 145.822 499.863 140.095 505.712C134.368 511.561 131.16 519.424 131.16 527.612C131.16 535.801 134.368 543.663 140.095 549.512C145.822 555.362 153.612 558.732 161.795 558.901H165.408C173.704 558.901 181.659 555.604 187.525 549.735C193.391 543.866 196.686 535.906 196.686 527.606C196.686 519.306 193.391 511.346 187.525 505.477C181.659 499.608 173.704 496.311 165.408 496.311L165.342 496.324Z" fill="#1D996C"/>
<g opacity="0.3">
<path d="M269.964 326.645C269.397 322.038 268.222 317.527 266.47 313.229C258.224 292.621 238.845 278.57 216.793 276.067L110.398 263.948C121.967 275.788 137.07 278.146 153.086 282.291C169.102 286.436 186.349 292.674 202.524 296.118C207.713 297.23 213.114 298.607 217.085 302.051C221.056 305.494 223.226 310.328 225.291 315.083C228.38 322.146 231.468 329.183 234.557 336.193C238.065 344.219 242.737 353.291 252.188 353.808C256.024 353.963 259.774 352.635 262.658 350.099C269.514 344.232 270.957 335.081 269.964 326.645Z" fill="black"/>
</g>
<path d="M268.44 298.131C267.619 296.674 251.458 276.941 243.41 269.22C238.221 264.266 230.398 260.849 225.501 259.048C225.501 259.048 144.533 229.793 138.908 226.932L102.547 264.16C115.201 267.683 201.159 288.397 222.364 293.045C226.07 297.376 229.803 300.925 229.803 300.925L235.918 315.414C236.351 319.039 236.44 322.698 236.183 326.34C235.746 331.995 240.326 329.797 240.326 329.797C240.2 332.652 240.227 335.513 240.405 338.365C240.412 338.418 240.412 338.472 240.405 338.524C240.71 342.312 246.15 342.776 247.301 339.16L251.484 326.102C251.484 326.102 250.941 338.021 250.716 344.643C250.663 345.669 250.848 346.694 251.259 347.636C251.635 348.398 252.238 349.026 252.984 349.432C253.731 349.838 254.584 350.003 255.428 349.904C256.272 349.806 257.065 349.448 257.698 348.881C258.331 348.313 258.772 347.564 258.963 346.735L263.847 326.075L262.391 313.388L266.494 324.949C267.256 329.864 267.557 334.839 267.394 339.809C267.302 343.279 268.48 344.762 269.909 345.279C270.488 345.462 271.101 345.509 271.701 345.418C272.302 345.327 272.873 345.099 273.371 344.753C273.87 344.406 274.282 343.95 274.577 343.419C274.872 342.888 275.041 342.296 275.071 341.69L276.567 322.592C276.567 322.592 269.274 299.574 268.44 298.131Z" fill="#FFBF9D"/>
<path d="M133.695 225.488C135.72 225.648 137.717 226.062 139.638 226.72C144.335 228.072 148.957 229.672 153.484 231.514C158.778 233.62 163.544 235.66 166.985 237.116C168.892 237.804 170.735 238.66 172.492 239.672C170.489 239.318 168.534 238.731 166.667 237.924C163.133 236.666 158.328 234.759 153.034 232.627C147.739 230.494 142.921 228.654 139.387 227.515C137.439 226.991 135.536 226.313 133.695 225.488Z" fill="#FF9A6C"/>
</g>
<defs>
<clipPath id="clip0_146_3014">
<rect width="484" height="564" fill="white"/>
</clipPath>
</defs>
</svg>
