<svg width="48" height="48" viewBox="0 0 48 48" fill="none" xmlns="http://www.w3.org/2000/svg">
<path d="M37.8825 14.2079C36.4695 14.2122 35.087 13.7995 33.9099 13.022C32.7328 12.2444 31.814 11.137 31.2698 9.8399C30.7255 8.54276 30.5803 7.11417 30.8525 5.73491C31.1247 4.35564 31.8021 3.08769 32.7989 2.09149C33.7957 1.0953 35.0671 0.415626 36.4524 0.138489C37.8376 -0.138649 39.2744 -0.000798953 40.5808 0.534594C41.8873 1.06999 43.0048 1.97886 43.7918 3.14621C44.5788 4.31356 45.0001 5.68692 45.0023 7.09251C45.0052 8.97484 44.2571 10.7814 42.9222 12.1155C41.5873 13.4495 39.7747 14.2021 37.8825 14.2079ZM37.8715 13.1801C39.0794 13.1813 40.2606 12.8261 41.2656 12.1594C42.2705 11.4927 43.0541 10.5444 43.5172 9.43461C43.9803 8.32479 44.1021 7.10327 43.8672 5.92458C43.6323 4.74588 43.0512 3.66299 42.1975 2.81288C41.3438 1.96277 40.2558 1.38365 39.0711 1.14878C37.8865 0.913913 36.6584 1.03385 35.5423 1.49341C34.4262 1.95298 33.4722 2.73153 32.8009 3.73057C32.1297 4.72961 31.7715 5.90424 31.7715 7.10587C31.7715 8.71582 32.4139 10.2599 33.5577 11.3989C34.7016 12.5378 36.2531 13.1785 37.8715 13.1801Z" fill="white"/>
<path d="M37.1751 7.10564C36.6719 6.54438 36.1883 6.01227 35.7096 5.46923C35.4202 5.14365 35.4006 4.85574 35.6449 4.63342C35.8891 4.4111 36.1773 4.4524 36.4717 4.77555C36.9333 5.28215 37.3888 5.79482 37.87 6.33057C38.3487 5.79725 38.8018 5.27 39.2842 4.77069C39.4244 4.62783 39.6126 4.54133 39.8129 4.52772C39.8992 4.5425 39.9803 4.57862 40.0488 4.63276C40.1173 4.68689 40.171 4.75731 40.205 4.83751C40.2235 4.93404 40.2223 5.0333 40.2013 5.12934C40.1803 5.22537 40.14 5.3162 40.0828 5.39634C39.6066 5.97218 39.0948 6.51765 38.5636 7.10928L39.8752 8.57804C39.957 8.66915 40.0413 8.75784 40.1195 8.85381C40.3197 9.09678 40.321 9.34826 40.0987 9.57665C39.9009 9.78074 39.5663 9.7613 39.3452 9.52441C38.9349 9.08585 38.5404 8.63271 38.1386 8.18807C38.058 8.09817 37.9738 8.0107 37.8638 7.89408C37.412 8.39824 36.9736 8.88783 36.5315 9.3762C36.4568 9.47268 36.3683 9.5578 36.2689 9.62889C36.168 9.70268 36.0422 9.73444 35.9182 9.71743C35.7941 9.70042 35.6816 9.63597 35.6046 9.53777C35.4055 9.30695 35.4348 9.06276 35.6302 8.84166C36.0442 8.37394 36.4631 7.90987 36.8795 7.44458C36.9687 7.33889 37.0566 7.23806 37.1751 7.10564Z" fill="white"/>
<path d="M28.4101 48.0001C28.2676 47.8911 28.1503 47.7529 28.066 47.5948C27.9817 47.4368 27.9325 47.2627 27.9216 47.0841C27.3892 42.1761 26.8449 37.2698 26.2888 32.365C26.1911 31.4911 26.0947 30.618 25.9994 29.7458C25.8288 28.3171 26.1841 26.8752 26.9996 25.687C27.5577 24.8572 28.1818 24.07 28.7374 23.2378C29.0146 22.8223 29.2064 22.3498 29.5007 21.78C28.255 22.057 27.3929 21.7168 26.7676 20.8276C25.4132 21.2698 24.3679 20.8786 23.5618 19.7609C23.5263 19.721 23.4814 19.6903 23.4311 19.6717C23.3809 19.653 23.3268 19.647 23.2736 19.654C22.3895 19.9662 21.5395 19.8836 20.6174 19.3965C21.3783 21.2625 21.0241 23.12 21.0889 24.9483C21.0941 25.0544 21.0921 25.1608 21.0827 25.2666C21.0388 25.6882 20.7164 25.9895 20.3353 25.9785C20.2396 25.9765 20.1452 25.9555 20.0577 25.9167C19.9703 25.8779 19.8915 25.8222 19.826 25.7527C19.7604 25.6832 19.7095 25.6014 19.6762 25.5121C19.6429 25.4228 19.6278 25.3278 19.6319 25.2326C19.6246 24.2607 19.6209 23.2888 19.6502 22.323C19.7125 20.2019 18.8711 18.5691 17.0453 17.4515C16.6961 17.2377 16.5129 16.9425 16.6631 16.5355C16.8133 16.1285 17.1516 16.0167 17.5521 16.0799C18.3777 16.2111 19.2037 16.3448 20.03 16.4808C20.7041 16.5914 21.2159 16.3022 21.3856 15.7118C21.5492 15.142 21.2794 14.6427 20.6529 14.3876C19.4121 13.8871 18.1713 13.389 16.9257 12.9031C16.1062 12.5836 15.349 12.8836 14.99 13.6757C14.3159 15.1651 13.6576 16.6618 12.9933 18.1561C12.7661 18.6663 12.8296 19.1498 13.0971 19.6334C13.9519 21.1714 14.7311 22.7507 15.6483 24.2498C16.7205 25.9992 16.9538 27.8348 16.6936 29.832C16.3077 32.7902 16.0317 35.7617 15.7166 38.7272C15.4089 41.5724 15.1146 44.42 14.7824 47.2627C14.7519 47.5227 14.4917 47.7487 14.3391 48.0001H13.7908C13.3816 47.7171 13.3023 47.3368 13.3621 46.8558C13.7028 43.8611 14.0179 40.8641 14.3391 37.8658C14.6554 34.9296 14.9497 31.9908 15.2953 29.0582C15.4467 27.7644 15.277 26.5689 14.6248 25.4246C13.6943 23.793 12.8284 22.1238 11.9003 20.4898C11.3056 19.4438 11.2359 18.4149 11.7635 17.3312C12.1128 16.612 12.4144 15.8734 12.7539 15.1032C11.882 14.6464 11.0442 14.1957 10.1893 13.7668C10.088 13.717 9.89867 13.7851 9.77411 13.8458C8.74705 14.3548 7.70902 14.8335 6.52565 14.8007C4.25293 14.7387 2.56029 13.7073 1.55644 11.6809C1.00689 10.5706 0.579457 9.39944 0.109283 8.25019C0.00615189 8.02688 -0.0222275 7.77653 0.0283342 7.53598C0.0788959 7.29543 0.205721 7.07736 0.390157 6.91386C0.769961 6.57491 1.24502 6.51053 1.74817 6.76929C2.73615 7.27224 3.71556 7.7922 4.69988 8.30486C4.822 8.36561 4.94412 8.42028 5.09556 8.49438C5.374 7.97078 5.64268 7.4654 5.93456 6.91507L3.64108 5.70022C3.26494 5.5022 2.88148 5.31511 2.51511 5.10009C2.31845 4.99471 2.1593 4.8315 2.05941 4.63276C1.95952 4.43402 1.92374 4.20943 1.95699 3.98971C2.01195 3.48919 2.29406 3.11745 2.78255 3.00811C4.14789 2.70318 5.50958 2.32293 6.89446 2.18201C9.9048 1.87708 12.456 3.9156 12.848 6.90171C12.9615 7.75939 13.2656 8.27206 14.0753 8.62437C15.1842 9.11031 16.232 9.72624 17.3445 10.3069C17.6413 9.77362 17.9173 9.27067 18.1994 8.7738C18.81 7.71323 19.7711 7.367 20.9166 7.81164C21.5956 8.07526 22.3149 8.28178 22.9292 8.66203C23.4238 8.96331 23.811 9.14797 24.4216 8.98639C24.7745 8.88921 25.2593 9.07386 25.6245 9.25366C26.2351 9.55495 26.7969 9.95463 27.3818 10.3094C27.6494 10.4577 27.8775 10.6673 28.0474 10.9208C28.2173 11.1743 28.3241 11.4645 28.3588 11.7672C28.3846 11.8901 28.4529 12.0002 28.5518 12.0782C29.1526 12.5641 29.7852 13.0051 30.3666 13.5093C30.7537 13.8458 30.8795 14.3293 30.816 14.8371C30.7866 15.0667 30.8624 15.1651 31.0504 15.2988C31.4631 15.5825 31.845 15.9082 32.1898 16.2706C32.6991 16.827 32.7443 17.4855 32.4561 18.229C32.9897 18.5096 33.5161 18.8085 34.0657 19.0575C34.1878 19.1146 34.4149 19.0344 34.5651 18.9615C35.5116 18.4987 36.4605 18.0771 37.5462 18.0407C39.7823 17.9678 41.84 19.1887 42.756 21.2163C43.2542 22.3194 43.6987 23.448 44.1543 24.5705C44.3631 25.0868 44.2544 25.574 43.8917 25.9069C43.529 26.2397 43.0027 26.3102 42.4897 26.0466C41.5127 25.546 40.5504 25.0322 39.582 24.5243C39.4599 24.4624 39.3377 24.4029 39.1826 24.3288L38.3436 25.9081C38.5024 25.9967 38.6392 26.0794 38.7808 26.151C39.7102 26.637 40.642 27.1229 41.5677 27.6089C42.1588 27.9223 42.3884 28.3256 42.3151 28.8832C42.2491 29.391 41.8901 29.7482 41.2709 29.8782C40.0216 30.1406 38.7784 30.4577 37.5157 30.6302C34.5786 31.0311 31.8894 28.9804 31.4315 26.0636C31.4031 25.9611 31.3851 25.8561 31.3777 25.7501C31.4473 24.7236 30.7195 24.4138 29.8903 24.1271C29.2796 25.0103 28.6153 25.8813 28.0377 26.7998C27.3501 27.8992 27.3831 29.1226 27.5309 30.3666C27.9094 33.5398 28.2489 36.7166 28.6043 39.8922C28.8632 42.2102 29.1136 44.5281 29.3932 46.8436C29.4519 47.3295 29.3749 47.7049 28.967 47.988L28.4101 48.0001ZM16.0757 11.3262C15.8473 11.2047 15.7179 11.127 15.5872 11.0577C14.471 10.4709 13.3597 9.87688 12.2361 9.30468C12.0694 9.23223 11.9249 9.11699 11.8176 8.97077C11.7104 8.82455 11.6441 8.6526 11.6255 8.47251C11.5632 8.00722 11.4814 7.54558 11.4081 7.08151C11.1175 5.24222 9.7106 3.83907 7.90562 3.64105C6.59157 3.49769 5.37767 4.01887 3.97692 4.22539C4.2346 4.37482 4.35916 4.45257 4.48861 4.5206C5.37644 4.98589 6.26795 5.44389 7.15212 5.91647C7.66504 6.18981 7.77617 6.53482 7.51849 7.04506C7.05443 7.9481 6.58101 8.84547 6.09821 9.73717C5.81855 10.2547 5.46193 10.3543 4.91971 10.0773C4.16376 9.68858 3.4127 9.28889 2.65798 8.8965C2.39786 8.76043 2.1353 8.62923 1.87274 8.49559C2.21834 9.51728 2.57496 10.5025 3.07688 11.4112C3.47385 12.1189 4.0886 12.6812 4.83077 13.0153C5.57293 13.3495 6.40333 13.4379 7.19977 13.2675C7.88049 13.1131 8.53499 12.8611 9.14274 12.5192C9.83884 12.1341 10.4226 12.1547 11.0882 12.569C11.805 13.0124 12.5781 13.3671 13.3706 13.7838C13.8078 12.4633 14.5699 11.5497 16.0757 11.3262ZM40.1804 28.7132L40.1633 28.537C39.157 28.0085 38.1483 27.4849 37.1444 26.9577C36.5948 26.6649 36.4886 26.3138 36.778 25.7599C37.2331 24.886 37.6935 24.0161 38.1592 23.1504C38.4535 22.6012 38.8004 22.498 39.3621 22.7859C40.2793 23.2609 41.194 23.7444 42.1063 24.2206C42.2015 24.2704 42.3065 24.2996 42.4824 24.3676C42.1087 23.4771 41.7948 22.6571 41.4272 21.8626C41.2134 21.3836 40.9065 20.9514 40.5241 20.5909C40.1418 20.2303 39.6915 19.9485 39.1993 19.7617C38.7071 19.5748 38.1826 19.4866 37.656 19.5021C37.1294 19.5176 36.611 19.6365 36.1308 19.852C35.6423 20.0622 35.1599 20.2869 34.6885 20.5311C34.5232 20.6244 34.3354 20.6711 34.1454 20.6662C33.9554 20.6613 33.7703 20.6049 33.6101 20.5032C32.9629 20.1387 32.3022 19.8132 31.5939 19.4426C31.3497 19.8532 31.0016 20.2141 30.9173 20.6271C30.7744 21.3402 30.7952 22.0849 30.7415 22.877C30.8367 22.9268 31.0101 23.0167 31.1823 23.1103C32.8102 23.9886 32.4597 23.5488 32.7919 25.3747C32.8029 25.4343 32.8041 25.4962 32.8127 25.5545C33.151 27.6684 34.4736 29.1056 36.4984 29.1918C37.7159 29.2416 38.953 28.8857 40.1804 28.7132ZM21.007 17.9168C22.0719 18.6141 22.9671 18.5242 23.5142 17.641C24.6133 15.8795 25.6807 14.1033 26.7712 12.3394C26.9972 11.9749 26.9154 11.732 26.5551 11.5194C26.019 11.2047 25.4975 10.8646 24.9675 10.5475C24.5449 10.2948 24.3678 10.3434 24.1236 10.7795C23.5997 11.7174 23.088 12.6625 22.5556 13.5955C22.4955 13.6859 22.4642 13.7922 22.4657 13.9006C22.4672 14.0089 22.5015 14.1143 22.5641 14.203C23.3249 15.549 22.7692 17.1478 21.3428 17.7625C21.239 17.8111 21.1328 17.8609 21.0107 17.9168H21.007ZM25.92 19.5605C26.0251 19.4827 26.2864 19.3697 26.4293 19.1693C27.3794 17.7807 28.299 16.3751 29.2381 14.9756C29.4079 14.7229 29.3761 14.5383 29.1417 14.3536C28.8669 14.1374 28.6104 13.9005 28.343 13.6757C27.9387 13.3368 27.8545 13.3477 27.5809 13.7972C26.7016 15.2307 25.8248 16.6655 24.9504 18.1014C24.5168 18.8206 24.9198 19.5349 25.9237 19.5605H25.92ZM21.2085 13.0221C21.6482 12.2228 22.0878 11.4513 22.4981 10.6641C22.6667 10.341 22.5311 10.0567 22.2087 9.91576C21.5554 9.63513 20.8959 9.35935 20.2193 9.1419C20.0435 9.0848 19.6857 9.18685 19.5953 9.3302C19.0946 10.1296 18.65 10.9654 18.1664 11.8219L21.2085 13.0221ZM28.8705 20.4412C28.9927 20.344 29.2906 20.1983 29.4689 19.9699C29.9049 19.4098 30.2884 18.8085 30.6902 18.2241C31.3191 17.3178 31.3154 17.3215 30.4459 16.6545C30.1834 16.4529 29.9855 16.4723 29.8023 16.7469C29.2259 17.6167 28.6348 18.478 28.0731 19.3564C27.7604 19.8666 28.0877 20.4254 28.8742 20.4412H28.8705Z" fill="white"/>
</svg>
