<svg width="28" height="32" viewBox="0 0 28 32" fill="none" xmlns="http://www.w3.org/2000/svg">
<g clip-path="url(#clip0_190_676)">
<path d="M0.325017 31.9998C0.0579506 31.8264 0 31.5762 0 31.2731C0.00559888 22.0796 0.00727834 12.8861 0.00503879 3.69264C0.00503879 3.11048 0.139414 2.97835 0.726457 2.9767C1.10606 2.9767 1.4865 2.96845 1.86527 2.9767C2.04415 2.98166 2.13401 2.92881 2.20876 2.7587C2.70258 1.62658 3.59448 1.0312 4.83911 0.995697C5.99472 0.963492 7.02268 1.66209 7.47031 2.75127C7.56521 2.98248 7.71386 2.97423 7.90198 2.97423C12.5323 2.97423 17.1617 2.97423 21.7903 2.97423C21.9137 2.97423 22.0372 2.97423 22.1598 2.98248C22.4353 3.00478 22.5848 3.16415 22.6217 3.42592C22.6317 3.53573 22.6343 3.64608 22.6293 3.75622C22.6293 11.0626 22.6312 18.3687 22.6352 25.6745C22.6415 25.8286 22.6138 25.9822 22.5539 26.1248C22.494 26.2673 22.4034 26.3954 22.2883 26.5002C20.5319 28.214 18.7814 29.9324 17.0368 31.6555C16.9151 31.7752 16.779 31.8809 16.6497 31.9924L0.325017 31.9998ZM21.6139 3.97918H7.69874C7.69874 4.12534 7.69874 4.25416 7.69874 4.38298C7.68782 5.47299 7.71302 6.56382 7.65423 7.65053C7.60552 8.53905 6.80096 9.2137 5.89058 9.23186C4.98021 9.25003 4.12694 8.60346 4.04295 7.73475C3.97157 6.95441 4.006 6.1658 4.03036 5.37637C4.03455 5.2459 4.19832 5.05928 4.33101 5.00973C4.41077 4.98601 4.49498 4.98052 4.57722 4.99369C4.65945 5.00685 4.73754 5.03833 4.80552 5.08571C4.92631 5.21658 4.9944 5.38628 4.997 5.563C5.01884 6.1881 4.997 6.81485 5.01044 7.43996C5.01413 7.65467 5.10276 7.85953 5.25751 8.01108C5.41226 8.16262 5.62096 8.24892 5.83935 8.25168C6.05289 8.25529 6.25936 8.17647 6.41448 8.03213C6.5696 7.88779 6.66101 7.68943 6.66911 7.47959C6.68086 6.3293 6.66911 5.17901 6.66911 4.02873C6.66911 4.01304 6.64811 3.99735 6.63803 3.98414H1.02879V30.9957H15.9828V30.6538C15.9828 29.1608 15.9828 27.6673 15.9828 26.1732C15.9828 25.6282 16.1508 25.4631 16.6959 25.4631H21.2847C21.393 25.4631 21.5014 25.454 21.6122 25.449L21.6139 3.97918ZM17.0276 26.4821V30.179L20.7875 26.4821H17.0276ZM6.43395 2.96349C6.203 2.38546 5.50174 1.97257 4.8198 1.98248C4.13785 1.99239 3.45759 2.41271 3.25687 2.96349H6.43395Z" fill="#1D996C"/>
<path d="M18.8041 32.0001C18.4271 31.7573 18.3103 31.451 18.5522 31.2181C18.7053 31.093 18.8981 31.0243 19.0972 31.024C20.6988 31.0092 22.3004 31.0158 23.9019 31.0158H24.2866V3.99349C24.1925 3.98064 24.0994 3.96189 24.0077 3.93734C23.7642 3.85476 23.6365 3.68961 23.6575 3.43362C23.6785 3.17763 23.8255 3.03147 24.0825 2.99183C24.1027 2.98823 24.1232 2.9863 24.1438 2.98605C25.0836 2.97614 25.3313 2.86549 25.3296 4.04303C25.3168 13.1066 25.3168 22.1699 25.3296 31.233C25.3296 31.555 25.2809 31.8325 24.9702 32.0034L18.8041 32.0001Z" fill="#1D996C"/>
<path d="M26.6888 32C26.4721 31.8662 26.2848 31.7126 26.3369 31.422C26.3823 31.1668 26.5301 31.0669 26.9752 30.9843V3.98183C26.8905 3.97325 26.8063 3.95974 26.7232 3.94136C26.4637 3.87035 26.3117 3.69364 26.3327 3.43352C26.3327 3.37471 26.3445 3.31649 26.3675 3.26218C26.3904 3.20787 26.424 3.15855 26.4664 3.11704C26.5088 3.07554 26.559 3.04267 26.6144 3.02031C26.6697 2.99796 26.7289 2.98656 26.7887 2.98678C27.0343 2.97316 27.2805 2.97316 27.5261 2.98678C27.7999 3.00164 27.9536 3.16267 27.9855 3.42774C27.9942 3.52824 27.997 3.62915 27.9939 3.72997C27.9939 12.9009 27.9939 22.0716 27.9939 31.2419C27.9939 31.5508 27.9519 31.82 27.6697 31.9983L26.6888 32Z" fill="#1D996C"/>
<path d="M11.321 11.9056H4.70312C4.26556 11.9056 4.03125 11.7289 4.03125 11.4143C4.03125 11.0997 4.27648 10.9238 4.71068 10.9238H17.9154C18.0075 10.9187 18.0998 10.9237 18.1908 10.9386C18.457 10.9973 18.6107 11.1748 18.5956 11.4341C18.5988 11.5522 18.5546 11.6669 18.4726 11.7532C18.3906 11.8396 18.2773 11.8908 18.1572 11.8957C18.0455 11.9052 17.9334 11.9085 17.8213 11.9056H11.321Z" fill="#1D996C"/>
<path d="M11.326 14.8751H4.7703C4.27564 14.8751 4.03209 14.7099 4.03125 14.3862C4.03041 14.0625 4.2832 13.8908 4.76862 13.8908H17.8801C17.9729 13.8875 18.0659 13.8914 18.1581 13.9023C18.2811 13.9172 18.3943 13.9758 18.4764 14.0671C18.5585 14.1583 18.6039 14.2759 18.604 14.3978C18.5995 14.5203 18.5481 14.6365 18.4601 14.7233C18.3721 14.8101 18.254 14.8611 18.1295 14.866C18.0178 14.8767 17.9036 14.8734 17.7936 14.8734L11.326 14.8751Z" fill="#1D996C"/>
<path d="M11.3052 17.8446H4.77974C4.28004 17.8446 4.03985 17.6894 4.03145 17.3641C4.02305 17.0387 4.27836 16.8603 4.7873 16.8603H17.8383C17.9303 16.8558 18.0225 16.8558 18.1146 16.8603C18.2444 16.8666 18.367 16.9214 18.4572 17.0135C18.5474 17.1055 18.5985 17.228 18.6 17.3558C18.6 17.6184 18.4018 17.8108 18.1054 17.8356C18.0029 17.8446 17.8996 17.8413 17.7971 17.8413L11.3052 17.8446Z" fill="#1D996C"/>
<path d="M11.321 20.8125H4.94919C4.8652 20.8125 4.78542 20.8125 4.70312 20.8125C4.26472 20.8125 4.03125 20.635 4.03125 20.317C4.03125 19.9991 4.27816 19.8216 4.70984 19.8216C9.11112 19.8216 13.5127 19.8216 17.9145 19.8216C18.0371 19.8171 18.1596 19.8321 18.2773 19.8662C18.3821 19.897 18.4719 19.9643 18.53 20.0555C18.5881 20.1466 18.6105 20.2554 18.5931 20.3616C18.5893 20.4692 18.546 20.5718 18.4711 20.6504C18.3961 20.7289 18.2948 20.778 18.1858 20.7885C18.0634 20.8022 17.9402 20.8072 17.8171 20.8034L11.321 20.8125Z" fill="#1D996C"/>
<path d="M11.3017 23.7822H4.77709C4.27907 23.7822 4.03636 23.6236 4.03132 23.2991C4.02628 22.9746 4.28327 22.7962 4.79305 22.7962H17.8432C17.966 22.7906 18.0891 22.7983 18.2102 22.8193C18.3238 22.8376 18.4264 22.8969 18.4979 22.9856C18.5693 23.0744 18.6045 23.1862 18.5965 23.2991C18.6018 23.4174 18.5593 23.533 18.4783 23.6207C18.3973 23.7084 18.2843 23.7611 18.164 23.7673C18.0415 23.7794 17.9184 23.7841 17.7953 23.7813L11.3017 23.7822Z" fill="#1D996C"/>
</g>
<defs>
<clipPath id="clip0_190_676">
<rect width="28" height="32" fill="white"/>
</clipPath>
</defs>
</svg>
