<svg width="48" height="48" viewBox="0 0 48 48" fill="none" xmlns="http://www.w3.org/2000/svg">
<path d="M8.74008 27.2092H9.33979C11.6857 27.2092 14.0302 27.2092 16.3761 27.2092C19.2131 27.2182 21.6543 28.1981 23.7287 30.0854C23.9209 30.2484 24.1642 30.3425 24.4185 30.3521C26.2017 30.3741 27.9849 30.3637 29.7695 30.365C32.0439 30.365 33.2565 31.4912 33.3703 33.7073C33.3703 33.7358 33.3955 33.763 33.4339 33.8367L36.1531 32.8698C37.3009 32.4633 38.4367 32.0271 39.5951 31.6608C42.685 30.6848 45.3817 31.4109 47.7209 33.5481C48.1737 33.961 48.0664 34.4451 47.4654 34.7493C45.7347 35.6218 44.0022 36.4886 42.268 37.3499C38.5806 39.1906 34.8928 41.0304 31.2045 42.8694C27.27 44.8275 23.2288 45.0609 19.0807 43.5697C15.7843 42.3909 12.4848 41.2168 9.18224 40.0475C9.06045 40.0048 8.93601 39.9685 8.73875 39.9051C8.73875 40.2158 8.73875 40.4811 8.73875 40.7465C8.73875 41.1931 8.49252 41.461 8.04373 41.4636C5.59902 41.4748 3.1543 41.4748 0.709583 41.4636C0.227701 41.4636 0.00132385 41.1866 0 40.6637C0 39.2255 0 37.7874 0 36.3506V26.5128C0 25.6882 0.16283 25.5316 1.02201 25.5303H7.66246C8.61034 25.5303 8.74273 25.6597 8.74405 26.6008L8.74008 27.2092ZM46.0727 33.9403C45.8993 33.8109 45.7788 33.7047 45.6451 33.6219C43.8103 32.4733 41.8686 32.2644 39.8202 32.9954C37.5696 33.7927 35.3191 34.5862 33.0818 35.3978C32.7636 35.522 32.4653 35.6903 32.1961 35.8975C31.6392 36.3405 30.9466 36.5884 30.2288 36.6017C26.3959 36.6138 22.5637 36.6138 18.7325 36.6017C18.2162 36.6017 17.9382 36.3428 17.9263 35.9389C17.9263 35.504 18.2043 35.2645 18.7564 35.2606C19.499 35.2542 20.2417 35.2606 20.9857 35.2606C24.0306 35.2606 27.0635 35.2671 30.1031 35.2606C31.3938 35.2606 32.2716 34.1254 31.9115 32.9604C31.6705 32.1837 30.9636 31.7061 30.0051 31.7035C27.9902 31.7035 25.974 31.7151 23.9591 31.6867C23.6397 31.68 23.333 31.5631 23.0933 31.3566C21.1896 29.4835 18.9059 28.5412 16.2093 28.5489C13.8965 28.5554 11.5837 28.5489 9.27094 28.5489C9.11208 28.5489 8.9519 28.5645 8.7414 28.5761V29.0835C8.7414 32.0608 8.74934 35.0289 8.7308 38.001C8.7308 38.379 8.86319 38.5278 9.21004 38.6482C12.5303 39.8132 15.865 40.9446 19.1588 42.1782C23.2694 43.7198 27.2078 43.4584 31.092 41.4494C34.6201 39.6242 38.1971 37.891 41.7517 36.115C43.1748 35.4017 44.59 34.6872 46.0701 33.9442L46.0727 33.9403ZM7.34738 26.8933H1.398V40.0967H7.34738V26.8933Z" fill="white"/>
<path d="M18.2695 15.5243C18.2755 12.3532 19.5664 9.31372 21.8597 7.07143C24.1529 4.82913 27.2615 3.56685 30.5046 3.56104C33.7472 3.56378 36.8561 4.82505 39.1483 7.06774C41.4404 9.31044 42.7283 12.3511 42.729 15.5217C42.729 17.0957 42.4112 18.6543 41.7938 20.1079C41.1764 21.5615 40.2715 22.8816 39.131 23.9925C37.9906 25.1034 36.6371 25.9832 35.1481 26.5814C33.6591 27.1796 32.064 27.4845 30.4543 27.4785C23.7463 27.4721 18.2682 22.104 18.2695 15.5243ZM30.5072 26.1297C36.405 26.1828 41.3059 21.4438 41.3522 15.6447C41.3683 14.2449 41.1013 12.8557 40.5666 11.5571C40.0318 10.2585 39.2399 9.07603 38.2363 8.07763C37.2327 7.07924 36.0372 6.28461 34.7185 5.73942C33.3998 5.19423 31.9839 4.90923 30.5522 4.90079C24.6637 4.84383 19.7152 9.58798 19.6437 15.3573C19.5709 21.304 24.3818 26.0741 30.5072 26.1297Z" fill="white"/>
<path d="M26.2296 15.8765H27.2384C27.3075 15.8766 27.3738 15.8502 27.4233 15.803C27.4728 15.7559 27.5014 15.6917 27.5032 15.6241V8.59398C27.5027 8.53629 27.5227 8.48021 27.5595 8.43519C27.5964 8.39016 27.648 8.35893 27.7057 8.34674C28.2167 8.24128 28.7348 8.17206 29.2559 8.13962C29.8799 8.09648 30.4977 8.07533 31.1093 8.0762C31.7628 8.07585 32.4147 8.13916 33.0554 8.26519C33.6643 8.38005 34.2424 8.61623 34.7539 8.95901C35.2613 9.31048 35.6709 9.78036 35.9454 10.3259C36.2472 10.9007 36.3981 11.6368 36.3981 12.5343C36.3981 13.4171 36.2437 14.1528 35.9348 14.7413C35.6465 15.3037 35.2265 15.7916 34.7089 16.1652C34.1872 16.5347 33.5953 16.7987 32.968 16.9419C32.3173 17.0955 31.6515 17.1802 30.9822 17.1943L29.5392 17.2111C29.4706 17.2135 29.4057 17.2418 29.358 17.2901C29.3103 17.3384 29.2837 17.4029 29.2837 17.47V18.4603C29.2855 18.5278 29.3141 18.592 29.3636 18.6391C29.4131 18.6863 29.4794 18.7127 29.5485 18.7127H32.5934C32.6636 18.7127 32.7309 18.7399 32.7806 18.7885C32.8303 18.837 32.8581 18.9029 32.8581 18.9716V19.7689C32.8564 19.8365 32.8278 19.9007 32.7783 19.9478C32.7288 19.995 32.6625 20.0214 32.5934 20.0214H29.5485C29.4783 20.0214 29.4109 20.0486 29.3613 20.0972C29.3116 20.1457 29.2837 20.2116 29.2837 20.2802V22.7177C29.282 22.7852 29.2534 22.8494 29.2039 22.8966C29.1544 22.9437 29.0881 22.9701 29.019 22.9701H27.752C27.683 22.9701 27.6166 22.9437 27.5671 22.8966C27.5177 22.8494 27.489 22.7852 27.4873 22.7177V20.2802C27.4873 20.2116 27.4594 20.1457 27.4097 20.0972C27.3601 20.0486 27.2927 20.0214 27.2225 20.0214H26.2296C26.1605 20.0214 26.0942 19.995 26.0447 19.9478C25.9952 19.9007 25.9666 19.8365 25.9648 19.7689V18.9716C25.9648 18.9029 25.9927 18.837 26.0424 18.7885C26.0921 18.7399 26.1594 18.7127 26.2296 18.7127H27.2384C27.3075 18.7127 27.3738 18.6863 27.4233 18.6391C27.4728 18.592 27.5014 18.5278 27.5032 18.4603V17.4519C27.5032 17.3832 27.4753 17.3174 27.4256 17.2688C27.376 17.2203 27.3086 17.193 27.2384 17.193H26.2296C26.1594 17.193 26.0921 17.1657 26.0424 17.1172C25.9927 17.0686 25.9648 17.0028 25.9648 16.9341V16.116C25.9699 16.0508 26 15.9898 26.0491 15.9454C26.0982 15.9009 26.1627 15.8764 26.2296 15.8765ZM31.153 9.54798C30.7797 9.54798 30.4262 9.55834 30.0939 9.57905C29.8689 9.59329 29.6743 9.6127 29.5101 9.636C29.449 9.64567 29.3933 9.67595 29.3527 9.72159C29.3121 9.76723 29.2891 9.82534 29.2877 9.88583V15.5024C29.2877 15.5711 29.3156 15.637 29.3653 15.6855C29.4149 15.7341 29.4823 15.7613 29.5525 15.7613H30.928C31.3611 15.7599 31.793 15.7165 32.2174 15.6319C32.6347 15.553 33.0304 15.3889 33.3784 15.1504C33.7353 14.8973 34.0235 14.5626 34.2177 14.1756C34.4322 13.764 34.5324 13.2225 34.5183 12.5511C34.5478 12.0604 34.4632 11.5696 34.2707 11.1156C34.1097 10.7535 33.8584 10.4366 33.5399 10.1939C33.2206 9.95824 32.8544 9.79027 32.465 9.70073C32.0355 9.59842 31.595 9.54714 31.153 9.54798Z" fill="white"/>
</svg>
