<svg width="48" height="48" viewBox="0 0 48 48" fill="none" xmlns="http://www.w3.org/2000/svg">
<path d="M2.49918 47.9953C2.089 47.7268 2 47.3395 2 46.8704C2.0086 32.6391 2.01118 18.4078 2.00774 4.17645C2.00774 3.27528 2.21412 3.07076 3.11575 3.0682C3.69877 3.0682 4.28308 3.05542 4.86482 3.0682C5.13956 3.07587 5.27757 2.99406 5.39237 2.73074C6.15082 0.978242 7.52067 0.0566186 9.43226 0.00165334C11.2071 -0.0481989 12.7859 1.03321 13.4734 2.71924C13.6192 3.07715 13.8475 3.06437 14.1364 3.06437C21.2479 3.06437 28.3582 3.06437 35.4671 3.06437C35.6567 3.06437 35.8463 3.06437 36.0346 3.07715C36.4577 3.11166 36.6873 3.35837 36.7441 3.76358C36.7595 3.93356 36.7633 4.10438 36.7557 4.27488C36.7557 15.5849 36.7587 26.8946 36.7647 38.2038C36.7744 38.4424 36.7318 38.6802 36.6399 38.9008C36.5479 39.1215 36.4088 39.3198 36.232 39.4821C33.5344 42.1349 30.8459 44.7949 28.1664 47.4622C27.9794 47.6476 27.7704 47.8112 27.5718 47.9838L2.49918 47.9953ZM35.1962 4.62001H13.8243C13.8243 4.84626 13.8243 5.04567 13.8243 5.24508C13.8075 6.93239 13.8462 8.62097 13.7559 10.3032C13.6811 11.6786 12.4454 12.7229 11.0472 12.751C9.64896 12.7792 8.33845 11.7783 8.20946 10.4335C8.09982 9.22559 8.15271 8.00485 8.19011 6.78283C8.19656 6.58087 8.44809 6.29198 8.65189 6.21528C8.77437 6.17856 8.90371 6.17006 9.03002 6.19044C9.15633 6.21082 9.27626 6.25955 9.38067 6.33288C9.56619 6.53547 9.67076 6.79817 9.67476 7.07172C9.70829 8.03936 9.67476 9.00956 9.69539 9.97721C9.70107 10.3096 9.83718 10.6267 10.0749 10.8613C10.3125 11.0959 10.6331 11.2295 10.9685 11.2337C11.2965 11.2393 11.6136 11.1173 11.8518 10.8939C12.0901 10.6705 12.2305 10.3634 12.2429 10.0386C12.261 8.25795 12.2429 6.47733 12.2429 4.69671C12.2429 4.67242 12.2107 4.64814 12.1952 4.62768H3.5801V46.4409H26.5476V45.9117C26.5476 43.6006 26.5476 41.2887 26.5476 38.9759C26.5476 38.1322 26.8056 37.8766 27.6427 37.8766H34.6906C34.857 37.8766 35.0234 37.8625 35.1936 37.8548L35.1962 4.62001ZM28.1522 39.4539V45.1767L33.927 39.4539H28.1522ZM11.8817 3.04775C11.527 2.15297 10.45 1.51383 9.4026 1.52917C8.35522 1.54451 7.31042 2.19515 7.00214 3.04775H11.8817Z" fill="white"/>
<path d="M30.8819 47.9947C30.3027 47.6189 30.1234 47.1447 30.4949 46.7842C30.7302 46.5905 31.0262 46.4843 31.3321 46.4838C33.7919 46.4608 36.2516 46.471 38.7114 46.471H39.3022V4.64119C39.1577 4.62132 39.0147 4.59228 38.874 4.55427C38.4999 4.42645 38.3038 4.17079 38.3361 3.77453C38.3683 3.37827 38.5941 3.15202 38.9888 3.09066C39.0198 3.08509 39.0513 3.08209 39.0829 3.08171C40.5263 3.06637 40.9068 2.89509 40.9042 4.71789C40.8844 18.7481 40.8844 32.7779 40.9042 46.8072C40.9042 47.3057 40.8294 47.7352 40.3522 47.9998L30.8819 47.9947Z" fill="white"/>
<path d="M42.9915 47.9949C42.6587 47.7879 42.371 47.5501 42.451 47.1002C42.5206 46.7052 42.7477 46.5505 43.4313 46.4227V4.62351C43.3012 4.61023 43.172 4.58932 43.0443 4.56087C42.6458 4.45094 42.4123 4.17739 42.4445 3.77474C42.4445 3.68371 42.4627 3.59358 42.4979 3.50951C42.5331 3.42544 42.5848 3.34909 42.6498 3.28484C42.7149 3.22059 42.7922 3.16971 42.8771 3.13511C42.9621 3.1005 43.0531 3.08286 43.1449 3.0832C43.5222 3.06211 43.9003 3.06211 44.2775 3.0832C44.698 3.10621 44.934 3.35547 44.983 3.76579C44.9964 3.92137 45.0007 4.07757 44.9959 4.23364C44.9959 18.43 44.9959 32.626 44.9959 46.8215C44.9959 47.2996 44.9314 47.7163 44.498 47.9924L42.9915 47.9949Z" fill="white"/>
<path d="M19.3875 16.89H9.22331C8.55128 16.89 8.19141 16.6165 8.19141 16.1294C8.19141 15.6424 8.56805 15.3701 9.23492 15.3701H29.5156C29.6571 15.3623 29.799 15.37 29.9387 15.3932C30.3476 15.4839 30.5836 15.7587 30.5604 16.1601C30.5653 16.343 30.4975 16.5204 30.3715 16.6541C30.2455 16.7878 30.0715 16.867 29.8871 16.8747C29.7155 16.8893 29.5433 16.8944 29.3712 16.89H19.3875Z" fill="white"/>
<path d="M19.3953 21.4864H9.3265C8.56676 21.4864 8.1927 21.2307 8.19141 20.7296C8.19012 20.2286 8.57837 19.9627 9.32392 19.9627H29.4615C29.604 19.9576 29.7468 19.9636 29.8884 19.9806C30.0773 20.0037 30.2512 20.0943 30.3773 20.2356C30.5035 20.3768 30.5732 20.5589 30.5733 20.7475C30.5663 20.9371 30.4874 21.1171 30.3523 21.2515C30.2171 21.3858 30.0358 21.4647 29.8445 21.4723C29.673 21.4889 29.4976 21.4838 29.3286 21.4838L19.3953 21.4864Z" fill="white"/>
<path d="M19.3633 26.0832H9.34099C8.57352 26.0832 8.20461 25.8428 8.19171 25.3392C8.17882 24.8356 8.57094 24.5595 9.3526 24.5595H29.3973C29.5386 24.5524 29.6803 24.5524 29.8216 24.5595C30.0211 24.5692 30.2093 24.654 30.3478 24.7965C30.4863 24.939 30.5648 25.1286 30.5672 25.3264C30.5672 25.7329 30.2628 26.0308 29.8074 26.0691C29.6501 26.0832 29.4914 26.078 29.3341 26.078L19.3633 26.0832Z" fill="white"/>
<path d="M19.3914 30.6772H9.60514C9.47616 30.6772 9.35362 30.6772 9.22721 30.6772C8.5539 30.6772 8.19531 30.4024 8.19531 29.9102C8.19531 29.4181 8.57454 29.1433 9.23753 29.1433C15.9973 29.1433 22.7576 29.1433 29.5182 29.1433C29.7065 29.1363 29.8947 29.1596 30.0755 29.2123C30.2364 29.2601 30.3744 29.3643 30.4636 29.5054C30.5528 29.6465 30.5872 29.8149 30.5605 29.9793C30.5547 30.1458 30.4881 30.3047 30.373 30.4262C30.2579 30.5478 30.1022 30.6238 29.9349 30.6401C29.7469 30.6613 29.5577 30.669 29.3686 30.6631L19.3914 30.6772Z" fill="white"/>
<path d="M19.358 35.2741H9.33693C8.57203 35.2741 8.19926 35.0287 8.19152 34.5263C8.18378 34.0239 8.57848 33.7478 9.36143 33.7478H29.4048C29.5935 33.7392 29.7825 33.7512 29.9685 33.7836C30.143 33.8119 30.3006 33.9037 30.4103 34.0411C30.5201 34.1785 30.5741 34.3515 30.5618 34.5263C30.5699 34.7095 30.5046 34.8885 30.3802 35.0242C30.2558 35.1599 30.0823 35.2415 29.8975 35.2511C29.7094 35.2699 29.5203 35.2771 29.3313 35.2728L19.358 35.2741Z" fill="white"/>
</svg>
