<svg width="49" height="48" viewBox="0 0 49 48" fill="none" xmlns="http://www.w3.org/2000/svg">
<path d="M1.82089 43.289C1.9559 42.996 2.1088 42.7113 2.27876 42.4363C2.41929 42.2339 2.59546 42.0575 2.79901 41.9156C3.40023 41.4978 3.55949 41.033 3.14143 40.3796C2.99278 40.1465 2.89855 40.0007 2.59728 40.0164C2.15135 40.0385 1.70144 40.0333 1.25418 40.0164C0.541488 39.9864 0.0371609 39.5048 0.0172533 38.807C-0.0057511 38.0442 -0.0057511 37.2809 0.0172533 36.5172C0.0371609 35.8221 0.538833 35.3457 1.25551 35.3079C1.70144 35.2858 2.15135 35.2819 2.59728 35.3079C2.89723 35.3222 2.99544 35.1842 3.14143 34.9473C3.53162 34.3212 3.39624 33.8981 2.83618 33.4412C1.59394 32.4258 1.59128 31.702 2.83618 30.619C3.20646 30.2948 3.53427 29.9238 3.89792 29.5932C4.47126 29.0725 5.14414 29.0725 5.72544 29.5841C5.8993 29.7351 6.05723 29.903 6.2218 30.0631C6.89866 30.7322 6.89336 30.714 7.77593 30.3977C8.05862 30.2948 8.16612 30.162 8.15152 29.8705C8.12896 29.4331 8.13294 28.9931 8.15152 28.5557C8.18603 27.8553 8.67443 27.3659 9.38845 27.3437C10.1679 27.3203 10.9474 27.3203 11.7269 27.3437C12.4423 27.3659 12.9307 27.8645 12.9612 28.5583C12.9811 28.997 12.9864 29.437 12.9612 29.8731C12.9453 30.1699 13.0939 30.2636 13.3328 30.4055C13.9699 30.7869 14.4052 30.658 14.871 30.1087C15.9168 28.8785 16.6614 28.9033 17.7536 30.1087C18.0841 30.4732 18.4624 30.7934 18.8021 31.1501C19.333 31.7072 19.333 32.375 18.8101 32.94C18.6548 33.1092 18.4849 33.2641 18.3203 33.4256C17.6382 34.0882 17.6461 34.0882 18.0005 34.9812C18.1067 35.2415 18.2527 35.3157 18.5181 35.3053C18.9494 35.2884 19.3808 35.2923 19.8121 35.3053C20.5566 35.3261 21.0782 35.7974 21.1034 36.5146C21.13 37.2775 21.13 38.0407 21.1034 38.8044C21.1038 38.9638 21.072 39.1217 21.0098 39.269C20.9477 39.4163 20.8564 39.5501 20.7413 39.6626C20.6262 39.7752 20.4895 39.8643 20.3392 39.9247C20.1888 39.9852 20.0277 40.0159 19.8652 40.0151C19.4179 40.0346 18.968 40.0398 18.5221 40.0151C18.2221 39.9994 18.0881 40.1101 17.9832 40.3835C17.6554 41.2439 17.6183 41.2648 18.2938 41.8675C19.4883 42.9271 19.5321 43.6222 18.2858 44.7066C17.9394 45.0073 17.6315 45.351 17.2958 45.666C16.6508 46.2739 15.9686 46.2739 15.3249 45.6764C15.1802 45.5462 15.0422 45.4004 14.9015 45.2638C14.2061 44.5855 14.2101 44.5959 13.2983 44.9461C13.0594 45.0385 12.9586 45.1505 12.9678 45.4043C12.9838 45.8574 12.9838 46.3156 12.9678 46.7673C12.936 47.4689 12.4476 47.961 11.7336 47.9818C10.9558 48.0053 10.1741 48.0053 9.39641 47.9818C9.23399 47.9823 9.07306 47.9514 8.92285 47.8908C8.77264 47.8302 8.63611 47.7411 8.52107 47.6286C8.40604 47.5162 8.31476 47.3825 8.25249 47.2354C8.19021 47.0883 8.15815 46.9305 8.15815 46.7712C8.13692 46.3338 8.13294 45.8938 8.15815 45.4564C8.17408 45.1635 8.02544 45.0659 7.7892 44.9227C7.12561 44.5139 6.68366 44.7014 6.2165 45.2546C5.26889 46.3794 4.49117 46.4705 3.40421 45.2546C3.06445 44.8784 2.65435 44.5608 2.32787 44.1742C2.11021 43.9281 1.99209 43.6027 1.82089 43.289ZM3.10559 32.142C3.26618 32.2722 3.43739 32.4284 3.62319 32.5651C4.66503 33.3279 4.91984 34.204 4.25626 35.386C3.80103 36.197 3.56347 36.4678 2.59065 36.4704H1.24224V38.8526H2.32123C3.64841 38.8526 3.81696 38.9645 4.312 40.1544C4.37437 40.3054 4.44471 40.4525 4.51505 40.5983C4.80571 41.1853 4.69555 41.7047 4.22971 42.1513C3.85147 42.5118 3.45729 42.8581 3.13081 43.1536L4.91188 44.8928C5.14016 44.6675 5.40692 44.402 5.67633 44.1377C6.54564 43.2851 6.76196 43.246 7.90466 43.7225C8.03738 43.7798 8.18072 43.8305 8.32007 43.8839C9.07258 44.1729 9.3274 44.527 9.33669 45.3158C9.33669 45.7975 9.33669 46.2804 9.33669 46.7764H11.7774V45.6738C11.7774 44.4358 11.9101 44.2419 13.0621 43.7889C13.2306 43.7225 13.3978 43.6509 13.5624 43.5728C14.161 43.2877 14.6918 43.3983 15.155 43.854C15.5253 44.2237 15.8797 44.609 16.177 44.9201L17.9872 43.1497C17.8545 43.0443 17.6899 42.8893 17.5041 42.7592C16.4583 41.9976 16.2101 41.1177 16.8671 39.9396C17.3223 39.1247 17.5572 38.8591 18.534 38.8565H19.8811V36.4704H18.8021C17.4749 36.4704 17.3024 36.3558 16.8113 35.1686C16.749 35.0189 16.6786 34.8705 16.6083 34.7247C16.3163 34.1389 16.4251 33.6195 16.8923 33.1717C17.2692 32.8085 17.6634 32.461 17.9939 32.1576C17.3688 31.551 16.7994 30.9991 16.1902 30.4042C16.0787 30.5278 15.9115 30.6867 15.7722 30.8676C14.9838 31.8843 14.0959 32.1355 12.8882 31.4846C12.0521 31.0355 11.7813 30.8116 11.78 29.8561C11.78 29.4109 11.78 28.9644 11.78 28.5296H9.342C9.342 28.8733 9.33536 29.1805 9.342 29.4877C9.37119 30.6424 9.32474 31.1501 7.92457 31.5823C7.81596 31.6222 7.70963 31.6678 7.60605 31.719C6.9053 32.0184 6.47264 31.9507 5.94044 31.4274C5.57812 31.072 5.24102 30.6932 4.92515 30.3586L3.10559 32.142Z" fill="white"/>
<path d="M37.4474 21.6654C37.0665 21.6654 36.6843 21.6784 36.3034 21.6654C35.5628 21.6342 35.0678 21.1447 35.0386 20.4261C35.0226 19.9887 35.0187 19.5487 35.0386 19.1114C35.0505 18.8406 34.951 18.7208 34.6895 18.6167C33.7897 18.2808 33.7685 18.2457 33.1327 18.9278C32.0909 20.0473 31.3703 20.1384 30.2687 18.9278C29.9396 18.5646 29.56 18.2431 29.2189 17.8864C28.6655 17.311 28.6615 16.6393 29.207 16.0639C29.5003 15.7541 29.8042 15.4521 30.1227 15.1683C30.3205 14.9913 30.3297 14.8468 30.2554 14.5851C30.0497 13.8601 29.6343 13.5528 28.8659 13.7025C28.6349 13.7305 28.4014 13.7305 28.1704 13.7025C27.4046 13.6622 26.9149 13.1818 26.8977 12.419C26.8831 11.7056 26.8831 10.9871 26.8977 10.2763C26.9149 9.49526 27.4166 9.0084 28.2129 8.98627C28.6429 8.97455 29.0756 8.96935 29.5056 8.98627C29.7816 8.99798 29.9117 8.90035 30.0112 8.64391C30.355 7.76131 30.3908 7.74049 29.6967 7.11955C28.5646 6.10678 28.4452 5.40643 29.6967 4.31556C30.0802 3.98101 30.4187 3.59829 30.7956 3.25593C31.3464 2.75475 32.0246 2.74694 32.5833 3.24161C32.9164 3.5345 33.2323 3.84692 33.5349 4.16976C33.7154 4.36242 33.8627 4.37544 34.1308 4.29994C34.8674 4.09686 35.2031 3.69722 35.0333 2.9422C35.0226 2.84528 35.0226 2.74753 35.0333 2.65061C35.0333 1.41915 35.4487 1.0117 36.6949 1.0104C37.308 1.0104 37.9225 1.00129 38.5357 1.0104C39.332 1.02732 39.8284 1.51157 39.8629 2.29523C39.8775 2.717 39.8814 3.14007 39.8629 3.56054C39.8509 3.8287 39.9451 3.95888 40.2093 4.05781C41.1104 4.39627 41.1383 4.43402 41.7674 3.7506C42.8928 2.53736 43.6082 2.62848 44.6314 3.7506C44.9393 4.08906 45.295 4.39237 45.6122 4.71911C46.2678 5.3817 46.2598 6.05211 45.5923 6.72121C45.3268 6.98156 45.0614 7.26144 44.78 7.51008C44.5796 7.68582 44.569 7.83031 44.6473 8.09326C44.8557 8.81314 45.2618 9.14508 46.0356 8.97716C46.1344 8.96737 46.234 8.96737 46.3328 8.97716C47.595 8.97716 48.0064 9.3781 48.0077 10.6031C48.0077 11.1875 48.0144 11.7746 48.0077 12.3565C47.9958 13.1923 47.5034 13.6778 46.6447 13.7025C46.2293 13.713 45.8139 13.7195 45.4012 13.7025C45.1264 13.6908 44.995 13.782 44.8942 14.041C44.5504 14.9223 44.512 14.9444 45.2101 15.5667C46.4045 16.6263 46.4045 17.3279 45.2101 18.3707C44.8398 18.6935 44.512 19.0645 44.1483 19.3977C43.559 19.9406 42.8742 19.9445 42.2836 19.4095C41.9678 19.1231 41.6599 18.825 41.3692 18.5138C41.1887 18.3186 41.0414 18.3095 40.7746 18.3837C40.0341 18.5867 39.7129 18.9929 39.8748 19.7453C39.8848 19.8423 39.8848 19.94 39.8748 20.0369C39.8748 21.2632 39.4554 21.6745 38.2092 21.6745H37.462L37.4474 21.6654ZM31.8056 4.05521L29.998 5.823C30.1851 5.98181 30.3961 6.18489 30.6363 6.36323C31.5547 7.05837 31.8414 7.87717 31.1791 8.89514C31.1489 8.95301 31.1245 9.01361 31.1061 9.07609C30.7836 9.90141 30.4426 10.1357 29.5414 10.1422C29.0689 10.1422 28.5951 10.1422 28.1213 10.1422V12.5232C28.4677 12.5232 28.7849 12.5323 29.0915 12.5232C30.4187 12.4815 30.8301 12.6533 31.2375 13.903C31.284 14.0246 31.3372 14.1437 31.3968 14.2597C31.6835 14.9106 31.6091 15.3415 31.0915 15.8491C30.7226 16.2123 30.3311 16.5534 30.0099 16.8502L31.8056 18.6167C31.9741 18.4344 32.1878 18.2262 32.3709 17.9996C33.0836 17.1105 33.9145 16.8046 34.9576 17.4685C35.0313 17.5053 35.1087 17.5345 35.1885 17.5557C35.9676 17.8512 36.2184 18.2066 36.2251 19.0254C36.2251 19.5045 36.2251 19.9835 36.2251 20.4639H38.6631C38.6798 20.1473 38.6798 19.8301 38.6631 19.5136C38.541 18.4253 38.9179 17.6742 40.0725 17.41C40.1987 17.3697 40.3209 17.3183 40.4375 17.2563C41.1011 16.9752 41.5417 17.0468 42.0607 17.5544C42.4309 17.9163 42.7787 18.3004 43.0879 18.6258L44.8822 16.8593C44.6991 16.6953 44.4921 16.4831 44.2571 16.3048C43.3414 15.607 43.0534 14.7895 43.7143 13.7715C43.7514 13.6989 43.7817 13.6231 43.8046 13.545C44.1058 12.7822 44.4682 12.5336 45.303 12.5258C45.7927 12.5258 46.2824 12.5258 46.7721 12.5258V10.1435H45.8033C44.3315 10.1435 44.2306 10.0784 43.6599 8.76497C43.6082 8.64521 43.5511 8.52805 43.498 8.40829C43.21 7.75741 43.283 7.32914 43.8032 6.82015C44.1722 6.45696 44.5637 6.11459 44.8915 5.81258L43.0892 4.05C42.7826 4.37023 42.4509 4.73343 42.0991 5.07839C41.5351 5.63164 41.1157 5.70324 40.3951 5.39602C40.1668 5.29839 39.9398 5.19945 39.7089 5.11223C38.9312 4.82064 38.6764 4.46787 38.6684 3.64646C38.6684 3.16611 38.6684 2.68706 38.6684 2.20541H36.2264C36.209 2.50457 36.209 2.80446 36.2264 3.10362C36.3591 4.23224 35.961 5.00419 34.7665 5.27626C34.6405 5.31642 34.5188 5.36829 34.4029 5.43117C33.8189 5.69152 33.3026 5.58608 32.858 5.14869C32.4944 4.78029 32.136 4.39627 31.8056 4.05521Z" fill="white"/>
<path d="M37.9276 25.9336L35.4856 28.3328C35.3794 28.4356 35.2786 28.545 35.1644 28.6387C34.899 28.8561 34.611 28.8743 34.3562 28.6387C34.2924 28.5908 34.2404 28.5296 34.2039 28.4594C34.1673 28.3893 34.1473 28.312 34.1451 28.2333C34.1429 28.1545 34.1587 28.0763 34.1914 28.0044C34.224 27.9324 34.2726 27.8685 34.3336 27.8173C35.5918 26.5685 36.8584 25.3279 38.1333 24.0956C38.416 23.8222 38.7359 23.8469 39.0146 24.119C40.2612 25.334 41.5044 26.5515 42.744 27.7717C43.02 28.0438 43.0492 28.3627 42.7652 28.6335C42.4812 28.9043 42.1573 28.8418 41.8853 28.5762C41.1328 27.8433 40.3802 27.1091 39.6357 26.3632C39.5183 26.2296 39.411 26.0877 39.3145 25.9389L39.1818 26.0274C39.1725 26.1797 39.1579 26.332 39.1566 26.4843C39.1566 28.2872 39.1566 30.0902 39.1566 31.8931C39.142 35.5276 36.3695 38.2327 32.6707 38.2353H24.3519C24.202 38.2353 24.0122 38.2847 23.9126 38.2144C23.7189 38.0752 23.4375 37.8617 23.4455 37.6937C23.4548 37.4855 23.699 37.2564 23.8954 37.1014C23.9989 37.0207 24.2152 37.0715 24.3811 37.0715C27.1178 37.0715 29.8549 37.0715 32.5924 37.0715C35.7298 37.0715 37.9422 34.9093 37.9542 31.8319C37.9542 30.0446 37.9542 28.2586 37.9542 26.4713C37.9542 26.332 37.9436 26.1927 37.9276 25.9336Z" fill="white"/>
<path d="M10.0499 23.0793C10.9497 22.1993 11.7447 21.4195 12.541 20.6424C12.6395 20.5335 12.746 20.4317 12.8595 20.3378C13.1329 20.1334 13.466 20.1048 13.6492 20.3833C13.7063 20.4968 13.7397 20.6203 13.7475 20.7466C13.7552 20.8729 13.7372 20.9995 13.6943 21.1188C13.62 21.3271 13.3731 21.4781 13.1979 21.6513C12.145 22.6866 11.0904 23.7202 10.034 24.752C9.56811 25.2064 9.32922 25.2038 8.86338 24.752C7.69989 23.6169 6.53861 22.48 5.37954 21.3414C5.00794 20.9756 4.95618 20.6346 5.21896 20.3703C5.48174 20.1061 5.84538 20.1477 6.21036 20.5005C7.05311 21.3271 7.88924 22.1589 8.85542 22.953V22.513C8.85542 20.7101 8.85542 18.9071 8.85542 17.1042C8.86604 13.4515 11.6425 10.7503 15.3772 10.749H23.5884C23.7211 10.749 23.8538 10.749 23.9866 10.749C24.3555 10.7712 24.5851 10.9664 24.5864 11.3296C24.5878 11.6928 24.3489 11.8972 23.9839 11.9089C23.4371 11.9258 22.889 11.9154 22.3422 11.9154C20.0024 11.9154 17.6639 11.9154 15.3254 11.9154C12.3101 11.9154 10.0751 14.088 10.0525 17.043C10.0379 19.0126 10.0499 20.9756 10.0499 23.0793Z" fill="white"/>
<path d="M15.781 37.6408C15.7835 38.9969 15.2388 40.2989 14.2657 41.2624C13.2926 42.2258 11.9704 42.7724 10.5878 42.7827C9.89908 42.7853 9.21659 42.6547 8.57931 42.3986C7.94203 42.1424 7.36244 41.7656 6.87365 41.2896C6.38487 40.8137 5.99645 40.248 5.7306 39.6248C5.46474 39.0017 5.32665 38.3332 5.32422 37.6577C5.3437 36.3116 5.90196 35.027 6.87852 34.0811C7.85508 33.1352 9.17166 32.6038 10.5441 32.6016C11.9166 32.5993 13.235 33.1265 14.2147 34.0692C15.1945 35.012 15.757 36.2948 15.781 37.6408ZM14.5866 37.7319C14.6069 36.6888 14.2045 35.6803 13.4679 34.9277C12.7312 34.1751 11.7203 33.7398 10.6568 33.7173C10.1258 33.7038 9.59739 33.7934 9.10188 33.981C8.60638 34.1687 8.15359 34.4506 7.7696 34.8105C7.3856 35.1705 7.07798 35.6013 6.86443 36.0784C6.65089 36.5554 6.53564 37.0691 6.52531 37.59C6.45895 39.7444 8.26657 41.5682 10.5068 41.6124C11.5711 41.6246 12.5972 41.2237 13.3614 40.4971C14.1256 39.7704 14.566 38.777 14.5866 37.7332V37.7319Z" fill="white"/>
<path d="M37.3745 16.4494C34.4667 16.3856 32.1627 14.0737 32.2198 11.2762C32.2769 8.43449 34.6406 6.16422 37.4913 6.21368C40.4111 6.26315 42.7629 8.62584 42.674 11.4207C42.5877 14.2742 40.2253 16.5145 37.3745 16.4494ZM37.3745 15.2778C37.9055 15.2864 38.433 15.1922 38.9267 15.0004C39.4204 14.8086 39.8707 14.5232 40.2517 14.1603C40.6327 13.7975 40.9369 13.3645 41.1469 12.8861C41.3569 12.4077 41.4686 11.8934 41.4755 11.3726C41.5127 9.22075 39.7382 7.43864 37.5046 7.38266C35.3108 7.32799 33.4806 9.05543 33.4116 11.245C33.3426 13.4345 35.1276 15.231 37.3798 15.2804L37.3745 15.2778Z" fill="white"/>
</svg>
