<svg width="48" height="48" viewBox="0 0 48 48" fill="none" xmlns="http://www.w3.org/2000/svg">
<path d="M37.1815 24.7828C35.0345 24.7893 32.9339 24.1566 31.1454 22.9645C29.3569 21.7725 27.9609 20.0747 27.134 18.0861C26.3071 16.0975 26.0866 13.9074 26.5002 11.793C26.9138 9.67855 27.9431 7.73477 29.4578 6.20761C30.9724 4.68045 32.9044 3.63855 35.0092 3.21375C37.1141 2.78894 39.2972 3.00033 41.2822 3.82116C43.2673 4.64198 44.9652 6.03536 46.1611 7.82498C47.3569 9.61459 47.9969 11.72 48.0002 13.8748C48.0046 16.7606 46.8678 19.5301 44.8393 21.5752C42.8109 23.6204 40.0567 24.774 37.1815 24.7828ZM37.165 23.2067C39.0015 23.2091 40.7973 22.6646 42.3253 21.6422C43.8533 20.6198 45.0448 19.1654 45.749 17.4631C46.4531 15.7609 46.6383 13.8872 46.281 12.0792C45.9238 10.2713 45.0401 8.61033 43.742 7.3066C42.4439 6.00286 40.7896 5.11494 38.9884 4.75521C37.1873 4.39548 35.3204 4.58011 33.6238 5.28573C31.9273 5.99136 30.4775 7.18625 29.4578 8.7192C28.4381 10.2521 27.8945 12.0542 27.8957 13.8974C27.8953 16.3655 28.8716 18.7326 30.6098 20.4784C32.3481 22.2241 34.706 23.2055 37.165 23.2067Z" fill="white"/>
<path d="M36.1094 13.8949C35.3452 13.0361 34.611 12.2135 33.8812 11.3863C33.4407 10.887 33.4107 10.4464 33.7823 10.1065C34.1539 9.76658 34.5915 9.82674 35.0395 10.323C35.7408 11.1006 36.4316 11.8856 37.1628 12.7068C37.8911 11.8901 38.5803 11.081 39.3131 10.3155C39.5251 10.0939 39.811 9.95846 40.1162 9.93502C40.2477 9.95768 40.3715 10.013 40.4762 10.0961C40.5809 10.1791 40.6632 10.2871 40.7156 10.4103C40.7445 10.5583 40.7429 10.7107 40.7109 10.8581C40.679 11.0056 40.6173 11.1449 40.5298 11.2675C39.8076 12.1503 39.0314 12.985 38.2222 13.8934L40.2151 16.1492C40.3395 16.2891 40.4684 16.426 40.5852 16.5718C40.8849 16.9493 40.8849 17.3313 40.5538 17.6817C40.2541 17.993 39.7446 17.9645 39.4075 17.6005C38.7856 16.9268 38.1862 16.2335 37.5764 15.5492C37.452 15.4108 37.3231 15.277 37.1583 15.098C36.4705 15.8695 35.8097 16.6215 35.1339 17.3704C35.0196 17.5178 34.8849 17.6479 34.7338 17.7569C34.3712 17.978 34.0086 17.9449 33.7254 17.6171C33.4257 17.2636 33.4662 16.8892 33.7629 16.5508C34.3922 15.8334 35.029 15.1221 35.6629 14.4092C35.7947 14.2528 35.9296 14.0979 36.1094 13.8949Z" fill="white"/>
<path d="M35.6694 29.9591C34.9592 29.2929 34.2324 28.6432 33.5311 27.9664C33.417 27.834 33.3542 27.6648 33.3543 27.4897C33.3543 26.9874 33.3438 26.4866 33.3438 25.9858C32.8322 25.8214 32.3316 25.624 31.8454 25.3947C31.8658 26.1817 31.8156 26.9689 31.6956 27.7469C31.6527 27.9481 31.6664 28.1574 31.7352 28.3512C31.804 28.5451 31.9252 28.716 32.0852 28.8447C32.9153 29.5817 33.7334 30.3487 34.5411 31.1006C35.0131 31.5398 35.0596 31.8375 34.7419 32.391C33.8968 33.8628 33.0477 35.3342 32.1945 36.805C31.8949 37.3224 31.6161 37.4306 31.0422 37.2562C29.9619 36.9163 28.88 36.5779 27.8041 36.223C27.6193 36.1493 27.4177 36.129 27.222 36.1643C27.0263 36.1997 26.8444 36.2893 26.6968 36.423C25.6663 37.2778 24.5017 37.9553 23.2504 38.4277C23.0614 38.4895 22.8934 38.6033 22.7657 38.7562C22.638 38.9091 22.5557 39.0949 22.5281 39.2925C22.2944 40.4174 22.0336 41.5363 21.7789 42.6583C21.6605 43.1786 21.3953 43.4012 20.8574 43.4102C19.1372 43.4102 17.417 43.4102 15.6968 43.4102C15.1349 43.4102 14.8831 43.1922 14.7572 42.6387C14.5055 41.5183 14.2478 40.3979 14.008 39.2744C13.9791 39.0831 13.8976 38.9036 13.7727 38.7561C13.6477 38.6087 13.4843 38.4991 13.3007 38.4398C12.0563 37.9575 10.8938 37.2848 9.85435 36.4456C9.66421 36.3142 9.46376 36.1985 9.25497 36.0997C9.01822 36.1628 8.8489 36.2004 8.68408 36.2501C7.63517 36.5809 6.59675 36.9148 5.55234 37.2441C4.917 37.4457 4.65328 37.3404 4.31763 36.7599C3.4855 35.3221 2.65587 33.8834 1.82873 32.4436C1.48259 31.842 1.52903 31.5563 2.02652 31.0901C2.84167 30.3381 3.65382 29.5756 4.48096 28.8342C4.63466 28.7074 4.75054 28.5404 4.81584 28.3518C4.88113 28.1631 4.89333 27.9601 4.85108 27.7649C4.65403 26.4514 4.65403 25.1156 4.85108 23.8021C4.89325 23.6008 4.87917 23.3918 4.81042 23.198C4.74167 23.0043 4.6209 22.8334 4.46147 22.7042C3.62235 21.9522 2.80271 21.1882 1.97857 20.4227C1.54103 20.0167 1.49308 19.7069 1.78827 19.194C2.63938 17.7092 3.49299 16.2263 4.34909 14.7454C4.64878 14.2311 4.929 14.1228 5.5044 14.3033C6.58477 14.6432 7.66514 14.9816 8.74102 15.338C8.9262 15.4114 9.12813 15.4315 9.32406 15.3959C9.51999 15.3603 9.70211 15.2704 9.84986 15.1365C10.8889 14.2746 12.0631 13.5916 13.3247 13.1152C13.5018 13.0559 13.6592 12.9487 13.7795 12.8054C13.8998 12.6621 13.9783 12.4883 14.0065 12.3031C14.2478 11.1796 14.504 10.0592 14.7557 8.93878C14.8846 8.36428 15.1348 8.15674 15.7222 8.15523C17.4205 8.15523 19.1157 8.15523 20.8079 8.15523C21.4163 8.15523 21.6545 8.35826 21.7909 8.96284C22.0426 10.0848 22.2974 11.2052 22.5401 12.3286C22.5685 12.5076 22.6455 12.6753 22.7626 12.8132C22.8797 12.9512 23.0324 13.0541 23.2039 13.1107C23.6594 13.2834 24.1038 13.4843 24.5345 13.7122C24.5432 13.1523 24.5892 12.5936 24.6724 12.0399C24.5585 11.9752 24.4446 11.9105 24.3293 11.8474C24.2361 11.806 24.1543 11.7425 24.0912 11.6623C24.028 11.5821 23.9852 11.4877 23.9666 11.3872C23.7673 10.4592 23.5576 9.53283 23.3523 8.60641C23.0526 7.29198 22.1625 6.56107 20.8274 6.55957C19.1292 6.55957 17.4334 6.55957 15.7402 6.55957C14.3781 6.55957 13.4791 7.28597 13.1854 8.61393C12.9801 9.54035 12.7688 10.4668 12.571 11.3947C12.5507 11.4941 12.5068 11.5871 12.4428 11.6657C12.3789 11.7442 12.2969 11.8061 12.2039 11.8459C11.2134 12.3948 10.238 12.9678 9.26997 13.5543C9.19291 13.6127 9.10264 13.6511 9.00721 13.6661C8.91179 13.6811 8.81418 13.6721 8.72304 13.64C7.8 13.3393 6.87246 13.0475 5.94493 12.7603C4.70123 12.3752 3.62836 12.7933 2.97804 13.9168C2.11394 15.4087 1.25234 16.9016 0.393235 18.3955C-0.25409 19.5234 -0.0892699 20.6754 0.853247 21.5612C1.571 22.238 2.30822 22.8952 3.01698 23.581C3.13113 23.7134 3.19391 23.8826 3.1938 24.0577C3.20879 25.2047 3.20879 26.3527 3.1938 27.5017C3.19164 27.6767 3.12736 27.8453 3.0125 27.977C2.30224 28.6612 1.5665 29.32 0.847247 29.9952C-0.0862789 30.872 -0.257101 32.0165 0.378236 33.1279C1.24034 34.6318 2.10695 36.1358 2.97804 37.6397C3.62986 38.7616 4.70123 39.1752 5.94793 38.7887C6.87546 38.4999 7.79849 38.1946 8.73052 37.9239C8.91354 37.8891 9.10293 37.9217 9.26397 38.0157C10.2395 38.5646 11.194 39.1511 12.1739 39.691C12.2787 39.7365 12.3706 39.8075 12.4412 39.8976C12.5119 39.9877 12.559 40.0939 12.5785 40.2069C12.7733 41.1363 12.9831 42.0627 13.1929 42.9876C13.4836 44.2705 14.3916 44.9984 15.7087 44.9999H20.8034C22.167 44.9999 23.0646 44.275 23.3508 42.9455C23.5561 42.0191 23.7688 41.0927 23.9636 40.1648C23.9847 40.0648 24.0297 39.9716 24.0947 39.893C24.1597 39.8144 24.2428 39.7528 24.3367 39.7136C25.3242 39.1632 26.3012 38.5887 27.2692 38.0006C27.3461 37.942 27.4365 37.9035 27.532 37.8888C27.6275 37.8741 27.7252 37.8836 27.8161 37.9164C28.7391 38.2172 29.6652 38.5089 30.5942 38.7917C30.8286 38.8545 31.0662 38.9047 31.306 38.9421C32.3549 38.903 33.0606 38.5044 33.5252 37.7013C34.4002 36.1874 35.2733 34.6719 36.1444 33.155C36.8097 32.0075 36.6359 30.8645 35.6694 29.9591Z" fill="white"/>
<path d="M18.2727 17.7563C16.6936 17.7572 15.1501 18.2279 13.8374 19.1088C12.5246 19.9897 11.5014 21.2414 10.8971 22.7056C10.2928 24.1699 10.1345 25.7811 10.4421 27.3357C10.7498 28.8902 11.5096 30.3184 12.6256 31.4398C13.7416 32.5611 15.1637 33.3253 16.7122 33.6358C18.2607 33.9463 19.8662 33.7892 21.3259 33.1843C22.7855 32.5795 24.0337 31.554 24.9129 30.2374C25.7921 28.9208 26.2627 27.3722 26.2654 25.7873C26.2614 23.6601 25.4184 21.6211 23.9206 20.1161C22.4228 18.6112 20.3921 17.7627 18.2727 17.7563ZM18.3042 32.173C17.0427 32.1783 15.8081 31.808 14.7564 31.1088C13.7047 30.4097 12.8833 29.4131 12.3961 28.2453C11.9089 27.0774 11.7778 25.7907 12.0194 24.5481C12.2611 23.3055 12.8645 22.1627 13.7535 21.2644C14.6424 20.3661 15.7769 19.7526 17.0133 19.5016C18.2498 19.2506 19.5326 19.3734 20.6995 19.8544C21.8664 20.3354 22.8649 21.153 23.5686 22.2037C24.2724 23.2545 24.6498 24.4911 24.6531 25.7572C24.6564 26.5964 24.495 27.428 24.178 28.2045C23.861 28.981 23.3946 29.6872 22.8056 30.2827C22.2165 30.8783 21.5163 31.3515 20.745 31.6753C19.9736 31.9991 19.1463 32.1672 18.3102 32.17L18.3042 32.173Z" fill="white"/>
</svg>
