<svg width="48" height="48" viewBox="0 0 48 48" fill="none" xmlns="http://www.w3.org/2000/svg">
<g clip-path="url(#clip0_190_549)">
<path d="M39.9599 8.84324C40.8628 8.72473 41.6406 8.58082 42.4265 8.52439C43.2125 8.46795 43.925 8.50745 44.6756 8.52439C46.1061 8.54414 47.1395 9.57971 47.1232 10.9623C47.1069 12.345 46.0762 13.3326 44.6756 13.3467C43.8597 13.3467 43.0439 13.3467 42.0839 13.3467C42.4809 13.7361 42.7665 14.0324 43.0684 14.3089C44.1806 15.3219 45.2902 16.3377 46.4188 17.3337C47.1404 17.951 47.66 18.7849 47.9064 19.7209C47.9485 19.8366 47.9672 19.9601 47.9615 20.0836C47.9558 20.2071 47.9258 20.3281 47.8733 20.4392C47.8208 20.5502 47.747 20.6489 47.6563 20.7292C47.5657 20.8095 47.4601 20.8697 47.3462 20.906C47.2317 20.9447 47.1105 20.9573 46.9908 20.9431C46.8711 20.9289 46.7558 20.8882 46.6527 20.8237C46.5495 20.7592 46.4609 20.6724 46.3929 20.5693C46.3249 20.4662 46.279 20.3491 46.2584 20.226C46.1065 19.5938 45.7563 19.032 45.263 18.6289C43.751 17.2463 42.2715 15.8326 40.7513 14.45C40.5565 14.3059 40.3214 14.2325 40.0823 14.2412C36.5659 14.2271 33.0495 14.2412 29.5332 14.2412C22.3554 14.2412 15.1794 14.2412 8.00524 14.2412C7.83201 14.2389 7.66021 14.2738 7.50062 14.3437C7.34103 14.4137 7.1971 14.5171 7.07787 14.6475C5.62745 16.0245 4.16342 17.3817 2.6858 18.7192C2.37895 18.9731 2.13303 19.2974 1.9674 19.6665C1.80177 20.0357 1.72093 20.4397 1.73124 20.8468C1.74484 23.6261 1.73124 26.4027 1.73124 29.1821C1.73124 30.9231 2.79459 32.0292 4.47255 32.0348C6.86575 32.0348 9.25623 32.0348 11.6494 32.0348C11.7956 32.0605 11.9457 32.0259 12.0676 31.9384C12.1895 31.8509 12.2737 31.7174 12.3021 31.5664C12.5496 30.7764 12.846 30.0032 13.118 29.2188C13.1801 28.9852 13.3191 28.7816 13.5109 28.6435C13.7027 28.5053 13.9351 28.4413 14.1677 28.4626C17.0967 28.4626 20.0229 28.4626 22.9519 28.4626C23.5801 28.4626 23.9771 28.8012 23.9962 29.326C24.0152 29.8508 23.6127 30.2346 22.9492 30.2374C20.3601 30.2374 17.782 30.2543 15.1848 30.2374C14.7008 30.2374 14.4778 30.3898 14.369 30.8554C14.2792 31.2278 14.1269 31.5833 13.9719 32.0292H23.2184C23.4003 32.0153 23.5833 32.0267 23.7623 32.063C23.9581 32.1019 24.1334 32.2137 24.2551 32.3775C24.3769 32.5412 24.4367 32.7455 24.4231 32.9519C24.4234 33.1688 24.3435 33.3775 24.1998 33.535C24.0561 33.6926 23.8595 33.7868 23.6508 33.7984C23.4697 33.8102 23.288 33.8102 23.1069 33.7984H11.1681C11.1681 34.6449 11.1681 35.4265 11.1681 36.2166C11.1681 38.0366 10.1265 39.1258 8.38054 39.1314C6.80864 39.1314 5.23765 39.1314 3.66756 39.1314C1.94881 39.1314 0.890903 38.0338 0.888183 36.2617C0.888183 35.0032 0.888183 33.742 0.888183 32.4835C0.878959 32.1958 0.804415 31.9145 0.670619 31.6624C0.261769 30.9411 0.0440966 30.1204 0.0396861 29.2837C0.0396861 26.4319 0.0396861 23.5791 0.0396861 20.7254C0.0289568 20.0933 0.156797 19.4669 0.413557 18.8935C0.670317 18.3201 1.04928 17.8147 1.52184 17.4156C2.81906 16.2559 4.09725 15.0736 5.38359 13.8997C5.53861 13.7558 5.68547 13.6006 5.94654 13.3354C4.91855 13.3354 4.04286 13.3523 3.15628 13.3354C2.68868 13.3235 2.23568 13.164 1.85767 12.8781C1.47966 12.5923 1.19459 12.1937 1.04048 11.7355C0.868028 11.2826 0.841323 10.7841 0.964343 10.3142C1.08736 9.84432 1.35352 9.42831 1.72309 9.12823C2.14975 8.80586 2.65053 8.60541 3.17532 8.54696C4.2085 8.47501 5.24516 8.47501 6.27833 8.54696C6.86598 8.62718 7.44691 8.75358 8.01612 8.92507C8.04059 8.86582 8.11402 8.7078 8.17657 8.54414C8.85464 6.75142 9.5309 4.96434 10.2053 3.1829C11.0076 1.04405 12.4327 0.0225971 14.6246 0.0197754H33.4738C35.6059 0.0197754 37.0663 1.05816 37.8251 3.10954C38.5349 5.05651 39.2746 7.0176 39.9599 8.84324ZM39.4949 12.424C39.48 12.3523 39.461 12.2816 39.4378 12.2124C38.3354 9.32481 37.2313 6.43821 36.1254 3.55255C35.663 2.35896 34.7928 1.78052 33.4847 1.78052C27.1681 1.78052 20.8506 1.78052 14.5321 1.78052C13.1343 1.78052 12.3021 2.37872 11.7908 3.73031C11.2469 5.19478 10.703 6.66489 10.1428 8.12371C9.58257 9.58253 9.05499 10.9652 8.47572 12.424H39.4949ZM2.57702 33.5021C2.57702 34.5038 2.55799 35.5027 2.57702 36.4988C2.5707 36.6116 2.58747 36.7246 2.62624 36.8303C2.665 36.936 2.72488 37.032 2.80194 37.1119C2.879 37.1919 2.97149 37.254 3.07334 37.2942C3.17519 37.3344 3.28409 37.3518 3.39289 37.3453C5.12252 37.3622 6.84943 37.3453 8.57634 37.3453C8.76781 37.365 8.95899 37.305 9.10788 37.1786C9.25678 37.0521 9.35121 36.8695 9.37045 36.6709C9.42756 35.7228 9.38949 34.7691 9.38949 33.8181C7.11322 33.6771 4.86144 34.0523 2.57702 33.5021ZM4.9811 11.5605C5.52501 11.5605 6.04989 11.5239 6.5802 11.5605C7.05068 11.6029 7.12411 11.2502 7.17034 10.9511C7.19209 10.8043 6.99356 10.5588 6.83583 10.4629C6.63106 10.352 6.40324 10.2948 6.17227 10.2964C5.21227 10.2767 4.24954 10.2964 3.28954 10.2964C2.87073 10.2964 2.57974 10.4939 2.59334 10.9454C2.60694 11.3969 2.90881 11.5662 3.3249 11.5634C3.87697 11.5549 4.42903 11.5605 4.9811 11.5605ZM43.0194 11.5605H44.7246C44.8096 11.5725 44.8961 11.565 44.978 11.5388C45.06 11.5125 45.1354 11.468 45.1991 11.4083C45.2628 11.3487 45.3132 11.2754 45.3468 11.1935C45.3803 11.1116 45.3963 11.0231 45.3936 10.9341C45.3997 10.8452 45.3865 10.7559 45.3551 10.6729C45.3237 10.5899 45.2748 10.5152 45.2119 10.4543C45.1491 10.3935 45.0739 10.348 44.992 10.3211C44.91 10.2943 44.8233 10.2868 44.7382 10.2992C43.7428 10.2992 42.7474 10.2992 41.7467 10.2992C41.5336 10.2999 41.3241 10.3562 41.1375 10.4629C40.9852 10.556 40.7731 10.7902 40.803 10.9031C40.871 11.1853 40.8791 11.5859 41.3469 11.5549C41.9071 11.5351 42.4673 11.5605 43.0194 11.5605Z" fill="white"/>
<path d="M30.9959 39.3684L25.7091 44.8566C24.9884 45.6043 24.2732 46.3549 23.5498 47.0942C22.4239 48.2511 20.8764 48.3047 19.8185 47.2353C18.7606 46.1659 18.7878 44.5039 19.9164 43.3244C22.2734 40.8564 24.6475 38.3958 27.0389 35.9428C27.0985 35.8996 27.1489 35.8441 27.1868 35.7798C27.2248 35.7155 27.2495 35.6437 27.2595 35.569C27.2695 35.4943 27.2644 35.4183 27.2447 35.3457C27.225 35.2731 27.1911 35.2054 27.145 35.1471C26.1949 33.3972 25.7024 31.4198 25.7165 29.4114C25.7306 27.4029 26.2508 25.4332 27.2253 23.6978C28.1999 21.9624 29.595 20.5217 31.2721 19.5186C32.9492 18.5156 34.85 17.9851 36.7858 17.9799C42.6437 17.9319 47.4383 22.5256 47.9604 28.6854C48.4554 34.532 44.3026 39.9722 38.6541 40.9119C36.151 41.3477 33.5797 40.8743 31.3739 39.5715C31.2651 39.5066 31.1509 39.453 30.9959 39.3684ZM36.8728 19.7604C35.6255 19.7543 34.3896 20.0057 33.2368 20.4998C32.084 20.994 31.0375 21.7211 30.158 22.6388C29.2786 23.5565 28.5839 24.6465 28.1142 25.8454C27.6446 27.0443 27.4094 28.3281 27.4224 29.6222C27.4525 32.2074 28.4645 34.6758 30.2386 36.4911C32.0127 38.3065 34.4056 39.3222 36.8973 39.3176C39.3886 39.2931 41.7701 38.2499 43.5247 36.4146C45.2793 34.5794 46.2654 32.1 46.2689 29.515C46.266 26.9298 45.2753 24.4513 43.514 22.6227C41.7527 20.7942 39.3644 19.7648 36.8728 19.7604ZM28.3824 37.0884C28.3035 37.1562 28.2464 37.1957 28.1975 37.2464L21.1266 44.5829C21.0346 44.6695 20.955 44.7693 20.89 44.8792C20.7876 45.0445 20.7439 45.2416 20.7662 45.4367C20.7885 45.6318 20.8756 45.8128 21.0124 45.9486C21.1373 46.0979 21.3104 46.1946 21.4993 46.2206C21.6882 46.2466 21.8796 46.2 22.0377 46.0897C22.1861 45.9876 22.3222 45.8672 22.4429 45.7313C24.7128 43.378 26.9791 41.0266 29.2418 38.6771C29.3533 38.5614 29.4566 38.4372 29.56 38.3187L28.3824 37.0884Z" fill="white"/>
<path d="M16.8027 21.3435C17.1889 21.9473 17.4908 22.4721 17.8443 22.949C17.9893 23.0698 18.1729 23.1292 18.3583 23.1155C20.1586 23.1155 21.9617 23.1155 23.762 23.1155C23.9062 23.1155 24.034 23.1155 24.189 23.1155C24.4154 23.1147 24.6331 23.2057 24.7957 23.3691C24.9583 23.5325 25.0529 23.7554 25.0593 23.9902C25.0629 24.1111 25.0422 24.2315 24.9984 24.3436C24.9546 24.4557 24.8888 24.5571 24.8051 24.6413C24.7214 24.7255 24.6216 24.7906 24.5123 24.8325C24.4029 24.8745 24.2863 24.8922 24.17 24.8847C23.2426 24.9016 22.3152 24.8847 21.3879 24.8847C20.1559 24.8847 18.9267 24.8847 17.6947 24.8847C17.4906 24.9014 17.286 24.8588 17.104 24.7616C16.9219 24.6644 16.7695 24.5165 16.664 24.3345C15.9814 23.2509 15.2825 22.1787 14.5863 21.1036C14.366 20.7622 14.2409 20.4123 14.453 20.0173C14.6652 19.6222 15.0105 19.5432 15.4103 19.5432H26.0573C26.7454 19.5432 27.1152 19.8592 27.1207 20.4264C27.1261 20.9936 26.759 21.3181 26.0709 21.3181H16.8027V21.3435Z" fill="white"/>
<path d="M7.71586 19.5657C8.76833 19.5657 9.82079 19.5657 10.8733 19.5657C11.0782 19.5518 11.2827 19.5973 11.4642 19.6969C11.6457 19.7965 11.797 19.9465 11.9012 20.13C12.5839 21.2135 13.2828 22.2858 13.979 23.3609C14.202 23.7079 14.3624 24.1143 14.0823 24.4359C13.8479 24.6952 13.5291 24.8551 13.1876 24.8846C11.3329 24.9241 9.47541 24.9241 7.62068 24.8846C6.57695 24.8636 5.57659 24.4476 4.80779 23.7149C4.03899 22.9822 3.55475 21.9832 3.44618 20.906C3.34827 19.9551 3.68006 19.5741 4.61014 19.5741L7.71586 19.5657ZM5.29547 21.3433C5.41407 21.7082 5.61109 22.0404 5.87164 22.3146C6.13219 22.5889 6.44943 22.798 6.79938 22.9263C7.18815 23.0493 7.59227 23.112 7.9987 23.1125C9.21706 23.1351 10.4463 23.1125 11.7571 23.1125C11.3709 22.5087 11.0582 22.0008 10.7182 21.5126C10.6738 21.4606 10.6195 21.4186 10.5586 21.3895C10.4977 21.3603 10.4317 21.3446 10.3647 21.3433C8.7085 21.3405 7.05502 21.3433 5.29547 21.3433Z" fill="white"/>
</g>
<defs>
<clipPath id="clip0_190_549">
<rect width="48" height="48" fill="white"/>
</clipPath>
</defs>
</svg>
