<svg width="40" height="40" viewBox="0 0 40 40" fill="none" xmlns="http://www.w3.org/2000/svg">
<g clip-path="url(#clip0_193_566)">
<path d="M28.3333 16.7317C21.9017 16.7317 16.6667 21.965 16.6667 28.3983C16.6667 34.795 21.9017 40 28.3333 40C34.765 40 40 34.7667 40 28.3333C40 21.9367 34.765 16.7317 28.3333 16.7317ZM28.3333 36.6667C23.7383 36.6667 20 32.9567 20 28.3983C20 23.8033 23.7383 20.065 28.3333 20.065C32.9283 20.065 36.6667 23.775 36.6667 28.3333C36.6667 32.9283 32.9283 36.6667 28.3333 36.6667ZM31.1783 28.8217C31.83 29.4733 31.83 30.5267 31.1783 31.1783C30.8533 31.5033 30.4267 31.6667 30 31.6667C29.5733 31.6667 29.1467 31.5033 28.8217 31.1783L27.155 29.5117C26.8417 29.1983 26.6667 28.775 26.6667 28.3333V25C26.6667 24.08 27.4117 23.3333 28.3333 23.3333C29.255 23.3333 30 24.08 30 25V27.6433L31.1783 28.8217ZM40 11.6667V15C40 15.92 39.255 16.6667 38.3333 16.6667C37.4117 16.6667 36.6667 15.92 36.6667 15V11.6667C36.6667 8.91 34.4233 6.66667 31.6667 6.66667H8.33333C5.57667 6.66667 3.33333 8.91 3.33333 11.6667V13.3333H18.3333C19.2533 13.3333 20 14.08 20 15C20 15.92 19.2533 16.6667 18.3333 16.6667H3.33333V31.6667C3.33333 34.4233 5.57667 36.6667 8.33333 36.6667H15C15.92 36.6667 16.6667 37.4133 16.6667 38.3333C16.6667 39.2533 15.92 40 15 40H8.33333C3.73833 40 0 36.2617 0 31.6667V11.6667C0 7.07167 3.73833 3.33333 8.33333 3.33333H10V1.66667C10 0.746667 10.7467 0 11.6667 0C12.5867 0 13.3333 0.746667 13.3333 1.66667V3.33333H26.6667V1.66667C26.6667 0.746667 27.4117 0 28.3333 0C29.255 0 30 0.746667 30 1.66667V3.33333H31.6667C36.2617 3.33333 40 7.07167 40 11.6667Z" fill="#3D4B55"/>
</g>
<defs>
<clipPath id="clip0_193_566">
<rect width="40" height="40" fill="white"/>
</clipPath>
</defs>
</svg>
