<svg width="24" height="24" viewBox="0 0 24 24" fill="none" xmlns="http://www.w3.org/2000/svg">
<path d="M12.0364 23.9999C9.6623 24.0072 7.33939 23.31 5.36161 21.9966C3.38383 20.6832 1.84006 18.8127 0.925689 16.6217C0.011313 14.4307 -0.232582 12.0177 0.224841 9.68799C0.682264 7.35832 1.82045 5.21669 3.4954 3.53409C5.17034 1.85149 7.30676 0.703544 9.63431 0.235503C11.9619 -0.232539 14.376 0.000363376 16.5711 0.904738C18.7663 1.80911 20.6439 3.34431 21.9662 5.31608C23.2886 7.28785 23.9964 9.60758 24 11.9817C24.0048 15.1612 22.7477 18.2126 20.5046 20.4659C18.2615 22.7192 15.2159 23.9903 12.0364 23.9999ZM12.0182 22.2634C14.049 22.266 16.0349 21.6662 17.7246 20.5397C19.4143 19.4132 20.7319 17.8108 21.5105 15.9353C22.2892 14.0597 22.4939 11.9953 22.0989 10.0033C21.7038 8.01138 20.7267 6.18137 19.2912 4.74494C17.8557 3.30851 16.0263 2.33021 14.0346 1.93387C12.0429 1.53752 9.97836 1.74094 8.1023 2.51839C6.22623 3.29583 4.62297 4.61235 3.49542 6.30132C2.36786 7.9903 1.7667 9.97581 1.76801 12.0066C1.76757 14.7258 2.84715 17.334 4.76934 19.2574C6.69153 21.1808 9.29895 22.2621 12.0182 22.2634Z" fill="white"/>
<path d="M10.8483 12.0014C10.0032 11.0553 9.19132 10.1489 8.38436 9.23757C7.8972 8.68744 7.86405 8.20194 8.27499 7.82746C8.68593 7.45298 9.16977 7.51926 9.66522 8.06607C10.4407 8.92274 11.2046 9.78769 12.0132 10.6924C12.8185 9.79266 13.5807 8.9012 14.391 8.05778C14.6254 7.81362 14.9416 7.66438 15.2791 7.63856C15.4246 7.66353 15.5614 7.72453 15.6772 7.81599C15.793 7.90746 15.884 8.02647 15.9419 8.16217C15.9739 8.32529 15.9721 8.49322 15.9368 8.65564C15.9014 8.81806 15.8333 8.97154 15.7365 9.10666C14.9378 10.0793 14.0795 10.999 13.1847 11.9998L15.3885 14.4853C15.526 14.6394 15.6685 14.7902 15.7978 14.9509C16.1292 15.3668 16.1292 15.7877 15.763 16.1738C15.4316 16.5168 14.8682 16.4853 14.4954 16.0843C13.8077 15.342 13.1449 14.5781 12.4705 13.8241C12.333 13.6717 12.1905 13.5242 12.0082 13.327C11.2477 14.1771 10.5169 15.0056 9.76961 15.8308C9.64323 15.9931 9.49423 16.1365 9.32718 16.2566C8.92619 16.5002 8.5252 16.4637 8.21202 16.1025C7.88062 15.7131 7.92536 15.3005 8.25345 14.9277C8.94939 14.1373 9.65362 13.3536 10.3545 12.5681C10.5004 12.3958 10.6495 12.2251 10.8483 12.0014Z" fill="white"/>
</svg>
