<svg width="24" height="24" viewBox="0 0 24 24" fill="none" xmlns="http://www.w3.org/2000/svg">
<g clip-path="url(#clip0_193_1319)">
<path d="M19 6H16.887C16.602 4.617 15.747 3.39 14.5 2.67C14.021 2.392 13.411 2.557 13.134 3.034C12.858 3.513 13.021 4.124 13.499 4.4C14.424 4.935 14.999 5.931 14.999 7V18H4C2.897 18 2 17.103 2 16V13C2 12.447 1.552 12 1 12C0.448 12 0 12.447 0 13V16C0 17.881 1.309 19.452 3.061 19.877C3.023 20.081 3 20.289 3 20.5C3 22.43 4.57 24 6.5 24C8.43 24 10 22.43 10 20.5C10 20.331 9.983 20.165 9.959 20H14.041C14.017 20.165 14 20.331 14 20.5C14 22.43 15.57 24 17.5 24C19.43 24 21 22.43 21 20.5C21 20.289 20.976 20.081 20.939 19.877C22.691 19.452 24 17.881 24 16V11C24 8.243 21.757 6 19 6ZM22 11V12H17V8H19C20.654 8 22 9.346 22 11ZM8 20.5C8 21.327 7.327 22 6.5 22C5.673 22 5 21.327 5 20.5C5 20.311 5.039 20.145 5.093 20H7.908C7.962 20.145 8.001 20.311 8.001 20.5H8ZM17.5 22C16.673 22 16 21.327 16 20.5C16 20.311 16.039 20.145 16.093 20H18.908C18.962 20.145 19.001 20.311 19.001 20.5C19.001 21.327 18.327 22 17.5 22ZM20 18H17V14H22V16C22 17.103 21.103 18 20 18ZM3 10H8C9.654 10 11 8.654 11 7V3C11 1.346 9.654 0 8 0H3C1.346 0 0 1.346 0 3V7C0 8.654 1.346 10 3 10ZM2 3C2 2.448 2.449 2 3 2H8C8.551 2 9 2.448 9 3V7C9 7.552 8.551 8 8 8H3C2.449 8 2 7.552 2 7V3ZM4 4C4 3.447 4.448 3 5 3H6C6.552 3 7 3.447 7 4C7 4.553 6.552 5 6 5H5C4.448 5 4 4.553 4 4Z" fill="white"/>
</g>
<defs>
<clipPath id="clip0_193_1319">
<rect width="24" height="24" fill="white"/>
</clipPath>
</defs>
</svg>
