<svg width="12" height="20" viewBox="0 0 12 20" fill="none" xmlns="http://www.w3.org/2000/svg">
<path d="M9.3554 12.1049C9.30891 12.0581 9.25361 12.0209 9.19268 11.9955C9.13175 11.9701 9.0664 11.957 9.0004 11.957C8.93439 11.957 8.86904 11.9701 8.80811 11.9955C8.74718 12.0209 8.69188 12.0581 8.6454 12.1049L6.3554 14.3949C6.30891 14.4418 6.25361 14.479 6.19268 14.5044C6.13176 14.5298 6.0664 14.5428 6.0004 14.5428C5.93439 14.5428 5.86904 14.5298 5.80811 14.5044C5.74718 14.479 5.69188 14.4418 5.6454 14.3949L3.3554 12.1049C3.30891 12.0581 3.25361 12.0209 3.19268 11.9955C3.13175 11.9701 3.0664 11.957 3.0004 11.957C2.93439 11.957 2.86904 11.9701 2.80811 11.9955C2.74718 12.0209 2.69188 12.0581 2.6454 12.1049C2.55227 12.1986 2.5 12.3253 2.5 12.4574C2.5 12.5895 2.55227 12.7162 2.6454 12.8099L4.9404 15.1049C5.22165 15.3858 5.6029 15.5436 6.0004 15.5436C6.3979 15.5436 6.77915 15.3858 7.0604 15.1049L9.3554 12.8099C9.44852 12.7162 9.50079 12.5895 9.50079 12.4574C9.50079 12.3253 9.44852 12.1986 9.3554 12.1049Z" fill="#3D4B55"/>
<path d="M2.6446 7.89507C2.69109 7.94193 2.74639 7.97913 2.80732 8.00452C2.86825 8.0299 2.9336 8.04297 2.9996 8.04297C3.06561 8.04297 3.13096 8.0299 3.19189 8.00452C3.25282 7.97913 3.30812 7.94193 3.3546 7.89507L5.6446 5.60507C5.69109 5.55821 5.74639 5.52101 5.80732 5.49562C5.86824 5.47024 5.9336 5.45717 5.9996 5.45717C6.06561 5.45717 6.13096 5.47024 6.19189 5.49562C6.25282 5.52101 6.30812 5.55821 6.3546 5.60507L8.6446 7.89507C8.69109 7.94193 8.74639 7.97913 8.80732 8.00452C8.86825 8.0299 8.9336 8.04297 8.9996 8.04297C9.06561 8.04297 9.13096 8.0299 9.19189 8.00452C9.25282 7.97913 9.30812 7.94193 9.3546 7.89507C9.44773 7.80139 9.5 7.67466 9.5 7.54257C9.5 7.41048 9.44773 7.28375 9.3546 7.19007L7.0596 4.89507C6.77835 4.61417 6.3971 4.45639 5.9996 4.45639C5.6021 4.45639 5.22085 4.61417 4.9396 4.89507L2.6446 7.19007C2.55148 7.28375 2.49921 7.41048 2.49921 7.54257C2.49921 7.67466 2.55148 7.80139 2.6446 7.89507Z" fill="#3D4B55"/>
</svg>
