<svg width="172" height="166" viewBox="0 0 172 166" fill="none" xmlns="http://www.w3.org/2000/svg">
<g clip-path="url(#clip0_1_687)">
<path d="M144.841 32.4233C144.846 30.0218 144.304 27.6514 143.255 25.4965C142.206 23.3416 140.68 21.4603 138.794 19.9992C136.909 18.538 134.715 17.5363 132.384 17.072C130.053 16.6077 127.647 16.6933 125.354 17.3222C123.061 17.9511 120.943 19.1063 119.164 20.698C117.384 22.2896 115.993 24.2747 115.096 26.4989C114.2 28.723 113.824 31.1261 113.997 33.5213C114.169 35.9164 114.887 38.239 116.092 40.3082L116.135 40.3671C116.726 41.3763 117.468 42.0988 118.217 43.1591L127.18 55.1632C127.44 55.5105 127.777 55.7922 128.163 55.9862C128.549 56.1801 128.975 56.281 129.406 56.281C129.837 56.281 130.263 56.1801 130.649 55.9862C131.035 55.7922 131.372 55.5105 131.632 55.1632L140.451 43.3554C141.253 42.3969 142.001 41.394 142.692 40.3514L142.72 40.3279C144.113 37.9322 144.846 35.2025 144.841 32.4233ZM129.398 39.2205C128.054 39.2205 126.739 38.8175 125.621 38.0624C124.503 37.3073 123.632 36.2341 123.117 34.9784C122.603 33.7227 122.468 32.3411 122.73 31.008C122.993 29.675 123.64 28.4506 124.591 27.4896C125.542 26.5285 126.753 25.874 128.072 25.6089C129.391 25.3437 130.758 25.4798 132 25.9999C133.242 26.52 134.304 27.4008 135.051 28.5309C135.798 29.661 136.197 30.9896 136.197 32.3487C136.197 34.1712 135.481 35.9191 134.206 37.2078C132.931 38.4965 131.201 39.2205 129.398 39.2205Z" fill="#ECECEC"/>
<path d="M156.651 59.2117C156.659 57.9132 156.37 56.6304 155.807 55.4634C155.243 54.2965 154.42 53.2771 153.402 52.4851C152.384 51.693 151.199 51.1497 149.939 50.8976C148.678 50.6455 147.378 50.6915 146.138 51.032C144.898 51.3724 143.753 51.9982 142.792 52.8602C141.832 53.7222 141.081 54.7972 140.6 56.0011C140.118 57.205 139.919 58.5051 140.017 59.7998C140.115 61.0945 140.508 62.3488 141.166 63.4644L141.189 63.4958C141.507 64.0377 141.908 64.4304 142.312 64.9998L147.148 71.475C147.288 71.6628 147.469 71.8152 147.677 71.9202C147.885 72.0251 148.114 72.0797 148.347 72.0797C148.579 72.0797 148.809 72.0251 149.017 71.9202C149.225 71.8152 149.406 71.6628 149.545 71.475L154.3 65.1058C154.734 64.59 155.139 64.0498 155.512 63.488V63.4644C156.261 62.1753 156.655 60.7067 156.651 59.2117ZM148.322 62.8754C147.597 62.8746 146.889 62.6568 146.287 62.2494C145.685 61.8421 145.216 61.2635 144.94 60.5868C144.663 59.9101 144.591 59.1657 144.733 58.4477C144.875 57.7296 145.224 57.0702 145.736 56.5527C146.249 56.0352 146.902 55.6829 147.612 55.5404C148.323 55.3978 149.059 55.4714 149.728 55.7518C150.397 56.0322 150.969 56.5068 151.372 57.1156C151.774 57.7245 151.989 58.4403 151.989 59.1725C151.989 59.6591 151.894 60.1409 151.71 60.5904C151.525 61.0399 151.255 61.4483 150.915 61.7922C150.574 62.1361 150.17 62.4088 149.725 62.5947C149.28 62.7805 148.803 62.8759 148.322 62.8754Z" fill="#EBEBEB"/>
<path d="M172 165.894C172 165.953 133.493 165.996 86.0039 165.996C38.5149 165.996 0 165.953 0 165.894C0 165.835 38.4993 165.792 86.0039 165.792C133.508 165.792 172 165.839 172 165.894Z" fill="#3D4B55"/>
<path d="M62.4381 30.4874L64.9944 67.0848C65.1969 69.9648 66.472 72.6602 68.5626 74.6277C70.6533 76.5951 73.4041 77.6884 76.2606 77.6871C77.8068 77.6873 79.3366 77.3665 80.7551 76.7446C82.1736 76.1227 83.4506 75.2128 84.5069 74.0715C85.5632 72.9302 86.3763 71.5817 86.8958 70.1097C87.4152 68.6377 87.63 67.0735 87.5268 65.5141C87.3015 62.0311 87.0956 59.1802 87.0956 59.1802C87.0956 59.1802 95.8638 57.8019 95.9726 48.9432C96.0347 43.8384 95.1606 32.2152 94.4186 23.321C94.1734 20.4208 92.8601 17.7192 90.7386 15.7508C88.617 13.7824 85.8419 12.6905 82.962 12.6913H77.6514C75.4854 12.819 73.3669 13.3846 71.421 14.3547C69.4752 15.3248 67.7417 16.6796 66.3232 18.339C64.9047 19.9983 63.8299 21.9285 63.1626 24.0152C62.4953 26.1019 62.2489 28.3027 62.4381 30.4874Z" fill="#FFBF9D"/>
<path d="M87.1033 59.0703C87.1033 59.0703 81.5635 59.5258 75.6779 55.7875C75.6779 55.7875 78.3779 62.1645 87.1228 61.3674L87.1033 59.0703Z" fill="#FF9A6C"/>
<path d="M91.6798 34.0451C91.683 34.3751 91.5584 34.6933 91.3327 34.9318C91.1069 35.1702 90.7979 35.31 90.4716 35.3213C90.3125 35.3341 90.1525 35.3146 90.001 35.264C89.8495 35.2134 89.7095 35.1326 89.5893 35.0265C89.4691 34.9204 89.3712 34.7911 89.3012 34.6461C89.2312 34.5012 89.1906 34.3435 89.1818 34.1825C89.1785 33.8527 89.3024 33.5347 89.5272 33.2957C89.752 33.0567 90.0601 32.9156 90.3861 32.9024C90.5457 32.8896 90.7062 32.9091 90.8581 32.96C91.0101 33.0108 91.1505 33.0918 91.2711 33.1983C91.3916 33.3047 91.4899 33.4345 91.56 33.5799C91.6302 33.7254 91.6709 33.8835 91.6798 34.0451Z" fill="#3D4B55"/>
<path d="M92.8918 32.223C92.7364 32.3879 91.7885 31.6811 90.4444 31.685C89.1002 31.689 88.1134 32.3683 87.9619 32.2034C87.892 32.1288 88.0513 31.8107 88.4786 31.5123C89.0616 31.1048 89.755 30.8895 90.4638 30.8958C91.1618 30.8929 91.8425 31.1158 92.4062 31.5319C92.8297 31.8539 92.9695 32.1523 92.8918 32.223Z" fill="#3D4B55"/>
<path d="M78.5371 34.045C78.5403 34.375 78.4158 34.6932 78.19 34.9317C77.9643 35.1702 77.6552 35.3099 77.3289 35.3212C77.1698 35.334 77.0098 35.3145 76.8583 35.2639C76.7068 35.2133 76.5669 35.1326 76.4467 35.0265C76.3265 34.9203 76.2285 34.791 76.1585 34.6461C76.0885 34.5011 76.0479 34.3435 76.0391 34.1824C76.0359 33.852 76.1603 33.5334 76.3859 33.2943C76.6116 33.0552 76.9206 32.9146 77.2473 32.9023C77.4066 32.89 77.5667 32.91 77.7182 32.9611C77.8697 33.0122 78.0097 33.0933 78.1298 33.1997C78.2499 33.3061 78.3478 33.4357 78.4177 33.5809C78.4877 33.726 78.5283 33.8838 78.5371 34.045Z" fill="#3D4B55"/>
<path d="M79.656 32.4744C79.5006 32.6393 78.5488 31.9285 77.2046 31.9325C75.8604 31.9364 74.8737 32.6197 74.7221 32.4508C74.6522 32.3762 74.8076 32.0817 75.2388 31.7636C75.8231 31.3582 76.5154 31.1419 77.224 31.1432C77.9212 31.1457 78.6003 31.3681 79.1665 31.7793C79.5899 32.1053 79.7298 32.4037 79.656 32.4744Z" fill="#3D4B55"/>
<path d="M84.5432 42.574C84.5432 42.4955 85.3746 42.3502 86.7304 42.1813C87.0723 42.1421 87.3986 42.0753 87.4569 41.8358C87.4866 41.4772 87.4066 41.118 87.2277 40.807C86.9065 39.9666 86.5672 39.0844 86.2098 38.1603C84.7996 34.3906 83.774 31.2924 83.9255 31.2374C84.077 31.1825 85.3435 34.1904 86.7576 37.9561C87.0969 38.8881 87.4219 39.7768 87.7327 40.6224C87.8609 41.0151 88.0862 41.4627 87.9075 41.985C87.8587 42.1077 87.7824 42.2172 87.6847 42.3051C87.587 42.393 87.4704 42.4568 87.3442 42.4915C87.1547 42.5461 86.9585 42.5739 86.7615 42.574C85.394 42.6447 84.5471 42.6525 84.5432 42.574Z" fill="#3D4B55"/>
<path d="M80.5806 43.5164C80.7982 43.5164 80.802 44.981 82.053 46.0295C83.3039 47.0779 84.8579 46.9169 84.8695 47.1211C84.8928 47.2154 84.5238 47.4078 83.8672 47.4274C83.0105 47.4396 82.1769 47.1462 81.513 46.5989C80.8756 46.0727 80.466 45.3164 80.3708 44.4902C80.3164 43.8619 80.4796 43.5085 80.5806 43.5164Z" fill="#3D4B55"/>
<path d="M80.0017 27.1418C79.8696 27.5345 78.5254 27.3382 76.9443 27.5345C75.3631 27.7308 74.085 28.1628 73.8752 27.829C73.782 27.6719 74.0034 27.3225 74.5201 26.9651C75.2071 26.5264 75.9838 26.2514 76.7915 26.1609C77.5992 26.0704 78.4166 26.1668 79.182 26.4429C79.7841 26.6785 80.06 26.9769 80.0017 27.1418Z" fill="#3D4B55"/>
<path d="M92.3985 28.2845C92.1615 28.5947 91.233 28.2845 90.118 28.257C89.0031 28.2295 88.059 28.4651 87.8415 28.1431C87.7443 27.9861 87.892 27.6758 88.3077 27.3813C88.862 27.0303 89.5072 26.8541 90.161 26.8751C90.8148 26.8961 91.4477 27.1133 91.9789 27.4991C92.3713 27.8133 92.5033 28.1549 92.3985 28.2845Z" fill="#3D4B55"/>
<path d="M65.4101 37.1353C65.2586 37.0686 59.3885 35.3369 59.5827 41.392C59.777 47.447 65.7481 46.0059 65.7558 45.8292C65.7636 45.6525 65.4101 37.1353 65.4101 37.1353Z" fill="#FFBF9D"/>
<path d="M63.8328 43.5949C63.8056 43.5949 63.7318 43.6735 63.557 43.7599C63.3129 43.874 63.0349 43.8895 62.78 43.8031C62.139 43.5871 61.5757 42.5897 61.5096 41.498C61.4797 40.9795 61.5633 40.4606 61.7544 39.9784C61.8065 39.7855 61.9046 39.6084 62.04 39.4626C62.1755 39.3168 62.3442 39.2067 62.5314 39.142C62.6505 39.1062 62.7783 39.1137 62.8925 39.1632C63.0068 39.2127 63.1003 39.3011 63.1568 39.4129C63.2423 39.5779 63.2073 39.6996 63.2384 39.7114C63.2695 39.7231 63.3666 39.6053 63.3083 39.354C63.2698 39.2058 63.1821 39.0755 63.0597 38.9849C62.9764 38.9242 62.882 38.8808 62.782 38.8572C62.6819 38.8336 62.5783 38.8303 62.477 38.8475C62.2328 38.9051 62.0072 39.0248 61.8216 39.1952C61.636 39.3656 61.4965 39.5811 61.4164 39.8213C61.1801 40.3548 61.0748 40.9381 61.1095 41.5216C61.1872 42.7428 61.8399 43.8777 62.714 44.0897C62.8767 44.1319 63.0468 44.1366 63.2116 44.1033C63.3763 44.0699 63.5316 43.9995 63.6658 43.8973C63.825 43.7441 63.8561 43.6067 63.8328 43.5949Z" fill="#FF9A6C"/>
<path d="M62.0613 36.9311C62.9742 36.7073 64.5554 37.5594 64.9439 38.4233C65.3324 39.2872 65.4178 40.2689 65.8063 41.1367C66.1948 42.0045 67.0728 42.782 67.9896 42.5621C68.2994 42.4642 68.578 42.285 68.797 42.0429C69.0161 41.8008 69.1678 41.5044 69.2367 41.1838C69.3688 40.5368 69.3754 39.87 69.2561 39.2204C68.9026 36.3932 68.316 33.5895 68.2033 30.7386C68.0906 27.8878 68.4908 24.931 69.9709 22.4924C71.4511 20.0539 74.1666 18.279 76.9637 18.5107C78.8246 18.6599 80.534 19.6416 82.3832 19.9047C83.485 20.052 84.6055 19.9436 85.6596 19.5877C86.7137 19.2319 87.6738 18.6379 88.4669 17.851C88.6689 17.6507 89.6013 17.0264 89.6013 17.0264C89.6013 16.8811 89.4653 15.6167 88.972 15.1533C85.3007 11.7252 78.6886 10.7671 73.8403 12.0119C68.9919 13.2567 64.4466 16.724 62.3604 21.2948C60.2742 25.8655 60.8958 32.2897 62.0457 36.9233" fill="#3D4B55"/>
<path d="M94.5002 21.9742C94.5002 21.9742 71.5094 14.5133 61.564 34.6026C61.564 34.6026 60.0761 29.5724 60.0761 26.8748C60.0761 25.0724 61.1406 14.3445 72.0649 10.9674C72.0649 10.9674 88.5175 4.62179 94.5002 21.9742Z" fill="#1C9167"/>
<path d="M74.7338 22.4768C75.1423 23.1425 75.6981 23.7032 76.3575 24.1147C77.017 24.5262 77.7619 24.7772 78.5337 24.848C79.3055 24.9188 80.083 24.8075 80.805 24.5228C81.5269 24.238 82.1736 23.7877 82.694 23.2072C82.9225 23.785 83.3243 24.2759 83.8429 24.6112C84.3615 24.9465 84.9709 25.1093 85.5857 25.0768C86.2004 25.0443 86.7897 24.8182 87.2709 24.4301C87.7521 24.042 88.101 23.5114 88.2688 22.9127C88.8921 23.6149 89.6545 24.1768 90.5065 24.5619C91.3806 24.8879 92.4878 24.7622 93.0589 24.024C93.6299 23.2858 93.4745 22.1195 92.8996 21.3577C92.2716 20.6374 91.468 20.0959 90.5686 19.787C87.843 18.5755 84.848 18.1174 81.8898 18.4598C78.9567 18.8524 76.1168 20.2975 74.2831 22.6457" fill="#3D4B55"/>
<g opacity="0.4">
<path d="M94.5002 21.9742C92.5875 19.9369 89.965 18.7327 87.1888 18.6168C80.4058 18.3144 67.7138 22.1705 61.5485 34.6026C61.5485 34.6026 60.0605 29.5724 60.0605 26.8748C60.0605 25.0724 61.125 14.3445 72.0493 10.9674C72.0649 10.9674 88.5174 4.62179 94.5002 21.9742Z" fill="black"/>
</g>
<path d="M62.5236 32.2505C65.9306 26.9769 70.6313 22.6182 75.9187 19.2922C81.206 15.9662 89.9432 12.656 95.9648 11.046C97.7751 10.5591 99.6593 10.135 101.505 10.457C103.35 10.779 105.153 12.0277 105.607 13.8536C106.182 16.1508 102.15 19.6927 100.258 21.0828C98.3656 22.4729 94.5002 24.5187 94.5002 24.5187C94.5002 24.5187 94.5546 20.2621 87.8104 19.3864C78.642 18.1731 62.5236 32.2505 62.5236 32.2505Z" fill="#1C9167"/>
<path d="M81.3809 14.8824C81.3809 14.8824 84.6908 13.029 88.0202 12.597C87.4642 12.1602 86.8575 11.7936 86.2137 11.5054C84.4066 11.8073 82.6593 12.4013 81.039 13.2646L81.3809 14.8824Z" fill="#787878"/>
<path d="M100.04 66.8178L92.7481 65.1921L89.78 64.4421L87.3092 60.5703C87.3092 60.5703 86.1437 67.4932 81.7188 71.2197C81.1197 71.7152 80.4174 72.0672 79.6646 72.2494C78.9117 72.4317 78.1279 72.4394 77.3716 72.2721C76.3732 72.06 75.2 71.8009 74.3298 71.5653C74.1433 71.5142 73.9413 71.4474 73.7237 71.3689C70.5247 70.1682 67.8594 67.8449 66.2142 64.823C65.2352 63.0638 64.4077 61.2575 64.6913 60.5703L61.2299 67.8152L40.8342 77.3101L29.2533 105.905L51.6964 112.612L52.3956 136.172L48.1689 165.874L111.66 165.918L109.407 99.834" fill="#1C9167"/>
<path d="M83.6263 92.4007C83.497 92.4111 83.3671 92.4111 83.2378 92.4007L82.1073 92.3732L78.0709 92.2279H77.9932V92.1611C77.9272 90.3902 77.8456 88.2933 77.7562 86.0511C77.6513 82.8194 77.5581 79.8978 77.4843 77.7499C77.461 76.7054 77.4416 75.8533 77.426 75.2329C77.426 74.9541 77.426 74.7263 77.426 74.5496C77.4159 74.4701 77.4159 74.3896 77.426 74.3101C77.4439 74.3873 77.453 74.4663 77.4532 74.5457C77.4532 74.7263 77.4804 74.9383 77.4959 75.2289C77.527 75.8494 77.5698 76.7015 77.6203 77.7421C77.7057 79.89 77.8223 82.8115 77.9505 86.0393C78.0282 88.2854 78.0981 90.3823 78.1603 92.1533L78.0748 92.0708L82.1112 92.2868L83.2378 92.3614C83.3684 92.3601 83.4986 92.3733 83.6263 92.4007Z" fill="#3D4B55"/>
<path d="M80.1727 82.8547C80.2617 82.7916 80.367 82.7562 80.4757 82.7526C80.7279 82.736 80.9795 82.7935 81.2001 82.9182C81.4207 83.0429 81.6009 83.2295 81.7189 83.4555C81.8297 83.6759 81.8691 83.9259 81.8315 84.1702C81.7901 84.447 81.67 84.7057 81.4859 84.9148C81.3017 85.1239 81.0615 85.2745 80.7943 85.3482C80.5238 85.4055 80.2429 85.3864 79.9824 85.2929C79.722 85.1993 79.4921 85.0351 79.318 84.8181C79.1769 84.6433 79.0781 84.4376 79.0296 84.2174C78.981 83.9972 78.984 83.7686 79.0383 83.5497C79.0986 83.2519 79.2445 82.9787 79.4579 82.7644C79.6055 82.6191 79.7143 82.572 79.7181 82.5838C79.722 82.5955 79.6404 82.6662 79.5161 82.8194C79.3439 83.0344 79.2278 83.2895 79.1781 83.5615C79.1387 83.7573 79.1433 83.9596 79.1917 84.1533C79.2402 84.3471 79.3311 84.5273 79.4579 84.6807C79.6132 84.8658 79.8147 85.0057 80.0414 85.0858C80.2682 85.1659 80.512 85.1833 80.7476 85.1362C80.9769 85.0708 81.1831 84.9408 81.342 84.7614C81.5009 84.582 81.606 84.3606 81.645 84.1231C81.6773 83.9283 81.6556 83.7283 81.5822 83.5453C81.5088 83.3623 81.3867 83.2035 81.2294 83.0864C81.0162 82.9144 80.7523 82.819 80.4796 82.8154C80.2776 82.8311 80.1727 82.8704 80.1727 82.8547Z" fill="#3D4B55"/>
<path d="M79.485 74.5575C79.5748 74.4778 79.6854 74.426 79.8036 74.4083C80.1261 74.3394 80.4624 74.3895 80.7515 74.5496C80.9567 74.6553 81.1318 74.8121 81.2604 75.0051C81.4098 75.2312 81.4846 75.4992 81.4741 75.7709C81.4619 76.0806 81.3574 76.3793 81.1744 76.6281C80.9914 76.8768 80.7384 77.0639 80.4485 77.1649C80.152 77.2415 79.8398 77.228 79.5509 77.126C79.262 77.024 79.0094 76.8381 78.8246 76.5915C78.6607 76.3788 78.562 76.1221 78.541 75.8533C78.5289 75.6216 78.566 75.39 78.6498 75.174C78.7703 74.8666 78.9838 74.6055 79.2597 74.4279C79.3558 74.3552 79.4703 74.3117 79.5899 74.3022C79.5899 74.3022 79.4773 74.3611 79.3063 74.4947C79.066 74.6816 78.8851 74.9355 78.7857 75.225C78.7078 75.4324 78.684 75.6566 78.7167 75.876C78.7493 76.0954 78.8373 76.3026 78.9722 76.4777C79.1363 76.6893 79.3576 76.8484 79.6092 76.9355C79.8609 77.0226 80.1322 77.0341 80.3902 76.9685C80.6404 76.8788 80.8588 76.7167 81.0184 76.5023C81.178 76.2879 81.2716 76.0308 81.2876 75.763C81.2979 75.5429 81.247 75.3243 81.1405 75.1321C81.0341 74.9398 80.8764 74.7815 80.6855 74.6753C80.4243 74.5197 80.1205 74.4536 79.8191 74.4868C79.6055 74.5143 79.4928 74.5732 79.485 74.5575Z" fill="#3D4B55"/>
<path d="M77.4183 106.25C77.4183 106.25 77.4494 106.231 77.5154 106.207L77.8068 106.093C78.0671 106.003 78.4361 105.838 78.9062 105.618C80.2189 104.949 81.4239 104.083 82.4803 103.05C84.0333 101.504 85.4058 99.7835 86.5711 97.9217C88.0283 95.6584 89.359 93.3143 90.557 90.9007C92.7113 86.5012 94.6015 81.9746 96.2173 77.3455C96.8505 75.5706 97.3439 74.1294 97.6897 73.136L98.0782 71.9894C98.1209 71.8716 98.1597 71.7734 98.1869 71.6948C98.198 71.6608 98.2123 71.6279 98.2297 71.5967C98.2268 71.6329 98.219 71.6686 98.2064 71.7027C98.1831 71.7812 98.152 71.8794 98.117 72.0051C98.0277 72.2839 97.9072 72.6687 97.7557 73.1831C97.4333 74.1844 96.9593 75.6334 96.3377 77.4122C94.7637 82.0539 92.8924 86.5871 90.7357 90.9831C89.5348 93.4037 88.1961 95.7519 86.7265 98.0159C85.5475 99.8878 84.1549 101.613 82.5774 103.156C81.5042 104.188 80.2771 105.042 78.9412 105.689C78.5756 105.858 78.2008 106.007 77.8184 106.133L77.5193 106.227C77.487 106.24 77.4529 106.248 77.4183 106.25Z" fill="#3D4B55"/>
<path d="M90.794 98.4086C90.9611 98.4086 94.8265 98.1416 94.8265 98.1416C94.8265 98.1416 93.2298 100.992 91.5671 102.068H88.1833L90.794 98.4086Z" fill="#FAFAFA"/>
<path d="M76.7423 114.885C76.8085 114.821 76.8815 114.765 76.9599 114.717L77.6125 114.261C78.1758 113.868 78.9878 113.279 79.9629 112.521C81.9053 111.017 84.4927 108.771 87.2587 106.203C88.6418 104.919 89.9782 103.71 91.1203 102.547C92.1452 101.528 93.0969 100.437 93.968 99.2804C94.5525 98.5005 95.0723 97.673 95.5219 96.8065C95.6928 96.5042 95.7977 96.2568 95.8793 96.0919C95.9162 96.0049 95.9618 95.9221 96.0153 95.8445C95.9904 95.9348 95.9579 96.0228 95.9182 96.1076C95.8482 96.2764 95.7511 96.5317 95.5918 96.8419C95.165 97.7282 94.6592 98.5733 94.0806 99.3668C93.2212 100.543 92.2744 101.65 91.2485 102.681C90.1025 103.859 88.7738 105.072 87.3908 106.353C84.6248 108.921 82.0335 111.159 80.0484 112.635C79.0577 113.377 78.2302 113.943 77.6553 114.324C77.3639 114.512 77.1347 114.65 76.9793 114.748C76.9057 114.803 76.8262 114.849 76.7423 114.885Z" fill="#3D4B55"/>
<path d="M65.8491 158.523C65.8491 158.523 65.8491 158.488 65.8957 158.429C65.9423 158.37 65.9928 158.276 66.055 158.17C66.1987 157.946 66.4163 157.616 66.7076 157.2C67.2904 156.375 68.1917 155.213 69.3804 153.847C71.7735 151.133 75.1262 147.43 78.8168 143.331L88.331 132.85L91.2252 129.709L92.0022 128.857L92.212 128.641L92.2897 128.57C92.2897 128.57 92.2703 128.601 92.2275 128.653L92.0333 128.884L91.2563 129.764L88.4087 132.964L78.9684 143.456L69.4892 153.933C68.2888 155.284 67.3719 156.427 66.7698 157.235C66.4706 157.628 66.2414 157.962 66.0899 158.182L65.9151 158.429C65.8956 158.462 65.8736 158.494 65.8491 158.523Z" fill="#3D4B55"/>
<path d="M99.535 66.6372C99.8691 67.1438 107.375 67.988 109.212 69.8414C111.05 71.6949 129.414 85.8626 129.414 85.8626L116.326 103.667L107.88 101.786L99.535 66.6372Z" fill="#1C9167"/>
<path opacity="0.4" d="M127.188 84.1348L112.514 102.818L116.326 103.666L129.398 85.8468L127.188 84.1348Z" fill="black"/>
<path d="M103.533 85.1715C103.467 84.9688 103.416 84.7614 103.381 84.5511C103.338 84.3508 103.288 84.1034 103.253 83.8129C103.218 83.5223 103.16 83.1924 103.14 82.8233C103.121 82.4542 103.082 82.038 103.082 81.6178C103.082 81.1976 103.082 80.7225 103.117 80.2356C103.192 79.1766 103.355 78.1259 103.602 77.0942C103.867 76.0675 104.216 75.0653 104.648 74.098C104.853 73.6582 105.036 73.2342 105.257 72.8572C105.479 72.4802 105.669 72.1307 105.867 71.8205C106.066 71.5103 106.256 71.2433 106.427 71.0037C106.568 70.7983 106.72 70.6004 106.881 70.4108C107.009 70.2403 107.15 70.0813 107.305 69.9357C107.199 70.1195 107.078 70.2941 106.943 70.4579C106.823 70.6229 106.675 70.8231 106.52 71.0705C106.365 71.3179 106.167 71.581 105.988 71.8991C105.809 72.2171 105.599 72.5548 105.405 72.9396C105.211 73.3245 105.017 73.725 104.818 74.1727C104.409 75.136 104.074 76.1298 103.816 77.1452C103.574 78.1638 103.409 79.1995 103.323 80.2434C103.296 80.7264 103.261 81.1858 103.272 81.6139C103.284 82.0419 103.272 82.4424 103.303 82.7919C103.334 83.1414 103.358 83.4869 103.385 83.7775C103.412 84.0681 103.447 84.3155 103.478 84.5157C103.517 84.7321 103.535 84.9517 103.533 85.1715Z" fill="#3D4B55"/>
<path d="M109.407 99.8105C108.805 98.6315 108.264 97.4217 107.787 96.1861C107.245 94.9786 106.766 93.744 106.349 92.4871C106.951 93.6653 107.493 94.8737 107.973 96.1075C108.515 97.3154 108.994 98.5515 109.407 99.8105Z" fill="#3D4B55"/>
<path d="M51.6963 86.8757C51.6653 86.8757 51.3506 86.3063 50.7562 85.4228C49.9806 84.272 49.093 83.2025 48.1067 82.2304C47.1154 81.2656 46.0328 80.4015 44.8745 79.6505C43.9809 79.0772 43.3943 78.7787 43.4098 78.7473C43.5587 78.7888 43.7022 78.8482 43.8372 78.924C44.2174 79.1066 44.5882 79.3084 44.9483 79.5287C46.1433 80.2486 47.2515 81.1065 48.2504 82.0851C49.246 83.0666 50.1272 84.1601 50.8766 85.3443C51.1602 85.7998 51.3739 86.1768 51.506 86.4477C51.5866 86.5819 51.6505 86.7257 51.6963 86.8757Z" fill="#3D4B55"/>
<path opacity="0.4" d="M29.2533 105.893L30.1585 103.667L54.983 110.499L54.0001 113.291L29.2533 105.893Z" fill="black"/>
<path d="M95.5258 97.0931H104.978V101.02L92.884 100.941C92.884 100.941 94.7527 98.6678 95.5258 97.0931Z" fill="#FAFAFA"/>
<g opacity="0.2">
<path d="M61.8126 68.6791C62.1545 71.742 62.5274 74.903 64.027 77.5889C65.5266 80.2748 68.4597 82.3914 71.4782 81.9398C73.4906 81.6374 75.1961 80.2788 76.5675 78.7552C77.9388 77.2316 79.0888 75.5077 80.5844 74.1137C81.4889 75.0984 82.5002 75.9769 83.5991 76.7329C84.7093 77.4931 86.0423 77.849 87.3791 77.7421C88.6961 77.5811 89.4226 77.051 89.8383 75.7787C88.4319 76.2185 87.6588 76.1517 86.2564 75.8808C84.7078 75.5807 83.2538 74.9072 82.018 73.9174C81.1944 73.2616 80.8952 72.276 79.8502 72.3467C78.8829 72.4017 78.1253 73.1753 77.4882 73.9174C76.4596 75.1076 75.3314 76.2059 74.1161 77.2002C72.9506 78.1308 71.824 78.7709 70.34 78.7277C67.8964 78.6727 65.8956 76.7329 64.5476 74.6714C63.3033 72.7706 62.384 70.672 61.8282 68.4631" fill="black"/>
</g>
<path d="M90.421 64.8584C90.4432 64.9299 90.4576 65.0036 90.4637 65.0783C90.4637 65.2236 90.5104 65.4356 90.5376 65.7105C90.5958 66.2603 90.6541 67.0574 90.6774 68.0666C90.73 70.6479 90.4862 73.2267 89.951 75.7512V75.8141V75.8769H89.8927C88.5116 76.2041 87.0703 76.1649 85.7086 75.763C84.5952 75.4622 83.5431 74.965 82.6007 74.2944C81.9629 73.8563 81.3911 73.3272 80.903 72.7237C80.7717 72.5607 80.6498 72.3903 80.5378 72.2132C80.4943 72.1528 80.4566 72.0884 80.4252 72.0208C81.0589 72.8585 81.8193 73.59 82.6784 74.1884C83.6158 74.8283 84.6534 75.3036 85.7475 75.5942C87.0798 75.9746 88.4857 76.0083 89.8344 75.6923L89.7606 75.7669V75.7041C90.2896 73.1924 90.5501 70.6306 90.5376 68.0626C90.5376 67.077 90.4948 66.2799 90.4637 65.7262C90.4637 65.471 90.4366 65.2629 90.4249 65.094C90.4124 65.0161 90.411 64.9367 90.421 64.8584Z" fill="#3D4B55"/>
<path d="M78.6187 72.6058C78.5879 72.6896 78.5461 72.7689 78.4944 72.8414C78.3643 73.0592 78.2216 73.269 78.0671 73.4697C77.4869 74.2014 76.8476 74.8831 76.1557 75.5077C75.7245 75.9004 75.2389 76.3362 74.7144 76.7839C74.4502 77.0077 74.1861 77.2433 73.8908 77.4789C73.5867 77.7109 73.266 77.9196 72.9312 78.1033C72.2122 78.5041 71.4183 78.7489 70.6003 78.8219C69.7078 78.8984 68.8135 78.6985 68.0363 78.2486C67.2796 77.793 66.6013 77.2161 66.0278 76.5404C65.4841 75.9284 64.9781 75.2832 64.5127 74.6085C63.7281 73.4636 63.0653 72.2382 62.5352 70.9527C62.1801 70.0883 61.8892 69.1984 61.665 68.2903C61.5834 67.9683 61.5329 67.717 61.5019 67.5442C61.4803 67.458 61.4673 67.3699 61.463 67.2811C61.4986 67.3629 61.5247 67.4485 61.5407 67.5364C61.5873 67.7052 61.6495 67.9526 61.7388 68.2707C61.9937 69.1651 62.3038 70.0425 62.6673 70.8977C63.2116 72.1635 63.882 73.37 64.6681 74.4985C65.1314 75.164 65.6348 75.8 66.1754 76.403C66.7302 77.0609 67.3861 77.6244 68.1178 78.0719C68.8614 78.501 69.7159 78.6926 70.5692 78.6216C71.3636 78.5525 72.1357 78.32 72.838 77.9384C73.1677 77.7618 73.4833 77.5596 73.782 77.3336C74.0656 77.1137 74.3376 76.8742 74.6017 76.6543C75.1301 76.2106 75.6196 75.7944 76.0547 75.4017C76.749 74.7964 77.3983 74.1401 77.9971 73.4383C78.203 73.187 78.3546 72.9789 78.4556 72.8375C78.5032 72.7556 78.5578 72.6781 78.6187 72.6058Z" fill="#3D4B55"/>
<path d="M70.2506 117.724L73.2459 113.311C73.2459 113.311 75.3049 106.078 75.0251 105.065C74.7454 104.051 73.8364 100.282 74.05 100.235C74.2637 100.187 76.5053 99.3471 77.7213 102.371C78.4788 104.256 78.7275 106.737 78.809 108.339C78.8179 108.537 78.8692 108.731 78.9593 108.907C79.0494 109.083 79.1762 109.237 79.3309 109.359C79.4856 109.481 79.6646 109.567 79.8555 109.612C80.0465 109.657 80.2448 109.66 80.4368 109.62C82.5075 109.188 85.9534 108.532 86.7731 108.732C87.9619 109.019 89.0263 110.55 89.1273 111.065C89.2283 111.579 88.4125 112.737 88.4125 112.737C88.4125 112.737 89.4226 113.26 89.7334 114.049C89.7761 114.155 89.8111 114.261 89.8422 114.363C89.937 114.679 89.9485 115.015 89.8756 115.338C89.8027 115.66 89.6479 115.957 89.4265 116.201L89.1079 116.554C89.1079 116.554 90.3705 116.904 90.5259 117.634C90.6101 118.167 90.5956 118.712 90.4832 119.24L89.2983 120.477C89.6286 120.788 89.8449 121.204 89.9121 121.655C89.9742 122.33 88.1988 124.011 88.1988 124.011L80.5806 126.76L77.5581 127.545L70.2506 117.724Z" fill="#FFBF9D"/>
<path d="M88.4358 112.745C87.5653 112.982 86.6836 113.175 85.7941 113.322C84.9202 113.538 84.0358 113.709 83.1446 113.833C83.3831 113.715 83.6349 113.627 83.8944 113.57C84.3645 113.436 85.021 113.271 85.7552 113.122C86.4895 112.973 87.1538 112.863 87.6433 112.8C87.9039 112.746 88.1704 112.728 88.4358 112.745Z" fill="#FF9A6C"/>
<path d="M89.1313 116.554C88.4838 116.861 87.8086 117.104 87.115 117.281C86.4418 117.525 85.7472 117.704 85.0405 117.815C85.688 117.508 86.3632 117.264 87.0567 117.088C87.7299 116.844 88.4245 116.665 89.1313 116.554Z" fill="#FF9A6C"/>
<path d="M89.5858 120.312C88.9033 120.725 88.1872 121.079 87.4452 121.368C86.7303 121.722 85.9869 122.014 85.223 122.24C85.9055 121.827 86.6216 121.474 87.3636 121.184C88.0785 120.83 88.8219 120.538 89.5858 120.312Z" fill="#FF9A6C"/>
<path d="M52.6987 145L80.7165 126.002L73.646 113.044L48.0756 126.336L50.9777 112.372L33.6238 107.181L29.2805 131.095C28.6123 141.729 37.0503 150.313 47.221 147.521C49.1706 146.988 51.0209 146.136 52.6987 145Z" fill="#FFBF9D"/>
<path d="M44.3733 133.852C44.3228 133.738 44.29 133.618 44.2762 133.494C44.2185 133.164 44.1861 132.829 44.1791 132.493C44.1645 131.376 44.4121 130.271 44.9017 129.269C45.398 128.27 46.1241 127.405 47.0189 126.748C47.2856 126.548 47.5689 126.372 47.8658 126.222C47.9723 126.159 48.0876 126.113 48.2077 126.084C48.2077 126.12 47.7532 126.344 47.1044 126.87C46.2549 127.54 45.5643 128.394 45.083 129.369C44.6018 130.344 44.3421 131.415 44.3228 132.505C44.3034 133.329 44.4316 133.848 44.3733 133.852Z" fill="#FF9A6C"/>
<path d="M116.326 103.666C116.5 103.423 136.278 115.604 136.278 115.604L142.619 144.799L151.744 148.184C151.744 148.184 154.592 115.694 152.424 110.636C150.256 105.579 128.279 87.3822 128.279 87.3822L116.326 103.666Z" fill="#FFBF9D"/>
<path d="M140.598 113.366C140.158 114.035 139.572 114.594 138.885 114.999C138.234 115.463 137.488 115.771 136.702 115.902C137.412 115.581 138.104 115.222 138.776 114.826C139.41 114.374 140.019 113.887 140.598 113.366Z" fill="#FF9A6C"/>
<path d="M92.5383 103.733L94.0884 131.751L125.696 129.591L124.74 108.732L120.137 102.473L92.5383 103.733Z" fill="#3D4B55"/>
<path d="M85.3551 132.375C85.4483 132.913 88.1328 158.292 88.1328 158.292L135.175 154.989L143.135 153.909L139.464 130.278L133.843 128.916L85.3551 132.375Z" fill="#1C9167"/>
<path opacity="0.4" d="M133.843 128.912L85.3551 132.375C85.4483 132.913 88.1328 158.292 88.1328 158.292L137.11 154.848L133.843 128.912Z" fill="black"/>
<path d="M120.956 129.917L94.0884 131.751L92.5383 103.733L120.137 102.473L120.956 129.917Z" fill="#455A64"/>
<path d="M102.557 103.274L103.125 111.909L104.562 111.08L105.358 111.909L106.349 111.08L107.88 111.909V103.03L102.557 103.274Z" fill="#3D4B55"/>
<path d="M113.789 130.502L111.951 109.474L129.911 114.477L131.644 128.99L113.789 130.502Z" fill="#1C9167"/>
<path d="M129.899 114.477C129.867 114.531 129.83 114.581 129.787 114.626L129.441 115.038L128.12 116.562L123.532 121.765L123.462 121.844L123.388 121.769L120.964 119.177L114.566 112.345L112.643 110.256L112.126 109.682C112.062 109.619 112.006 109.548 111.959 109.47C112.03 109.525 112.096 109.585 112.157 109.651L112.701 110.201L114.667 112.243L121.108 119.036L123.548 121.632H123.404L128.066 116.476L129.429 114.991L129.798 114.599C129.828 114.555 129.862 114.514 129.899 114.477Z" fill="#3D4B55"/>
<path d="M119.841 118.372C119.892 118.4 118.61 120.882 116.982 123.917C115.354 126.952 113.995 129.391 113.944 129.363C113.894 129.336 115.176 126.854 116.803 123.819C118.431 120.783 119.799 118.345 119.841 118.372Z" fill="#3D4B55"/>
<path d="M131.224 128.99C131.178 129.018 129.934 127.007 128.446 124.502C126.959 121.997 125.789 119.935 125.84 119.904C125.89 119.872 127.129 121.887 128.617 124.396C130.105 126.905 131.275 128.963 131.224 128.99Z" fill="#3D4B55"/>
<path d="M123.431 129.681L122.262 116.291L133.699 119.476L134.802 128.719L123.431 129.681Z" fill="#1C9167"/>
<path opacity="0.4" d="M123.431 129.681L122.262 116.291L133.699 119.476L134.802 128.719L123.431 129.681Z" fill="white"/>
<path d="M133.699 119.476C133.617 119.607 133.522 119.729 133.415 119.841C133.202 120.096 132.922 120.422 132.584 120.819L129.67 124.141L129.6 124.223L129.526 124.145L127.972 122.495C126.376 120.803 124.938 119.26 123.905 118.137L122.693 116.798C122.536 116.64 122.393 116.469 122.266 116.287C122.438 116.425 122.599 116.578 122.747 116.743L124.01 118.035C125.07 119.134 126.523 120.662 128.12 122.354L129.674 124.007H129.511L132.475 120.732L133.353 119.794C133.458 119.677 133.574 119.57 133.699 119.476Z" fill="#3D4B55"/>
<path d="M127.289 121.957C127.335 121.985 126.535 123.571 125.498 125.491C124.903 126.676 124.246 127.828 123.532 128.943C124.066 127.734 124.663 126.555 125.319 125.409C125.915 124.224 126.572 123.072 127.289 121.957Z" fill="#3D4B55"/>
<path d="M134.538 128.719C133.881 127.81 133.279 126.862 132.735 125.88C132.132 124.933 131.588 123.948 131.108 122.931C132.362 124.791 133.507 126.724 134.538 128.719Z" fill="#3D4B55"/>
<path d="M130.723 118.91V119.986L132.393 120.183L132.479 119.362L130.723 118.91Z" fill="white"/>
<path d="M124.826 113.448V115.019L127.98 115.545L128.155 114.343L124.826 113.448Z" fill="white"/>
<path d="M112.514 138.336L112.359 130.502L106.073 130.934L106.749 138.886L112.514 138.336Z" fill="#1C9167"/>
<path d="M133 142.45L122.453 143.461L123.338 152.89L133.885 151.879L133 142.45Z" fill="#FAFAFA"/>
<path d="M133.87 151.887C133.857 151.828 133.848 151.767 133.843 151.707C133.843 151.577 133.808 151.408 133.784 151.196C133.738 150.741 133.668 150.093 133.582 149.28C133.415 147.623 133.194 145.282 132.898 142.467L132.992 142.545L122.452 143.57C122.429 143.594 122.623 143.362 122.541 143.46V143.531V143.613V143.771L122.572 144.093L122.631 144.729C122.673 145.149 122.712 145.565 122.751 145.981C122.825 146.81 122.903 147.619 122.976 148.412C123.12 149.983 123.26 151.495 123.384 152.881L123.287 152.802L130.898 152.119L133.058 151.934L133.637 151.891C133.705 151.886 133.774 151.886 133.843 151.891C133.782 151.905 133.721 151.914 133.66 151.919L133.1 151.985L130.964 152.213L123.307 152.998H123.217V152.908C123.081 151.518 122.938 150.018 122.786 148.439C122.714 147.654 122.637 146.844 122.557 146.009C122.518 145.593 122.479 145.176 122.44 144.752C122.421 144.544 122.401 144.332 122.378 144.12L122.351 143.798V143.641V143.559V143.488C122.269 143.586 122.46 143.35 122.444 143.374L132.988 142.38H133.073V142.467C133.322 145.306 133.528 147.67 133.675 149.343C133.741 150.148 133.792 150.788 133.831 151.243C133.831 151.451 133.858 151.616 133.866 151.742C133.871 151.79 133.872 151.839 133.87 151.887Z" fill="#3D4B55"/>
<path d="M132.16 144.717C132.16 144.776 130.323 145.015 128.042 145.259C126.67 145.442 125.289 145.554 123.905 145.597C123.905 145.542 125.743 145.298 128.023 145.055C130.303 144.811 132.156 144.662 132.16 144.717Z" fill="#3D4B55"/>
<path d="M132.098 146.319C131.732 146.452 131.353 146.548 130.968 146.606C130.261 146.747 129.278 146.912 128.186 147.042C127.094 147.171 126.096 147.242 125.377 147.265C124.99 147.301 124.6 147.301 124.212 147.265C124.596 147.189 124.986 147.144 125.377 147.132C126.092 147.065 127.079 146.975 128.167 146.845C129.254 146.716 130.237 146.574 130.948 146.453C131.328 146.379 131.712 146.335 132.098 146.319Z" fill="#3D4B55"/>
<path d="M132.545 149.822C132.177 149.954 131.797 150.05 131.411 150.108C130.704 150.25 129.721 150.415 128.629 150.544C127.537 150.674 126.543 150.745 125.82 150.768C125.433 150.806 125.042 150.806 124.655 150.768C125.039 150.691 125.429 150.647 125.82 150.635C126.535 150.572 127.526 150.478 128.613 150.348C129.701 150.218 130.684 150.077 131.395 149.955C131.774 149.882 132.159 149.837 132.545 149.822Z" fill="#3D4B55"/>
<path d="M132.013 148.027C130.745 148.317 129.462 148.537 128.171 148.687C126.884 148.908 125.588 149.06 124.286 149.142C125.555 148.857 126.837 148.637 128.128 148.483C129.414 148.264 130.711 148.112 132.013 148.027Z" fill="#3D4B55"/>
<path d="M141.325 162.631C141.325 162.631 150.008 156.823 150.676 153.854C151.344 150.886 151.744 148.184 151.744 148.184L142.467 144.301L143.388 147.678C143.388 147.678 140.062 149.676 139.72 152.099C139.495 153.713 135.195 156.478 135.195 156.478C134.837 156.041 134.382 155.696 133.866 155.471C133.351 155.246 132.79 155.149 132.23 155.186L128.617 155.445L131.061 161.009L141.325 162.631Z" fill="#FFBF9D"/>
<path d="M144.716 154.671C144.59 154.749 144.452 154.806 144.308 154.84C144.037 154.93 143.632 155.021 143.143 155.178C142.59 155.376 142.079 155.677 141.636 156.065C141.077 156.547 140.451 156.944 139.779 157.243C138.535 157.779 137.154 157.896 135.839 157.577C135.608 157.532 135.387 157.448 135.183 157.33C135.099 157.282 135.032 157.21 134.989 157.123C134.946 157.037 134.93 156.939 134.942 156.843C134.949 156.783 134.97 156.726 135.004 156.677C135.038 156.627 135.083 156.587 135.136 156.56C135.214 156.533 135.257 156.56 135.257 156.56C135.257 156.56 135.214 156.56 135.156 156.603C135.115 156.633 135.082 156.672 135.058 156.717C135.034 156.762 135.021 156.812 135.02 156.862C135.012 156.943 135.03 157.025 135.07 157.095C135.111 157.165 135.172 157.221 135.245 157.255C135.444 157.354 135.656 157.421 135.874 157.455C137.16 157.72 138.494 157.583 139.701 157.063C140.358 156.767 140.97 156.378 141.519 155.908C141.984 155.518 142.52 155.222 143.096 155.036C143.594 154.895 143.998 154.828 144.262 154.758C144.411 154.717 144.563 154.688 144.716 154.671Z" fill="#FF9A6C"/>
<path d="M138.703 159.175C138.703 159.207 138.256 158.948 137.518 158.637C136.555 158.24 135.541 157.984 134.507 157.879C134.204 157.848 133.905 157.84 133.617 157.832H133.563L133.532 157.785C133.082 157.074 132.54 156.427 131.919 155.861C131.449 155.433 131.143 155.213 131.143 155.19C131.143 155.166 131.236 155.221 131.383 155.315C131.593 155.452 131.795 155.6 131.989 155.759C132.652 156.305 133.225 156.953 133.687 157.679L133.606 157.632C133.901 157.632 134.204 157.632 134.515 157.679C135.57 157.782 136.6 158.062 137.564 158.508C137.855 158.641 138.136 158.794 138.407 158.963C138.516 159.018 138.616 159.09 138.703 159.175Z" fill="#FF9A6C"/>
<path d="M141.049 157.581C141.049 157.636 140.462 157.86 139.779 158.253C139.095 158.645 138.594 159.058 138.555 159.01C139.196 158.255 140.078 157.749 141.049 157.581Z" fill="#FF9A6C"/>
<path d="M145.754 147.136C145.754 147.199 145.148 147.136 144.456 147.312C143.765 147.489 143.291 147.85 143.236 147.799C143.557 147.469 143.961 147.233 144.404 147.117C144.848 147 145.314 147.006 145.754 147.136Z" fill="#FF9A6C"/>
</g>
<defs>
<clipPath id="clip0_1_687">
<rect width="172" height="166" fill="white"/>
</clipPath>
</defs>
</svg>
