<svg width="232" height="140" viewBox="0 0 232 140" fill="none" xmlns="http://www.w3.org/2000/svg">
<g clip-path="url(#clip0_1_783)">
<path d="M217.672 85.9846L220.623 81.233L219.156 80.3267C218.949 80.1946 218.783 80.0078 218.675 79.787C218.568 79.5662 218.524 79.32 218.548 79.0757C218.572 78.8039 218.581 78.5311 218.576 78.2583C218.569 78.009 218.632 77.7627 218.758 77.5473C218.884 77.3319 219.067 77.1559 219.288 77.0393L220.797 76.229L218.149 71.2996L216.623 72.1028C216.41 72.217 216.17 72.2705 215.929 72.2573C215.688 72.2442 215.455 72.1649 215.256 72.0282C215.012 71.8585 214.759 71.7019 214.498 71.5591C214.285 71.4422 214.109 71.2688 213.989 71.058C213.869 70.8472 213.81 70.6073 213.818 70.3649L213.875 68.6555L208.277 68.4813L208.224 70.1979C208.217 70.4406 208.142 70.6766 208.008 70.8794C207.874 71.0821 207.686 71.2436 207.466 71.3458C207.334 71.4062 207.206 71.4738 207.078 71.5413C206.95 71.6088 206.822 71.6799 206.701 71.7545C206.494 71.8816 206.256 71.9488 206.014 71.9488C205.771 71.9488 205.533 71.8816 205.327 71.7545L203.861 70.8483L200.911 75.5999L202.38 76.5097C202.587 76.6411 202.753 76.8273 202.86 77.0477C202.967 77.268 203.01 77.5137 202.985 77.7572C202.964 78.0273 202.953 78.3009 202.957 78.571C202.966 78.819 202.906 79.0646 202.783 79.2805C202.661 79.4963 202.481 79.674 202.263 79.7936L200.754 80.6003L203.402 85.5297L204.911 84.7229C205.13 84.6075 205.378 84.5553 205.625 84.5723C205.873 84.5892 206.111 84.6746 206.313 84.8189C206.536 84.9744 206.767 85.1168 207.007 85.2454C207.224 85.3591 207.406 85.531 207.532 85.7418C207.658 85.9527 207.722 86.1942 207.718 86.4395L207.665 88.1667L213.259 88.3409L213.313 86.6279C213.323 86.3826 213.4 86.1448 213.537 85.9409C213.674 85.737 213.865 85.575 214.089 85.4728C214.217 85.416 214.338 85.352 214.462 85.288C214.587 85.2241 214.704 85.153 214.818 85.0819C215.028 84.953 215.269 84.8847 215.516 84.8847C215.762 84.8847 216.004 84.953 216.213 85.0819L217.672 85.9846ZM213.445 82.1392C212.666 82.6983 211.732 82.9997 210.773 83.0011C209.814 83.0024 208.879 82.7037 208.099 82.1468C207.319 81.5899 206.733 80.8029 206.424 79.8964C206.115 78.9899 206.098 78.0095 206.376 77.093C206.653 76.1764 207.212 75.3698 207.972 74.7866C208.733 74.2034 209.657 73.8729 210.616 73.8414C211.574 73.81 212.518 74.0793 213.315 74.6115C214.113 75.1436 214.723 75.9119 215.06 76.8083C215.416 77.7506 215.45 78.7836 215.158 79.7474C214.866 80.7111 214.263 81.5518 213.445 82.1392Z" fill="#EBEBEB"/>
<path d="M200.277 68.4885L203.672 66.5302L203.074 65.4925C202.988 65.3426 202.946 65.1718 202.951 64.9993C202.957 64.8267 203.011 64.659 203.106 64.5151C203.212 64.3522 203.31 64.1837 203.398 64.0105C203.475 63.8561 203.593 63.7262 203.739 63.6352C203.886 63.5442 204.055 63.4957 204.227 63.4951H205.43V59.5858H204.227C204.055 59.5844 203.886 59.5356 203.74 59.4447C203.594 59.3537 203.475 59.2243 203.398 59.0704C203.31 58.896 203.212 58.7264 203.106 58.5622C203.011 58.419 202.957 58.252 202.951 58.0799C202.946 57.9078 202.988 57.7376 203.074 57.5884L203.672 56.5507L200.277 54.5818L199.676 55.6231C199.588 55.7718 199.461 55.8933 199.308 55.9743C199.155 56.0552 198.983 56.0923 198.811 56.0816C198.715 56.0816 198.619 56.0816 198.519 56.0816C198.419 56.0816 198.327 56.0816 198.231 56.0816C198.059 56.0924 197.888 56.0557 197.736 55.9754C197.584 55.8951 197.457 55.7744 197.37 55.6267L196.765 54.5818L193.366 56.54L193.967 57.5813C194.053 57.7305 194.096 57.9007 194.09 58.0728C194.085 58.2448 194.031 58.4119 193.935 58.5551C193.828 58.718 193.729 58.8865 193.64 59.0598C193.565 59.2143 193.447 59.3446 193.301 59.4357C193.155 59.5269 192.986 59.5752 192.814 59.5751H191.611V63.4845H192.804C192.975 63.4845 193.144 63.5325 193.289 63.6229C193.435 63.7133 193.553 63.8426 193.629 63.9962C193.718 64.17 193.817 64.3385 193.925 64.5009C194.02 64.6448 194.074 64.8124 194.079 64.985C194.085 65.1576 194.043 65.3284 193.957 65.4782L193.355 66.5196L196.754 68.4778L197.355 67.4365C197.443 67.2884 197.571 67.1676 197.724 67.0873C197.876 67.0071 198.048 66.9705 198.22 66.9816H198.508H198.8C198.972 66.9705 199.144 67.0071 199.297 67.0873C199.449 67.1676 199.577 67.2884 199.665 67.4365L200.277 68.4885ZM198.498 64.7426C197.864 64.7426 197.245 64.555 196.718 64.2035C196.192 63.8521 195.781 63.3525 195.539 62.768C195.296 62.1836 195.233 61.5405 195.356 60.92C195.48 60.2995 195.785 59.7296 196.233 59.2823C196.681 58.8349 197.252 58.5303 197.873 58.4069C198.494 58.2835 199.138 58.3468 199.723 58.5889C200.309 58.831 200.809 59.241 201.161 59.767C201.513 60.293 201.701 60.9114 201.701 61.544C201.701 62.3923 201.363 63.2059 200.762 63.8057C200.162 64.4056 199.347 64.7426 198.498 64.7426Z" fill="#EBEBEB"/>
<path d="M14.2636 12.6983C14.4127 12.7856 14.5347 12.9126 14.6157 13.0651C14.6968 13.2176 14.7338 13.3896 14.7226 13.5619C14.7226 13.6579 14.7226 13.7538 14.7226 13.8498C14.7226 13.9457 14.7226 14.0453 14.7226 14.1412C14.7335 14.3126 14.6967 14.4836 14.6163 14.6354C14.5359 14.7872 14.4151 14.9138 14.2671 15.0013L13.2244 15.5948L15.1853 18.9888L16.2244 18.3882C16.3748 18.3029 16.546 18.261 16.7188 18.2673C16.8916 18.2736 17.0593 18.3278 17.2031 18.4237C17.3662 18.5298 17.5349 18.6271 17.7084 18.7152C17.8625 18.7924 17.9921 18.9105 18.0832 19.0567C18.1742 19.2028 18.2231 19.3711 18.2245 19.5432V20.7409H22.1391V19.5432C22.1397 19.3714 22.1879 19.2031 22.2784 19.057C22.3688 18.9108 22.498 18.7925 22.6516 18.7152C22.8255 18.6278 22.9943 18.5305 23.1569 18.4237C23.3007 18.3278 23.4684 18.2736 23.6412 18.2673C23.814 18.261 23.9852 18.3029 24.1356 18.3882L25.1783 18.9888L27.1392 15.5948L26.0929 14.9906C25.9444 14.9037 25.8231 14.7772 25.7426 14.6253C25.6622 14.4734 25.6257 14.302 25.6374 14.1305C25.6374 14.0346 25.6374 13.9386 25.6374 13.8427C25.6374 13.7467 25.6374 13.6508 25.6374 13.5548C25.6259 13.3829 25.6623 13.2111 25.7428 13.0586C25.8232 12.9061 25.9444 12.7789 26.0929 12.6912L27.1392 12.0906L25.1854 8.70364L24.1463 9.30426C23.9962 9.39008 23.8252 9.43254 23.6524 9.42689C23.4796 9.42124 23.3117 9.36771 23.1676 9.27228C23.0045 9.16508 22.8358 9.06661 22.6623 8.9773C22.5077 8.90074 22.3776 8.78271 22.2865 8.63646C22.1953 8.4902 22.1468 8.32149 22.1462 8.14923V6.95154H18.2316V8.14923C18.2299 8.32169 18.1805 8.49032 18.0888 8.63647C17.9971 8.78262 17.8667 8.90058 17.712 8.9773C17.5373 9.06659 17.3674 9.16506 17.2031 9.27228C17.0597 9.36779 16.8924 9.42139 16.7201 9.42704C16.5478 9.4327 16.3774 9.39017 16.228 9.30426L15.1853 8.70364L13.2244 12.0977L14.2636 12.6983ZM20.2031 10.6406C20.8366 10.6406 21.4559 10.8281 21.9826 11.1796C22.5093 11.5311 22.9198 12.0306 23.1622 12.6151C23.4047 13.1995 23.4681 13.8427 23.3445 14.4631C23.2209 15.0836 22.9159 15.6535 22.4679 16.1009C22.02 16.5482 21.4493 16.8528 20.828 16.9762C20.2067 17.0996 19.5627 17.0363 18.9775 16.7942C18.3922 16.5521 17.892 16.1422 17.54 15.6162C17.1881 15.0901 17.0003 14.4717 17.0003 13.8391C17.0003 12.9908 17.3377 12.1772 17.9384 11.5774C18.539 10.9775 19.3537 10.6406 20.2031 10.6406Z" fill="#EBEBEB"/>
<path d="M184.562 13.1887C183.58 15.6881 183.001 18.3271 182.846 21.0074H182.747H175.985H175.899V20.8155C175.899 20.6378 175.939 20.4601 175.956 20.2824C176.043 19.3604 176.197 18.4459 176.416 17.5459C176.777 16.0734 177.294 14.6436 177.96 13.2811C177.972 13.2478 177.996 13.2196 178.026 13.2009C178.056 13.1823 178.092 13.1742 178.127 13.1781H184.569L184.562 13.1887Z" fill="#EBEBEB"/>
<path d="M184.352 30.6991H177.967C177.934 30.7033 177.9 30.6956 177.871 30.6774C177.842 30.6593 177.821 30.6318 177.811 30.5996C177.076 29.067 176.542 27.446 176.223 25.7769C176.069 24.9702 175.965 24.1548 175.91 23.3353C175.913 23.3082 175.913 23.2807 175.91 23.2536V23.0581C175.946 23.0581 175.981 23.0581 176.017 23.0581H182.743C182.868 23.0581 182.86 23.0581 182.871 23.186C182.914 23.744 182.949 24.302 183.003 24.8564C183.092 25.7397 183.234 26.6168 183.43 27.4828C183.661 28.5436 183.964 29.5873 184.337 30.6067C184.344 30.6372 184.349 30.6681 184.352 30.6991Z" fill="#EBEBEB"/>
<path d="M211.217 32.7178L211.16 32.8137C210.619 33.6412 210.013 34.4244 209.348 35.1558C208.552 36.059 207.663 36.8772 206.697 37.5974C204.836 39.0089 202.729 40.0644 200.483 40.7106C199.61 40.9608 198.721 41.1496 197.822 41.2757L197.562 41.3184H197.405L197.259 41.226L197.426 41.1051C199.375 39.7803 201.08 38.1295 202.466 36.2255C203.248 35.1504 203.936 34.0101 204.523 32.8173C204.533 32.7851 204.555 32.7576 204.583 32.7395C204.612 32.7213 204.646 32.7136 204.679 32.7178H211.217Z" fill="#EBEBEB"/>
<path d="M204.825 21.0216H195.854V13.2029H202.857C202.888 13.1993 202.92 13.2069 202.946 13.2245C202.972 13.2421 202.991 13.2685 203 13.2989C203.64 14.7706 204.118 16.308 204.423 17.8835C204.586 18.7058 204.705 19.5363 204.779 20.3713C204.79 20.5703 204.807 20.7906 204.825 21.0216Z" fill="#EBEBEB"/>
<path d="M204.772 23.1114C204.772 23.2962 204.772 23.4668 204.743 23.6623C204.704 24.0994 204.676 24.5365 204.615 24.9701C204.53 25.5707 204.437 26.1714 204.316 26.7649C204.05 28.0723 203.661 29.3515 203.153 30.5854C203.145 30.6218 203.124 30.654 203.093 30.6757C203.063 30.6974 203.026 30.707 202.989 30.7027H195.8V23.1114H204.772Z" fill="#EBEBEB"/>
<path d="M193.829 13.2385V21.0785H185.07C185.07 20.8795 185.088 20.6876 185.106 20.4921C185.152 20.055 185.188 19.6143 185.259 19.1807C185.366 18.5161 185.48 17.8515 185.615 17.1905C185.908 15.8664 186.333 14.5748 186.882 13.3344C186.891 13.3031 186.911 13.2761 186.939 13.2585C186.966 13.2409 186.999 13.2338 187.031 13.2385H193.821H193.829Z" fill="#EBEBEB"/>
<path d="M193.839 23.2145C193.839 25.6738 193.839 28.1308 193.839 30.5854V30.6991H186.836C186.802 30.7029 186.768 30.6946 186.74 30.6757C186.712 30.6568 186.692 30.6286 186.683 30.5961C186.149 29.3247 185.75 28.0014 185.49 26.6476C185.359 25.9368 185.259 25.2473 185.17 24.5437C185.113 24.0852 185.099 23.6196 185.067 23.1576C185.067 23.1576 185.067 23.1327 185.067 23.1079H193.729C193.818 23.1007 193.839 23.1292 193.839 23.2145Z" fill="#EBEBEB"/>
<path d="M214.338 21.0785H206.985C206.834 18.3736 206.251 15.7102 205.259 13.1887H212.11C212.144 13.1848 212.177 13.1921 212.206 13.2095C212.235 13.2268 212.258 13.2533 212.27 13.2847C213.056 14.8377 213.627 16.4899 213.968 18.1962C214.147 19.1044 214.265 20.0233 214.324 20.947C214.341 20.9861 214.338 21.0288 214.338 21.0785Z" fill="#EBEBEB"/>
<path d="M214.345 23.0581C214.345 23.2358 214.345 23.4135 214.32 23.5734C214.169 25.7828 213.629 27.9482 212.726 29.9706C212.626 30.198 212.519 30.4219 212.416 30.6494C212.408 30.6715 212.393 30.6903 212.373 30.7025C212.353 30.7148 212.329 30.7199 212.306 30.7169H205.544H205.473C205.555 30.4823 205.637 30.2549 205.715 30.0274C206.109 28.8607 206.412 27.6654 206.622 26.4521C206.779 25.5705 206.885 24.6805 206.939 23.7867C206.939 23.577 206.964 23.3673 206.975 23.1541C206.975 23.1008 206.975 23.0723 207.049 23.0759H214.338L214.345 23.0581Z" fill="#EBEBEB"/>
<path d="M211.014 11.1914C211.014 11.1914 211.014 11.1914 211.014 11.2198H204.476C204.444 11.224 204.411 11.2176 204.383 11.2016C204.355 11.1856 204.333 11.1608 204.32 11.131C203.462 9.4245 202.385 7.83676 201.117 6.40777C200.373 5.58162 199.554 4.82721 198.668 4.15455C198.231 3.79916 197.775 3.50062 197.327 3.17721L197.252 3.12035L197.341 3.05993C197.341 3.01729 197.316 2.97464 197.298 2.92133C200.044 3.23476 202.689 4.1358 205.054 5.56299C207.419 6.99018 209.449 8.90996 211.003 11.1914H211.014Z" fill="#EBEBEB"/>
<path d="M192.587 41.2295C192.525 41.2483 192.462 41.259 192.398 41.2615C191.692 41.1681 190.991 41.0316 190.302 40.8528C189.012 40.5273 187.76 40.065 186.569 39.4738C185.207 38.7987 183.931 37.9635 182.768 36.9861C181.938 36.2943 181.172 35.5295 180.48 34.7009C179.963 34.0746 179.488 33.4157 179.056 32.7284L179.028 32.668H185.117C185.149 32.6647 185.181 32.6724 185.208 32.6898C185.235 32.7073 185.256 32.7334 185.266 32.7639C185.889 34.0199 186.625 35.2166 187.465 36.3392C188.242 37.3585 189.104 38.3097 190.042 39.1824C190.817 39.9133 191.65 40.5801 192.533 41.1762L192.587 41.2295Z" fill="#EBEBEB"/>
<path d="M192.505 3.10972C192.231 3.31229 191.91 3.53619 191.597 3.77786C190.553 4.58839 189.582 5.4899 188.697 6.47177C187.496 7.77878 186.473 9.23775 185.654 10.8112C185.601 10.9107 185.554 11.0102 185.497 11.1061C185.487 11.122 185.473 11.1355 185.457 11.1459C185.442 11.1563 185.424 11.1634 185.405 11.1666C185.298 11.1666 185.188 11.1666 185.078 11.1666H179.223C182.483 6.57128 186.864 3.80629 192.448 2.96045L192.412 3.03508L192.505 3.10972Z" fill="#EBEBEB"/>
<path d="M202.149 32.7249C201.323 34.1712 200.328 35.5145 199.185 36.7266C198.175 37.8144 197.039 38.7773 195.8 39.5947V32.7249H202.149Z" fill="#EBEBEB"/>
<path d="M193.829 32.7285V39.4632C191.296 37.7289 189.209 35.4212 187.74 32.7285H193.829Z" fill="#EBEBEB"/>
<path d="M201.946 11.163H195.854V4.74097C197.104 5.55423 198.252 6.51478 199.273 7.60191C200.286 8.69276 201.182 9.88626 201.946 11.163Z" fill="#EBEBEB"/>
<path d="M193.829 4.93286V11.2127H187.982C189.412 8.69128 191.414 6.5403 193.829 4.93286Z" fill="#EBEBEB"/>
<path d="M79.6097 0.177673H33.3065V31.3388H79.6097V0.177673Z" fill="white" stroke="#EBEBEB" stroke-miterlimit="10"/>
<path d="M37.7835 2.5375C37.7835 2.74838 37.7209 2.95451 37.6036 3.12985C37.4862 3.30518 37.3195 3.44184 37.1244 3.52253C36.9293 3.60323 36.7147 3.62435 36.5076 3.58321C36.3005 3.54207 36.1102 3.44052 35.9609 3.29141C35.8116 3.1423 35.7099 2.95233 35.6687 2.74551C35.6275 2.53869 35.6487 2.32431 35.7295 2.12949C35.8103 1.93467 35.9471 1.76815 36.1227 1.651C36.2983 1.53384 36.5047 1.47131 36.7159 1.47131C36.999 1.47131 37.2706 1.58364 37.4708 1.78359C37.671 1.98354 37.7835 2.25473 37.7835 2.5375Z" fill="#37474F"/>
<path d="M42.1394 2.5375C42.1394 2.74838 42.0768 2.95451 41.9595 3.12985C41.8422 3.30518 41.6754 3.44184 41.4804 3.52253C41.2853 3.60323 41.0706 3.62435 40.8635 3.58321C40.6564 3.54207 40.4662 3.44052 40.3169 3.29141C40.1676 3.1423 40.0659 2.95233 40.0247 2.74551C39.9835 2.53869 40.0046 2.32431 40.0854 2.12949C40.1662 1.93467 40.3031 1.76815 40.4787 1.651C40.6542 1.53384 40.8606 1.47131 41.0718 1.47131C41.355 1.47131 41.6265 1.58364 41.8267 1.78359C42.0269 1.98354 42.1394 2.25473 42.1394 2.5375Z" fill="#EBEBEB"/>
<path d="M46.4918 2.5375C46.4918 2.74838 46.4292 2.95451 46.3119 3.12985C46.1946 3.30518 46.0278 3.44184 45.8327 3.52253C45.6377 3.60323 45.423 3.62435 45.2159 3.58321C45.0088 3.54207 44.8185 3.44052 44.6692 3.29141C44.5199 3.1423 44.4182 2.95233 44.3771 2.74551C44.3359 2.53869 44.357 2.32431 44.4378 2.12949C44.5186 1.93467 44.6555 1.76815 44.831 1.651C45.0066 1.53384 45.213 1.47131 45.4242 1.47131C45.7073 1.47131 45.9789 1.58364 46.1791 1.78359C46.3793 1.98354 46.4918 2.25473 46.4918 2.5375Z" fill="#1D996C"/>
<path d="M33.3065 4.87244H79.6133" stroke="#EBEBEB" stroke-miterlimit="10"/>
<path d="M1.59789 106.999L30.4489 106.914L59.2998 106.882L117.002 106.822L174.704 106.882L203.555 106.91L232.406 106.999L203.555 107.085L174.704 107.117L117.002 107.177L59.2998 107.117L30.4489 107.085L1.59789 106.999Z" fill="#3D4B55"/>
<path d="M186.312 14.2301H47.0897V107.234H186.312V14.2301Z" fill="#DBDBDB"/>
<path d="M185.302 15.3638H48.1004V106.1H185.302V15.3638Z" fill="#3D4B55"/>
<path d="M204.448 114.207H28.9577V120.59H204.448V114.207Z" fill="#C7C7C7"/>
<path d="M28.9577 114.207L47.0897 107.234H186.312L204.448 114.207H28.9577Z" fill="#DBDBDB"/>
<path d="M48.7089 111.733L60.4102 107.234H172.992L184.693 111.733H48.7089Z" fill="#3D4B55"/>
<path d="M177.547 22.2549H55.8549V99.2018H177.547V22.2549Z" fill="white"/>
<path d="M177.547 22.2549H55.7517V25.2154H177.547V22.2549Z" fill="#455A64"/>
<path d="M58.1112 23.7369C58.1119 23.8826 58.0693 24.0252 57.9888 24.1466C57.9083 24.2681 57.7935 24.3629 57.6589 24.4191C57.5244 24.4754 57.3761 24.4904 57.233 24.4625C57.0899 24.4345 56.9583 24.3647 56.8549 24.2619C56.7515 24.1592 56.681 24.0281 56.6523 23.8853C56.6236 23.7425 56.638 23.5944 56.6936 23.4598C56.7493 23.3252 56.8437 23.2101 56.9649 23.1291C57.0861 23.0481 57.2287 23.0048 57.3745 23.0048C57.5693 23.0048 57.7561 23.0818 57.8942 23.219C58.0322 23.3562 58.1103 23.5424 58.1112 23.7369Z" fill="#C7C7C7"/>
<path d="M61.129 23.7369C61.1297 23.8828 61.0871 24.0255 61.0064 24.147C60.9257 24.2685 60.8107 24.3634 60.6759 24.4195C60.5412 24.4756 60.3928 24.4905 60.2495 24.4622C60.1063 24.4339 59.9747 24.3638 59.8715 24.2607C59.7682 24.1576 59.698 24.0262 59.6697 23.8831C59.6414 23.7401 59.6563 23.5919 59.7125 23.4573C59.7687 23.3228 59.8636 23.2079 59.9853 23.1273C60.107 23.0468 60.2499 23.0041 60.3959 23.0048C60.5901 23.0058 60.776 23.0832 60.9133 23.2203C61.0506 23.3574 61.1281 23.5431 61.129 23.7369Z" fill="white"/>
<path d="M64.1148 23.7369C64.1156 23.8826 64.0729 24.0252 63.9924 24.1466C63.9119 24.2681 63.7971 24.3629 63.6626 24.4191C63.528 24.4754 63.3798 24.4904 63.2367 24.4625C63.0935 24.4345 62.9619 24.3647 62.8586 24.2619C62.7552 24.1592 62.6847 24.0281 62.6559 23.8853C62.6272 23.7425 62.6416 23.5944 62.6973 23.4598C62.7529 23.3252 62.8473 23.2101 62.9685 23.1291C63.0898 23.0481 63.2323 23.0048 63.3782 23.0048C63.5729 23.0048 63.7598 23.0818 63.8978 23.219C64.0359 23.3562 64.1139 23.5424 64.1148 23.7369Z" fill="#1D996C"/>
<path d="M185.626 36.5561H48.3775C42.3989 36.5561 37.5522 41.4028 37.5522 47.3815C37.5522 53.3602 42.3988 58.2068 48.3775 58.2068H185.626C191.605 58.2068 196.451 53.3602 196.451 47.3815C196.451 41.4028 191.605 36.5561 185.626 36.5561Z" fill="white" stroke="#C7C7C7" stroke-miterlimit="10"/>
<path d="M174.999 47.4995C174.999 53.2984 179.7 57.9995 185.499 57.9995C191.298 57.9995 195.999 53.2984 195.999 47.4995C195.999 41.7005 191.298 36.9995 185.499 36.9995C179.7 36.9995 174.999 41.7005 174.999 47.4995Z" fill="#1D996C"/>
<path d="M189.747 50.8132C190.032 51.1876 189.958 51.7217 189.583 52.0051C189.209 52.2878 188.676 52.214 188.393 51.8401L186.394 49.2003L185.843 48.4779C185.659 48.2372 185.762 47.8856 186.002 47.7008C186.408 47.3896 187.086 47.3086 187.395 47.7165L187.674 48.0835L189.747 50.8132Z" fill="white"/>
<path d="M187.589 43.6903C187.159 43.1306 186.579 42.7051 185.915 42.464C185.252 42.2229 184.533 42.1764 183.844 42.3298C183.155 42.4832 182.524 42.8302 182.026 43.3299C181.528 43.8295 181.183 44.461 181.033 45.1499C180.882 45.8387 180.932 46.5562 181.176 47.2176C181.421 47.8791 181.849 48.457 182.412 48.8832C182.974 49.3094 183.647 49.5661 184.351 49.623C185.054 49.6799 185.76 49.5347 186.384 49.2044C186.891 48.9319 187.329 48.5465 187.663 48.078C188.122 47.4346 188.362 46.6615 188.348 45.8719C188.335 45.0823 188.069 44.3178 187.589 43.6903ZM185.998 47.6953C185.838 47.8186 185.661 47.9183 185.473 47.9914C184.955 48.1952 184.38 48.1955 183.862 47.992C183.345 47.7886 182.924 47.3966 182.685 46.8952C182.445 46.3939 182.405 45.8205 182.573 45.291C182.741 44.7614 183.103 44.3151 183.588 44.0422C184.072 43.7692 184.642 43.6901 185.183 43.8206C185.723 43.9511 186.194 44.2816 186.5 44.7454C186.806 45.2092 186.924 45.7716 186.831 46.3192C186.738 46.8667 186.44 47.3585 185.998 47.6953Z" fill="white"/>
<path d="M48.1833 53.3701V41.3948C48.1833 41.0734 47.9228 40.8129 47.6014 40.8129C47.2801 40.8129 47.0195 41.0734 47.0195 41.3948V53.3701C47.0195 53.6914 47.2801 53.9519 47.6014 53.9519C47.9228 53.9519 48.1833 53.6914 48.1833 53.3701Z" fill="#3D4B55"/>
<path d="M119.778 66.6049L122.009 71.982L119.781 72.9025L117.539 67.4898L113.856 70.3401V55.1895L124.479 65.9047L119.778 66.6049Z" fill="#3D4B55"/>
<path d="M113.988 53.1744C113.865 52.8536 113.804 52.5122 113.81 52.1687C113.803 51.8262 113.863 51.4857 113.988 51.1664C114.114 51.4852 114.174 51.8261 114.165 52.1687C114.173 52.5123 114.112 52.854 113.988 53.1744Z" fill="#3D4B55"/>
<path d="M112.254 53.8924C111.94 53.7526 111.656 53.5534 111.418 53.3059C111.169 53.0693 110.969 52.7854 110.831 52.4708C111.146 52.6096 111.432 52.8088 111.671 53.0572C111.917 53.2956 112.115 53.5791 112.254 53.8924Z" fill="#3D4B55"/>
<path d="M111.535 55.6231C111.215 55.7456 110.875 55.8059 110.532 55.8008C110.188 55.808 109.846 55.7476 109.525 55.6231C109.845 55.497 110.188 55.4366 110.532 55.4454C110.875 55.4387 111.216 55.499 111.535 55.6231Z" fill="#3D4B55"/>
<path d="M112.254 57.3539C112.114 57.6666 111.916 57.95 111.671 58.1891C111.432 58.4374 111.146 58.6366 110.831 58.7755C110.97 58.4603 111.169 58.1753 111.418 57.9367C111.657 57.6914 111.941 57.4937 112.254 57.3539Z" fill="#3D4B55"/>
<path d="M116.439 55.6231C116.76 55.4987 117.102 55.4383 117.447 55.4454C117.79 55.4369 118.131 55.4973 118.45 55.6231C118.13 55.7472 117.79 55.8076 117.447 55.8008C117.103 55.8062 116.761 55.7459 116.439 55.6231Z" fill="#3D4B55"/>
<path d="M115.721 53.8924C115.86 53.5782 116.059 53.2945 116.308 53.0572C116.545 52.8081 116.829 52.6088 117.144 52.4708C116.85 53.0959 116.347 53.5988 115.721 53.8924Z" fill="#3D4B55"/>
</g>
<defs>
<clipPath id="clip0_1_783">
<rect width="232" height="140" fill="white"/>
</clipPath>
</defs>
</svg>
