<svg width="68" height="68" viewBox="0 0 68 68" fill="none" xmlns="http://www.w3.org/2000/svg">
<path d="M12 10.17C16.2871 6.02449 21.626 3.12988 27.4393 1.79924C33.2527 0.468596 39.3191 0.752553 44.9827 2.62041C50.6463 4.48826 55.6915 7.86892 59.5727 12.3968C63.4539 16.9247 66.0233 22.4275 67.0032 28.3101C67.9831 34.1927 67.3361 40.2312 65.1322 45.7727C62.9283 51.3142 59.2514 56.1477 54.4991 59.7506C49.7467 63.3535 44.0999 65.5885 38.1691 66.2141C32.2384 66.8397 26.2494 65.832 20.85 63.3L11.85 67.16L11.61 56.79L11.21 56.42C5.18199 50.1819 1.87878 41.8049 2.02693 33.1314C2.17508 24.458 5.76247 16.1986 12 10.17Z" fill="#1D996C"/>
<path d="M34.58 50.26C33.4491 50.2423 32.3708 49.7787 31.58 48.9701C31.194 48.5872 30.8923 48.1279 30.6942 47.6216C30.4962 47.1153 30.4062 46.5732 30.43 46.0301C30.4354 45.4953 30.5551 44.968 30.781 44.4833C31.007 43.9987 31.3339 43.568 31.74 43.2201C32.6264 42.5073 33.7383 42.1348 34.8751 42.1697C36.012 42.2045 37.0989 42.6444 37.94 43.41C38.3226 43.784 38.6213 44.2351 38.8161 44.7334C39.011 45.2317 39.0975 45.7657 39.07 46.3C39.0603 46.8432 38.9369 47.3783 38.7079 47.8709C38.4788 48.3635 38.1491 48.8026 37.74 49.16C37.3148 49.5472 36.8156 49.8442 36.2725 50.0333C35.7294 50.2223 35.1537 50.2995 34.58 50.26ZM37.72 39.0601L32.14 38.8901L31.38 18.3L39.74 18.5601L37.72 39.0601Z" fill="white"/>
</svg>
