<svg width="180" height="160" viewBox="0 0 180 160" fill="none" xmlns="http://www.w3.org/2000/svg">
<path d="M132.352 112.034L117.765 118.963C116.867 120.653 115.4 121.97 113.623 122.679C110.509 124.028 108.941 124.839 108.941 124.839L96.715 106.677C96.715 106.677 111.748 102.44 113.83 101.59C115.649 100.719 117.397 99.708 119.06 98.567L132.352 112.034Z" fill="#FFBF9D" stroke="#3D4B55" stroke-linecap="round" stroke-linejoin="round"/>
<path d="M112.036 110.108C112.036 110.108 112.246 115.072 107.601 115.458" stroke="#3D4B55" stroke-linecap="round" stroke-linejoin="round"/>
<path d="M116.735 98.973L132.98 123.462L137.673 118.892L123.167 94.7159L116.735 98.973Z" fill="white" stroke="#3D4B55" stroke-linecap="round" stroke-linejoin="round"/>
<path d="M121.3 95.5037L138.603 124.014L179.5 99V32.3469L179.499 25L163.708 63.5185L147.897 79.2202L121.3 95.5037Z" fill="#1D996C" stroke="#3D4B55" stroke-linecap="round" stroke-linejoin="round"/>
<path d="M60.546 86.335C73.1039 78.7594 73.3955 56.2177 61.2464 35.9938C49.0973 15.7698 29.0169 5.51429 16.4588 13.0702C15.6569 13.5559 14.897 14.1079 14.187 14.7204C14.619 13.7094 15.1204 12.7295 15.6878 11.7878L14.2888 9.49025L22.1883 5.14589C22.6227 4.88647 23.0653 4.64266 23.514 4.42039L23.8532 4.23497C37.6937 -2.27346 58.5016 8.95066 71.3349 30.2794C83.9092 51.1734 84.3421 74.3045 72.8593 83.8853L72.9555 84.0333L71.9381 84.6092C71.4966 84.9316 71.0392 85.2424 70.5638 85.5279C69.8184 85.9727 69.0412 86.3615 68.2385 86.6915L62.6625 89.8783L61.6607 88.2159C60.0062 88.3065 58.347 88.2326 56.7073 87.9947C58.0508 87.6031 59.3403 87.0456 60.546 86.335Z" fill="#3D4B55" stroke="#3D4B55" stroke-linecap="round" stroke-linejoin="round"/>
<path d="M14.2905 9.49068C28.0797 1.17919 50.086 12.4459 63.4493 34.6476C76.8125 56.8493 76.4655 81.5905 62.6822 89.904C48.899 98.217 26.8867 86.9489 13.5254 64.7412C0.163977 42.5335 0.524977 17.8098 14.2905 9.49068ZM15.7367 63.4239C27.9154 83.6573 47.9662 93.9034 60.5243 86.3475C73.0824 78.7916 73.3738 56.2302 61.2247 36.0063C49.0756 15.7824 28.9952 5.52684 16.4371 13.0828C3.87898 20.6386 3.55618 43.1965 15.7677 63.3881L15.7367 63.4239Z" fill="white" stroke="#3D4B55" stroke-linecap="round" stroke-linejoin="round"/>
<path d="M78.3123 76.0942C78.3123 76.0942 79.2755 79.7397 80.6093 83.2033C81.2883 85.1167 82.3179 86.8865 83.6453 88.4219L77.4332 92.2146C77.4332 92.2146 72.5947 85.9655 72.7726 80.251L78.3123 76.0942Z" fill="#969696" stroke="#3D4B55" stroke-linecap="round" stroke-linejoin="round"/>
<path d="M77.4271 92.2137L72.2034 98.141C70.4582 96.537 68.5921 95.071 66.6217 93.7545C64.9896 92.7604 63.2984 91.8668 61.5574 91.0788L72.7466 80.2307C72.7466 80.2307 72.3124 85.4201 77.4271 92.2137Z" fill="white" stroke="#3D4B55" stroke-linecap="round" stroke-linejoin="round"/>
<path d="M83.6406 88.4199L78.6527 94.6501L72.2048 98.14L77.4304 92.2068L83.6406 88.4199Z" fill="#969696" stroke="#3D4B55" stroke-linecap="round" stroke-linejoin="round"/>
<path d="M87.7684 95.0965L78.1159 103.35L74.7651 96.8891L81.7686 91.0208L87.7684 95.0965Z" fill="white" stroke="#3D4B55" stroke-linecap="round" stroke-linejoin="round"/>
<path d="M87.7683 95.0957L135.929 148.654L128.52 156.043L78.1158 103.349L87.7683 95.0957Z" fill="#3D4B55" stroke="#3D4B55" stroke-linecap="round" stroke-linejoin="round"/>
<path d="M135.929 148.658C135.929 148.658 137.234 147.222 137.576 148.192C137.919 149.162 137.686 153.659 135.233 156.327C132.78 158.996 127.626 157.361 127.661 156.883C127.695 156.405 128.539 156.047 128.539 156.047L135.929 148.658Z" fill="white" stroke="#3D4B55" stroke-linecap="round" stroke-linejoin="round"/>
<path d="M61.7587 85.4954L61.5311 85.6577C61.2042 85.8862 60.8693 86.099 60.5168 86.3259C60.1644 86.5527 59.8018 86.7503 59.4427 86.9163L59.0582 87.1004C58.8202 87.2137 58.584 87.321 58.3379 87.4187C58.0917 87.5164 58.0293 87.5487 57.873 87.6098C57.7167 87.6709 57.3942 87.7832 57.1419 87.8595L56.6962 88.011C44.1636 91.845 26.7218 81.6929 15.7115 63.3967C4.32372 44.4651 3.86472 23.5233 14.142 14.6997L14.414 14.4799C7.07602 24.4677 8.46752 43.1568 18.7484 60.2034C30.9231 80.429 50.9779 90.6829 63.536 83.127C64.2392 82.6943 64.9095 82.2103 65.5414 81.6789C65.5188 81.75 65.4507 81.8 65.3985 81.8616C65.2037 82.1256 64.997 82.3859 64.7901 82.6265L64.5678 82.8948C64.3202 83.1811 64.0646 83.4518 63.803 83.7207C63.7352 83.7904 63.6634 83.8523 63.5975 83.916C63.3531 84.1512 63.1013 84.41 62.8583 84.6001L62.6856 84.7538C62.4066 85.0366 62.1033 85.2726 61.7587 85.4954Z" fill="#3D4B55" stroke="#3D4B55" stroke-linecap="round" stroke-linejoin="round"/>
<path d="M59.9243 52.5869L64.8199 55.4241" stroke="#3D4B55" stroke-linecap="round" stroke-linejoin="round"/>
<path d="M9.28833 23.2673L56.7061 50.7194" stroke="#3D4B55" stroke-linecap="round" stroke-linejoin="round"/>
<path d="M41.8136 54.1537L35.793 50.4299" stroke="#3D4B55" stroke-linecap="round" stroke-linejoin="round"/>
<path d="M66.1165 69.1713L46.2173 56.8737" stroke="#3D4B55" stroke-linecap="round" stroke-linejoin="round"/>
<path d="M84.2318 109.867C84.2318 109.867 93.824 107.204 94.927 107.405C96.029 107.606 96.419 108.571 95.726 109.661C95.034 110.751 87.8443 114.728 86.8801 115.178C85.916 115.627 83.9544 115.485 83.1781 114.69C82.4017 113.895 82.6529 112.247 83.1107 111.219C83.3352 110.663 83.727 110.191 84.2318 109.867Z" fill="#FFBF9D" stroke="#3D4B55" stroke-linecap="round" stroke-linejoin="round"/>
<path d="M95.722 109.672C95.722 109.672 99.161 107.507 100.459 108.631C100.729 108.868 100.949 109.156 101.107 109.48C101.264 109.803 101.356 110.154 101.376 110.513C101.396 110.873 101.345 111.232 101.225 111.571C101.105 111.91 100.918 112.222 100.676 112.489C99.815 113.453 91.002 121.465 89.61 121.295C88.217 121.126 86.4656 119.055 86.3465 117.915C86.2274 116.775 85.4913 116.058 86.876 115.188L88.759 114.021L95.722 109.672Z" fill="#FFBF9D" stroke="#3D4B55" stroke-linecap="round" stroke-linejoin="round"/>
<path d="M100.677 112.49C100.677 112.49 102.836 111.11 104.01 111.967C105.184 112.823 105.155 115.083 104.044 116.177C102.933 117.271 98.076 121.515 96.56 122.819C95.043 124.122 93.921 125.702 92.095 124.09C90.27 122.478 90.889 120.739 90.889 120.739L100.677 112.49Z" fill="#FFBF9D" stroke="#3D4B55" stroke-linecap="round" stroke-linejoin="round"/>
<path d="M103.109 117.287C103.109 117.287 105.195 116.569 105.841 118.223C106.488 119.876 104.028 122.608 103.108 123.553C102.187 124.499 100.752 127.492 99.515 127.92C98.278 128.347 95.848 128.2 95.067 127.194C94.286 126.189 94.8809 124.527 94.8809 124.527L103.109 117.287Z" fill="#FFBF9D" stroke="#3D4B55" stroke-linecap="round" stroke-linejoin="round"/>
<path d="M110.541 104.655C110.541 104.655 98.291 97.722 97.598 97.501C96.906 97.281 95.163 98.03 94.808 98.262C94.454 98.495 90.176 101.352 88.842 102.081C87.5085 102.811 87.4736 104.332 87.0946 105.522C86.7156 106.712 84.9284 109.521 85.4806 110.59C86.0327 111.659 87.9293 111.781 89.249 111.034C90.568 110.287 93.117 105.373 93.117 105.373L97.45 105.168L101.04 108.587" fill="#FFBF9D"/>
<path d="M110.541 104.655C110.541 104.655 98.291 97.722 97.598 97.501C96.906 97.281 95.163 98.03 94.808 98.262C94.454 98.495 90.176 101.352 88.842 102.081C87.5085 102.811 87.4736 104.332 87.0946 105.522C86.7156 106.712 84.9284 109.521 85.4806 110.59C86.0327 111.659 87.9293 111.781 89.249 111.034C90.568 110.287 93.117 105.373 93.117 105.373L97.45 105.168L101.04 108.587" stroke="#3D4B55" stroke-linecap="round" stroke-linejoin="round"/>
<path d="M146.139 80.304L156.463 94.5147L140.338 83.8495L146.139 80.304Z" fill="#3D4B55" stroke="#3D4B55" stroke-linecap="round" stroke-linejoin="round"/>
</svg>
