<svg width="168" height="128" viewBox="0 0 168 128" fill="none" xmlns="http://www.w3.org/2000/svg">
<g clip-path="url(#clip0_1_846)">
<path d="M145.191 9.02075L145.086 8.98854L144.777 8.86888L143.619 8.40863L139.37 6.56766L125.387 0.464845L124.927 0.253133H125.028L111.326 6.11662L107.188 7.86094L106.056 8.32119C105.928 8.38285 105.794 8.43216 105.656 8.46846C105.778 8.39368 105.906 8.32902 106.038 8.27516L107.146 7.7735L111.262 5.95554L124.932 0.0230118L124.982 0L125.033 0.0230118L125.493 0.234724L139.448 6.40197L143.669 8.29817L144.81 8.82745L145.104 8.97013C145.135 8.98329 145.164 9.00029 145.191 9.02075Z" fill="#E0E0E0"/>
<path d="M167 7.00977H77.2031V74.3111H167V7.00977Z" fill="#E0E0E0"/>
<path d="M164.2 10.1387H80.3438V71.5442H164.2V10.1387Z" fill="#FAFAFA"/>
<path d="M98.865 36.9667C98.865 36.9667 98.9524 47.2761 99.4765 50.4196L112.393 49.812C112.393 49.812 111.257 39.6867 111.694 36.9667H98.865Z" fill="#E0E0E0"/>
<path d="M105.225 38.4266H105.413C105.593 38.4199 105.773 38.4291 105.951 38.4542C106.236 38.4946 106.513 38.5768 106.774 38.6982C107.12 38.8667 107.424 39.1086 107.666 39.4069C107.963 39.7699 108.175 40.1944 108.287 40.6496C108.386 41.1846 108.339 41.7366 108.149 42.2466C108.053 42.5242 107.931 42.7923 107.786 43.0474C107.643 43.3052 107.496 43.5675 107.372 43.8529C107.113 44.4389 106.938 45.0587 106.853 45.6938V45.7399H106.802H105.528H104.19H104.144V45.6938C104.089 45.0625 103.877 44.455 103.528 43.9265C103.372 43.6596 103.202 43.411 103.041 43.1625C102.88 42.914 102.714 42.6793 102.581 42.4215C102.343 41.9333 102.272 41.3802 102.379 40.8475C102.452 40.3879 102.621 39.9488 102.875 39.5588C103.093 39.244 103.381 38.9841 103.717 38.7994C103.965 38.6618 104.231 38.5581 104.507 38.491C104.681 38.4491 104.858 38.4214 105.036 38.4082H105.174H105.22C105.22 38.4082 105.22 38.4082 105.174 38.4082H105.036C104.861 38.4294 104.687 38.4633 104.517 38.5095C104.245 38.5805 103.983 38.6873 103.74 38.827C103.416 39.0114 103.139 39.2681 102.93 39.5772C102.692 39.9613 102.535 40.3907 102.471 40.8383C102.369 41.3546 102.441 41.8898 102.673 42.3617C102.812 42.6144 102.965 42.8588 103.133 43.0935C103.289 43.342 103.464 43.5905 103.62 43.8575C103.978 44.4001 104.196 45.0231 104.255 45.6708L104.209 45.6248H105.547H106.82L106.774 45.6662C106.866 45.0307 107.045 44.4111 107.308 43.8253C107.432 43.5399 107.584 43.2684 107.726 43.0106C107.872 42.7626 107.992 42.5005 108.085 42.2282C108.273 41.734 108.322 41.1975 108.227 40.6772C108.123 40.2299 107.921 39.8116 107.634 39.453C107.399 39.1612 107.104 38.9227 106.77 38.7534C106.515 38.6303 106.244 38.5435 105.965 38.4956C105.786 38.4606 105.605 38.4406 105.423 38.4358H105.234L105.225 38.4266Z" fill="white"/>
<path d="M105.882 45.6058C105.881 45.5936 105.881 45.5812 105.882 45.569V45.4493C105.882 45.3389 105.841 45.187 105.809 44.9891C105.754 44.5887 105.666 44.0088 105.606 43.2862C105.606 43.1021 105.583 42.9134 105.574 42.7155C105.565 42.5176 105.574 42.3151 105.574 42.0988C105.581 41.875 105.631 41.6547 105.721 41.4498C105.82 41.2312 105.995 41.0561 106.213 40.9574C106.331 40.9103 106.46 40.8979 106.585 40.9215C106.709 40.9452 106.824 41.0039 106.917 41.0908C107.012 41.1846 107.066 41.3118 107.069 41.4452C107.064 41.5804 107.018 41.7108 106.935 41.818C106.853 41.925 106.745 42.0103 106.623 42.0665C106.501 42.1259 106.373 42.1692 106.241 42.1954C105.972 42.2541 105.698 42.2896 105.422 42.3013C105.147 42.3107 104.872 42.2968 104.599 42.2598C104.466 42.2399 104.337 42.2028 104.213 42.1494C104.09 42.0932 103.979 42.0134 103.887 41.9147C103.794 41.819 103.728 41.6996 103.698 41.5695C103.671 41.4405 103.688 41.3064 103.744 41.1875C103.799 41.0691 103.895 40.9755 104.015 40.9251C104.073 40.8998 104.136 40.8867 104.199 40.8867C104.263 40.8867 104.325 40.8998 104.383 40.9251C104.493 40.9799 104.587 41.0605 104.659 41.1599C104.723 41.2584 104.768 41.3675 104.793 41.482C104.835 41.6989 104.858 41.9192 104.861 42.1402C104.861 42.5682 104.903 42.964 104.921 43.3276C104.958 44.0502 104.986 44.6347 105.009 45.0397C105.009 45.2422 105.009 45.3987 105.009 45.5V45.6196C105.01 45.6334 105.01 45.6473 105.009 45.661C105.007 45.6473 105.007 45.6334 105.009 45.6196C105.009 45.592 105.009 45.5506 105.009 45.5C105.009 45.4493 105.009 45.233 104.976 45.0397C104.953 44.6347 104.921 44.0502 104.88 43.3276C104.857 42.964 104.838 42.5682 104.811 42.1448C104.807 41.9255 104.786 41.7069 104.747 41.4912C104.721 41.3811 104.676 41.2766 104.613 41.1829C104.548 41.0881 104.459 41.012 104.356 40.962C104.246 40.9184 104.125 40.9184 104.015 40.962C103.904 41.0107 103.816 41.0994 103.767 41.2105C103.711 41.3196 103.695 41.445 103.721 41.5649C103.75 41.6881 103.812 41.8011 103.9 41.8917C104.086 42.0796 104.332 42.1968 104.595 42.223C104.863 42.26 105.134 42.2739 105.404 42.2644C105.676 42.2558 105.947 42.2235 106.213 42.1678C106.343 42.1419 106.469 42.1018 106.59 42.0481C106.706 41.9921 106.806 41.9102 106.885 41.8088C106.963 41.709 107.007 41.5861 107.009 41.459C107.009 41.3981 106.996 41.3379 106.973 41.2818C106.949 41.2257 106.914 41.1749 106.871 41.1323C106.784 41.0499 106.676 40.9944 106.558 40.9724C106.441 40.9503 106.319 40.9627 106.209 41.008C106.005 41.1002 105.841 41.2639 105.749 41.4682C105.661 41.6672 105.611 41.8812 105.602 42.0988C105.602 42.3105 105.602 42.5176 105.602 42.7155C105.602 42.9134 105.602 43.1021 105.629 43.2816C105.685 44.0042 105.767 44.5887 105.822 44.9891C105.822 45.187 105.868 45.3435 105.882 45.4493V45.5736C105.881 45.5843 105.881 45.5951 105.882 45.6058Z" fill="white"/>
<path d="M104.189 45.6737C104.189 45.6737 104.189 45.8347 104.222 46.1063C104.254 46.3778 104.258 46.7874 104.281 47.2247V47.1971L105.15 48.2004H105.109L106.111 48.1452H106.07L106.571 47.533C106.654 47.4318 106.741 47.3305 106.82 47.2293V47.2661C106.82 46.677 106.792 46.1201 106.778 45.6092L106.833 45.6644H104.957H104.415C104.347 45.6709 104.28 45.6709 104.212 45.6644C104.272 45.6576 104.332 45.6576 104.392 45.6644L104.921 45.6368L106.833 45.5586H106.884V45.6138C106.884 46.1201 106.916 46.677 106.93 47.2707L106.682 47.5791L106.18 48.1866L105.173 48.2372H105.146L104.295 47.2201C104.295 46.7598 104.295 46.3916 104.295 46.0695C104.25 45.9404 104.215 45.8081 104.189 45.6737Z" fill="white"/>
<path d="M106.801 47.1342L106.705 47.0928C106.645 47.0652 106.558 47.0284 106.443 46.9869C106.146 46.888 105.835 46.8413 105.523 46.8489C105.208 46.8602 104.897 46.9256 104.603 47.0422C104.493 47.0882 104.406 47.1342 104.35 47.1618C104.295 47.1894 104.259 47.2125 104.254 47.2079L104.341 47.148C104.421 47.1001 104.504 47.057 104.59 47.0192C104.879 46.8894 105.192 46.819 105.509 46.8121C105.823 46.8008 106.135 46.8525 106.429 46.9639C106.517 46.9966 106.603 47.035 106.686 47.079C106.728 47.0895 106.767 47.1083 106.801 47.1342Z" fill="white"/>
<path d="M106.801 46.7292L106.705 46.6878C106.619 46.6487 106.532 46.6149 106.443 46.5865C106.147 46.4833 105.835 46.4365 105.523 46.4484C105.207 46.4541 104.895 46.5197 104.603 46.6417C104.493 46.6878 104.406 46.7292 104.346 46.7614C104.317 46.7801 104.286 46.7956 104.254 46.8074C104.28 46.7837 104.31 46.7636 104.341 46.7476C104.42 46.6968 104.504 46.6522 104.59 46.6141C104.881 46.4887 105.192 46.4185 105.509 46.407C105.823 46.3993 106.135 46.4508 106.429 46.5589C106.519 46.5908 106.606 46.6292 106.691 46.6739L106.801 46.7292Z" fill="white"/>
<path d="M106.761 46.3467C106.761 46.3467 106.724 46.3467 106.664 46.3053C106.579 46.2662 106.491 46.2324 106.402 46.2041C106.107 46.1009 105.795 46.0541 105.482 46.066C105.174 46.0745 104.87 46.1401 104.586 46.2593C104.475 46.3053 104.388 46.3467 104.328 46.3789L104.236 46.425C104.261 46.3995 104.291 46.3791 104.324 46.3651C104.403 46.3144 104.486 46.2697 104.572 46.2317C104.862 46.1035 105.175 46.0331 105.492 46.0246C105.805 46.015 106.117 46.0666 106.411 46.1764C106.5 46.2072 106.586 46.2457 106.669 46.2915L106.761 46.3467Z" fill="white"/>
<path d="M84.4766 20.1172C84.4766 20.1172 84.5639 30.4266 85.0881 33.5701L98.0043 32.958C98.0043 32.958 96.8686 22.8326 97.3054 20.1172H84.4766Z" fill="#EBEBEB"/>
<path d="M95.3609 24.4472C93.9273 24.6602 92.4826 24.7893 91.034 24.8338C89.5909 24.9615 88.1416 25.0061 86.6934 24.9672C88.1269 24.7542 89.5716 24.6251 91.0202 24.5806C92.4633 24.4529 93.9126 24.4083 95.3609 24.4472Z" fill="white"/>
<path d="M95.3667 26.6522C93.9331 26.865 92.4884 26.9941 91.0399 27.0389C89.5969 27.1693 88.1476 27.2154 86.6992 27.1769C88.1325 26.9609 89.5773 26.8302 91.0261 26.7857C92.4692 26.658 93.9185 26.6134 95.3667 26.6522Z" fill="white"/>
<path d="M93.1669 28.7738C92.3583 28.9485 91.5341 29.041 90.7069 29.0499C89.8829 29.1338 89.0525 29.1338 88.2285 29.0499C89.0382 28.8723 89.8642 28.7797 90.6931 28.7738C91.5156 28.69 92.3444 28.69 93.1669 28.7738Z" fill="white"/>
<path d="M83.8652 50.4434C83.8652 50.4434 83.9526 60.7528 84.4768 63.8962L97.393 63.2887C97.393 63.2887 96.2572 53.1634 96.6941 50.4434H83.8652Z" fill="#EBEBEB"/>
<path d="M94.7497 54.7735C93.3161 54.9865 91.8714 55.1156 90.4228 55.1601C88.9798 55.2906 87.5305 55.3367 86.0822 55.2981C87.5154 55.0821 88.9603 54.9514 90.409 54.9069C91.8521 54.7792 93.3014 54.7346 94.7497 54.7735Z" fill="white"/>
<path d="M94.7539 56.9592C93.32 57.1693 91.8754 57.2983 90.427 57.3459C88.9917 57.4758 87.5501 57.5234 86.1094 57.4885C87.5429 57.2755 88.9877 57.1464 90.4362 57.1019C91.8712 56.9664 93.3131 56.9188 94.7539 56.9592Z" fill="white"/>
<path d="M92.5478 59.1007C91.7392 59.2754 90.915 59.3679 90.0878 59.3768C89.2645 59.4683 88.4342 59.476 87.6094 59.3998C88.4195 59.225 89.2453 59.1324 90.074 59.1237C90.8957 59.0323 91.7245 59.0246 92.5478 59.1007Z" fill="white"/>
<path d="M119.166 22.8516L120.444 52.5832L157.528 53.0297L155.864 23.2428L119.166 22.8516Z" fill="#EBEBEB"/>
<path d="M155.574 22.6347H118.738V50.4748H155.574V22.6347Z" fill="#F5F5F5"/>
<path d="M155.568 50.4741C155.568 50.4741 155.568 50.2946 155.568 49.9586C155.568 49.6227 155.568 49.1164 155.568 48.4721C155.568 47.1696 155.568 45.2504 155.541 42.8387C155.541 37.9877 155.513 31.0381 155.49 22.634L155.591 22.7399L118.76 22.7629L118.884 22.634C118.884 32.6489 118.884 42.1299 118.884 50.4741L118.769 50.359L145.337 50.4189L152.892 50.4465H154.902H155.421H155.601H155.435H154.929H152.943L145.411 50.4787L118.756 50.5846H118.641V50.4695C118.641 42.1253 118.641 32.6443 118.641 22.6294V22.5098H118.769L155.601 22.5328H155.706V22.634C155.706 31.0657 155.665 38.0337 155.651 42.8847C155.651 45.301 155.651 47.1972 155.623 48.4951C155.623 49.1348 155.623 49.6227 155.623 49.9632C155.623 50.3038 155.568 50.4741 155.568 50.4741Z" fill="#E0E0E0"/>
<path d="M138.11 28.5352H123.18V47.3453H138.11V28.5352Z" fill="#F5F5F5"/>
<path d="M138.111 47.3629C138.111 47.3629 138.111 47.3261 138.111 47.2663V46.9994C138.111 46.7508 138.111 46.4102 138.111 45.9684C138.111 45.0479 138.111 43.7592 138.079 42.1116C138.079 38.8024 138.047 34.1172 138.024 28.5528L138.134 28.6633H123.204C123.176 28.6909 123.443 28.4286 123.333 28.5436V29.8323C123.333 30.2649 123.333 30.693 123.333 31.121V33.6569C123.333 35.323 123.333 36.9569 123.333 38.5355C123.333 41.6928 123.333 44.6567 123.333 47.3445L123.227 47.2387L134.037 47.2939L137.072 47.3215H137.877H138.157C138.071 47.3259 137.985 47.3259 137.9 47.3215H137.113L134.106 47.3491L123.227 47.4044H123.121V47.3629C123.121 44.6751 123.121 41.7112 123.121 38.5539C123.121 36.9753 123.121 35.3322 123.121 33.6753V28.5436L123.25 28.4102H138.18H138.295V28.5252C138.295 34.1172 138.254 38.83 138.24 42.1576C138.24 43.7915 138.24 45.0893 138.208 45.9914C138.208 46.4194 138.208 46.7554 138.208 46.9948C138.208 47.1006 138.208 47.1835 138.208 47.2525C138.208 47.3215 138.116 47.3629 138.111 47.3629Z" fill="#E0E0E0"/>
<path d="M152.368 24.2324H123.754V26.9433H152.368V24.2324Z" fill="#F5F5F5"/>
<path d="M152.37 26.9418C152.363 26.8791 152.363 26.8159 152.37 26.7531C152.37 26.6243 152.37 26.4494 152.37 26.2284C152.37 25.7682 152.37 25.087 152.342 24.231L152.393 24.2816C147.565 24.323 136.566 24.3553 123.778 24.3553C124.031 24.1021 123.852 24.2862 123.907 24.231V26.928L123.778 26.8037L144.065 26.859L150.153 26.8958H151.809H152.241C152.293 26.8893 152.345 26.8893 152.397 26.8958H152.259H151.841H150.213L144.157 26.9326L123.778 26.9878H123.654V24.2402C123.709 24.1804 123.525 24.3645 123.778 24.1113C136.566 24.1113 147.565 24.1435 152.393 24.1896H152.443V24.2402C152.443 25.1101 152.42 25.7912 152.416 26.2653C152.416 26.4816 152.416 26.6519 152.416 26.7807C152.416 26.9096 152.37 26.9418 152.37 26.9418Z" fill="#E0E0E0"/>
<path d="M152.368 28.5352H139.939V39.8709H152.368V28.5352Z" fill="#F5F5F5"/>
<path d="M152.369 39.8715C152.364 39.7979 152.364 39.7241 152.369 39.6505V39.0384C152.369 38.4815 152.369 37.7037 152.342 36.7372C152.342 34.7397 152.309 31.9231 152.286 28.5449L152.397 28.6507H139.982L140.106 28.5265V34.5096C140.106 36.4104 140.106 38.1916 140.106 39.8761L139.996 39.7656L148.962 39.8208L151.505 39.8484H152.181H152.424C152.353 39.8551 152.28 39.8551 152.208 39.8484H151.551L149.031 39.8761L139.94 40.0003H139.83V39.8899C139.83 38.2238 139.83 36.4242 139.83 34.5234V31.5779C139.83 31.0808 139.83 30.5792 139.83 30.0683V28.5449L139.959 28.416H152.374H152.48V28.5265C152.48 31.9323 152.438 34.772 152.424 36.7832C152.424 37.7543 152.424 38.5229 152.397 39.0844C152.397 39.333 152.397 39.5447 152.397 39.6782C152.395 39.7434 152.386 39.8083 152.369 39.8715Z" fill="#E0E0E0"/>
<path d="M152.368 41.6465H139.939V47.3443H152.368V41.6465Z" fill="#F5F5F5"/>
<path d="M152.369 47.3645C152.359 47.2266 152.359 47.0882 152.369 46.9503L152.323 45.7858C152.323 44.7825 152.29 43.3742 152.272 41.6437L152.364 41.7357L139.949 41.7725C139.834 41.883 140.101 41.616 140.073 41.6437V44.603C140.073 45.5557 140.073 46.4808 140.073 47.3645L139.954 47.2448L148.842 47.3L151.431 47.3323H152.129H152.382C152.307 47.3388 152.232 47.3388 152.157 47.3323H151.486L148.92 47.3645L139.954 47.4243H139.834V47.3645C139.834 46.4808 139.834 45.5557 139.834 44.603C139.834 44.1428 139.834 43.6411 139.834 43.1533V41.6575L139.963 41.5332L152.378 41.5654H152.47V41.6575C152.47 43.4064 152.433 44.8331 152.419 45.8549C152.419 46.3151 152.419 46.6971 152.419 46.9779C152.411 47.1078 152.394 47.2369 152.369 47.3645Z" fill="#E0E0E0"/>
<path d="M137.742 28.5664C133.121 34.9362 127.801 40.9515 123.18 47.3627L137.742 28.5664Z" fill="white"/>
<path d="M123.18 47.3631C123.211 47.2869 123.252 47.2155 123.304 47.1514L123.69 46.5807C124.035 46.0836 124.545 45.3794 125.184 44.5142C126.472 42.7883 128.307 40.4502 130.362 37.8959C132.417 35.3416 134.275 33.0173 135.595 31.3236L137.149 29.2894C137.324 29.073 137.462 28.8936 137.576 28.7463C137.691 28.599 137.733 28.5622 137.742 28.5668C137.711 28.6418 137.67 28.7116 137.618 28.7739L137.232 29.3492C136.887 29.8463 136.376 30.5504 135.737 31.4111C134.454 33.1416 132.615 35.475 130.56 38.034C128.504 40.5929 126.647 42.9079 125.327 44.6016L123.773 46.6129L123.345 47.1606C123.244 47.2848 123.189 47.3631 123.18 47.3631Z" fill="#E0E0E0"/>
<path d="M138.109 47.3632C138.054 47.4046 134.67 43.221 130.545 38.034C126.421 32.8471 123.124 28.5945 123.188 28.553C123.253 28.5116 126.628 32.6952 130.752 37.8776C134.877 43.0599 138.165 47.2987 138.109 47.3632Z" fill="#E0E0E0"/>
<path d="M120.443 28.5763C120.443 29.1964 120.197 29.7911 119.759 30.2296C119.321 30.668 118.727 30.9144 118.107 30.9144C117.488 30.9131 116.895 30.6664 116.457 30.2282C116.019 29.79 115.773 29.196 115.771 28.5763C115.771 28.2693 115.832 27.9653 115.949 27.6816C116.067 27.3979 116.239 27.1402 116.456 26.9231C116.673 26.706 116.93 26.5338 117.213 26.4163C117.497 26.2988 117.801 26.2383 118.107 26.2383C118.414 26.2377 118.718 26.2977 119.002 26.415C119.286 26.5323 119.543 26.7045 119.76 26.9217C119.977 27.139 120.149 27.3969 120.267 27.6809C120.384 27.9648 120.444 28.2691 120.443 28.5763Z" fill="#E0E0E0"/>
<path d="M158.65 22.8966C158.651 23.2038 158.591 23.5081 158.474 23.7921C158.356 24.076 158.184 24.334 157.967 24.5512C157.75 24.7684 157.493 24.9406 157.209 25.0579C156.925 25.1752 156.621 25.2353 156.314 25.2347C156.007 25.2353 155.703 25.1752 155.42 25.0579C155.136 24.9406 154.878 24.7684 154.661 24.5512C154.444 24.334 154.272 24.076 154.155 23.7921C154.038 23.5081 153.978 23.2038 153.979 22.8966C153.979 22.2765 154.225 21.6819 154.663 21.2434C155.101 20.8049 155.695 20.5586 156.314 20.5586C156.934 20.5586 157.528 20.8049 157.966 21.2434C158.404 21.6819 158.65 22.2765 158.65 22.8966Z" fill="#E0E0E0"/>
<path d="M97.6838 109.582H134.598V107.787H97.6838V109.582Z" fill="#263238"/>
<path d="M140.317 109.583L147.241 83.6113H118.42L112.148 109.583H140.317Z" fill="#263238"/>
<path d="M113.877 107.618H139.622L145.618 84.8125H119.735L113.877 107.618Z" fill="#455A64"/>
<path d="M119.556 84.582L113.578 107.783V107.847H139.788L145.898 84.582H119.556ZM114.157 107.387L119.901 85.0423H145.305L139.447 107.387H114.157Z" fill="#263238"/>
<path d="M23.4743 114.623H21.6074V130.699H23.4743V114.623Z" fill="#455A64"/>
<path d="M25.3349 114.889H23.4727V130.698H25.3349V114.889Z" fill="#263238"/>
<path d="M138.317 114.623H136.455V130.294H138.317V114.623Z" fill="#455A64"/>
<path d="M140.183 114.881H138.316V130.294H140.183V114.881Z" fill="#263238"/>
<path d="M166.191 109.449H0V116.758H166.191V109.449Z" fill="#455A64"/>
<path d="M137.388 116.758H75.0509V128.853H137.388V116.758Z" fill="#455A64"/>
<path d="M108.999 121.969C108.999 122.335 108.854 122.686 108.595 122.945C108.336 123.204 107.986 123.349 107.62 123.349C107.254 123.349 106.903 123.204 106.644 122.945C106.386 122.686 106.24 122.335 106.24 121.969C106.24 121.602 106.386 121.251 106.644 120.992C106.903 120.733 107.254 120.588 107.62 120.588C107.986 120.588 108.336 120.733 108.595 120.992C108.854 121.251 108.999 121.602 108.999 121.969Z" fill="#263238"/>
<path d="M150.967 116.752C150.967 116.822 129.356 116.877 102.737 116.877C76.1185 116.877 54.498 116.822 54.498 116.752C54.498 116.683 76.1093 116.633 102.737 116.633C129.365 116.633 150.967 116.688 150.967 116.752Z" fill="#263238"/>
<path d="M67.1897 30.7949C67.438 30.7949 70.7992 31.3564 70.7992 31.3564L75.3468 37.091L76.0319 38.1772L69.898 42.0985L67.1897 38.0852L64.8906 36.5894C65.2335 36.3289 65.6414 36.1679 66.0697 36.1241C66.4979 36.0802 66.93 36.1552 67.3184 36.3408C68.2258 36.7193 69.2002 36.9103 70.1831 36.9023L69.3738 34.6011L66.8816 34.1041L67.1897 30.7949Z" fill="#FFBF9D"/>
<path d="M67.4833 26.7621C67.5787 26.7378 67.6781 26.7337 67.7751 26.75C67.8721 26.7664 67.9647 26.8028 68.0469 26.8569C68.1291 26.911 68.1991 26.9817 68.2525 27.0644C68.3059 27.1472 68.3415 27.2401 68.357 27.3374C68.734 29.6938 69.856 36.7677 70.1962 38.8434C70.2252 39.0049 70.1945 39.1715 70.1099 39.312C70.0253 39.4526 69.8926 39.5576 69.7364 39.6074L64.2968 41.1124C64.2031 41.1383 64.1049 41.1436 64.009 41.128C63.913 41.1125 63.8216 41.0764 63.7408 41.0222C63.6601 40.968 63.592 40.8971 63.5411 40.8141C63.4903 40.7312 63.4579 40.6383 63.4462 40.5417L61.984 28.7917C61.9673 28.6235 62.0108 28.4548 62.1068 28.3157C62.2028 28.1767 62.345 28.0762 62.5081 28.0323L67.4833 26.7621Z" fill="#263238"/>
<path d="M63.8419 39.6719L69.3596 38.1347L67.8974 28.3591C67.8798 28.2257 67.8339 28.0976 67.7628 27.9834C67.6917 27.8692 67.597 27.7716 67.4851 27.6971C67.3731 27.6225 67.2466 27.5728 67.1139 27.5512C66.9812 27.5297 66.8454 27.5368 66.7157 27.5721L62.2969 28.7503L63.8419 39.6719Z" fill="#EBEBEB"/>
<path d="M69.2486 32.5195L66.7656 34.3881C66.7656 34.3881 66.9725 35.0371 67.3496 35.0877C68.1542 34.9826 68.9492 34.8133 69.7268 34.5814L69.2486 32.5195Z" fill="#FFBF9D"/>
<path d="M68.9456 31.0391L66.3385 32.1759C66.3385 32.1759 66.1684 33.0227 67.1432 32.9076L66.2695 33.529C66.2695 33.529 66.4856 33.9064 67.5754 33.9524C68.6652 33.9984 69.7135 32.4934 69.7135 32.4934L68.9456 31.0391Z" fill="#FFBF9D"/>
<path d="M71.5255 33.9279C71.5255 33.9647 71.2082 33.9002 70.8634 33.5827C70.6777 33.3998 70.4779 33.2321 70.2656 33.081C70.1496 32.9949 70.0134 32.94 69.8701 32.9214C69.7269 32.9029 69.5812 32.9214 69.4471 32.9752C68.7241 33.3905 67.9691 33.7475 67.1895 34.0429C67.8634 33.5335 68.5912 33.0998 69.3598 32.7496C69.538 32.6795 69.7318 32.6588 69.9207 32.6898C70.0865 32.7268 70.243 32.7972 70.3806 32.8969C70.5947 33.0643 70.7918 33.2524 70.9691 33.4584C71.1432 33.6279 71.3291 33.7848 71.5255 33.9279Z" fill="#FF9A6C"/>
<path d="M71.0154 40.4094C70.5356 39.8948 70.2551 39.2256 70.2245 38.5224C70.1082 37.8255 70.2418 37.1099 70.6015 36.502C70.4785 37.1587 70.4307 37.8273 70.459 38.4948C70.5709 39.1522 70.7576 39.7945 71.0154 40.4094Z" fill="#FF9A6C"/>
<path d="M70.6707 32.1751C70.5148 32.0641 70.3466 31.9714 70.1695 31.899C69.7286 31.7761 69.2573 31.8289 68.8544 32.0463C68.3624 32.281 67.9348 32.5802 67.5854 32.7274C67.2359 32.8747 66.9968 32.9023 66.9922 32.8701C67.1557 32.7582 67.3279 32.6597 67.5072 32.5755C67.8244 32.4007 68.2245 32.0831 68.7533 31.83C69.0067 31.7126 69.2794 31.6424 69.558 31.6228C69.7898 31.6117 70.0211 31.6542 70.2339 31.7471C70.6017 31.922 70.6983 32.1751 70.6707 32.1751Z" fill="#FF9A6C"/>
<path d="M70.4766 48.4727L83.9905 57.1574L80.4086 67.4116C80.4086 67.4116 71.1617 64.5581 71.3364 64.2544C71.5111 63.9506 70.4766 48.4727 70.4766 48.4727Z" fill="#1D996C"/>
<path d="M48.0424 24.0336L50.0242 47.0457L61.5196 46.1252C61.5886 44.7813 61.5196 39.5806 61.5196 39.5806C61.5196 39.5806 66.2925 38.812 66.3384 34.0162C66.3706 31.715 66.035 26.8825 65.6855 22.5516C65.4995 20.2442 64.4187 18.1012 62.6742 16.5813C60.9297 15.0614 58.6602 14.2853 56.3513 14.4191C55.1694 14.4885 54.0134 14.7943 52.9515 15.3185C51.8897 15.8426 50.9436 16.5744 50.169 17.4706C49.3945 18.3669 48.8072 19.4094 48.442 20.5366C48.0767 21.6639 47.9409 22.8529 48.0424 24.0336Z" fill="#FFBF9D"/>
<path d="M61.5112 39.4876C59.2996 39.5259 57.1269 38.9025 55.2715 37.6973C55.2715 37.6973 56.7475 41.1491 61.525 40.7165L61.5112 39.4876Z" fill="#FF9A6C"/>
<path d="M63.8416 25.916C63.8429 26.094 63.7751 26.2655 63.6524 26.3944C63.5297 26.5232 63.3617 26.5992 63.1841 26.6064C63.0972 26.6133 63.0098 26.6027 62.9271 26.5752C62.8443 26.5477 62.7679 26.504 62.7024 26.4465C62.6368 26.389 62.5834 26.319 62.5453 26.2405C62.5072 26.1621 62.4852 26.0768 62.4805 25.9897C62.478 25.8113 62.5455 25.6391 62.6684 25.51C62.7914 25.381 62.96 25.3053 63.1381 25.2993C63.2251 25.2918 63.3127 25.3019 63.3957 25.3291C63.4787 25.3563 63.5554 25.4 63.6211 25.4576C63.6868 25.5152 63.7402 25.5855 63.7781 25.6643C63.816 25.7431 63.8376 25.8287 63.8416 25.916Z" fill="#263238"/>
<path d="M64.6742 24.9722C64.5869 25.0596 64.0719 24.6776 63.3362 24.6776C62.6005 24.6776 62.0625 25.0504 61.9797 24.9584C61.897 24.8663 62.0303 24.7558 62.2648 24.5856C62.5826 24.3634 62.9624 24.2474 63.35 24.2542C63.7311 24.2521 64.1031 24.3714 64.4121 24.5948C64.6375 24.7697 64.7156 24.9307 64.6742 24.9722Z" fill="#263238"/>
<path d="M56.7791 25.916C56.7804 26.094 56.7126 26.2655 56.5899 26.3944C56.4672 26.5232 56.2992 26.5992 56.1216 26.6064C56.0348 26.6126 55.9477 26.6016 55.8652 26.5739C55.7827 26.5462 55.7066 26.5024 55.6412 26.445C55.5757 26.3877 55.5223 26.3179 55.484 26.2397C55.4457 26.1616 55.4233 26.0766 55.418 25.9897C55.4155 25.8113 55.483 25.6391 55.6059 25.51C55.7289 25.381 55.8975 25.3053 56.0756 25.2993C56.1626 25.2918 56.2502 25.3019 56.3332 25.3291C56.4162 25.3563 56.4929 25.4 56.5586 25.4576C56.6243 25.5152 56.6777 25.5855 56.7156 25.6643C56.7535 25.7431 56.7751 25.8287 56.7791 25.916Z" fill="#263238"/>
<path d="M57.4462 25.1113C57.3588 25.1987 56.8392 24.8167 56.1081 24.8167C55.377 24.8167 54.8344 25.1895 54.7517 25.0975C54.6689 25.0054 54.7977 24.895 55.0368 24.7247C55.354 24.5043 55.7312 24.387 56.1173 24.3887C56.5001 24.3898 56.8731 24.5105 57.1841 24.7339C57.4094 24.9088 57.4876 25.0698 57.4462 25.1113Z" fill="#263238"/>
<path d="M60.1133 30.5691C60.5015 30.4485 60.903 30.3759 61.3088 30.3528C61.4973 30.3528 61.6721 30.2976 61.7042 30.1687C61.7228 29.9746 61.6794 29.7796 61.5801 29.6118C61.4054 29.1516 61.2168 28.6913 61.0237 28.1804C60.2558 26.1416 59.6949 24.4663 59.7776 24.4341C59.8604 24.4018 60.5501 26.0311 61.3226 28.07C61.5065 28.5716 61.6859 29.0503 61.856 29.5105C61.9732 29.7371 62.0074 29.9977 61.9526 30.2469C61.9263 30.3138 61.8848 30.3737 61.8313 30.4216C61.7778 30.4696 61.7138 30.5043 61.6445 30.5231C61.5395 30.5513 61.4313 30.5652 61.3226 30.5645C60.9213 30.6167 60.515 30.6183 60.1133 30.5691Z" fill="#263238"/>
<path d="M57.9471 31.0743C58.0667 31.0743 58.0713 31.8705 58.7518 32.455C59.4323 33.0395 60.2876 32.9153 60.2922 33.0441C60.2968 33.173 60.1036 33.2006 59.745 33.2098C59.275 33.2133 58.8189 33.0503 58.4575 32.7496C58.1122 32.4627 57.89 32.0542 57.8368 31.6082C57.8046 31.2538 57.8965 31.0697 57.9471 31.0743Z" fill="#263238"/>
<path d="M57.633 22.2251C57.5595 22.423 56.8283 22.3309 55.9639 22.4322C55.0994 22.5334 54.4005 22.7727 54.2902 22.5932C54.235 22.5058 54.3591 22.3217 54.6396 22.133C55.0126 21.8908 55.4385 21.7423 55.8811 21.7004C56.3223 21.6464 56.77 21.6984 57.187 21.8523C57.5043 21.9719 57.6652 22.1284 57.633 22.2251Z" fill="#263238"/>
<path d="M64.4024 22.8413C64.2737 23.007 63.7679 22.8413 63.1563 22.8413C62.5448 22.8413 62.0344 22.9517 61.9148 22.7768C61.8597 22.694 61.9424 22.5237 62.1677 22.3672C62.4688 22.174 62.8219 22.0776 63.1793 22.0911C63.5371 22.0978 63.884 22.2152 64.1725 22.4271C64.3886 22.5881 64.4576 22.7584 64.4024 22.8413Z" fill="#263238"/>
<path d="M53.2391 18.7772H53.2115C52.4573 19.3821 51.9636 20.2535 51.8321 21.2119V21.3086C51.6482 22.6893 51.6804 24.07 51.478 25.4507C51.2757 26.8315 50.8067 28.2122 49.7997 29.1327C49.3859 29.5193 48.6502 29.7862 48.3099 29.3306C48.1951 29.1423 48.1361 28.9252 48.1398 28.7047C47.8869 25.4093 46.9857 22.4822 46.9903 19.0396C46.9883 18.5777 47.0966 18.1221 47.3062 17.7106C47.5157 17.2991 47.8204 16.9437 48.195 16.6739C48.8663 16.1584 49.7859 15.6062 50.5676 16.002C51.3493 16.3978 52.4069 17.8844 53.0322 18.5241L53.2391 18.7772Z" fill="#263238"/>
<path d="M49.6571 26.1912C49.5744 26.1544 46.3695 25.2155 46.4752 28.4924C46.581 31.7693 49.8411 30.9869 49.8457 30.8903C49.8503 30.7936 49.6571 26.1912 49.6571 26.1912Z" fill="#FFBF9D"/>
<path d="M48.806 29.6944C48.806 29.6944 48.7509 29.7359 48.6543 29.7819C48.5197 29.843 48.367 29.8512 48.2267 29.8049C48.0112 29.6772 47.8337 29.4943 47.7125 29.2751C47.5912 29.0558 47.5306 28.8081 47.5369 28.5576C47.5173 28.2779 47.563 27.9974 47.6703 27.7384C47.6962 27.6336 47.7476 27.5368 47.8198 27.4565C47.8919 27.3763 47.9827 27.315 48.0841 27.2782C48.1491 27.259 48.2187 27.2633 48.2809 27.2902C48.343 27.3171 48.3938 27.3649 48.4244 27.4254C48.4704 27.5175 48.452 27.5819 48.4704 27.5865C48.4888 27.5911 48.5393 27.5313 48.5071 27.3932C48.4876 27.3135 48.4403 27.2433 48.3738 27.1953C48.3286 27.1622 48.2772 27.1386 48.2227 27.1259C48.1682 27.1133 48.1116 27.1118 48.0565 27.1217C47.9238 27.1529 47.8015 27.218 47.7015 27.3108C47.6015 27.4036 47.5274 27.5208 47.4864 27.651C47.355 27.9391 47.2965 28.2553 47.3162 28.5714C47.3576 29.2296 47.7163 29.8371 48.1945 29.9522C48.2823 29.9763 48.3745 29.9797 48.4639 29.9622C48.5532 29.9446 48.6373 29.9065 48.7095 29.8509C48.8014 29.7727 48.8152 29.699 48.806 29.6944Z" fill="#FF9A6C"/>
<path d="M50.4563 16.5268C49.6516 15.2197 51.8587 13.3373 53.4727 12.8448C55.0866 12.3524 57.2156 13.1256 58.8249 13.6595C59.8365 13.9954 60.8481 14.4649 61.9149 14.4189C62.6307 14.336 63.3299 14.1452 63.9886 13.8528C64.6511 13.5752 65.3627 13.4344 66.0808 13.4385C66.4405 13.4473 66.791 13.5538 67.0948 13.7468C67.3985 13.9398 67.6441 14.2119 67.8051 14.5339C68.0764 15.1967 67.6855 16.108 66.9774 16.2046C67.2074 16.0973 67.4586 16.0432 67.7123 16.0465C67.966 16.0498 68.2157 16.1103 68.4429 16.2235C68.67 16.3368 68.8687 16.4998 69.0242 16.7005C69.1796 16.9012 69.2879 17.1344 69.3409 17.3828C69.3611 17.6366 69.3237 17.8917 69.2316 18.129C69.1394 18.3664 68.9948 18.5797 68.8086 18.7533C68.6225 18.9268 68.3995 19.0559 68.1565 19.131C67.9134 19.2061 67.6565 19.2252 67.4051 19.187C67.8649 18.8326 68.5822 19.4171 68.527 19.997C68.4629 20.2822 68.3264 20.5459 68.1307 20.7628C67.9349 20.9797 67.6866 21.1424 67.4097 21.2351C66.0302 21.838 64.453 21.6447 63.0414 21.1706C61.6298 20.6966 60.3193 19.951 58.9031 19.4401C57.4868 18.9292 55.1602 18.0134 53.7532 18.5196C52.7186 18.8832 51.9967 20.1305 51.4127 19.8543C51.1376 19.7065 50.9008 19.4963 50.7211 19.2406C50.5415 18.9849 50.4241 18.6907 50.3781 18.3815C50.3033 17.7683 50.325 17.1471 50.4425 16.5406L50.4563 16.5268Z" fill="#263238"/>
<path d="M67.3731 16.1132C67.3455 16.1132 67.203 16.3571 66.8535 16.7391C66.3449 17.2742 65.7136 17.677 65.0143 17.9127C63.9981 18.2786 62.8793 18.2323 61.8967 17.7839C60.784 17.2868 59.8322 16.2881 58.7332 15.3446C57.7165 14.3927 56.4326 13.7759 55.0547 13.5773C54.4865 13.5149 53.9116 13.5823 53.3732 13.7744C52.8348 13.9665 52.3469 14.2783 51.9463 14.6864C51.6858 14.9705 51.4858 15.3048 51.3585 15.6687C51.2312 16.0327 51.1793 16.4188 51.206 16.8036C51.2252 17.0097 51.2716 17.2125 51.344 17.4065C51.4038 17.5353 51.4405 17.5952 51.4497 17.5906C51.3906 17.3284 51.3506 17.0623 51.3302 16.7944C51.3289 16.0672 51.609 15.3678 52.1119 14.8429C52.5012 14.48 52.9668 14.209 53.4744 14.0497C53.982 13.8905 54.5189 13.847 55.0455 13.9224C56.3537 14.1219 57.5723 14.7085 58.5447 15.6069C59.6206 16.5274 60.6 17.5538 61.791 18.0692C62.3121 18.3007 62.874 18.426 63.444 18.4379C64.0139 18.4497 64.5806 18.3479 65.1108 18.1383C65.8281 17.8743 66.4627 17.4249 66.9501 16.8358C67.0811 16.6779 67.1952 16.5067 67.2903 16.3249C67.3547 16.1868 67.3823 16.1224 67.3731 16.1132Z" fill="#455A64"/>
<path d="M48.8234 26.0588C48.8234 26.0588 48.966 25.9667 49.0855 25.709C49.2511 25.3366 49.3085 24.9251 49.2511 24.5215C49.1775 23.463 48.2441 22.3308 48.1291 20.8764C48.044 20.203 48.1692 19.5197 48.4878 18.9204C48.7673 18.4447 49.1955 18.0743 49.7063 17.8664C50.0508 17.7243 50.4262 17.6736 50.796 17.7192C50.9334 17.7557 51.0732 17.7818 51.2145 17.7974C51.2145 17.7974 51.0995 17.6823 50.8236 17.5949C50.428 17.4957 50.0119 17.5165 49.6281 17.6547C49.0528 17.8541 48.565 18.2479 48.2487 18.7685C47.8796 19.4155 47.7296 20.1647 47.821 20.904C47.8989 21.6247 48.1077 22.325 48.4372 22.9705C48.7049 23.4672 48.9029 23.9984 49.0258 24.5492C49.1112 25.0613 49.0407 25.5873 48.8234 26.0588Z" fill="#455A64"/>
<path d="M59.3804 94.252V112.537L58.9206 115.299V115.4L58.7045 116.726V116.772V116.818L57.7343 122.801L56.5158 130.289H37.5898C37.6266 129.543 37.6634 128.802 37.7002 128.071V127.794C37.9025 123.91 38.091 120.191 38.2704 116.749C38.4037 114.217 38.5279 111.842 38.6428 109.661V109.445C38.8313 105.914 38.9923 102.909 39.1026 100.613C39.1026 100.511 39.1026 100.41 39.1026 100.313C39.1026 100.29 39.1026 100.272 39.1026 100.249V100.217C39.1486 99.4665 39.1854 98.7945 39.2222 98.2192C39.2222 98.1686 39.2222 98.1226 39.2222 98.072C39.2222 98.0213 39.2222 98.072 39.2222 98.049C39.2222 97.9477 39.2222 97.8511 39.2222 97.7544C39.3003 96.4611 39.3509 95.7293 39.3693 95.6741L40.0728 95.6235L41.8339 95.4992L42.1696 95.4716L42.7076 95.4348L50.2301 94.8963L50.6164 94.8687L52.3361 94.7444H52.5982L53.3707 94.6892L59.3804 94.252Z" fill="#263238"/>
<path d="M75.7088 130.294H58.852L57.7485 123.013L57.7163 122.806L57.6289 122.244L56.8013 116.79L56.7967 116.754L56.7921 116.721L55.6885 109.449L53.9872 98.2242L53.9642 98.0769L53.6285 95.8493L53.624 95.8125L53.6056 95.7112L53.4492 94.6757L64.2549 93.5665L64.3698 93.5573L70.1957 92.959L70.2462 93.3042L71.7728 103.655L72.6327 109.449L73.5155 115.437L73.6949 116.661L73.7086 116.754L73.7224 116.85L75.0513 125.834L75.4973 128.849L75.7088 130.294Z" fill="#263238"/>
<path d="M73.2072 115.713C73.2072 115.713 76.2374 113.108 76.5409 111.139C76.8443 109.169 72.8991 77.5408 72.8991 77.5408L70.8897 51.3852C70.8897 51.8455 70.9449 48.0899 70.338 47.8644C68.4987 47.174 64.719 45.9129 64.719 45.9129L62.5625 43.9707C62.5625 43.9707 66.4387 60.5717 67.1974 65.1143L73.2072 115.713Z" fill="#1D996C"/>
<path d="M48.2856 42.1719L45.0255 44.3442L32.7715 49.1676L38.2065 69.699L37.48 81.6055L36.781 89.1765C36.781 89.1765 33.1393 107.918 29.916 119.309C29.916 119.309 33.5072 126.12 36.4592 127.073L37.6869 127.8L42.0643 95.7165L45.8256 90.6538C46.1843 90.166 46.5199 89.6643 46.8372 89.1488C47.7568 87.6438 49.8674 84.2242 51.5411 81.5825C53.7574 78.103 56.599 70.1822 55.7622 66.8041C54.9253 63.4259 48.2856 42.1719 48.2856 42.1719Z" fill="#1D996C"/>
<path d="M39.9688 112.947C42.8365 110.626 45.2179 107.761 46.9763 104.516L39.9688 112.947Z" fill="#263238"/>
<path d="M48.286 42.1718L51.238 61.097C51.159 63.5191 50.7569 65.9198 50.0425 68.2353L44.7822 85.2643C44.7822 85.2643 40.6439 94.5474 42.0739 95.7302C43.504 96.913 54.6315 95.7302 54.6315 95.7302L69.6812 93.5441C70.0175 93.4959 70.3224 93.3197 70.5322 93.0523C70.7421 92.7848 70.8408 92.4466 70.8077 92.1081L68.573 68.9947C67.8189 67.3977 67.5109 64.1346 67.1936 62.9701L62.5587 43.9805L61.6114 43.8563L59.5469 45.2738L58.4663 45.3567L49.3574 40.9199L48.286 42.1718Z" fill="#EBEBEB"/>
<path d="M45.5406 82.8009C47.973 75.2115 51.1227 62.877 51.1227 62.877C52.1068 69.3203 51.0308 75.9248 48.6351 81.9954C46.6809 86.9522 44.3129 90.6986 42.6805 95.7705L42.63 95.9822C42.63 95.9822 41.7103 96.0282 41.7747 94.6705C41.8391 93.3128 43.1542 89.2765 44.0324 87.0351C44.9106 84.7937 45.5406 82.8009 45.5406 82.8009Z" fill="#E0E0E0"/>
<path d="M60.0756 46.8752H58.034L57.4178 49.6735L59.2065 51.8458L61.0136 51.6617L61.5976 49.655L61.1148 48.5321L60.0756 46.8752Z" fill="#1D996C"/>
<path d="M72.0075 63.2415C72.6558 63.3703 79.7645 68.1569 82.3487 67.6414C84.9328 67.1259 87.025 64.6866 87.2963 64.3599C88.7631 62.6155 87.8435 59.0072 87.425 57.6449C87.3201 57.3125 87.1782 56.9929 87.002 56.6922L76.0262 37.8223L69.5566 41.7435L76.2745 54.009L72.0075 63.2415Z" fill="#1D996C"/>
<path d="M19.0694 86.0552C18.6447 84.9415 18.4608 83.7504 18.5298 82.5604C18.5987 81.3704 18.919 80.2086 19.4694 79.1515C20.9592 76.2014 23.318 71.4333 23.8146 69.873C24.5549 67.5718 31.4292 49.7144 32.781 49.1621L38.7586 69.3576L31.8522 84.0025L39.9909 99.347L33.1949 106.665C33.1949 106.665 20.3568 88.7522 19.3039 86.5338C19.2027 86.3773 19.1337 86.2162 19.0694 86.0552Z" fill="#1D996C"/>
<path d="M40.2712 111.336C41.5572 110.134 42.6977 108.786 43.6692 107.318C43.6602 107.299 43.6556 107.279 43.6556 107.258C43.6556 107.237 43.6602 107.217 43.6692 107.198C43.7026 107.153 43.7518 107.122 43.8071 107.111C44.1979 106.508 44.5555 105.884 44.8785 105.242C43.7381 104.501 42.253 103.401 43.8715 103.153C45.8579 102.867 47.2787 101.901 47.481 101.372C47.6834 100.842 47.0212 100.368 46.497 100.704C45.8929 101.012 45.2492 101.235 44.5842 101.367C44.0544 101.492 43.507 101.527 42.9657 101.468C42.3311 101.399 39.747 100.276 39.2872 100.193L34.4453 105.293C34.4453 105.293 38.1606 109.223 40.2712 111.336Z" fill="#FFBF9D"/>
<path d="M71.9616 63.8021C71.8871 63.6176 71.8302 63.4265 71.7915 63.2314C71.6995 62.8632 71.5799 62.3109 71.4466 61.6573C71.1041 59.9152 70.8539 58.1561 70.6971 56.3876C70.5401 54.6186 70.4741 52.8428 70.4994 51.0672C70.4994 50.386 70.5362 49.8337 70.5637 49.4563C70.5639 49.2579 70.587 49.0602 70.6327 48.8672C70.6593 49.0624 70.6685 49.2595 70.6603 49.4563C70.6603 49.8843 70.6603 50.4274 70.6603 51.0672C70.6603 52.4479 70.7431 54.2888 70.927 56.3645C71.1109 58.4402 71.3868 60.2858 71.6029 61.6251C71.7133 62.2602 71.8052 62.7895 71.8742 63.213C71.9245 63.4056 71.9538 63.6031 71.9616 63.8021Z" fill="#263238"/>
<path d="M77.6074 64.8928C77.6074 64.8928 77.5522 64.8928 77.4556 64.856C77.3121 64.8043 77.1735 64.7396 77.0418 64.6627C76.5669 64.3614 76.1674 63.9552 75.8739 63.4752C75.4741 62.7582 75.193 61.981 75.0416 61.174C74.8054 60.198 74.6213 59.2102 74.4898 58.2147C74.2967 56.0883 74.1358 54.1783 74.03 52.7838C73.984 52.1256 73.9472 51.5734 73.9196 51.1361C73.8966 50.9358 73.8966 50.7335 73.9196 50.5332C73.9748 50.7284 74.0087 50.929 74.0208 51.1315C74.0714 51.5641 74.1312 52.1164 74.2093 52.77C74.3565 54.1507 74.545 56.0791 74.7381 58.187C74.8669 59.2318 75.0646 60.2259 75.2623 61.1234C75.3967 61.9259 75.6558 62.7024 76.0302 63.4246C76.2965 63.8964 76.6621 64.3047 77.1016 64.6212C77.4096 64.7961 77.6165 64.8744 77.6074 64.8928Z" fill="#263238"/>
<g opacity="0.3">
<path d="M73.8833 50.5527C73.3262 52.6662 72.9388 54.8209 72.7246 56.9961C72.53 58.2977 72.6004 59.6253 72.9315 60.899C73.3223 62.1509 74.2512 63.3061 75.5156 63.6604C74.9424 59.3955 74.432 55.1183 73.9845 50.8289L73.8833 50.5527Z" fill="black"/>
</g>
<g opacity="0.3">
<path d="M36.2344 91.9287C36.2344 91.9287 38.3909 96.347 39.5772 98.6575C42.0602 88.3894 38.9105 77.583 39.9405 67.0664L38.1426 70.6885L37.6368 79.0695L37.2506 83.9849C37.2506 83.9849 36.9103 89.2731 36.2344 91.9287Z" fill="black"/>
</g>
<path d="M37.9727 49.3516C38.1094 49.533 38.2309 49.7254 38.3359 49.9269C38.4754 50.1531 38.6028 50.3867 38.7176 50.6264C38.8601 50.9072 39.0256 51.2155 39.1774 51.5791C39.5563 52.4163 39.8804 53.2772 40.1476 54.1565C40.4695 55.2351 40.7169 56.3346 40.8879 57.4472C41.0446 58.5619 41.1245 59.686 41.127 60.8116C41.1219 61.7351 41.0589 62.6574 40.9385 63.5731C40.8971 63.9643 40.8235 64.3094 40.7729 64.6178C40.7223 64.9262 40.6626 65.1839 40.6074 65.3956C40.5628 65.6193 40.5013 65.8394 40.4235 66.0538C40.4325 65.8258 40.4633 65.5993 40.5154 65.3772C40.5568 65.1655 40.6028 64.917 40.6396 64.5948C40.6764 64.2726 40.7407 63.9413 40.7683 63.5547C40.8645 62.6481 40.9105 61.737 40.9063 60.8254C40.8902 59.7104 40.8042 58.5975 40.6488 57.4933C40.4812 56.3929 40.2431 55.3045 39.9361 54.2347C39.6768 53.3609 39.3698 52.5021 39.0164 51.662C38.8739 51.2984 38.7176 50.9808 38.5888 50.7001C38.4601 50.4193 38.3451 50.18 38.2439 49.9867C38.1345 49.7836 38.0437 49.571 37.9727 49.3516Z" fill="#263238"/>
<path d="M31.7466 84.1222C31.7144 84.1222 31.4109 83.6343 30.827 82.9025C30.0527 81.9441 29.1344 81.1119 28.1049 80.4356C27.5566 80.062 26.8922 79.8987 26.2334 79.9754C25.6968 80.0744 25.1884 80.2896 24.7436 80.6059C23.9711 81.1444 23.5435 81.5632 23.5159 81.5264C23.4883 81.4896 23.5987 81.4021 23.7872 81.2134C24.0513 80.9551 24.3341 80.7167 24.6333 80.5001C25.0873 80.1457 25.618 79.9029 26.1829 79.7913C26.8938 79.6893 27.6174 79.8531 28.2152 80.2515C29.263 80.936 30.1827 81.7989 30.9327 82.8013C31.1593 83.1049 31.3681 83.4215 31.5581 83.7494C31.6406 83.8626 31.7043 83.9885 31.7466 84.1222Z" fill="#263238"/>
<path d="M30.2432 79.2852C30.7353 79.9564 31.0985 80.7133 31.3145 81.5173C31.6145 82.2957 31.7703 83.1223 31.7743 83.9566C31.7054 83.9566 31.5214 82.8796 31.103 81.591C30.6846 80.3023 30.1834 79.3174 30.2432 79.2852Z" fill="#263238"/>
<path d="M36.0915 91.6484C36.2257 91.8338 36.3426 92.031 36.441 92.2375L37.31 93.8898C38.0412 95.2705 39.0435 97.2496 40.1517 99.4449L40.1885 99.5186L40.1287 99.583L39.6689 100.043C37.8618 101.93 36.2157 103.624 35.0156 104.844L33.5901 106.28C33.4218 106.461 33.2388 106.629 33.043 106.781C33.1793 106.579 33.3332 106.39 33.5028 106.215L34.8822 104.724C36.0502 103.477 37.6733 101.765 39.4804 99.8776L39.9402 99.4173L39.9172 99.5508C38.8136 97.3554 37.8388 95.4086 37.1583 93.9635L36.349 92.279C36.2467 92.0759 36.1606 91.8651 36.0915 91.6484Z" fill="#263238"/>
<path d="M45.048 82.3822C45.0361 82.2506 45.0361 82.1181 45.048 81.9864C45.048 81.7057 45.048 81.3237 45.048 80.8496C45.071 79.8371 45.1031 78.4149 45.1445 76.666C45.1859 74.9171 45.2365 72.8 45.3331 70.462C45.3894 67.9196 45.7349 65.3919 46.363 62.9278C46.7063 61.6632 47.1922 60.4418 47.8114 59.2873L47.8988 59.4576C47.3265 59.3631 46.8066 59.0678 46.432 58.6245C46.0702 58.2141 45.8075 57.726 45.6641 57.1978C45.4514 56.2188 45.371 55.2157 45.425 54.2154V49.2632C45.425 47.8825 45.425 46.7733 45.448 45.9863C45.448 45.6181 45.448 45.3235 45.448 45.1026C45.4399 45.0015 45.4399 44.8999 45.448 44.7988C45.4688 44.8987 45.4765 45.0008 45.471 45.1026C45.471 45.3235 45.471 45.6181 45.4986 45.9817C45.4986 46.7733 45.5262 47.8871 45.5446 49.2632C45.563 50.6393 45.5768 52.3376 45.5952 54.2154C45.5513 55.1947 45.6347 56.1756 45.8434 57.1333C45.9795 57.6298 46.2281 58.0881 46.57 58.4726C46.9229 58.8812 47.4109 59.1491 47.9448 59.2274H48.1149L48.0322 59.3747C47.4244 60.5159 46.9463 61.7215 46.6067 62.9692C45.9835 65.4173 45.6349 67.9273 45.5676 70.4528C45.4572 72.7816 45.402 74.8849 45.3285 76.6476C45.2549 78.4104 45.1997 79.8187 45.1583 80.8266C45.1307 81.2869 45.1123 81.6827 45.0985 81.9634C45.0929 82.1042 45.076 82.2442 45.048 82.3822Z" fill="#263238"/>
<path d="M64.7559 46.1992C64.7986 46.2803 64.834 46.365 64.8616 46.4524L65.1283 47.1933L66.0755 49.9548C66.4756 51.1376 66.9446 52.5414 67.455 54.097C67.7079 54.8932 68.0205 55.6986 68.2596 56.6007C68.3819 57.0681 68.4008 57.5566 68.3148 58.0321C68.2701 58.2853 68.1745 58.5268 68.0338 58.742C67.8931 58.9572 67.7103 59.1415 67.4964 59.2839L67.5331 59.1182C67.924 59.6935 68.3286 60.3011 68.7149 60.9592C69.2898 61.8821 69.7282 62.8836 70.0161 63.9324C70.2265 64.9225 70.2961 65.9374 70.2231 66.947C70.1081 68.8616 69.984 70.5783 69.8828 72.0096C69.7816 73.441 69.6943 74.5916 69.6345 75.4246C69.5977 75.8112 69.5701 76.1196 69.5517 76.3451C69.547 76.4538 69.5316 76.5617 69.5057 76.6673C69.4947 76.5602 69.4947 76.4522 69.5057 76.3451C69.5057 76.1058 69.5287 75.7974 69.5425 75.4246C69.5885 74.5916 69.6483 73.4272 69.7219 72.0004C69.7954 70.5737 69.9012 68.834 70.0069 66.9377C70.0754 65.9491 70.0027 64.9557 69.7908 63.9876C69.514 62.9598 69.088 61.9782 68.5263 61.0743C68.1493 60.4391 67.7401 59.8316 67.3538 59.2333L67.2848 59.1274L67.3906 59.063C67.5773 58.9367 67.7369 58.7743 67.8601 58.5854C67.9833 58.3966 68.0676 58.1849 68.1079 57.963C68.1885 57.5211 68.1696 57.0667 68.0527 56.6329C67.832 55.7677 67.5193 54.9346 67.2756 54.143C66.7652 52.569 66.31 51.1606 65.9284 49.9732C65.5467 48.7858 65.2617 47.8653 65.0455 47.2118C64.9536 46.8988 64.88 46.6503 64.8202 46.457C64.788 46.3741 64.7664 46.2875 64.7559 46.1992Z" fill="#263238"/>
<path d="M46.856 103.379C46.806 103.514 46.7363 103.641 46.6491 103.756C46.5019 103.986 46.2766 104.318 45.9961 104.727C45.4352 105.537 44.6167 106.637 43.6971 107.82C42.7774 109.003 41.89 110.048 41.2325 110.789C40.906 111.157 40.6347 111.452 40.4462 111.649C40.3539 111.761 40.2472 111.86 40.1289 111.944C40.4225 111.499 40.7483 111.076 41.1037 110.678C41.7245 109.914 42.5797 108.837 43.5131 107.673C44.4466 106.509 45.265 105.409 45.8582 104.626C46.1632 104.189 46.4965 103.772 46.856 103.379Z" fill="#455A64"/>
<path d="M54.0608 97.4375C54.0608 97.4375 54.0608 97.5249 54.0608 97.6952C54.0608 97.8655 54.0286 98.0082 54.0056 98.2245C54.0056 98.2981 54.0056 98.3718 53.9827 98.4546C53.9045 99.1312 53.7941 100.112 53.647 101.368C53.4125 103.388 53.0768 106.127 52.6538 109.45C52.5434 110.283 52.4331 111.153 52.3135 112.059C52.1204 113.537 51.9181 115.102 51.6974 116.754C51.1548 120.813 50.5248 125.374 49.8581 130.294H49.6328C50.3225 125.374 50.9663 120.813 51.5226 116.754C51.748 115.097 51.9825 113.532 52.1618 112.041C52.2813 111.145 52.3948 110.281 52.502 109.45C52.9619 106.122 53.3021 103.379 53.5688 101.354C53.7344 100.102 53.8585 99.122 53.9459 98.45C53.9459 98.312 53.9827 98.1877 53.9964 98.0772C54.0102 97.9668 54.0378 97.8011 54.0516 97.6952C54.0654 97.5894 54.0608 97.4375 54.0608 97.4375Z" fill="#455A64"/>
<path d="M70.8539 128.144C70.9735 128.853 71.093 129.567 71.2126 130.294H70.9873C70.8723 129.58 70.7528 128.876 70.6378 128.177C69.9573 124.071 69.2905 120.265 68.6652 116.841C68.6652 116.813 68.6652 116.781 68.6652 116.753V116.671C68.4215 115.336 68.1824 114.056 67.9525 112.846C67.7226 111.636 67.4927 110.513 67.2904 109.449C66.7386 106.642 66.2466 104.318 65.8419 102.546C65.5798 101.331 65.3453 100.401 65.1982 99.7843C65.1246 99.4713 65.0694 99.232 65.0281 99.0617C64.9867 98.8914 64.9913 98.8592 64.9867 98.827C64.9821 98.7948 65.0235 98.9329 65.0557 99.0525C65.0878 99.1722 65.1614 99.4621 65.2442 99.7705C65.4051 100.401 65.658 101.331 65.9339 102.532C66.3569 104.285 66.8535 106.619 67.4467 109.436C67.6643 110.488 67.8896 111.609 68.1226 112.8C68.3617 114.02 68.6054 115.308 68.8583 116.657V116.74C68.8583 116.767 68.8583 116.795 68.8583 116.827C69.4929 120.251 70.1688 124.048 70.8539 128.144Z" fill="#455A64"/>
<path d="M59.3808 112.013C59.3808 112.317 59.1969 113.504 58.921 115.281V115.382C58.8566 115.792 58.7922 116.238 58.7233 116.708C58.7207 116.723 58.7207 116.738 58.7233 116.754C58.7208 116.769 58.7208 116.784 58.7233 116.8C58.4566 118.558 58.1255 120.693 57.7623 123.013C57.7025 123.399 57.6381 123.786 57.5783 124.177C57.2243 126.409 56.8886 128.499 56.5897 130.294H56.3828C56.6587 128.485 56.9852 126.382 57.3392 124.136C57.4404 123.492 57.5415 122.861 57.6427 122.244C57.9646 120.224 58.2681 118.364 58.5255 116.8C58.5277 116.784 58.5277 116.769 58.5255 116.754C58.5255 116.754 58.5255 116.721 58.5255 116.708C58.9854 113.808 59.3348 111.939 59.3762 111.939C59.4176 111.939 59.3854 111.967 59.3808 112.013Z" fill="#455A64"/>
<path d="M48.6172 45.2266C48.7972 45.321 48.9681 45.4319 49.1276 45.5579L50.4794 46.4784C51.6244 47.2608 53.2383 48.3194 55.0776 49.3641C55.7673 49.76 56.457 50.1281 57.064 50.4595L56.8984 50.5332C57.2847 49.0098 57.625 47.6981 57.8779 46.7684C57.9974 46.3403 58.0986 45.9768 58.1813 45.6868C58.2098 45.5529 58.2545 45.4231 58.3147 45.3002C58.3119 45.4372 58.2918 45.5733 58.2549 45.7052C58.1905 45.9998 58.1078 46.368 58.0158 46.8052C57.8043 47.7257 57.4916 49.0604 57.1238 50.5884L57.087 50.7311L56.9582 50.662C56.3283 50.3399 55.6524 49.9717 54.958 49.5759C53.3835 48.6731 51.8592 47.6852 50.3921 46.6165C49.8265 46.2069 49.3851 45.8571 49.0816 45.6132C48.914 45.5006 48.7583 45.371 48.6172 45.2266Z" fill="#263238"/>
<path d="M63.8147 48.6186C63.1705 49.126 62.4913 49.5873 61.7823 49.9993L61.6812 50.0637L61.6214 49.9533C61.4283 49.5759 61.2214 49.1709 61.0007 48.7474C60.5409 47.827 60.1086 46.9525 59.8143 46.3266C59.6323 45.9991 59.4888 45.6516 59.3867 45.291C59.6117 45.5897 59.8059 45.9104 59.9661 46.2483C60.2972 46.8558 60.7386 47.6981 61.2168 48.637C61.4283 49.0665 61.6306 49.4716 61.8237 49.852L61.6628 49.8106C62.3473 49.3567 63.0669 48.9581 63.8147 48.6186Z" fill="#263238"/>
<path d="M60.8208 48.168C60.6956 48.2857 60.5602 48.392 60.4161 48.4855C60.1586 48.6696 59.8 48.9458 59.4 49.1989C58.9999 49.452 58.6367 49.7144 58.37 49.8847C58.2275 49.9899 58.0732 50.0779 57.9102 50.147C58.0365 50.0307 58.1718 49.9245 58.3148 49.8294C58.5723 49.6453 58.9309 49.3692 59.331 49.1161C59.731 48.8629 60.0897 48.6006 60.3564 48.4303C60.5029 48.329 60.6583 48.2411 60.8208 48.168Z" fill="#263238"/>
<path d="M59.4406 49.1214C59.1123 48.8672 58.8048 48.5871 58.521 48.2838C58.2214 47.9992 57.9446 47.6914 57.6934 47.3633C58.0225 47.62 58.33 47.9032 58.613 48.2101C58.9117 48.4923 59.1884 48.7969 59.4406 49.1214Z" fill="#263238"/>
<path d="M50.7595 89.9492C50.8923 91.0996 51.2123 92.2206 51.7067 93.2676C52.2718 94.2771 52.9953 95.1893 53.8495 95.9692C53.534 95.82 53.2475 95.6159 53.0034 95.3663C52.386 94.7962 51.8738 94.1216 51.4906 93.3734C51.1052 92.6274 50.8561 91.8185 50.7549 90.9848C50.6922 90.6423 50.6937 90.2911 50.7595 89.9492Z" fill="#263238"/>
<path d="M53.4303 96.0115C52.6651 95.9869 51.9159 95.7853 51.2416 95.4224C50.5373 95.1321 49.9083 94.6851 49.4023 94.1153C49.4483 94.0555 50.2392 94.686 51.3566 95.2061C52.4739 95.7261 53.4625 95.9424 53.4303 96.0115Z" fill="#263238"/>
<path d="M62.4199 81.2832C62.494 81.4408 62.551 81.6059 62.5901 81.7757C62.682 82.0978 62.8062 82.5673 62.9487 83.1564C63.2292 84.3208 63.5649 85.9455 63.8316 87.7588C64.0982 89.5722 64.25 91.2198 64.319 92.4165C64.3511 93.0148 64.3695 93.498 64.3741 93.834C64.3936 94.0084 64.3936 94.1844 64.3741 94.3587C64.3254 94.1896 64.3007 94.0146 64.3006 93.8386C64.2638 93.4566 64.2178 92.9872 64.1672 92.4303C64.0569 91.2383 63.8821 89.5952 63.6154 87.791C63.3487 85.9869 63.0407 84.3668 62.8016 83.1886C62.6866 82.6455 62.5947 82.1807 62.5165 81.8079C62.4596 81.6384 62.4271 81.4618 62.4199 81.2832Z" fill="#263238"/>
<path d="M59.3531 52.3145C58.7599 57.0964 58.3139 67.5025 58.1483 72.3304C58.0104 76.3621 58.0288 80.3985 58.0426 84.4348C58.0426 85.7327 58.0426 87.0766 58.5944 88.264C59.5554 90.3903 61.905 91.4627 64.0662 92.351L59.3531 52.3145Z" fill="#E0E0E0"/>
<path d="M64.7294 91.6618L67.1986 85.6004L61.0095 51.6621L59.207 51.8462C59.207 51.8462 59.4599 87.1192 59.3818 87.4368L64.7294 91.6618Z" fill="#1D996C"/>
<path d="M60.945 51.6665C60.6685 51.7553 60.3802 51.8018 60.0898 51.8045C59.8017 51.8479 59.5088 51.8479 59.2207 51.8045C59.5048 51.7555 59.7923 51.7294 60.0806 51.7263C60.3666 51.6827 60.6557 51.6627 60.945 51.6665Z" fill="#263238"/>
</g>
<defs>
<clipPath id="clip0_1_846">
<rect width="168" height="128" fill="white"/>
</clipPath>
</defs>
</svg>
