<svg width="56" height="56" viewBox="0 0 56 56" fill="none" xmlns="http://www.w3.org/2000/svg">
<g clip-path="url(#clip0_1_36)">
<path d="M35.7327 5.91242L35.4739 5.85202C35.514 5.73596 35.561 5.62231 35.6145 5.51161C36.8629 3.28237 35.8097 0.808225 33.3096 0.0988225C33.2439 0.0728579 33.1814 0.0397158 33.1233 0H31.7845C29.8322 0.549073 28.7378 2.17213 27.3901 3.46465C26.8245 4.00603 26.3615 4.65942 25.9007 5.29635C25.798 5.45384 25.663 5.58846 25.5043 5.69153C25.3456 5.7946 25.1667 5.86387 24.9792 5.89486C22.9617 6.28206 21.006 6.93395 19.1646 7.83308C18.7786 8.02086 18.5119 7.99561 18.1605 7.75951C16.9556 6.94359 15.7441 6.13645 14.5046 5.37434C13.9417 5.0169 13.2982 4.80117 12.6306 4.74617C11.9631 4.69118 11.2921 4.7986 10.6767 5.05897C10.0613 5.31933 9.52032 5.72465 9.10149 6.23924C8.68267 6.75382 8.39882 7.3619 8.27494 8.00989C8.09309 8.88841 8.23032 9.74934 8.64533 10.6268C7.39694 10.999 6.42412 11.6931 5.86184 12.8648C5.29956 14.0365 5.34865 15.2258 5.90647 16.4535C4.64804 16.8181 3.67521 17.5198 3.1174 18.6915C2.55959 19.8633 2.62764 21.0591 3.15979 22.2605C3.00584 22.3198 2.87196 22.3704 2.73808 22.4209C1.19852 22.9919 0.264745 24.0878 0.038273 25.6758C-0.184852 27.2439 0.393042 28.5518 1.69721 29.494C2.50269 30.076 3.37065 30.5757 4.17836 31.15C4.37653 31.3127 4.50713 31.5413 4.5454 31.7924C4.58408 32.0758 4.62126 32.3591 4.65696 32.6424C4.73617 33.2947 4.80534 33.9481 4.88009 34.6015C4.87955 34.6048 4.87955 34.6081 4.88009 34.6114C4.92918 34.9255 4.98385 35.2373 5.04409 35.547C5.28545 36.7814 5.62109 37.9961 6.04815 39.1808C6.15674 39.4831 6.27091 39.7829 6.39065 40.0801C7.30483 42.2061 8.46533 44.221 9.8491 46.0848L9.87587 46.1189C12.5813 49.5953 16.156 52.3221 20.2512 54.0332C20.2547 54.0361 20.2589 54.038 20.2635 54.0387C22.4799 54.8989 24.7967 55.4832 27.1603 55.7782C29.206 56.0472 31.2774 56.0693 33.3286 55.8441L33.5227 55.821C44.3844 54.5395 53.4668 46.3769 55.5351 35.4295C58.1245 21.7246 49.5542 9.06739 35.7327 5.91242ZM20.481 9.08058L24.3422 7.76281L24.2161 8.07466L23.057 10.9298L20.5926 9.31997L20.481 9.24531V9.08058ZM4.63912 29.326L2.85411 28.1576C1.71617 27.4119 1.4395 26.0151 2.16912 24.9444C2.882 23.899 4.27877 23.6266 5.40444 24.3217L5.43344 24.3393C5.97229 24.6688 6.4944 25.0333 7.02767 25.3749L7.06225 25.3957C7.63346 25.7471 8.13772 25.69 8.44006 25.2442C8.74239 24.7984 8.58955 24.3119 7.99381 23.9198L7.55648 23.6343C7.02544 23.2895 6.49217 22.9502 5.96671 22.5977C5.8254 22.5047 5.68483 22.4099 5.54501 22.3133C4.45504 21.5621 4.18729 20.1785 4.90129 19.1286C5.56062 18.159 6.81347 17.8515 7.89228 18.3687C7.9774 18.409 8.06009 18.4541 8.13995 18.5038C8.58063 18.775 9.01014 19.0649 9.44301 19.3483L9.81004 19.5843C10.3679 19.9358 10.8777 19.8721 11.1745 19.4295C11.4712 18.987 11.3407 18.5093 10.7806 18.137C10.6416 18.0433 10.5017 17.9514 10.3612 17.8614C9.85132 17.5253 9.33702 17.2025 8.82829 16.8609L8.38204 16.5622C7.20506 15.7727 6.89826 14.4176 7.63346 13.3216C8.36865 12.2257 9.76765 11.9819 10.9569 12.7341C11.228 12.9054 11.4958 13.0811 11.7635 13.2557C12.0815 13.4644 12.3983 13.6719 12.7218 13.8718C13.0721 14.0914 13.4961 14.098 13.7259 13.7741C13.9122 13.5171 13.9725 13.1152 13.9546 12.7934C13.9446 12.6188 13.6723 12.4288 13.4805 12.2981C13.3399 12.2037 13.1993 12.1093 13.0576 12.017C12.3537 11.5525 11.6374 11.1055 10.9458 10.6224C10.1213 10.0447 9.83013 9.21234 10.0421 8.26244C10.2496 7.33012 10.8777 6.747 11.8371 6.52846C12.5589 6.36264 13.1759 6.58227 13.775 6.96772C14.8646 7.67932 15.9549 8.39057 17.046 9.10144C17.6172 9.47481 18.1884 9.84707 18.7596 10.2182C20.0917 11.0865 21.4241 11.954 22.7569 12.8209C23.6059 13.3699 24.1046 13.2173 24.4571 12.2937C24.717 11.6129 24.9837 10.9331 25.2291 10.2468C25.5581 9.32868 25.9762 8.44387 26.4775 7.60465C26.8936 6.90845 27.358 6.24139 27.8676 5.60823C28.8803 4.36758 30.0058 3.2204 31.2301 2.18092C31.8559 1.63843 32.7038 1.5989 33.4089 1.99094C33.7547 2.17443 34.0312 2.46265 34.1976 2.81293C34.364 3.16321 34.4113 3.55692 34.3326 3.93575C34.249 4.33109 34.0247 4.70995 33.8105 5.06575C33.6856 5.2744 33.5662 5.48304 33.4535 5.69389C33.1518 6.25331 32.8908 6.83313 32.6726 7.42897C31.8959 9.53426 31.7412 11.8131 32.2263 14.0014C32.9872 17.544 33.854 21.0658 34.6952 24.5919C34.741 24.7545 34.7481 24.9252 34.7159 25.0909C34.6838 25.2566 34.6134 25.4127 34.51 25.5473C31.7619 29.6112 29.0211 33.6805 26.2879 37.7554C25.8807 38.3605 25.4723 38.9633 25.0428 39.6014C24.7081 39.3817 24.3924 39.1961 24.0934 38.9886C22.787 38.0859 21.3367 37.7719 19.7692 37.9882C18.7887 38.1348 17.788 37.9112 16.9679 37.3622C13.4559 35.0774 9.94578 32.7903 6.43751 30.501L4.63912 29.326ZM37.2623 24.5963C37.6215 24.0615 37.9038 24.0132 38.466 24.3766C39.3028 24.9147 40.1395 25.4605 40.9684 26.0019L43.5845 27.704C43.5774 27.7567 43.5639 27.8083 43.5444 27.8578C43.2811 28.2542 43.0133 28.6473 42.7512 29.0449C42.7142 29.1005 42.6804 29.1581 42.6496 29.2173L40.7252 32.0494C40.6058 32.1865 40.4987 32.3335 40.405 32.4887C37.3556 36.9662 34.304 41.4441 31.2502 45.9223C31.1386 46.0848 31.0203 46.243 30.8775 46.4439C29.1082 45.2876 27.3644 44.1598 25.6341 43.0089C25.1957 42.7168 25.3228 42.3336 25.5772 41.9569C29.4774 36.1704 33.3725 30.3835 37.2623 24.5963ZM30.2561 54.2155C17.7555 54.2155 7.50404 44.7407 6.51002 32.6918C6.62093 32.7431 6.72894 32.8003 6.83355 32.8631C9.79777 34.7915 12.7687 36.7066 15.7218 38.657C17.0203 39.5124 18.4104 39.955 19.9712 39.7167C21.5576 39.474 22.816 40.1208 23.9116 41.0037C23.8 41.6077 23.5936 42.1699 23.6104 42.7256C23.636 43.5854 24.1816 44.1773 24.9056 44.6463C28.9553 47.2701 32.9995 49.9031 37.038 52.5452C37.2467 52.6803 37.4508 52.822 37.7632 53.0317C35.3425 53.8195 32.809 54.2192 30.2595 54.2155H30.2561ZM53.8438 34.8826C53.8438 34.9057 53.8438 34.9287 53.8371 34.954V34.9859C53.8371 34.9979 53.8371 35.0111 53.8371 35.0243C53.8304 35.0748 53.8215 35.1286 53.8104 35.1857C53.8037 35.2242 53.7947 35.2637 53.7858 35.3054C53.7858 35.3263 53.7769 35.3471 53.7713 35.3691C53.7602 35.4229 53.7468 35.4789 53.7323 35.5404C53.7178 35.6019 53.7033 35.6645 53.6865 35.7315C51.8547 43.2772 47.3884 48.7398 40.2879 52.1191C40.2251 52.1499 40.1593 52.1742 40.0915 52.1916C40.0739 52.1963 40.056 52.2 40.038 52.2026L39.9911 52.2092H39.9677H39.9097C39.8922 52.2108 39.8747 52.2108 39.8572 52.2092H39.8316H39.8059C39.7885 52.2058 39.7714 52.2014 39.7546 52.196C39.7254 52.1869 39.6967 52.1762 39.6687 52.1642L39.6029 52.1312L39.5538 52.1038C39.5315 52.0906 39.5091 52.0774 39.4868 52.062C37.5825 50.8036 35.6647 49.5626 33.7525 48.3151C33.3063 48.0252 32.86 47.7331 32.3892 47.4191C32.522 47.2159 32.628 47.049 32.7395 46.8854C35.7108 42.5235 38.6813 38.1621 41.6511 33.8009L41.7627 33.6373L42.036 33.2387L44.438 29.7367H44.4279C44.6511 29.4073 44.8809 29.0657 45.1174 28.7187C45.3461 28.8615 45.5179 28.9647 45.6853 29.0734C48.0653 30.6182 50.4453 32.1632 52.8253 33.7087C52.9926 33.8185 53.1365 33.9097 53.2581 33.9931L53.3574 34.0612C53.421 34.1062 53.4768 34.1491 53.527 34.1897L53.5817 34.2369C53.5981 34.2507 53.6137 34.2654 53.6285 34.2809L53.6709 34.3237C53.6934 34.3476 53.7143 34.3729 53.7334 34.3994C53.7366 34.4026 53.7392 34.4064 53.7412 34.4104C53.7614 34.4381 53.7789 34.4675 53.7936 34.4983C53.8002 34.5093 53.8055 34.5211 53.8092 34.5334L53.8226 34.5697C53.8317 34.5927 53.8384 34.6166 53.8427 34.641C53.8486 34.6693 53.8527 34.6979 53.855 34.7267C53.855 34.7377 53.855 34.7497 53.855 34.7607C53.8551 34.8015 53.8525 34.8422 53.8472 34.8826H53.8438ZM54.0223 32.414C53.8316 32.2954 53.6943 32.2108 53.5593 32.123C48.8551 29.0562 44.1509 25.9877 39.4467 22.9172C38.8487 22.5263 38.2117 22.2869 37.5122 22.4483C37.0403 22.5581 36.6041 22.814 36.1266 23.0161C35.6457 20.9603 35.1225 18.8771 34.6763 16.7797C34.3181 15.1105 33.9478 13.4325 33.7648 11.7392C33.6175 10.3665 33.9288 9.01579 34.4777 7.67605C45.6228 9.63624 54.0815 19.2253 54.0815 30.7591C54.0837 31.318 54.0636 31.8693 54.0257 32.414H54.0223Z" fill="#1D996C"/>
</g>
<defs>
<clipPath id="clip0_1_36">
<rect width="56" height="56" fill="white"/>
</clipPath>
</defs>
</svg>
