<svg width="52" height="52" viewBox="0 0 52 52" fill="none" xmlns="http://www.w3.org/2000/svg">
<path d="M44.25 8.75001C40.7394 5.23939 36.2666 2.84863 31.3972 1.88005C26.5279 0.911471 21.4806 1.40858 16.8938 3.30851C12.3069 5.20845 8.38649 8.42587 5.62822 12.5539C2.86995 16.682 1.39772 21.5352 1.39772 26.5C1.39772 31.4648 2.86995 36.318 5.62822 40.4461C8.3865 44.5741 12.3069 47.7916 16.8938 49.6915C21.4806 51.5914 26.5279 52.0885 31.3972 51.12C36.2666 50.1514 40.7394 47.7606 44.25 44.25C48.9509 39.5389 51.5911 33.1553 51.5911 26.5C51.5911 19.8447 48.9509 13.4611 44.25 8.75001ZM30.9375 33.8958L26.5 29.4583L22.0625 33.8958C21.6702 34.2881 21.1381 34.5085 20.5833 34.5085C20.0285 34.5085 19.4965 34.2881 19.1042 33.8958C18.7119 33.5035 18.4915 32.9715 18.4915 32.4167C18.4915 31.8619 18.7119 31.3298 19.1042 30.9375L23.5417 26.5L19.1042 22.0625C18.7119 21.6702 18.4915 21.1381 18.4915 20.5833C18.4915 20.0285 18.7119 19.4965 19.1042 19.1042C19.4965 18.7119 20.0285 18.4915 20.5833 18.4915C21.1381 18.4915 21.6702 18.7119 22.0625 19.1042L26.5 23.5417L30.9375 19.1042C31.3298 18.7119 31.8619 18.4915 32.4167 18.4915C32.9715 18.4915 33.5035 18.7119 33.8958 19.1042C34.2881 19.4965 34.5085 20.0285 34.5085 20.5833C34.5085 21.1381 34.2881 21.6702 33.8958 22.0625L29.4583 26.5L33.8958 30.9375C34.2881 31.3298 34.5085 31.8619 34.5085 32.4167C34.5085 32.9715 34.2881 33.5035 33.8958 33.8958C33.5035 34.2881 32.9715 34.5085 32.4167 34.5085C31.8619 34.5085 31.3298 34.2881 30.9375 33.8958Z" fill="#DD2A1B"/>
</svg>
