<svg width="36" height="36" viewBox="0 0 36 36" fill="none" xmlns="http://www.w3.org/2000/svg">
<path d="M28.0662 12.315C27.9267 12.1744 27.7608 12.0629 27.5781 11.9867C27.3953 11.9105 27.1992 11.8713 27.0012 11.8713C26.8032 11.8713 26.6071 11.9105 26.4243 11.9867C26.2415 12.0629 26.0756 12.1744 25.9362 12.315L19.0662 19.185C18.9267 19.3256 18.7608 19.4372 18.5781 19.5134C18.3953 19.5895 18.1992 19.6287 18.0012 19.6287C17.8032 19.6287 17.6071 19.5895 17.4243 19.5134C17.2415 19.4372 17.0756 19.3256 16.9362 19.185L10.0662 12.315C9.92674 12.1744 9.76084 12.0629 9.57805 11.9867C9.39527 11.9105 9.19921 11.8713 9.00119 11.8713C8.80317 11.8713 8.60711 11.9105 8.42432 11.9867C8.24153 12.0629 8.07563 12.1744 7.93619 12.315C7.65681 12.5961 7.5 12.9763 7.5 13.3725C7.5 13.7688 7.65681 14.149 7.93619 14.43L14.8212 21.315C15.6649 22.1577 16.8087 22.6311 18.0012 22.6311C19.1937 22.6311 20.3374 22.1577 21.1812 21.315L28.0662 14.43C28.3456 14.149 28.5024 13.7688 28.5024 13.3725C28.5024 12.9763 28.3456 12.5961 28.0662 12.315Z" fill="#3D4B55"/>
</svg>
