<svg width="52" height="52" viewBox="0 0 52 52" fill="none" xmlns="http://www.w3.org/2000/svg">
<g clip-path="url(#clip0_2026_6781)">
<path d="M26 0C11.6632 0 0 11.6632 0 26C0 40.3368 11.6632 52 26 52C40.3368 52 52 40.3368 52 26C52 11.6632 40.3368 0 26 0ZM39.4333 22.776L29.8437 32.1902C28.1472 33.8542 25.9632 34.684 23.777 34.684C21.6147 34.684 19.4523 33.8693 17.7623 32.2378L13.6478 28.1927C12.7942 27.3542 12.7833 25.9827 13.6218 25.129C14.4582 24.2732 15.834 24.2623 16.6855 25.103L20.787 29.1352C22.4683 30.7602 25.1225 30.7515 26.8125 29.0962L36.4 19.6842C37.2515 18.8435 38.6187 18.8587 39.4637 19.7123C40.3022 20.566 40.2892 21.9375 39.4333 22.776Z" fill="#1D996C"/>
</g>
<defs>
<clipPath id="clip0_2026_6781">
<rect width="52" height="52" fill="white"/>
</clipPath>
</defs>
</svg>
