<svg width="1170" height="62" viewBox="0 0 1170 62" fill="none" xmlns="http://www.w3.org/2000/svg">
<rect width="1170" height="62" fill="#1E1E1E"/>
<rect y="-118" width="1170" height="272" fill="#FCFCFC"/>
<path d="M30 2.5H430.949C436.191 2.50005 441.314 3.98393 445.861 6.68457L446.3 6.94922C457.434 13.8103 479.595 26.7822 505.169 38.0459C530.678 49.281 559.875 58.9502 585 58.9502C610.125 58.9502 639.322 49.281 664.831 38.0459C688.806 27.4863 709.781 15.4253 721.484 8.30566L723.7 6.94922C728.356 4.08073 733.64 2.50005 739.051 2.5H1140C1155.19 2.5 1167.5 14.8122 1167.5 30V1393C1167.5 1408.19 1155.19 1420.5 1140 1420.5H30C14.8122 1420.5 2.5 1408.19 2.5 1393V30C2.5 14.8122 14.8122 2.5 30 2.5Z" fill="#EBECEC" stroke="#1D996C" stroke-width="5"/>
</svg>
