<svg width="76" height="76" viewBox="0 0 76 76" fill="none" xmlns="http://www.w3.org/2000/svg">
<path d="M31.017 26.2266C31.017 26.2266 29.9016 26.6452 28.2286 28.0402C26.6252 29.4353 24.5339 32.0858 23.9065 35.992C23.6276 37.945 23.6276 40.1074 24.3945 42.3394C25.0916 44.5018 26.4161 46.7338 28.368 48.4079C29.3439 49.3147 30.4593 50.0122 31.7141 50.5702C32.9689 51.1282 34.2934 51.5467 35.6876 51.756C38.476 52.1745 41.5433 51.6165 44.1923 50.2214C46.8413 48.7566 48.9326 46.5246 50.048 43.9437C50.6754 42.6882 51.024 41.2932 51.2331 39.9679C51.4422 38.6426 51.3725 37.2475 51.1634 35.992C50.8148 33.4111 49.6298 31.1093 48.1658 29.3655C46.7019 27.5519 44.8894 26.3662 43.0769 25.5989C39.452 24.0643 36.1059 24.3433 34.0843 24.9711C31.9929 25.5291 31.017 26.2266 31.017 26.2266C31.0867 26.2964 32.0626 25.6686 34.154 25.1804C36.1756 24.6921 39.3823 24.4828 42.8678 26.0174C44.5409 26.7847 46.2836 27.9705 47.6779 29.7143C49.0024 31.4581 50.1177 33.6204 50.4663 36.0617C50.6754 37.2475 50.6754 38.5728 50.4663 39.8283C50.3269 41.0839 49.9086 42.4092 49.3509 43.595C48.2355 46.0363 46.2836 48.1289 43.774 49.5239C41.2645 50.8492 38.4063 51.4072 35.7573 50.9887C34.4328 50.8492 33.178 50.4307 31.9929 49.8727C30.8078 49.3147 29.7622 48.6869 28.8559 47.8499C26.9738 46.2456 25.719 44.153 25.0219 42.0604C24.3247 39.9679 24.255 37.8753 24.4642 35.992C25.0219 32.2253 26.904 29.6445 28.4377 28.1797C29.9713 26.8544 31.017 26.3661 31.017 26.2266Z" fill="#1D996C"/>
<path d="M16.5901 15.4153C16.5901 15.4153 16.5902 15.2758 16.5204 14.927C16.4507 14.5782 16.3113 14.1597 16.1719 13.5319C15.8233 12.2764 15.3354 10.4628 14.6382 8.02151L14.5685 8.16102C17.4267 6.62647 21.1214 4.60365 25.5829 2.16232L25.3737 2.09257C26.9073 3.83638 28.5804 5.71969 30.3929 7.81226L30.4626 7.88201H30.602C33.1116 7.25424 35.8303 6.97522 38.6885 7.04498H38.8279L38.8976 6.90547C40.0827 4.8129 41.2678 2.58083 42.5923 0.279005L42.2437 0.418507C46.0081 1.53454 50.0513 2.72034 54.3037 3.97588L54.0946 3.69687C53.9552 6.06845 53.8157 8.64928 53.6066 11.2999V11.5091L53.746 11.5789C55.9071 12.9042 58.1378 14.5782 60.0897 16.6708L60.2291 16.8103L60.4383 16.7406C62.669 16.1128 65.1786 15.4153 67.7579 14.648L67.3396 14.5085C69.2218 17.9961 71.2434 21.693 73.3348 25.5293L73.4045 25.1108C71.6617 26.6454 69.7098 28.3892 67.6882 30.133L67.5488 30.2725L67.6185 30.4818C68.2459 32.9231 68.5944 35.7132 68.455 38.5033V38.7125L68.6641 38.852C70.7555 40.0378 72.9862 41.2934 75.2867 42.5489L75.0775 42.1304C73.9622 45.9668 72.7771 50.0124 71.592 54.1975L72.0103 53.9185C69.6401 53.779 67.0608 53.6395 64.4118 53.4303H64.2027L64.0632 53.6395C62.7387 55.8716 60.996 58.0339 59.0441 59.9172C58.9743 60.0567 59.1138 59.4987 58.9046 60.3357V60.4055V60.545L58.9743 60.7543L59.1137 61.2425L59.3926 62.1493L59.9503 63.9629C60.2988 65.1487 60.6474 66.4042 60.9959 67.59L61.2051 67.1715C57.5104 69.1943 53.8157 71.2171 50.1908 73.2399L50.6788 73.3097C49.0057 71.4264 47.3326 69.4733 45.6596 67.6597L45.5201 67.5202L45.311 67.59C42.662 68.2178 39.9433 68.5665 37.2943 68.4968H37.0851L36.9457 68.706C35.6909 70.9381 34.5058 73.1702 33.251 75.3325L33.6693 75.1232C29.5564 73.9374 25.5131 72.7517 21.6093 71.6356L21.8882 71.9844C22.0276 69.4035 22.167 66.8925 22.3064 64.3814V64.1721L22.0973 64.0326C19.7271 62.6376 17.6358 60.8938 15.7536 58.9407L15.6142 58.8012L15.4051 58.8709C12.8955 59.5685 10.4556 60.266 8.08543 60.9635L8.43398 61.103C6.27295 57.2666 4.32104 53.5698 2.36913 50.0822L2.29942 50.4309C4.32103 48.6871 6.13352 47.013 7.946 45.4087L8.08543 45.2692L8.01572 45.1297C7.3186 42.3396 7.03977 39.6193 7.10948 37.0385V36.899L6.97005 36.8292C4.53017 35.5039 2.36914 34.3181 0.347527 33.2021L0.486954 33.4811C1.81146 28.8077 2.99654 24.8318 3.9725 21.414L3.76335 21.5535C6.76092 21.693 9.2705 21.8325 11.3618 21.972H11.4315L11.5013 21.9022C12.8955 19.5306 14.22 17.9263 15.1262 16.9498C15.5445 16.4615 15.893 16.1128 16.1719 15.8338C16.5204 15.5548 16.6599 15.4153 16.5901 15.4153C16.5901 15.4153 16.4507 15.5548 16.1719 15.764C15.893 15.9733 15.5445 16.322 15.0565 16.8103C14.1503 17.7868 12.7561 19.3911 11.2921 21.7627L11.4315 21.693C9.34022 21.5535 6.90034 21.414 3.83307 21.2047H3.69363L3.62394 21.3442C2.64799 24.7621 1.4629 28.7379 0.0686874 33.4114L-0.00102997 33.6206L0.138397 33.6904C2.16001 34.8064 4.32105 36.0619 6.76093 37.3872L6.6215 37.178C6.55179 39.7588 6.76091 42.5489 7.52773 45.4087L7.59744 45.1297C5.78497 46.734 3.90279 48.4081 1.88117 50.1519L1.67203 50.2914L1.81145 50.5007C3.69365 53.9883 5.71526 57.6154 7.80659 61.5215L7.946 61.7308L8.22484 61.661C10.595 60.9635 13.0349 60.266 15.5445 59.5685L15.1959 59.4987C17.0781 61.4518 19.2392 63.1956 21.679 64.6604L21.5396 64.3116C21.4002 66.8227 21.2608 69.3338 21.0517 71.9146V72.1936L21.3305 72.2634C25.2343 73.3794 29.2775 74.5652 33.3905 75.8208L33.6693 75.8905L33.8087 75.6115C34.9938 73.4492 36.2486 71.2171 37.5034 68.985L37.1548 69.1943C39.8736 69.264 42.662 68.985 45.3807 68.2875L45.0322 68.148C46.7052 70.0313 48.3783 71.9146 50.0513 73.8677L50.2605 74.077L50.5393 73.9374C54.1643 71.9844 57.859 69.9616 61.5536 67.869L61.8325 67.7295L61.7628 67.4505C61.4142 66.2647 61.0657 65.0091 60.7171 63.8234L60.1594 62.0098L59.8806 61.103L59.7412 60.6147L59.6714 60.4055V60.266V60.1962C59.4623 60.9635 59.6017 60.4055 59.6017 60.6147C61.6931 58.6617 63.4358 56.4296 64.7603 54.1278L64.4118 54.337C66.9911 54.4765 69.5704 54.6858 72.0103 54.8253H72.2891L72.3588 54.5463C73.5439 50.4309 74.729 46.3155 75.8443 42.4791L75.9141 42.2001L75.6352 42.0606C73.3348 40.8051 71.104 39.5496 69.0127 38.3638L69.2218 38.7125C69.2915 35.8527 68.943 32.9928 68.3156 30.4818L68.1762 30.8305C70.1281 29.0867 72.08 27.3429 73.8227 25.8084L74.0319 25.5991L73.8925 25.3201C71.8011 21.4837 69.7098 17.7868 67.8276 14.2992L67.6882 14.09L67.4094 14.1597C64.8998 14.8572 62.3902 15.6245 60.0897 16.2523L60.4383 16.322C58.4167 14.2295 56.1859 12.4857 53.9552 11.1604L54.0946 11.4394C54.234 8.78879 54.3734 6.20796 54.5128 3.83638V3.62712L54.3037 3.55736C50.0513 2.30182 46.0081 1.18578 42.2437 0.0697459L42.0346 0L41.8952 0.209259C40.6404 2.51109 39.3856 4.81291 38.2005 6.83573L38.4096 6.69622C35.4818 6.62646 32.6933 6.97523 30.1838 7.603L30.3929 7.67275C28.5804 5.64994 26.9073 3.69687 25.3737 2.02281L25.2343 1.88331L25.0949 1.95307C20.6334 4.46415 16.9387 6.48696 14.1503 8.09126L14.0806 8.16102V8.23077C14.7777 10.6024 15.3354 12.3462 15.6839 13.6017C15.893 14.1597 16.0325 14.648 16.1022 14.9967C16.5204 15.206 16.5901 15.4153 16.5901 15.4153Z" fill="#1D996C"/>
</svg>
