<svg width="104" height="104" viewBox="0 0 104 104" fill="none" xmlns="http://www.w3.org/2000/svg">
<path d="M42.4686 35.9031C42.4686 35.9031 40.9417 36.476 38.6514 38.3857C36.4565 40.2955 33.5936 43.924 32.7347 49.2713C32.353 51.945 32.353 54.9051 33.4027 57.9607C34.357 60.9208 36.1702 63.9764 38.8423 66.2681C40.1783 67.5095 41.7052 68.4643 43.4229 69.2282C45.1407 69.9921 46.9539 70.5651 48.8625 70.8515C52.6797 71.4245 56.8787 70.6606 60.505 68.7508C64.1314 66.7456 66.9943 63.69 68.5212 60.1569C69.3801 58.4381 69.8573 56.5284 70.1435 54.7141C70.4298 52.8999 70.3344 50.9901 70.0481 49.2713C69.571 45.7383 67.9486 42.5872 65.9446 40.2C63.9406 37.7173 61.4593 36.094 58.9781 35.0437C54.0157 32.9429 49.4351 33.3249 46.6676 34.1843C43.8047 34.9482 42.4686 35.9031 42.4686 35.9031C42.5641 35.9985 43.9001 35.1392 46.763 34.4707C49.5305 33.8023 53.9203 33.5159 58.6919 35.6166C60.9822 36.667 63.368 38.2902 65.2766 40.6774C67.0898 43.0646 68.6166 46.0247 69.0938 49.3668C69.3801 50.9901 69.3801 52.8044 69.0938 54.5231C68.9029 56.2419 68.3304 58.0562 67.5669 59.6795C66.04 63.0215 63.368 65.8862 59.9324 67.7959C56.4969 69.6102 52.5843 70.3741 48.9579 69.8012C47.1447 69.6102 45.427 69.0373 43.8047 68.2734C42.1823 67.5095 40.7509 66.6501 39.5103 65.5042C36.9336 63.308 35.2159 60.4434 34.2616 57.5788C33.3073 54.7141 33.2119 51.8495 33.4982 49.2713C34.2616 44.115 36.8382 40.582 38.9377 38.5767C41.0372 36.7624 42.4686 36.094 42.4686 35.9031Z" fill="#1D996C"/>
<path d="M22.7141 21.1028C22.7141 21.1028 22.7142 20.9118 22.6187 20.4343C22.5233 19.9569 22.3324 19.384 22.1416 18.5246C21.6644 16.8058 20.9964 14.3231 20.0421 10.9811L19.9467 11.172C23.8593 9.07132 28.9172 6.30217 35.0247 2.96011L34.7384 2.86463C36.8379 5.25182 39.1283 7.82998 41.6095 10.6946L41.7049 10.7901H41.8957C45.3313 9.93071 49.0531 9.54875 52.9657 9.64424H53.1566L53.252 9.45327C54.8743 6.58864 56.4967 3.53304 58.3099 0.381945L57.8327 0.572917C62.986 2.10072 68.5209 3.72401 74.3422 5.44279L74.0559 5.06085C73.8651 8.30742 73.6742 11.8405 73.3879 15.469V15.7555L73.5788 15.8509C76.5371 17.6652 79.5909 19.9569 82.263 22.8215L82.4538 23.0125L82.7402 22.917C85.7939 22.0576 89.2295 21.1028 92.7604 20.0524L92.1878 19.8614C94.7644 24.6358 97.5319 29.6966 100.395 34.9485L100.49 34.3755C98.1045 36.4763 95.4324 38.8635 92.665 41.2506L92.4741 41.4416L92.5695 41.7281C93.4284 45.0701 93.9056 48.8896 93.7147 52.7092V52.9956L94.001 53.1866C96.8639 54.8099 99.9177 56.5287 103.067 58.2474L102.781 57.6745C101.254 62.9263 99.6314 68.4646 98.0091 74.1939L98.5816 73.8119C95.337 73.6209 91.8061 73.43 88.1797 73.1435H87.8934L87.7025 73.43C85.8894 76.4856 83.5036 79.4457 80.8315 82.0238C80.7361 82.2148 80.927 81.4509 80.6407 82.5968V82.6923V82.8832L80.7361 83.1697L80.9269 83.8381L81.3087 85.0794L82.0721 87.5621C82.5493 89.1854 83.0264 90.9042 83.5036 92.5275L83.7899 91.9546C78.732 94.7237 73.6742 97.4928 68.7118 100.262L69.3798 100.357C67.0895 97.7793 64.7991 95.1057 62.5088 92.623L62.3179 92.432L62.0317 92.5275C58.4053 93.3869 54.6835 93.8643 51.0571 93.7688H50.7708L50.58 94.0553C48.8622 97.1109 47.2399 100.166 45.5221 103.127L46.0947 102.84C40.4643 101.217 34.9293 99.5936 29.5852 98.0658L29.9669 98.5432C30.1578 95.0102 30.3486 91.5726 30.5395 88.1351V87.8486L30.2532 87.6576C27.0086 85.7479 24.1456 83.3607 21.569 80.687L21.3781 80.4961L21.0918 80.5915C17.6563 81.5464 14.3162 82.5013 11.0716 83.4562L11.5488 83.6471C8.5904 78.3953 5.91832 73.3345 3.24626 68.5601L3.15082 69.0375C5.91832 66.6503 8.39952 64.3586 10.8807 62.1624L11.0716 61.9714L10.9762 61.7805C10.0219 57.961 9.64014 54.2369 9.73557 50.7039V50.5129L9.5447 50.4175C6.20462 48.6032 3.24626 46.9799 0.47877 45.4521L0.669644 45.834C2.48283 39.4364 4.10515 33.9936 5.44119 29.3147L5.15488 29.5057C9.2584 29.6966 12.6939 29.8876 15.5568 30.0786H15.6523L15.7477 29.9831C17.6563 26.7365 19.4695 24.5403 20.7101 23.2035C21.2827 22.5351 21.7599 22.0576 22.1416 21.6757C22.6187 21.2937 22.8096 21.1028 22.7141 21.1028C22.7141 21.1028 22.5233 21.2937 22.1416 21.5802C21.7599 21.8667 21.2827 22.3441 20.6147 23.0125C19.3741 24.3493 17.4655 26.5455 15.4614 29.7921L15.6523 29.6966C12.7893 29.5057 9.44927 29.3147 5.25031 29.0282H5.05944L4.96403 29.2192C3.628 33.8981 2.00567 39.3409 0.097053 45.7386L0.00161632 46.025L0.19249 46.1205C2.95998 47.6483 5.91834 49.3671 9.25842 51.1813L9.06754 50.8949C8.97211 54.4279 9.25839 58.2474 10.3081 62.1624L10.4036 61.7805C7.92237 63.9767 5.34575 66.2684 2.57826 68.6556L2.29195 68.8466L2.48282 69.133C5.05946 73.9074 7.82696 78.8728 10.6899 84.2201L10.8807 84.5065L11.2624 84.411C14.5071 83.4562 17.8472 82.5013 21.2827 81.5464L20.8055 81.4509C23.3822 84.1246 26.3405 86.5118 29.6806 88.517L29.4897 88.0396C29.2989 91.4771 29.108 94.9147 28.8217 98.4477V98.8297L29.2035 98.9251C34.5476 100.453 40.0826 102.076 45.713 103.795L46.0947 103.891L46.2856 103.509C47.9079 100.548 49.6256 97.4928 51.3434 94.4372L50.8662 94.7237C54.588 94.8192 58.4053 94.4372 62.1271 93.4824L61.6499 93.2914C63.9403 95.8695 66.2306 98.4477 68.5209 101.121L68.8072 101.408L69.189 101.217C74.1514 98.5432 79.2092 95.7741 84.267 92.9094L84.6488 92.7185L84.5533 92.3365C84.0762 90.7132 83.599 88.9944 83.1219 87.3712L82.3584 84.8885L81.9767 83.6471L81.7858 82.9787L81.6904 82.6923V82.5013V82.4058C81.4041 83.4562 81.595 82.6923 81.595 82.9787C84.4579 80.3051 86.8437 77.2495 88.6568 74.0984L88.1797 74.3848C91.7106 74.5758 95.2416 74.8623 98.5816 75.0532H98.9634L99.0588 74.6713C100.681 69.0375 102.303 63.4038 103.83 58.1519L103.926 57.77L103.544 57.579C100.395 55.8602 97.3411 54.1415 94.4781 52.5182L94.7644 52.9956C94.8598 49.0806 94.3827 45.1656 93.5238 41.7281L93.333 42.2055C96.005 39.8183 98.6771 37.4311 101.063 35.3304L101.349 35.0439L101.158 34.662C98.2954 29.4102 95.4324 24.3493 92.8558 19.575L92.665 19.2885L92.2832 19.384C88.8477 20.3389 85.4122 21.3892 82.263 22.2486L82.7402 22.3441C79.9727 19.4795 76.9189 17.0923 73.8651 15.278L74.0559 15.66C74.2468 12.0314 74.4377 8.4984 74.6285 5.25182V4.96535L74.3422 4.86986C68.5209 3.15108 62.986 1.62328 57.8327 0.0954789L57.5464 0L57.3555 0.286466C55.6378 3.43756 53.92 6.58865 52.2977 9.35779L52.584 9.1668C48.5759 9.07131 44.7587 9.54875 41.3232 10.4081L41.6095 10.5036C39.1283 7.7345 36.8379 5.06084 34.7384 2.76913L34.5476 2.57816L34.3567 2.67366C28.2491 6.11121 23.1913 8.88034 19.3741 11.0766L19.2787 11.172V11.2675C20.233 14.5141 20.9964 16.9013 21.4736 18.6201C21.7598 19.384 21.9507 20.0524 22.0461 20.5298C22.6187 20.8163 22.7141 21.1028 22.7141 21.1028Z" fill="#1D996C"/>
</svg>
