<svg width="99" height="99" viewBox="0 0 99 99" fill="none" xmlns="http://www.w3.org/2000/svg">
<path fill-rule="evenodd" clip-rule="evenodd" d="M44.278 9.2623C40.6517 9.73973 37.2161 10.5991 33.9715 12.0314L26.337 5.63377L13.263 15.5645L17.3665 24.5403C15.1716 27.3094 13.3584 30.4605 12.0224 33.8026L2.19304 34.662L-0.0018815 50.8949L9.25492 54.3324C9.73207 57.961 10.5909 61.3985 12.0224 64.6451L5.62856 72.2841L15.5534 85.3659L24.5238 81.2599C27.2913 83.4562 30.4406 85.2704 33.7806 86.6072L34.6395 96.4425L50.8627 98.6387L54.2983 89.3764C57.9246 88.8989 61.3601 88.0396 64.6048 86.6072L72.2392 93.0049L85.3133 83.0742L81.2097 74.0984C83.4046 71.3292 85.2178 68.1781 86.5538 64.8361L96.3832 63.9767L98.5781 47.7438L89.4168 44.3062C88.9396 40.6777 88.0807 37.2402 86.6493 33.9936L93.0431 26.3546L83.1183 13.2728L74.1478 17.3787C71.3803 15.1825 68.2311 13.3683 64.891 12.0314L64.0322 2.19621L47.8089 0L44.278 9.2623ZM49.145 31.7019C60.3104 32.0838 68.2311 42.492 65.6545 53.3776C63.7459 61.3985 56.2069 67.1278 47.9998 66.8413C36.8344 66.4594 28.9136 56.0512 31.4903 45.1656C33.3989 37.1447 40.8425 31.4154 49.145 31.7019Z" fill="white"/>
</svg>
