<svg width="65" height="65" viewBox="0 0 65 65" fill="none" xmlns="http://www.w3.org/2000/svg">
<path fill-rule="evenodd" clip-rule="evenodd" d="M28.8234 6.01571C26.5331 6.30218 24.2427 6.8751 22.1433 7.82998L17.1809 3.72402L8.68752 10.2172L11.3596 16.0419C9.92813 17.8562 8.78296 19.8614 7.82865 22.0576L1.43478 22.6306L0.00331879 33.1342L6.01547 35.4259C6.30177 37.7176 6.87434 40.0093 7.82865 42.11L3.72511 47.0754L10.119 55.5738L15.9403 52.9001C17.7535 54.3325 19.7575 55.4783 21.9524 56.4332L22.525 62.8308L33.0224 64.2632L35.3127 58.2474C37.603 57.961 39.8934 57.3881 41.9929 56.4332L46.9553 60.5391L55.4486 54.046L52.7765 48.2212C54.208 46.407 55.3532 44.4017 56.3075 42.2055L62.7014 41.6326L64.1328 31.129L58.1207 28.8373C57.8344 26.5456 57.2618 24.2538 56.3075 22.1531L60.411 17.1878L54.0171 8.68937L48.1959 11.363C46.3827 9.93071 44.3786 8.78486 42.1837 7.82998L41.6111 1.43231L31.1138 0L28.8234 6.01571ZM32.0681 20.6253C39.3208 20.9118 44.4741 27.6914 42.7563 34.7575C41.5157 40.0093 36.6487 43.6378 31.3046 43.4469C24.0519 43.1604 18.8986 36.3808 20.6164 29.3147C21.7615 24.0629 26.6285 20.4343 32.0681 20.6253Z" fill="#1D996C"/>
</svg>
