<svg width="15" height="15" viewBox="0 0 15 15" fill="none" xmlns="http://www.w3.org/2000/svg">
<path d="M5.95428 8.60075C4.618 7.26445 4.31628 5.92814 4.24821 5.39275C4.22919 5.24471 4.28013 5.09625 4.38604 4.99108L5.46741 3.91016C5.62649 3.75118 5.65472 3.50342 5.53548 3.31273L3.81372 0.639155C3.68181 0.428004 3.41097 0.351797 3.18831 0.463186L0.424276 1.76497C0.244222 1.85364 0.138316 2.04495 0.158759 2.24461C0.303587 3.6205 0.903414 7.00278 4.22721 10.3269C7.551 13.651 10.9327 14.2506 12.3093 14.3954C12.509 14.4159 12.7003 14.31 12.7889 14.1299L14.0907 11.3658C14.2017 11.1436 14.126 10.8735 13.9157 10.7414L11.2422 9.02004C11.0516 8.90068 10.8039 8.92871 10.6448 9.08763L9.56386 10.169C9.4587 10.2749 9.31024 10.3259 9.16221 10.3069C8.62683 10.2388 7.29055 9.93706 5.95428 8.60075Z" fill="#CFCFCF"/>
<path d="M11.2581 7.88158C10.9915 7.88158 10.7753 7.66544 10.7753 7.39881C10.7731 5.40005 9.15335 3.7803 7.15463 3.77804C6.88801 3.77804 6.67188 3.5619 6.67188 3.29527C6.67188 3.02864 6.88801 2.8125 7.15463 2.8125C9.68637 2.81529 11.738 4.86702 11.7408 7.39881C11.7408 7.66544 11.5247 7.88158 11.2581 7.88158Z" fill="#CFCFCF"/>
<path d="M13.6719 7.88137C13.4053 7.88137 13.1891 7.66523 13.1891 7.3986C13.1854 4.06731 10.4858 1.3677 7.15463 1.36398C6.88801 1.36398 6.67188 1.14783 6.67188 0.881207C6.67188 0.614581 6.88801 0.398438 7.15463 0.398438C11.0189 0.402695 14.1504 3.53428 14.1546 7.3986C14.1546 7.52664 14.1038 7.64943 14.0132 7.73997C13.9227 7.83051 13.7999 7.88137 13.6719 7.88137Z" fill="#CFCFCF"/>
</svg>
