<svg width="15" height="15" viewBox="0 0 15 15" fill="none" xmlns="http://www.w3.org/2000/svg">
<g clip-path="url(#clip0_253_4740)">
<path d="M7.59766 0.964844C5.56221 0.964844 3.90625 2.62081 3.90625 4.65625C3.90625 6.69169 5.56221 8.34766 7.59766 8.34766C9.6331 8.34766 11.2891 6.69169 11.2891 4.65625C11.2891 2.62081 9.6331 0.964844 7.59766 0.964844Z" fill="#CFCFCF"/>
<path d="M12.1983 10.7592C11.1877 9.73308 9.8479 9.16797 8.42578 9.16797H6.78516C5.36306 9.16797 4.02327 9.73308 3.01265 10.7592C2.00697 11.7804 1.45312 13.1282 1.45312 14.5547C1.45312 14.7812 1.63677 14.9648 1.86328 14.9648H13.3477C13.5742 14.9648 13.7578 14.7812 13.7578 14.5547C13.7578 13.1282 13.204 11.7804 12.1983 10.7592Z" fill="#CFCFCF"/>
</g>
<defs>
<clipPath id="clip0_253_4740">
<rect width="14" height="14" fill="white" transform="translate(0.601562 0.964844)"/>
</clipPath>
</defs>
</svg>
