<svg width="34" height="34" viewBox="0 0 34 34" fill="none" xmlns="http://www.w3.org/2000/svg">
<circle cx="17" cy="17" r="16.5" stroke="#F9F9F9"/>
<g clip-path="url(#clip0_253_4754)">
<path d="M15.7801 13.5266C15.613 11.6043 13.6075 10.661 13.5226 10.6225C13.4433 10.5852 13.3543 10.5733 13.268 10.5884C10.9527 10.9725 10.6045 12.32 10.5905 12.376C10.5714 12.4541 10.5745 12.5359 10.5992 12.6123C13.3607 21.1803 19.0999 22.7684 20.9864 23.2908C21.1316 23.331 21.2515 23.3634 21.3425 23.3931C21.4463 23.4271 21.5591 23.4205 21.6584 23.3748C21.7161 23.3485 23.0794 22.7063 23.4127 20.6115C23.4275 20.5201 23.4128 20.4263 23.3707 20.3438C23.341 20.286 22.6279 18.9289 20.6504 18.4494C20.5833 18.4322 20.513 18.4316 20.4456 18.4476C20.3783 18.4636 20.3158 18.4958 20.2636 18.5413C19.6397 19.0741 18.7779 19.642 18.406 19.7006C15.9131 18.4818 14.521 16.1429 14.4685 15.6993C14.4379 15.4499 15.0092 14.574 15.6664 13.8618C15.7077 13.8169 15.7391 13.764 15.7587 13.7062C15.7783 13.6485 15.7856 13.5873 15.7801 13.5266Z" fill="#F9F9F9"/>
</g>
<defs>
<clipPath id="clip0_253_4754">
<rect width="14" height="14" fill="white" transform="translate(10 10)"/>
</clipPath>
</defs>
</svg>
