<svg width="56" height="56" viewBox="0 0 56 56" fill="none" xmlns="http://www.w3.org/2000/svg">
<rect width="56" height="56" rx="5" fill="#DD2A1B"/>
<g clip-path="url(#clip0_2026_2829)">
<path d="M29.4139 28.0005L35.707 21.7081C36.0976 21.3174 36.0976 20.6841 35.707 20.2935C35.3164 19.9028 34.683 19.9028 34.2924 20.2935L28 26.5865L21.7076 20.2935C21.3169 19.9028 20.6836 19.9028 20.293 20.2935C19.9024 20.6841 19.9023 21.3175 20.293 21.7081L26.586 28.0005L20.293 34.2929C19.9023 34.6835 19.9023 35.3169 20.293 35.7075C20.6836 36.0981 21.317 36.0981 21.7076 35.7075L28 29.4144L34.2924 35.7075C34.683 36.0981 35.3164 36.0981 35.707 35.7075C36.0976 35.3169 36.0976 34.6835 35.707 34.2929L29.4139 28.0005Z" fill="white"/>
</g>
<defs>
<clipPath id="clip0_2026_2829">
<rect width="16" height="16" fill="white" transform="translate(20 20)"/>
</clipPath>
</defs>
</svg>
