<svg width="12" height="12" viewBox="0 0 12 12" fill="none" xmlns="http://www.w3.org/2000/svg">
<g clip-path="url(#clip0_202_1219)">
<path d="M6 -2.62268e-07C4.81331 -3.1414e-07 3.65327 0.351894 2.66658 1.01118C1.67988 1.67047 0.910848 2.60754 0.456722 3.7039C0.00259569 4.80026 -0.116225 6.00666 0.115287 7.17054C0.346799 8.33443 0.918243 9.40353 1.75736 10.2426C2.59647 11.0818 3.66557 11.6532 4.82946 11.8847C5.99334 12.1162 7.19974 11.9974 8.2961 11.5433C9.39246 11.0892 10.3295 10.3201 10.9888 9.33342C11.6481 8.34673 12 7.18669 12 6C11.9983 4.40923 11.3656 2.88411 10.2407 1.75926C9.11589 0.634414 7.59077 0.00172035 6 -2.62268e-07ZM6 11C5.01109 11 4.04439 10.7068 3.22215 10.1574C2.3999 9.60794 1.75904 8.82705 1.3806 7.91342C1.00216 6.99979 0.903146 5.99445 1.09607 5.02455C1.289 4.05464 1.7652 3.16373 2.46447 2.46447C3.16373 1.7652 4.05464 1.289 5.02455 1.09607C5.99445 0.903147 6.99979 1.00216 7.91342 1.3806C8.82705 1.75904 9.60794 2.3999 10.1573 3.22215C10.7068 4.0444 11 5.01109 11 6C10.9985 7.32564 10.4713 8.59656 9.53393 9.53393C8.59656 10.4713 7.32563 10.9985 6 11Z" fill="#1D996C"/>
<path d="M6.00122 8.00001C5.63521 8.00038 5.28176 7.86661 5.00772 7.62401C4.84422 7.4785 4.68922 7.337 4.58772 7.2355L3.15122 5.8235C3.10128 5.77829 3.061 5.72346 3.03278 5.66229C3.00457 5.60112 2.989 5.53489 2.98702 5.46756C2.98504 5.40022 2.99669 5.33319 3.02126 5.27047C3.04583 5.20775 3.08282 5.15064 3.13001 5.10257C3.17721 5.0545 3.23362 5.01647 3.29588 4.99075C3.35814 4.96502 3.42495 4.95215 3.49231 4.95289C3.55966 4.95363 3.62617 4.96797 3.68785 4.99506C3.74953 5.02214 3.80509 5.06141 3.85122 5.1105L5.29122 6.525C5.38522 6.6185 5.52522 6.7455 5.67072 6.875C5.76206 6.95557 5.87967 7.00003 6.00147 7.00003C6.12326 7.00003 6.24087 6.95557 6.33222 6.875C6.47722 6.746 6.61722 6.619 6.70822 6.5285L8.15122 5.1105C8.19734 5.06141 8.2529 5.02214 8.31458 4.99506C8.37626 4.96797 8.44277 4.95363 8.51013 4.95289C8.57748 4.95215 8.64429 4.96502 8.70655 4.99075C8.76881 5.01647 8.82522 5.0545 8.87242 5.10257C8.91961 5.15064 8.9566 5.20775 8.98117 5.27047C9.00574 5.33319 9.01739 5.40022 9.01541 5.46756C9.01343 5.53489 8.99786 5.60112 8.96965 5.66229C8.94143 5.72346 8.90115 5.77829 8.85122 5.8235L7.41172 7.238C7.31172 7.338 7.15822 7.47801 6.99522 7.62251C6.72134 7.86589 6.36761 8.00023 6.00122 8.00001Z" fill="#1D996C"/>
</g>
<defs>
<clipPath id="clip0_202_1219">
<rect width="12" height="12" fill="white" transform="translate(12) rotate(90)"/>
</clipPath>
</defs>
</svg>
