<svg width="12" height="12" viewBox="0 0 12 12" fill="none" xmlns="http://www.w3.org/2000/svg">
<g clip-path="url(#clip0_202_1151)">
<path d="M7.99973 4C7.90597 3.90626 7.77881 3.85361 7.64623 3.85361C7.51365 3.85361 7.38649 3.90626 7.29273 4L5.99973 5.293L4.70673 4C4.61243 3.90892 4.48613 3.85852 4.35503 3.85966C4.22393 3.8608 4.09853 3.91339 4.00582 4.00609C3.91312 4.0988 3.86053 4.2242 3.85939 4.3553C3.85825 4.4864 3.90865 4.6127 3.99973 4.707L5.29273 6L3.99973 7.293C3.90865 7.3873 3.85825 7.5136 3.85939 7.6447C3.86053 7.7758 3.91312 7.90121 4.00582 7.99391C4.09853 8.08661 4.22393 8.1392 4.35503 8.14034C4.48613 8.14148 4.61243 8.09108 4.70673 8L5.99973 6.707L7.29273 8C7.38703 8.09108 7.51333 8.14148 7.64443 8.14034C7.77553 8.1392 7.90094 8.08661 7.99364 7.99391C8.08634 7.90121 8.13893 7.7758 8.14007 7.6447C8.14121 7.5136 8.09081 7.3873 7.99973 7.293L6.70673 6L7.99973 4.707C8.09347 4.61324 8.14612 4.48608 8.14612 4.3535C8.14612 4.22092 8.09347 4.09376 7.99973 4Z" fill="#DD2A1B"/>
<path d="M6 0C4.81331 0 3.65328 0.351894 2.66658 1.01118C1.67989 1.67047 0.910851 2.60754 0.456725 3.7039C0.00259972 4.80026 -0.11622 6.00666 0.115291 7.17054C0.346802 8.33443 0.918247 9.40353 1.75736 10.2426C2.59648 11.0818 3.66557 11.6532 4.82946 11.8847C5.99335 12.1162 7.19975 11.9974 8.2961 11.5433C9.39246 11.0892 10.3295 10.3201 10.9888 9.33342C11.6481 8.34673 12 7.18669 12 6C11.9983 4.40923 11.3656 2.88411 10.2407 1.75926C9.1159 0.634414 7.59077 0.00172054 6 0ZM6 11C5.0111 11 4.0444 10.7068 3.22215 10.1573C2.39991 9.60794 1.75904 8.82705 1.3806 7.91342C1.00217 6.99979 0.90315 5.99445 1.09608 5.02455C1.289 4.05464 1.76521 3.16373 2.46447 2.46447C3.16373 1.7652 4.05465 1.289 5.02455 1.09607C5.99446 0.903148 6.99979 1.00216 7.91342 1.3806C8.82705 1.75904 9.60794 2.3999 10.1573 3.22215C10.7068 4.04439 11 5.01109 11 6C10.9985 7.32564 10.4713 8.59656 9.53393 9.53393C8.59656 10.4713 7.32564 10.9985 6 11Z" fill="#DD2A1B"/>
</g>
<defs>
<clipPath id="clip0_202_1151">
<rect width="12" height="12" fill="white"/>
</clipPath>
</defs>
</svg>
