<svg width="56" height="56" viewBox="0 0 56 56" fill="none" xmlns="http://www.w3.org/2000/svg">
<rect width="56" height="56" rx="5" fill="#7B868E"/>
<path d="M38.2729 26.3838C38.0979 25.8648 37.8439 25.3768 37.5189 24.9318C37.1939 24.4858 36.5689 24.3878 36.1219 24.7148C35.6769 25.0408 35.5799 25.6668 35.9059 26.1118C36.1089 26.3908 36.2679 26.6958 36.3769 27.0198C36.7809 28.2248 36.9859 29.4448 36.9859 30.6468C36.9859 32.5298 36.7599 34.4378 36.3159 36.3258C34.4259 36.7718 32.5189 36.9968 30.6359 36.9968C29.4349 36.9968 28.2149 36.7918 27.0079 36.3868C26.6729 36.2748 26.3569 36.1088 26.0709 35.8958C25.6279 35.5648 25.0019 35.6568 24.6719 36.0978C24.3409 36.5398 24.4319 37.1668 24.8739 37.4968C25.3299 37.8378 25.8339 38.1028 26.3719 38.2828C27.7839 38.7568 29.2179 38.9968 30.6359 38.9968C32.8789 38.9968 35.1529 38.7018 37.3929 38.1188C37.7439 38.0278 38.0179 37.7538 38.1089 37.4028C38.6909 35.1638 38.9859 32.8908 38.9859 30.6468C38.9859 29.2278 38.7459 27.7928 38.2729 26.3818V26.3838Z" fill="white"/>
<path d="M29.6267 32.9861C31.2067 32.4561 32.4677 31.1951 32.9987 29.6131C33.9467 26.7841 33.9467 23.9151 32.9987 21.0851C32.4677 19.5041 31.2067 18.2431 29.6267 17.7131C26.7957 16.7641 23.9267 16.7631 21.0987 17.7131C19.5167 18.2431 18.2567 19.5041 17.7257 21.0851C17.2517 22.4971 17.0117 23.9321 17.0117 25.3491C17.0117 27.5931 17.3067 29.8661 17.8897 32.1051C17.9807 32.4561 18.2547 32.7301 18.6057 32.8211C20.8457 33.4041 23.1187 33.6991 25.3617 33.6991C26.7787 33.6991 28.2137 33.4601 29.6267 32.9861ZM19.0117 25.3491C19.0117 24.1481 19.2167 22.9281 19.6217 21.7221C19.9537 20.7311 20.7437 19.9421 21.7337 19.6101C24.1407 18.8011 26.5817 18.8011 28.9897 19.6101C29.9797 19.9421 30.7697 20.7321 31.1017 21.7221C31.9097 24.1291 31.9097 26.5711 31.1017 28.9771C30.7697 29.9681 29.9797 30.7571 28.9897 31.0891C27.7827 31.4941 26.5617 31.6991 25.3617 31.6991C23.4787 31.6991 21.5707 31.4731 19.6827 31.0281C19.2367 29.1401 19.0117 27.2321 19.0117 25.3491Z" fill="white"/>
</svg>
