<svg width="12" height="12" viewBox="0 0 12 12" fill="none" xmlns="http://www.w3.org/2000/svg">
<g clip-path="url(#clip0_202_1216)">
<path d="M6 12C7.18669 12 8.34673 11.6481 9.33342 10.9888C10.3201 10.3295 11.0892 9.39246 11.5433 8.2961C11.9974 7.19974 12.1162 5.99334 11.8847 4.82946C11.6532 3.66557 11.0818 2.59647 10.2426 1.75736C9.40353 0.918243 8.33443 0.346799 7.17054 0.115287C6.00666 -0.116225 4.80026 0.00259569 3.7039 0.456722C2.60754 0.910848 1.67047 1.67988 1.01118 2.66658C0.351894 3.65327 -3.1414e-07 4.81331 -2.62268e-07 6C0.00172035 7.59077 0.634414 9.11589 1.75926 10.2407C2.88411 11.3656 4.40923 11.9983 6 12ZM6 0.999999C6.98891 0.999999 7.95561 1.29324 8.77785 1.84265C9.6001 2.39206 10.241 3.17295 10.6194 4.08658C10.9978 5.00021 11.0969 6.00555 10.9039 6.97545C10.711 7.94536 10.2348 8.83627 9.53553 9.53553C8.83627 10.2348 7.94536 10.711 6.97545 10.9039C6.00555 11.0969 5.00021 10.9978 4.08658 10.6194C3.17295 10.241 2.39206 9.6001 1.84265 8.77785C1.29324 7.9556 1 6.98891 1 6C1.00146 4.67436 1.52871 3.40344 2.46607 2.46607C3.40344 1.52871 4.67436 1.00145 6 0.999999Z" fill="#B0B0B0"/>
<path d="M5.99878 4C6.36479 3.99963 6.71824 4.13339 6.99228 4.376C7.15578 4.5215 7.31078 4.663 7.41228 4.7645L8.84878 6.1765C8.89872 6.22171 8.939 6.27655 8.96722 6.33772C8.99543 6.39888 9.011 6.46512 9.01298 6.53245C9.01496 6.59978 9.00331 6.66682 8.97874 6.72954C8.95417 6.79226 8.91718 6.84937 8.86999 6.89744C8.82279 6.9455 8.76638 6.98354 8.70412 7.00926C8.64186 7.03498 8.57505 7.04786 8.50769 7.04712C8.44034 7.04638 8.37383 7.03204 8.31215 7.00495C8.25047 6.97787 8.19491 6.9386 8.14878 6.8895L6.70878 5.475C6.61478 5.3815 6.47478 5.2545 6.32928 5.125C6.23794 5.04443 6.12033 4.99998 5.99853 4.99998C5.87674 4.99998 5.75913 5.04443 5.66778 5.125C5.52278 5.254 5.38278 5.381 5.29178 5.4715L3.84878 6.8895C3.80266 6.9386 3.7471 6.97787 3.68542 7.00495C3.62374 7.03204 3.55723 7.04638 3.48987 7.04712C3.42252 7.04786 3.35571 7.03498 3.29345 7.00926C3.23119 6.98354 3.17478 6.9455 3.12758 6.89744C3.08039 6.84937 3.0434 6.79226 3.01883 6.72954C2.99426 6.66682 2.98261 6.59978 2.98459 6.53245C2.98657 6.46512 3.00214 6.39888 3.03035 6.33772C3.05857 6.27655 3.09885 6.22171 3.14878 6.1765L4.58828 4.762C4.68828 4.662 4.84178 4.522 5.00478 4.3775C5.27866 4.13411 5.63239 3.99978 5.99878 4Z" fill="#B0B0B0"/>
</g>
<defs>
<clipPath id="clip0_202_1216">
<rect width="12" height="12" fill="white" transform="translate(0 12) rotate(-90)"/>
</clipPath>
</defs>
</svg>
