<svg width="132" height="52" viewBox="0 0 132 52" fill="none" xmlns="http://www.w3.org/2000/svg">
<g clip-path="url(#clip0_174_2111)">
<path d="M61.8455 16.332L55.5314 25.069L56.6613 16.332L57.2262 12.0453L58.1235 5.07533C58.5223 1.9012 57.2262 0.690455 56.0299 0.232334C54.8335 -0.225787 53.039 -0.225787 51.1447 2.3266L40.3442 16.8883C39.3165 16.5451 38.239 16.3683 37.1539 16.3647C35.3326 16.3647 33.5472 16.8625 31.9963 17.8027C30.4455 18.7428 29.1902 20.0885 28.3702 21.6897C27.5502 23.291 27.1978 25.0849 27.3522 26.8717C27.5065 28.6586 28.1617 30.3681 29.2445 31.81L22.2325 41.2669L25.5225 16.332H19.9395L13.5921 20.9787L8.44104 16.332H2.79152L0 35.7367H5.64951L7.44406 23.3674L12.5619 28.0795L18.9425 23.4329L15.7854 46.9279C15.3534 50.1021 16.7491 51.3128 17.9455 51.7709C18.3275 51.9159 18.7325 51.9935 19.1419 52C20.2053 52 21.4681 51.4764 22.8307 49.6439L33.6312 35.0822C34.7376 35.4866 35.9073 35.697 37.0874 35.704C38.9369 35.7036 40.7488 35.1899 42.3154 34.2219C43.882 33.254 45.1398 31.8708 45.9446 30.2312C46.7495 28.5915 47.0687 26.7617 46.8658 24.9516C46.6629 23.1415 45.946 21.4243 44.7973 19.997L47.5556 16.2993L50.7459 12.0126L51.7429 10.6709L51.5767 12.0126L51.2776 14.4014L51.0118 16.332L48.4861 35.7367H54.5344L68.5917 16.332H61.8455ZM41.4741 26.0507C41.471 27.1525 41.0319 28.2096 40.2501 28.9978C39.4683 29.786 38.4053 30.243 37.2868 30.272H37.1871C36.1934 30.2692 35.2311 29.9292 34.4623 29.3093C33.6936 28.6894 33.1653 27.8275 32.9666 26.8688C32.9101 26.5999 32.8878 26.3251 32.9001 26.0507C32.8997 25.0165 33.2855 24.0182 33.984 23.2458C34.6826 22.4735 35.6452 21.981 36.6886 21.8622C36.8532 21.835 37.0202 21.8241 37.1871 21.8295C38.1161 21.8286 39.0202 22.1249 39.7634 22.6737C40.5066 23.2226 41.0487 23.9943 41.3079 24.8727C41.4165 25.2563 41.4724 25.6525 41.4741 26.0507Z" fill="#D5DBD9"/>
<path d="M83.2466 21.1423L83.9445 16.332H75.6696H69.9869L67.1289 35.7694H70.4521H72.8117H81.0865L81.7844 30.9919H73.5095L73.9083 28.4395H82.15L82.8811 23.6292H74.6062L74.9718 21.1423H83.2466Z" fill="#D5DBD9"/>
<path d="M121.864 16.2666C119.907 16.2633 117.994 16.8319 116.365 17.9004C114.737 18.9688 113.467 20.4891 112.717 22.2686C111.966 24.0481 111.769 26.0069 112.15 27.8968C112.531 29.7868 113.473 31.5229 114.857 32.8853C116.24 34.2478 118.004 35.1753 119.923 35.5504C121.842 35.9255 123.831 35.7314 125.639 34.9925C127.446 34.2537 128.99 33.0034 130.075 31.3999C131.16 29.7965 131.738 27.9121 131.734 25.9853C131.726 23.4101 130.684 20.9426 128.835 19.1217C126.985 17.3007 124.479 16.2743 121.864 16.2666ZM121.864 30.3701C120.983 30.3701 120.122 30.113 119.39 29.6312C118.658 29.1493 118.087 28.4645 117.75 27.6633C117.413 26.862 117.325 25.9804 117.497 25.1298C117.668 24.2792 118.093 23.4979 118.715 22.8847C119.338 22.2715 120.132 21.8538 120.995 21.6846C121.859 21.5155 122.755 21.6023 123.568 21.9342C124.382 22.266 125.078 22.8281 125.567 23.5492C126.056 24.2702 126.317 25.118 126.317 25.9853C126.317 27.1482 125.848 28.2635 125.013 29.0858C124.178 29.9082 123.045 30.3701 121.864 30.3701Z" fill="#E29100"/>
<path d="M98.2698 20.9787L93.152 16.2993H90.0946H87.5025L87.2366 18.2954L86.8378 20.9787L85.4088 30.861L84.7109 35.6386V35.6713V35.7367H87.2366H87.7019H90.3604L92.155 23.3347L97.2728 28.0468L103.62 23.4002L101.992 35.7367H107.641L110.2 16.2993H104.617L98.2698 20.9787Z" fill="#E29100"/>
</g>
<defs>
<clipPath id="clip0_174_2111">
<rect width="131.733" height="52" fill="white"/>
</clipPath>
</defs>
</svg>
