<svg width="132" height="52" viewBox="0 0 132 52" fill="none" xmlns="http://www.w3.org/2000/svg">
<g clip-path="url(#clip0_174_2093)">
<path d="M61.9707 16.332L55.6438 25.069L56.776 16.332L57.3421 12.0453L58.2412 5.07533C58.6408 1.9012 57.3421 0.690455 56.1433 0.232334C54.9445 -0.225787 53.1463 -0.225787 51.2482 2.3266L40.4258 16.8883C39.3961 16.5451 38.3165 16.3683 37.2291 16.3647C35.4042 16.3647 33.6151 16.8625 32.0611 17.8027C30.5071 18.7428 29.2493 20.0885 28.4276 21.6897C27.606 23.291 27.2529 25.0849 27.4075 26.8717C27.5622 28.6586 28.2187 30.3681 29.3037 31.81L22.2775 41.2669L25.5742 16.332H19.9798L13.6196 20.9787L8.45812 16.332H2.79718L0 35.7367H5.66095L7.45913 23.3674L12.5873 28.0795L18.9808 23.4329L15.8174 46.9279C15.3845 50.1021 16.783 51.3128 17.9818 51.7709C18.3646 51.9159 18.7704 51.9935 19.1806 52C20.2462 52 21.5116 51.4764 22.8769 49.6439L33.6993 35.0822C34.8079 35.4866 35.98 35.697 37.1625 35.704C39.0157 35.7036 40.8313 35.1899 42.401 34.2219C43.9708 33.254 45.2312 31.8708 46.0376 30.2312C46.8441 28.5915 47.164 26.7617 46.9607 24.9516C46.7573 23.1415 46.039 21.4243 44.888 19.997L47.6519 16.2993L50.8486 12.0126L51.8476 10.6709L51.6811 12.0126L51.3814 14.4014L51.115 16.332L48.5843 35.7367H54.6448L68.7306 16.332H61.9707ZM41.558 26.0507C41.5549 27.1525 41.115 28.2096 40.3316 28.9978C39.5482 29.786 38.483 30.243 37.3623 30.272H37.2624C36.2667 30.2692 35.3024 29.9292 34.5321 29.3093C33.7618 28.6894 33.2324 27.8275 33.0333 26.8688C32.9767 26.5999 32.9544 26.3251 32.9667 26.0507C32.9663 25.0165 33.3528 24.0182 34.0528 23.2458C34.7528 22.4735 35.7174 21.981 36.7629 21.8622C36.9278 21.835 37.0952 21.8241 37.2624 21.8295C38.1932 21.8286 39.0992 22.1249 39.8439 22.6737C40.5886 23.2226 41.1317 23.9943 41.3915 24.8727C41.5004 25.2563 41.5564 25.6525 41.558 26.0507Z" fill="#3D4B55"/>
<path d="M83.416 21.1423L84.1153 16.332H75.8236H70.1294L67.2656 35.7694H70.5956H72.9599H81.2515L81.9508 30.9919H73.6592L74.0588 28.4395H82.3171L83.0497 23.6292H74.7581L75.1244 21.1423H83.416Z" fill="#3D4B55"/>
<path d="M122.11 16.2666C120.149 16.2634 118.231 16.832 116.6 17.9004C114.968 18.9689 113.696 20.4892 112.944 22.2687C112.192 24.0482 111.994 26.0069 112.376 27.8969C112.758 29.7868 113.702 31.5229 115.088 32.8854C116.475 34.2479 118.241 35.1754 120.165 35.5505C122.088 35.9256 124.081 35.7314 125.892 34.9926C127.703 34.2537 129.25 33.0034 130.337 31.4C131.424 29.7966 132.003 27.9121 132 25.9853C131.992 23.4102 130.947 20.9427 129.094 19.1217C127.241 17.3008 124.73 16.2744 122.11 16.2666ZM122.11 30.3702C121.227 30.3702 120.365 30.113 119.631 29.6312C118.897 29.1494 118.325 28.4646 117.987 27.6633C117.65 26.8621 117.561 25.9805 117.733 25.1299C117.906 24.2793 118.331 23.498 118.955 22.8848C119.579 22.2715 120.374 21.8539 121.239 21.6847C122.105 21.5155 123.002 21.6023 123.817 21.9342C124.633 22.2661 125.33 22.8281 125.82 23.5492C126.31 24.2703 126.572 25.1181 126.572 25.9853C126.572 27.1483 126.102 28.2636 125.265 29.0859C124.428 29.9082 123.293 30.3702 122.11 30.3702Z" fill="#E29100"/>
<path d="M98.4671 20.9787L93.339 16.2993H90.2754H87.678L87.4116 18.2954L87.012 20.9787L85.5802 30.861L84.8809 35.6386V35.6713V35.7367H87.4116H87.8778H90.5418L92.34 23.3347L97.4682 28.0468L103.828 23.4002L102.197 35.7367H107.858L110.422 16.2993H104.827L98.4671 20.9787Z" fill="#E29100"/>
</g>
<defs>
<clipPath id="clip0_174_2093">
<rect width="132" height="52" fill="white"/>
</clipPath>
</defs>
</svg>
