<svg width="52" height="44" viewBox="0 0 52 44" fill="none" xmlns="http://www.w3.org/2000/svg">
<g clip-path="url(#clip0_2026_4157)">
<path d="M-0.000284871 5.17179C0.196485 4.57846 0.323238 3.9515 0.603303 3.39901C1.66682 1.27792 3.42326 0.0852565 5.8014 0.0444201C9.82009 -0.0240409 13.84 0.0143953 17.8599 0.027607C19.3507 0.027607 20.6485 0.576494 21.7663 1.55296C22.5244 2.21595 23.2982 2.86093 24.0479 3.53233C24.8963 4.30312 26.0128 4.71533 27.1612 4.68175C29.7481 4.66734 32.3363 4.67575 34.9233 4.68175C38.6004 4.68175 41.1451 7.204 41.1668 10.8709C41.1753 12.2473 41.1668 13.6237 41.1668 15.0001V15.5827C42.17 15.5827 43.1249 15.5827 44.0797 15.5827C45.1091 15.5606 46.1271 15.8004 47.0373 16.2793C48.1259 16.8669 48.9904 17.794 49.4977 18.9181C50.005 20.0422 50.1271 21.301 49.8452 22.5008C48.5028 28.1146 47.1447 33.7248 45.806 39.3398C45.3364 41.3108 44.2632 42.8037 42.3414 43.5436C41.5671 43.833 40.747 43.9823 39.9198 43.9844C28.9031 44.0132 17.886 44.0184 6.86854 44C5.2333 44.0046 3.65046 43.4264 2.40664 42.3702C1.16281 41.314 0.340232 39.8495 0.0878403 38.2421C0.0641541 38.1325 0.0335096 38.0246 -0.00390625 37.919L-0.000284871 5.17179ZM11.3858 42.2849C11.614 42.2981 11.7093 42.3089 11.8059 42.3089C21.2275 42.3089 30.6495 42.3089 40.0719 42.3089C42.1712 42.3089 43.6403 41.133 44.134 39.0852C45.4982 33.4442 46.855 27.7991 48.2046 22.1501C48.3783 21.4543 48.3477 20.7236 48.1165 20.0446C47.5129 18.243 46.1017 17.2702 44.1027 17.2678C37.0399 17.263 29.9771 17.263 22.9143 17.2678C20.7257 17.2678 19.3435 18.3175 18.7423 20.4194C17.2446 25.6584 15.7513 30.8983 14.2625 36.139C14.0283 36.9629 13.7893 37.7868 13.566 38.6132C13.1929 40.0028 12.5543 41.2267 11.3858 42.2849ZM39.4369 15.555C39.4536 15.488 39.4649 15.4197 39.4707 15.3509C39.4707 13.7318 39.4707 12.108 39.4611 10.4937C39.4567 9.61284 39.1596 8.75814 38.6161 8.06277C37.6998 6.86169 36.4516 6.35004 34.9692 6.34644C32.3496 6.33923 29.73 6.33082 27.1105 6.34644C25.5649 6.3743 24.0671 5.81311 22.924 4.77784C22.1912 4.13527 21.4404 3.51431 20.7197 2.85613C19.8191 2.0406 18.7689 1.67427 17.5605 1.67667C13.8014 1.68388 10.0434 1.67667 6.28427 1.68508C5.82951 1.67892 5.37586 1.7314 4.93465 1.84122C2.88245 2.39611 1.68493 3.99234 1.68373 6.18549C1.67809 16.4498 1.67809 26.7142 1.68373 36.9785C1.66671 37.8891 1.88317 38.789 2.31266 39.5933C2.74577 40.4106 3.40294 41.089 4.20793 41.5498V40.882C4.20793 31.8644 4.20793 22.8467 4.20793 13.8291C4.20793 10.5093 6.61141 8.01472 9.90218 7.99911C16.3139 7.96948 22.7252 7.96948 29.1361 7.99911C31.414 8.00632 33.1439 9.32028 33.762 11.463C33.8574 11.7957 34.0276 11.8473 34.3113 11.8557C35.4789 11.884 36.5894 12.3644 37.4065 13.1949C38.0764 13.8483 38.4603 14.6566 38.6837 15.5514L39.4369 15.555ZM32.1335 11.8425C32.0589 11.638 31.9735 11.4375 31.8776 11.242C31.2438 10.1322 30.2515 9.671 28.9997 9.671C22.7224 9.671 16.4366 9.66019 10.1557 9.68901C9.47497 9.68724 8.80127 9.82588 8.17712 10.0962C6.53778 10.8468 5.88349 12.2401 5.88349 13.9888C5.88349 23.2179 5.88349 32.4465 5.88349 41.6747C5.88711 41.7395 5.88711 41.8045 5.88349 41.8693C5.85089 42.1335 5.96679 42.2849 6.23357 42.2644C6.95788 42.2092 7.68218 42.1539 8.40649 42.0663C8.87608 42.0086 9.03059 41.7408 9.02939 41.2387C9.00846 33.451 9.00846 25.6632 9.02939 17.8755C9.02183 17.1323 9.12641 16.3922 9.33963 15.6799C10.1026 13.2958 12.2369 11.8473 14.9011 11.8437C20.4179 11.8357 25.9343 11.8357 31.4503 11.8437L32.1335 11.8425ZM36.9019 15.5791C36.8909 15.5045 36.8752 15.4306 36.8548 15.3581C36.4407 14.2243 35.3482 13.518 33.9745 13.518C27.6126 13.518 21.2508 13.518 14.889 13.518C12.4059 13.518 10.7218 15.1815 10.7182 17.6641C10.7062 25.1428 10.7062 32.6218 10.7182 40.1013C10.7254 40.2155 10.7403 40.329 10.7629 40.4412L10.9331 40.488C11.2277 39.8503 11.6115 39.2365 11.8047 38.5663C13.5857 32.4008 15.3461 26.2297 17.0861 20.053C17.5219 18.5085 18.321 17.2558 19.7117 16.403C20.7148 15.7892 21.817 15.5779 22.9711 15.5767C27.4127 15.5767 31.8543 15.5767 36.2959 15.5767L36.9019 15.5791Z" fill="#3D4B55"/>
<path d="M11.3857 42.285C12.5507 41.2305 13.1965 40.003 13.5659 38.617C13.7892 37.7906 14.0282 36.9667 14.2624 36.1428C15.7545 30.9005 17.2478 25.6614 18.7423 20.4256C19.3459 18.3237 20.7257 17.2752 22.9143 17.274C29.9779 17.2668 37.0406 17.2668 44.1026 17.274C46.1017 17.274 47.5081 18.2504 48.1165 20.0508C48.3477 20.7298 48.3782 21.4605 48.2046 22.1563C46.8469 27.7989 45.4901 33.444 44.134 39.0914C43.6403 41.1392 42.1711 42.3127 40.0719 42.3151C30.6494 42.3239 21.2274 42.3239 11.8058 42.3151C11.7093 42.3055 11.6139 42.2946 11.3857 42.285Z" fill="#1D996C"/>
<path d="M39.4372 15.5549H38.6803C38.457 14.6601 38.0767 13.8518 37.4031 13.1984C36.5861 12.3679 35.4756 11.8875 34.3079 11.8592C34.0242 11.8508 33.854 11.7992 33.7586 11.4665C33.1406 9.32739 31.4107 8.00982 29.1327 8.00261C22.721 7.98339 16.3097 7.98339 9.89882 8.00261C6.60806 8.01822 4.20578 10.5128 4.20457 13.8326C4.19894 22.8502 4.19894 31.8679 4.20457 40.8855V41.5533C3.39958 41.0925 2.74241 40.4141 2.30931 39.5968C1.87982 38.7925 1.66336 37.8926 1.68037 36.982C1.68037 26.7177 1.68037 16.4533 1.68037 6.18899C1.68037 3.99584 2.87668 2.39962 4.9313 1.84472C5.37133 1.73521 5.82374 1.68273 6.2773 1.68858C10.0364 1.67777 13.7944 1.68858 17.5535 1.68018C18.7607 1.68018 19.8121 2.0405 20.7127 2.85963C21.437 3.51421 22.1842 4.13516 22.917 4.78134C24.0602 5.81661 25.5579 6.3778 27.1035 6.34994C29.7231 6.33192 32.3426 6.34033 34.9622 6.34994C36.4446 6.34994 37.6928 6.8676 38.6091 8.06627C39.1526 8.76164 39.4497 9.61635 39.4541 10.4972C39.4686 12.1163 39.4625 13.7401 39.4638 15.3544C39.4601 15.4218 39.4513 15.4889 39.4372 15.5549Z" fill="#1D996C"/>
<path d="M32.1338 11.8424H31.4481C25.9329 11.8424 20.4165 11.8424 14.8989 11.8424C12.2371 11.8424 10.1004 13.2945 9.33748 15.6787C9.12426 16.391 9.01968 17.1311 9.02724 17.8742C9.00551 25.662 9.00551 33.4497 9.02724 41.2374C9.02724 41.7395 8.87393 42.0073 8.40434 42.065C7.68003 42.1526 6.95572 42.2079 6.23142 42.2632C5.96463 42.2836 5.84875 42.1322 5.88134 41.868C5.88496 41.8032 5.88496 41.7382 5.88134 41.6734C5.88134 32.446 5.88134 23.2174 5.88134 13.9876C5.88134 12.2388 6.53563 10.8456 8.17497 10.0949C8.79922 9.825 9.4729 9.68677 10.1535 9.68893C16.4308 9.6601 22.7154 9.67331 28.9975 9.67091C30.2494 9.67091 31.2417 10.1321 31.8754 11.2419C31.9722 11.4374 32.0584 11.6379 32.1338 11.8424Z" fill="white"/>
<path d="M36.9022 15.5792H36.2986C31.8578 15.5792 27.4162 15.5792 22.9738 15.5792C21.8173 15.5792 20.7152 15.7918 19.7144 16.4055C18.3237 17.2583 17.5246 18.511 17.0888 20.0556C15.3448 26.2315 13.5844 32.4026 11.8074 38.5689C11.6143 39.2367 11.2304 39.8504 10.9358 40.4906L10.7656 40.4437C10.743 40.3316 10.7281 40.218 10.7209 40.1038C10.7209 32.6244 10.7209 25.1453 10.7209 17.6666C10.7209 15.184 12.411 13.5229 14.8917 13.5205C21.2536 13.5133 27.6154 13.5133 33.9772 13.5205C35.351 13.5205 36.4434 14.2268 36.8575 15.3606C36.877 15.4324 36.8919 15.5054 36.9022 15.5792Z" fill="white"/>
</g>
<defs>
<clipPath id="clip0_2026_4157">
<rect width="52" height="44" fill="white"/>
</clipPath>
</defs>
</svg>
