<svg width="12" height="12" viewBox="0 0 12 12" fill="none" xmlns="http://www.w3.org/2000/svg">
<g clip-path="url(#clip0_360_267)">
<path d="M6.49999 0.500066C6.49999 0.367458 6.55267 0.240281 6.64644 0.146513C6.74021 0.0527445 6.86738 6.6062e-05 6.99999 6.6062e-05C8.32563 0.00152186 9.59655 0.528774 10.5339 1.46614C11.4713 2.40351 11.9985 3.67443 12 5.00007C12 5.13267 11.9473 5.25985 11.8535 5.35362C11.7598 5.44739 11.6326 5.50007 11.5 5.50007C11.3674 5.50007 11.2402 5.44739 11.1464 5.35362C11.0527 5.25985 11 5.13267 11 5.00007C10.9988 3.93957 10.577 2.92284 9.8271 2.17295C9.07722 1.42307 8.06049 1.00126 6.99999 1.00007C6.86738 1.00007 6.74021 0.947388 6.64644 0.853619C6.55267 0.759851 6.49999 0.632674 6.49999 0.500066ZM6.99999 3.00007C7.53043 3.00007 8.03913 3.21078 8.41421 3.58585C8.78928 3.96093 8.99999 4.46963 8.99999 5.00007C8.99999 5.13267 9.05267 5.25985 9.14644 5.35362C9.24021 5.44739 9.36738 5.50007 9.49999 5.50007C9.6326 5.50007 9.75978 5.44739 9.85355 5.35362C9.94731 5.25985 9.99999 5.13267 9.99999 5.00007C9.9992 4.20466 9.68287 3.44206 9.12044 2.87962C8.558 2.31719 7.7954 2.00086 6.99999 2.00007C6.86738 2.00007 6.74021 2.05274 6.64644 2.14651C6.55267 2.24028 6.49999 2.36746 6.49999 2.50007C6.49999 2.63267 6.55267 2.75985 6.64644 2.85362C6.74021 2.94739 6.86738 3.00007 6.99999 3.00007ZM11.5465 8.36957C11.8362 8.66012 11.999 9.05372 11.999 9.46407C11.999 9.87441 11.8362 10.268 11.5465 10.5586L11.0915 11.0831C6.99649 15.0036 -2.96851 5.04107 0.891493 0.933066L1.46649 0.433066C1.75738 0.151405 2.14746 -0.0044094 2.55234 -0.000666517C2.95723 0.00307636 3.34437 0.166075 3.62999 0.453066C3.64549 0.468566 4.57199 1.67207 4.57199 1.67207C4.84691 1.96088 4.99995 2.34453 4.99929 2.74327C4.99864 3.142 4.84435 3.52515 4.56849 3.81307L3.98949 4.54107C4.30992 5.31962 4.78102 6.02719 5.37575 6.62311C5.97047 7.21904 6.67708 7.69157 7.45499 8.01357L8.18749 7.43107C8.47545 7.15542 8.85852 7.00131 9.25714 7.00075C9.65576 7.0002 10.0393 7.15323 10.328 7.42807C10.328 7.42807 11.531 8.35407 11.5465 8.36957ZM10.8585 9.09657C10.8585 9.09657 9.66199 8.17607 9.64649 8.16057C9.54348 8.05843 9.4043 8.00113 9.25924 8.00113C9.11418 8.00113 8.975 8.05843 8.87199 8.16057C8.85849 8.17457 7.84999 8.97807 7.84999 8.97807C7.78203 9.03216 7.70115 9.06762 7.61532 9.08095C7.52948 9.09427 7.44166 9.08501 7.36049 9.05407C6.35272 8.67885 5.43736 8.09143 4.67641 7.33161C3.91546 6.57178 3.32669 5.65728 2.94999 4.65007C2.91659 4.56779 2.9057 4.47811 2.91844 4.39024C2.93119 4.30236 2.9671 4.21946 3.02249 4.15007C3.02249 4.15007 3.82599 3.14107 3.83949 3.12807C3.94163 3.02506 3.99893 2.88587 3.99893 2.74082C3.99893 2.59576 3.94163 2.45657 3.83949 2.35357C3.82399 2.33857 2.90349 1.14107 2.90349 1.14107C2.79894 1.04732 2.66249 0.997114 2.52212 1.00074C2.38174 1.00437 2.24806 1.06155 2.14849 1.16057L1.57349 1.66057C-1.24751 5.05257 7.38799 13.2091 10.3605 10.4001L10.816 9.87507C10.9227 9.7762 10.9868 9.63969 10.9948 9.49442C11.0027 9.34914 10.9538 9.20647 10.8585 9.09657Z" fill="#3D4B55"/>
</g>
<defs>
<clipPath id="clip0_360_267">
<rect width="12" height="12" fill="white"/>
</clipPath>
</defs>
</svg>
